<?xml version="1.0" encoding="UTF-8"?>
<svg xmlns="http://www.w3.org/2000/svg" viewBox="0 0 4032 3097.57">
  <defs>
    <style>
      .cls-1 {
        fill: #fb8072;
      }

      .cls-2 {
        mix-blend-mode: lighten;
        opacity: .33;
      }

      .cls-3 {
        fill: #8dd3c7;
      }

      .cls-4 {
        fill: #bebada;
      }

      .cls-5 {
        fill: #d9d9d9;
      }

      .cls-6 {
        fill: #ffed6f;
      }

      .cls-7 {
        fill: #bc80bd;
      }

      .cls-8 {
        fill: #80b1d3;
      }

      .cls-9 {
        fill: #ccebc5;
      }

      .cls-10 {
        isolation: isolate;
      }

      .cls-11 {
        fill: #c7b299;
      }

      .cls-12 {
        fill: #ffffb3;
      }

      .cls-13 {
        fill: #fdb462;
      }

      .cls-14 {
        fill: #fccde5;
      }

      .cls-15 {
        fill: #c7b299;
      }

      .cls-16 {
        fill: gray;
      }

      .cls-17 {
        fill: #b3de69;
      }
    </style>
  </defs>
  <g class="cls-10">
    <g id="districts">
      <g id="districts-2" data-name="districts" class="cls-2">
        <path id="_01_temple" data-name="01_temple" class="cls-14" d="M2375.13,1562.19c-.25,7.04-1.22,14.57-3.27,22.42-3.09,11.84-6.89,26.41-19.81,37.48-14.01,11.99-31.28,13.5-49.55,15.1-21.21,1.86-23.18-2.28-41.61,0-10.78,1.34-13.58,3.19-46.24,14.83-44.04,15.7-52.59,17.7-62.75,14.87-9.22-2.57-7.44-4.91-29.07-14.81-34.1-15.6-50.16-15.08-54.82-14.8-6.35.39-11.94,2.02-23.12,5.28-38.46,11.24-42.03,21.19-65.39,23.78-19.77,2.2-36.02-2.83-41.62-4.62-10.92-3.5-19.37-8.19-25.1-11.89-4.21-1.57-10.37-4.41-16.51-9.58-10.97-9.24-15.96-20.96-18.74-30.72-1.05-3.66-1.78-7.03-2.4-9.9-2.26-10.43-5.64-25.98,0-42.28,8.03-23.22,24.66-19.98,42.93-44.91,22.41-30.56,8.01-49.86,30.39-67.38,13.25-10.37,37.88-18.92,44.26-21.14,9.76-3.39,15.8-4.68,23.29-10.57,13.22-10.39,18.35-25.19,18.98-27.08,4.72-14.16.18-19.61,6.61-29.06,4.24-6.24,8.54-7.29,15.85-12.55,7.31-5.27,16.78-14.13,25.1-29.73.46-4.21,1.75-10.04,5.58-15.52,2.15-3.07,9.36-12.17,41.98-16.85,10.19-1.46,18.91-2.71,27.5-2.95,8.38-.23,16.61.51,25.92,2.95,9.11,2.4,39.11,10.28,41.7,26.43,1.04,6.5-2.48,14,2.64,22.45,1.68,2.78,3.83,4.98,5.39,6.59,5.62,5.78,11.07,8.75,13.11,9.93,9.41,5.46,20.31,15.81,25.1,25.76,4.43,9.21.83,12.25,2.64,27.08.26,2.14,5.66,42.3,32.37,56.15,9.34,4.84,10.68.97,21.14,5.28,25.1,10.38,35.1,40.09,40.29,55.49,2.71,8.06,7.95,24.23,7.23,44.47Z"/>
        <path id="_02_guard-hq" data-name="02_guard-hq" class="cls-17" d="M2158.52,1198.2v32.31c-.3,16.37-.61,32.73-.92,49.1-8.59.24-17.31,1.49-27.5,2.95-32.62,4.68-39.83,13.78-41.98,16.85-3.83,5.48-5.12,11.31-5.58,15.52-8.32,15.6-17.79,24.46-25.1,29.73-7.31,5.26-11.61,6.31-15.85,12.55-6.43,9.45-1.89,14.9-6.61,29.06-.63,1.89-5.76,16.69-18.98,27.08-7.49,5.89-13.53,7.18-23.29,10.57-6.38,2.22-31.01,10.77-44.26,21.14-22.38,17.52-7.98,36.82-30.39,67.38-18.27,24.93-34.9,21.69-42.93,44.91-5.64,16.3-2.26,31.85,0,42.28.62,2.87,1.35,6.24,2.4,9.9-7.95,1.23-18.07,2.85-27,4.51-15.95,2.95-31.91,7.17-63.17,15.49-10.87,2.9-22.52,6.05-34.87,9.48-3.8,1.06-11.73,4-22.7,4.74-4.51.31-9.1-6.69-11.74-7.27l2.19.31c-3.02-14.55-5.13-27.63-6.63-38.85,8.79-10.61,18.37-18.78,26.11-25.39,13.97-11.93,19.33-13.41,27.08-23.78,4.76-6.36,10.31-15.94,15.19-37.66,5.53-24.62,3.49-35.02,7.27-82.56,1.98-24.95,3.58-35.2,11.89-43.6,4.47-4.53,12.29-7.49,27.74-13.21,24.41-9.05,45.32-14.3,46.24-14.53,25.17-6.26,28.65-4.83,37.65-10.57,11.13-7.1,16.97-16.41,23.12-26.42,12.95-21.11,9.32-28.06,19.16-46.24,4.76-8.8,16.86-31.18,39.63-40.3,18.05-7.23,26.58.38,56.14-5.94,13.76-2.94,24.63-7.31,31.71-10.57,4.38-3.79,10.96-8.75,19.82-12.88,3.45-1.61,19.66-8.9,41.63-7.93,5.16.23,10,.88,14.53,1.84Z"/>
        <path id="_03_college" data-name="03_college" class="cls-12" d="M2735.17,1445.06c-5.83,21.09-20.84,32.99-26.43,36.99-6.18,15.09-10.64,28.46-13.87,39.3-3.01,10.1-5.38,19.46-7.8,30.14-11.78-.83-21.89-1.08-38.33-3.51-4.29.98-10.93,2.37-19.1,3.59-29.48,4.41-46.14,1.62-89.93,0-30.35-1.12-45.53-1.68-56.54,0-21.33,3.26-30.32,8.54-52.85,11.33-13.82,1.71-38.23.56-55.19-.71.72-20.24-4.52-36.41-7.23-44.47-5.19-15.4-15.19-45.11-40.29-55.49-10.46-4.31-11.8-.44-21.14-5.28-26.71-13.85-32.11-54.01-32.37-56.15-1.81-14.83,1.79-17.87-2.64-27.08-4.79-9.95-15.69-20.3-25.1-25.76-2.04-1.18-7.49-4.15-13.11-9.93-1.56-1.61-3.71-3.81-5.39-6.59-5.12-8.45-1.6-15.95-2.64-22.45-2.59-16.15-32.59-24.03-41.7-26.43-9.31-2.44-17.54-3.18-25.92-2.95.31-16.37.62-32.73.92-49.1v-32.3c15.39,3.26,27.34,10.05,36.98,15.66,26.93,15.65,24.84,25.15,44.25,32.36,18.83,7,36.13,3.76,56.15,0,17.91-3.35,20.75-6.91,65.39-19.15,12.38-3.4,18.52-4.87,27.09-5.29,5.09-.25,21.87-.65,42.27,7.27,20.75,8.05,19.49,14.73,42.28,25.76,7.24,3.51,22.7,10.84,42.93,13.21,21.06,2.47,24.79-3.08,54.83-3.96,25.34-.74,38.01-1.11,51.52,5.14,15.06,6.98,24.13,19.89,42.28,45.72,17.12,24.37,17.74,32.25,33.68,48.22,13.67,13.68,16.67,11.36,24.44,21.8,2.88,3.86,21.1,29.18,12.56,60.11Z"/>
        <path id="_04_university" data-name="04_university" class="cls-8" d="M2687.07,1551.49c-2.16,9.51-4.35,20.07-7.06,33.12-3.29,15.84-5.02,25.33-9.58,40.12-4.96,16.09-7.56,24.28-13.21,31.05-5.39,6.44-12.27,11.15-40.95,21.13-37.83,13.17-36.67,8.74-47.56,15.2-9.12,5.4-20.08,19.53-41.62,47.56-19.13,24.9-21.79,30.18-32.37,38.31-3.46,2.66-17.08,12.78-37.65,18.62-27.07,7.68-51.08,3.67-70.68.18-26.24-4.66-30.01-10.03-46.23-8.89-19.42,1.36-34.62,10.49-44.26,17.79-7.58,6.15-18.37,14.35-32.04,22.96-15.75,9.92-23.63,14.88-34.68,18.69-18.08,6.25-33.28,6.13-57.46,5.95-6.11-.05-13.22-.36-21.8-1.98-6.43-1.21-11.64-2.77-15.2-3.97-13.47-5.75-24.36-5.79-30.38-5.28-11.59.97-20.34,5.24-33.69,11.89-10.27,5.12-17.27,9.67-21.8,12.55-41.06,26.16-65.23,41.14-85.87,33.69-2.98-1.08-1.67-1.1-9.25-4.63-6.48-3.01-23.47-10.92-40.95-13.21-15.01-1.96-13.46,2.43-37.65,2.65-14.08.12-25.65.13-39.63-4.63-7.97-2.7-20.39-7.1-29.73-18.49-5.53-6.75-6.98-12.3-10.57-22.46-4.63-13.11-12.62-35.7-25.1-54.83-8.34-12.78-16.76-25.69-32.37-31.7-5.35-2.07-12.14-3.55-23.12-5.95-17.08-3.73-22.02-3.4-27.74-8.59-7.07-6.42-8.93-15.49-9.25-17.17-.94-5.01-.49-9.24,0-11.89,1.42-10.16,3.73-24.43,7.6-41.31,6.13-26.75,9.19-40.13,16.84-53.48,3.5-6.11,7.44-11.6,11.55-16.55,1.5,11.22,3.61,24.3,6.63,38.85l-2.19-.31c2.64.58,7.23,7.58,11.74,7.27,10.97-.74,18.9-3.68,22.7-4.74,12.35-3.43,24-6.58,34.87-9.48,31.26-8.32,47.22-12.54,63.17-15.49,8.93-1.66,19.05-3.28,27-4.51,2.78,9.76,7.77,21.48,18.74,30.72,6.14,5.17,12.3,8.01,16.51,9.58,5.73,3.7,14.18,8.39,25.1,11.89,5.6,1.79,21.85,6.82,41.62,4.62,23.36-2.59,26.93-12.54,65.39-23.78,11.18-3.26,16.77-4.89,23.12-5.28,4.66-.28,20.72-.8,54.82,14.8,21.63,9.9,19.85,12.24,29.07,14.81,10.16,2.83,18.71.83,62.75-14.87,32.66-11.64,35.46-13.49,46.24-14.83,18.43-2.28,20.4,1.86,41.61,0,18.27-1.6,35.54-3.11,49.55-15.1,12.92-11.07,16.72-25.64,19.81-37.48,2.05-7.85,3.02-15.38,3.27-22.42,16.96,1.27,41.37,2.42,55.19.71,22.53-2.79,31.52-8.07,52.85-11.33,11.01-1.68,26.19-1.12,56.54,0,43.79,1.62,60.45,4.41,89.93,0,8.17-1.22,14.81-2.61,19.1-3.59,16.44,2.43,26.55,2.68,38.33,3.51Z"/>
        <path id="_05_aeroport" data-name="05_aeroport" class="cls-3" d="M2184.76,1103.52c-.49,16.82-.74,25.23-3.37,34.38-3.29,11.47-6.64,13.79-13.02,28.74-5.32,12.49-8.24,23.19-9.85,30.12v1.44c-4.53-.96-9.37-1.61-14.53-1.84-21.97-.97-38.18,6.32-41.63,7.93-8.86,4.13-15.44,9.09-19.82,12.88-7.08,3.26-17.95,7.63-31.71,10.57-29.56,6.32-38.09-1.29-56.14,5.94-22.77,9.12-34.87,31.5-39.63,40.3-9.84,18.18-6.21,25.13-19.16,46.24-6.15,10.01-11.99,19.32-23.12,26.42-9,5.74-12.48,4.31-37.65,10.57-.92.23-21.83,5.48-46.24,14.53-15.45,5.72-23.27,8.68-27.74,13.21-8.31,8.4-9.91,18.65-11.89,43.6-3.78,47.54-1.74,57.94-7.27,82.56-4.88,21.72-10.43,31.3-15.19,37.66-7.75,10.37-13.11,11.85-27.08,23.78-7.74,6.61-17.32,14.78-26.11,25.39-1.16-8.64-1.95-16.18-2.52-22.46-2.31-25.49-1.33-35.36-4.12-61.17-1.23-11.3-2.98-23.84-8.92-54.32-4.93-25.3-12.13-59.76-22.28-101.52-7.23-14.92-12.24-27.07-21.67-44.76-.98-2.38-1.95-4.75-2.92-7.09,3.3-3.3,5.63-5.63,10.26-11.18,6.1-7.32,19.18-23.01,26.75-38.64,19.14-39.48-6.46-58.71,10.9-98.09,3.39-7.69,15.18-34.45,40.63-44.59,16.88-6.73,27.22-1.12,43.59-11.89,5.88-3.86,12.26-11.87,24.77-27.74,19.2-24.33,19.29-27.93,26.75-32.7,14.7-9.38,31.78-6.56,47.56-3.96,17.77,2.93,36.2,11.68,72.33,29.07,22.15,10.65,29.67,15.07,42.61,14.53,14.95-.63,28.83-7.51,35.67-10.9,16.58-8.23,18.53-13.92,29.72-16.85,9.17-2.39,20.85-1.96,35.67,4.96,6.19,2.15,15.96,4.72,27.75,3.96,11.8-.75,19.94-5.22,23.78-5.94,13.31-2.52,25.49-3.48,36.89-3.54-1.59,10.46-1.83,12.74-2.05,16.66-.75,13.62.53,15.53,0,33.74Z"/>
        <path id="_06_arts" data-name="06_arts" class="cls-13" d="M2997.59,1278.41c-.23,10.94-1.91,20.71-2.81,25.95-2.94,17.05-6.7,38.9-22.48,47.56-5.6,3.08-12.39,4.31-15.85,10.9-3.9,7.42-.73,16.24.99,20.81,9.98,26.59,21.79,54.42,26.75,67.37,13.02,33.98,10.7,48.4,9.91,52.52-2.64,13.82-9.34,23.56-10.9,25.76-15.69,22.13-35.11,19.33-44.01,37.32-1.68-.81-33.68-4.27-36.91-5.47-19.13-7.09-34.89-5.11-47.59-4.53-19.77.9-12.75-2.47-54.77-4.58-17.35-.86-29.93-.86-51.12-.85-19.08,0-37.41.31-54.94.85-2.35-.21-4.6-.38-6.79-.53,2.42-10.68,4.79-20.04,7.8-30.14,3.23-10.84,7.69-24.21,13.87-39.3,5.59-4,20.6-15.9,26.43-36.99,8.54-30.93-9.68-56.25-12.56-60.11-7.77-10.44-10.77-8.12-24.44-21.8-15.94-15.97-16.56-23.85-33.68-48.22-18.15-25.83-27.22-38.74-42.28-45.72-13.51-6.25-26.18-5.88-51.52-5.14-30.04.88-33.77,6.43-54.83,3.96-20.23-2.37-35.69-9.7-42.93-13.21-22.79-11.03-21.53-17.71-42.28-25.76-20.4-7.92-37.18-7.52-42.27-7.27-8.57.42-14.71,1.89-27.09,5.29-44.64,12.24-47.48,15.8-65.39,19.15-20.02,3.76-37.32,7-56.15,0-19.41-7.21-17.32-16.71-44.25-32.36-9.64-5.61-21.59-12.4-36.98-15.66v-1.45c1.61-6.93,4.53-17.63,9.85-30.12,6.38-14.95,9.73-17.27,13.02-28.74,2.63-9.15,2.88-17.56,3.37-34.38.53-18.21-.75-20.12,0-33.74.22-3.92.46-6.2,2.05-16.66,16.36-.08,31.13,1.73,45.35,3.54,22.86,2.9,40.88,5.19,63.74,13.87,23.08,8.75,21.83,12.91,51.19,25.13,20.47,8.51,38.01,15.63,62.42,17.47,9.3.7,24.73,1.74,43.6-2.97,18.69-4.67,19.1-9.57,34.68-12.88,2.63-.56,28.64-5.74,54.49,5.94,22.46,10.15,18.52,21.15,38.65,33.69,29.1,18.14,78.6,20.85,108.99,1.98,6.23-3.86,15.57-11.07,29.72-11.89,11.58-.66,20.61,3.28,28.74,6.94,23.51,10.58,21.57,19.99,42.6,28.53,5.1,2.08,19,7.13,36.66,6.15,7.37-.41,10.63-1.6,17.84-2.97,11.25-2.14,35.71-6.79,54.49,0,20.85,7.53,31.83,28.11,36.66,39.63,3.14,1.95,7.97,4.95,13.87,8.59,30.98,19.09,30.61,18.3,32.7,20.14,12.09,10.71,14.72,28.76,14.39,44.4Z"/>
        <path id="_07_hot-springs" data-name="07_hot-springs" class="cls-15" d="M2937.62,1597.65c-.06,34.23-.09,51.34-5.94,70.32-3.41,11.06-10.23,27.59-24.77,41.31-6.37,6.01-15.08,14.01-25.76,13.21-7.9-.59-9.2-5.41-18.83-7.28-11.67-2.28-21.75,2.48-27.74,5.3-11.5,5.42-18.16,12.98-25.76,21.8-9,10.43-10,14.46-19.82,28.73-3.7,5.37-14.02,20.26-27.74,34.64-7.88,8.27-19.86,19.48-36.66,30.76-17.3,11.6-32.46,21.23-44.59,28.73-5.56,3.44-10.79,6.62-15.69,9.56-13.34,8-24.26,14.26-32.86,19.17-16.69,9.54-31.11,17.44-42.28,23.45-24.14,33.36-49.95,40.39-59.45,42.28-14.15,2.81-27.09,1.16-46.56-1.32-18.9-2.41-37.7-6.97-52.52-10.57-26.42-6.42-34.56-9.78-44.92-5.29-8.12,3.54-9.27,8.29-19.81,21.14-9.21,11.23-27.04,32.97-54.17,44.92-18.06,7.96-34.46,9.03-39.63,9.25-9.82.41-17.5-.63-22.46-1.32-16.86-2.37-27.13-6.83-38.31-10.57-1.02-.35-2.93-.98-5.51-1.79-.12-.04-.23-.07-.35-.11-.6-.19-1.23-.38-1.9-.58,3.83-13.46,11.41-37.77,11.9-41.6,2.48-23,2.92-43.21,2.54-59.7-.4-17.95-2.99-38.18-4.76-50.67,5.26-.9,10.45-2.2,15.91-4.09,11.05-3.81,18.93-8.77,34.68-18.69,13.67-8.61,24.46-16.81,32.04-22.96,9.64-7.3,24.84-16.43,44.26-17.79,16.22-1.14,19.99,4.23,46.23,8.89,19.6,3.49,43.61,7.5,70.68-.18,20.57-5.84,34.19-15.96,37.65-18.62,10.58-8.13,13.24-13.41,32.37-38.31,21.54-28.03,32.5-42.16,41.62-47.56,10.89-6.46,9.73-2.03,47.56-15.2,28.68-9.98,35.56-14.69,40.95-21.13,5.65-6.77,8.25-14.96,13.21-31.05,4.56-14.79,6.29-24.28,9.58-40.12,2.71-13.05,4.9-23.61,7.06-33.12,2.19.15,4.44.32,6.79.53,17.53-.54,35.86-.85,54.94-.85,21.19-.01,33.77-.01,51.12.85,42.02,2.11,35,5.48,54.77,4.58,12.7-.58,28.46-2.56,47.59,4.53,3.23,1.2,35.23,4.66,36.91,5.47-2.85,5.75-1.52,7.36-1.57,31.05Z"/>
        <path id="_08_financial" data-name="08_financial" class="cls-6" d="M2215.49,1961.79c-.49,3.83-8.07,28.14-11.9,41.6-9.52-2.85-25.6-7.06-41.12-8.09-7.56-.5-41.73-2.76-71.34,17.17-17.79,11.98-12.14,17.29-39.63,42.28-17.49,15.89-31.18,28.03-52.85,33.03-19.57,4.51-35.79.92-39.63,0-10.66-2.56-17.97-6.58-25.1-10.57-20.15-11.28-38.96-21.82-58.79-33.03-14.61,2.66-25.87,6.39-33.36,9.25-16.96,6.46-21.49,11.11-34.68,12.88-.23.03-.45.06-.68.08-11.62,1.44-20.93-.54-28.05-2.06-19.14-4.09-22.72-10.29-38.64-13.88-14.27-3.21-17.2,1.59-35.67,0-19.46-1.66-40.99-3.51-63.42-16.84-8.51-5.06-26.26-15.61-36.66-36.66-5.73-11.6-6.63-21.94-8.44-42.61-2.12-24.1.29-30.55-.47-56.47-.62-20.89-1.12-37.79-5.95-55.49-6.16-22.56-13.2-23.87-33.69-59.45,0,0-44.58-77.41-27.74-107.01.34-.59.72-1.16.72-1.16.97-1.46,1.9-2.41,2.14-2.66.9-.95,2.95-3.65,7.05-9.06,23.22-30.65,34.83-45.98,38.64-64.4,1.16-5.63.45-16.41-.99-37.96-1-14.95-2.43-27.9-5.04-47.25-1.64-12.15-6.69-48.6-10.81-87.2-1.6-14.89-2.82-28.05,4.95-40.62,5.5-8.9,13.33-14.01,18.83-16.84,5.36-2.72,13.23-7.15,21.79-13.88,10.43-8.19,14.94-14.34,28.74-29.72,9.45-10.53,14-15.08,17.48-18.55.97,2.34,1.94,4.71,2.92,7.09,9.43,17.69,14.44,29.84,21.67,44.76,10.15,41.76,17.35,76.22,22.28,101.52,5.94,30.48,7.69,43.02,8.92,54.32,2.79,25.81,1.81,35.68,4.12,61.17.57,6.28,1.36,13.82,2.52,22.46-4.11,4.95-8.05,10.44-11.55,16.55-7.65,13.35-10.71,26.73-16.84,53.48-3.87,16.88-6.18,31.15-7.6,41.31-.49,2.65-.94,6.88,0,11.89.32,1.68,2.18,10.75,9.25,17.17,5.72,5.19,10.66,4.86,27.74,8.59,10.98,2.4,17.77,3.88,23.12,5.95,15.61,6.01,24.03,18.92,32.37,31.7,12.48,19.13,20.47,41.72,25.1,54.83,3.59,10.16,5.04,15.71,10.57,22.46,9.34,11.39,21.76,15.79,29.73,18.49,13.98,4.76,25.55,4.75,39.63,4.63,24.19-.22,22.64-4.61,37.65-2.65,17.48,2.29,34.47,10.2,40.95,13.21,7.58,3.53,6.27,3.55,9.25,4.63,20.64,7.45,44.81-7.53,85.87-33.69,4.53-2.88,11.53-7.43,21.8-12.55,13.35-6.65,22.1-10.92,33.69-11.89,6.02-.51,16.91-.47,30.38,5.28,3.56,1.2,8.77,2.76,15.2,3.97,8.58,1.62,15.69,1.93,21.8,1.98,16.88.13,29.38.22,41.55-1.86,1.77,12.49,4.36,32.72,4.76,50.67.38,16.49-.06,36.7-2.54,59.7Z"/>
        <path id="_09_cathedral" data-name="09_cathedral" class="cls-14" d="M2189.57,1035.3c-1.21,7.79-2.1,13.5-2.76,17.82-11.4.06-23.58,1.02-36.89,3.54-3.84.72-11.98,5.19-23.78,5.94-11.79.76-21.56-1.81-27.75-3.96-14.82-6.92-26.5-7.35-35.67-4.96-11.19,2.93-13.14,8.62-29.72,16.85-6.84,3.39-20.72,10.27-35.67,10.9-12.94.54-20.46-3.88-42.61-14.53-36.13-17.39-54.56-26.14-72.33-29.07-15.78-2.6-32.86-5.42-47.56,3.96-7.46,4.77-7.55,8.37-26.75,32.7-12.51,15.87-18.89,23.88-24.77,27.74-16.37,10.77-26.71,5.16-43.59,11.89-25.45,10.14-37.24,36.9-40.63,44.59-17.36,39.38,8.24,58.61-10.9,98.09-7.57,15.63-20.65,31.32-26.75,38.64-4.63,5.55-6.96,7.88-10.26,11.18-19.78-47.97-37.76-88.46-52.16-119.84-23.12-50.38-42.19-88.62-61.28-126.89-12.26-24.57-20.04-62.45-51.55-100.94-7.12-8.69-10.71-10.7-17.99-19.75-2.62-3.26-6.84-6.07-12.05-8.89,1.04-1.09,2.1-2.24,3.16-3.45,11.18-12.71,16.37-25.57,26.75-51.29,19.84-49.11,12.92-67.25,30.72-78.51,4.14-2.62,16.3-4.06,40.62-6.94,32-3.78,40.73-1.6,45.58,0,12.04,3.99,13.14,8.77,28.74,18.83,3.42,2.21,25.18,16.01,52.42,21.8,30.24,6.42,36.46-3.57,60.53,4.95,11.04,3.91,19.25,10.2,35.67,22.79,35.72,27.38,38.32,40.3,57.47,44.59,10.05,2.25,9.97-1.17,43.59-6.94,32.16-5.52,51.13-8.77,74.32-4.95,12.51,2.06,29.57,4.87,46.56,16.84,24.05,16.95,25.84,36.65,50.54,48.55,11.54,5.57,22.54,6.75,29.72,6.94,17.87,1.91,31.13-1.12,40.63-4.96,15.19-6.12,16.93-12.74,32.54-17.83,3.63-1.18,5.43-1.45,20.08-2.11,5.9,5.47,10.69,11.94,13.76,19.94,4.36,11.38,5.38,26.2,5.5,28.08.6,9.36-1.41,22.59-5.48,48.66Z"/>
        <path id="_10_laboratory" data-name="10_laboratory" class="cls-4" d="M3293.71,1216.64c-2.92,1.93-34.05,11.44-37.59,13.3-8.53,4.48-16.62,7.33-23.55,9.18-13.61,5.49-33.15,11.5-56.99,12.29-24.82.83-30.35-4.81-55.63-2.97-11.15.81-26.97,5.03-58.62,13.47-24.81,6.61-29.76,8.66-47.5,12.88-5.74,1.36-11.17,2.57-16.24,3.62.33-15.64-2.3-33.69-14.39-44.4-2.09-1.84-1.72-1.05-32.7-20.14-5.9-3.64-10.73-6.64-13.87-8.59-4.83-11.52-15.81-32.1-36.66-39.63-18.78-6.79-43.24-2.14-54.49,0-7.21,1.37-10.47,2.56-17.84,2.97-17.66.98-31.56-4.07-36.66-6.15-21.03-8.54-19.09-17.95-42.6-28.53-8.13-3.66-17.16-7.6-28.74-6.94-14.15.82-23.49,8.03-29.72,11.89-30.39,18.87-79.89,16.16-108.99-1.98-20.13-12.54-16.19-23.54-38.65-33.69-25.85-11.68-51.86-6.5-54.49-5.94-15.58,3.31-15.99,8.21-34.68,12.88-18.87,4.71-34.3,3.67-43.6,2.97-24.41-1.84-41.95-8.96-62.42-17.47-29.36-12.22-28.11-16.38-51.19-25.13-22.86-8.68-40.88-10.97-63.74-13.87-14.22-1.81-28.99-3.62-45.35-3.54.66-4.32,1.55-10.03,2.76-17.82,4.07-26.07,6.08-39.3,5.48-48.66-.12-1.88-1.14-16.7-5.5-28.08-3.07-8-7.86-14.47-13.76-19.94,4.93-.22,11.31-.49,19.71-.86,24.06-1.06,31.33-1.44,43.59-.99,13.68.5,20.65.79,26.75,2.97,14.56,5.18,19.5,14.63,30.06,24.77,17.4,16.71,22.75,9.1,61.1,30.71,29.39,16.57,32.29,24.44,51.52,27.76,14.76,2.55,29.26.72,34.68,0,7.11-.94,9.35-1.83,35.67-8.93,28.37-7.65,32.76-8.49,39.63-7.93,9.46.78,11.71,3.25,26.76,7.93,12.02,3.74,27.77,8.63,43.59,8.92,23.06.42,41.4-9.02,60.44-18.83,19.4-9.98,19.29-13.81,33.69-18.82,15.82-5.51,24.08-3.72,46.57-4.96,15.13-.83,43.55-2.58,74.31-12.88,23.91-8.01,36.52-12.23,47.56-24.77,8.67-9.85,10.67-18.33,23.78-27.74,1.92-1.38,11.39-8.03,25.76-11.73,11.08-2.86,19.78-2.61,35.67-2.14,19.03.55,23.09,2.72,33.69,0,4.52-1.16,9.29-3.42,18.83-7.93,18.67-8.83,20.7-11.99,27.74-12.88,5.93-.75,14.85.18,26.75,8.92,9.67-.22,22.49,1.18,30.72,9.9,6.15,6.52,6.27,13.46,8.66,27.84.57,3.46,1.28,7.37,2.24,11.8,4.66,21.59,6.99,32.38,13.87,41.61,7.39,9.93,12.62,9.31,46.41,28.74,30.36,17.44,33.83,22.36,35.83,26.2,7.73,14.9-2.24,22.18,0,46.13,3.04,32.55,24.99,56.57,36.66,69.35,4.18,4.58,13.02,11.97,30.71,26.76,24.71,20.64,37.69,29.84,44.97,39.1Z"/>
        <path id="_11_mining" data-name="11_mining" class="cls-5" d="M3359.72,1476.77c-3.77,27.56-5.75,50.78-6.8,69.54-.42,7.48-.69,14.24-.86,20.29-.82,28.2.27,46.74-11.48,58.13-3.17,3.08-12.19,11.9-18.94,25.96-1.12,2.33-1.99,5.02-2.55,8.39-2.55,15.25,3.57,30.28,4.96,33.69,4.49,11.05,8.17,11.99,11.89,22.44,2.56,7.22,2.24,10.82,2.97,30.07,1.32,34.94,3,39.4,0,51.52-2.56,10.34-3.83,7.31-7.93,20.81-7.75,25.53-2.77,34.94-10.9,49.54-3.91,7.04-9.21,11.3-19.81,19.82-26.39,21.21-38.02,16.54-46.57,30.38-7.56,12.24,1.25,16.35-4.96,46.9-4.02,19.84-7.66,17.7-11.89,39.43-3.47,17.81-2.22,25.36-8.91,36.87-3.39,5.81-8.28,14.22-16.85,17.83-16.93,7.14-29.35-12.4-63.41-21.8-10.43-2.88-44.28-12.22-66.39,3.97-12.51,9.16-7.86,16.68-23.78,36.66-6.44,8.08-22.42,27.62-49.54,36.4-24.59,7.96-46.57,3.25-57.47,0-12.07-2.93-29.77-5.41-49.54-.73-12.73,3.01-18.47,7.14-27.08,12.28-8.68-3.94-17.88-7.34-27.43-9.36-6.45-14.29-10.12-13.35-16.57-27.64-30.8-34.65-53.55-64.36-68.61-85.06-19.64-26.98-28.64-41.97-50.79-71.32-17.83-23.62-33.92-42.93-46.16-57.05,4.9-2.94,10.13-6.12,15.69-9.56,12.13-7.5,27.29-17.13,44.59-28.73,16.8-11.28,28.78-22.49,36.66-30.76,13.72-14.38,24.04-29.27,27.74-34.64,9.82-14.27,10.82-18.3,19.82-28.73,7.6-8.82,14.26-16.38,25.76-21.8,5.99-2.82,16.07-7.58,27.74-5.3,9.63,1.87,10.93,6.69,18.83,7.28,10.68.8,19.39-7.2,25.76-13.21,14.54-13.72,21.36-30.25,24.77-41.31,5.85-18.98,5.88-36.09,5.94-70.32.05-23.69-1.28-25.3,1.57-31.05,8.9-17.99,28.32-15.19,44.01-37.32,1.56-2.2,8.26-11.94,10.9-25.76.79-4.12,3.11-18.54-9.91-52.52-4.96-12.95-16.77-40.78-26.75-67.37-1.72-4.57-4.89-13.39-.99-20.81,3.46-6.59,10.25-7.82,15.85-10.9,15.78-8.66,19.54-30.51,22.48-47.56.9-5.24,2.58-15.01,2.81-25.95,5.07-1.05,10.5-2.26,16.24-3.62,17.74-4.22,22.69-6.27,47.5-12.88,31.65-8.44,47.47-12.66,58.62-13.47,25.28-1.84,30.81,3.8,55.63,2.97,23.84-.79,43.38-6.8,56.99-12.29,6.93-1.85,15.02-4.7,23.55-9.18,3.54-1.86,34.67-11.37,37.59-13.3,3.03,3.85,5.07,7.72,6.56,12.42,2.51,7.96.99,10.57-.99,34.68-3.74,45.37-5.61,68.06,0,84.22,9.69,27.92,35.41,52.77,41.3,58.46,7.99,7.71,14.5,12.55,19.14,22.79,7.62,16.83,4.13,34.92,0,47.56Z"/>
        <path id="_12_market" data-name="12_market" class="cls-17" d="M2873.88,2125.16c-3.86,2.31-8.29,4.82-14.19,7.53-10.49,4.82-55.13,25.33-93.48,9.91-22.3-8.97-19.57-20.87-41.61-26.75-28.83-7.69-55.77,6.73-65.4,11.89-15.24,8.16-31.38,16.8-36.66,33.69-6.06,19.37,8.4,29.73,0,48.55-2.8,6.27-9.79,12.76-23.78,25.76-10.65,9.9-15.98,14.85-23.78,19.82-10.01,6.38-26.89,17.13-47.56,15.85-14.93-.93-27.19-7.84-39.63-14.86-16.11-9.09-20.01-15.39-29.73-14.87-9.49.52-16.06,7.11-24.77,15.86-4.87,4.89-17.3,17.68-23.01,38.64-2.52,9.25-1.29,11.13-1.76,38.64-.52,30.9-.88,46.61-5.94,59.45-6.08,15.42-15.06,25.48-19.82,30.72-6.86,7.55-12.43,13.53-21.8,16.84-9.65,3.41-18.19,2.18-25.76.99-20.62-3.23-25.17-12.29-39.3-9.91-6.08,1.03-10.98,3.67-15.19,5.95-9.01,4.86-14.66,10.58-17.84,13.87-21.92,22.65-19.74,26.04-30.71,34.68-16.89,13.29-35.71,16.05-41.62,16.84-9.79,1.32-18.06.76-23.78,0-16.82-1.62-30.3-.54-39.63.79-10.61,1.52-17.73,3.63-23.94,5.15-2.26-8.25-4.69-17.31-7.22-27.08-2.62-3.64-9.5-10.4-12.11-14.04-8.39-10.09-12.51-17.07-20.89-27.16-51.59-75.12-61.97-89.53-61.97-89.53-24.19-32.87-34.9-45.16-60.83-81.92-18.75-26.58-32.74-47.94-43.41-64.25-25.11-38.39-30.77-49.2-53.76-84.81-8.76-13.56-21.11-32.39-36.59-55.01.23-.02.45-.05.68-.08,13.19-1.77,17.72-6.42,34.68-12.88,7.49-2.86,18.75-6.59,33.36-9.25,19.83,11.21,38.64,21.75,58.79,33.03,7.13,3.99,14.44,8.01,25.1,10.57,3.84.92,20.06,4.51,39.63,0,21.67-5,35.36-17.14,52.85-33.03,27.49-24.99,21.84-30.3,39.63-42.28,29.61-19.93,63.78-17.67,71.34-17.17,16.82,1.11,34.29,5.96,43.37,8.78,2.58.81,4.49,1.44,5.51,1.79,11.18,3.74,21.45,8.2,38.31,10.57,4.96.69,12.64,1.73,22.46,1.32,5.17-.22,21.57-1.29,39.63-9.25,27.13-11.95,44.96-33.69,54.17-44.92,10.54-12.85,11.69-17.6,19.81-21.14,10.36-4.49,18.5-1.13,44.92,5.29,14.82,3.6,33.62,8.16,52.52,10.57,19.47,2.48,32.41,4.13,46.56,1.32,9.5-1.89,35.31-8.92,59.45-42.28,11.17-6.01,25.59-13.91,42.28-23.45,8.6-4.91,19.52-11.17,32.86-19.17,12.24,14.12,28.33,33.43,46.16,57.05,22.15,29.35,31.15,44.34,50.79,71.32,15.06,20.7,37.81,50.41,68.61,85.06,6.45,14.29,10.12,13.35,16.57,27.64,9.55,2.02,18.75,5.42,27.43,9.36Z"/>
        <path id="_13_old-seminarios" data-name="13_old-seminarios" class="cls-7" d="M2103.19,2510.19c-6.83,1.68-12.57,2.64-20.65,1.3-15.46-2.56-12.64-9.06-30.71-13.81-23.14-6.08-51.89-1.76-54.5-1.35-5.92.92-11.5,2.19-18.5,0-7.97-2.51-10.22-7.15-19.15-11.89-7.31-3.89-11.99-4.07-19.82-5.95-2.19-.53-27.56-6.84-44.58-21.8-12.65-11.11-7.68-15.56-20.15-29.72-.98-1.12-24.92-27.54-60.11-29.73-9.32-.58-10.5,1.1-43.6,8.92-36.23,8.56-54.34,12.84-67.37,12.88-31.16.1-54.96-11.24-66.39-16.84-15.07-7.38-36.02-17.64-51.52-39.64-15.59-22.11-6.79-29.3-23.78-59.45-8.49-15.04-24.02-42.6-50.53-48.55-12.47-2.79-13.86,2.22-33.69,0-10.08-1.12-28.49-3.39-46.57-15.85-19.84-13.67-28.32-32.05-31.71-39.63-8.31-18.64-8.69-34.48-8.92-55.49-.71-67.09,1.28-80.13,0-101.06-1.34-22.1-6.37-53.87-23.77-92.15-2.41-11.94-6.14-30.21-10.9-52.51-5.52-25.83-8.58-39.07-10.81-49-.77-3.42-1.43-6.45-2.07-9.46-13.09-61.9-28.06-132.71,4.95-166.46,8.71-8.91,15.62-10.08,25.76-23.78,16.63-22.46,18.31-46.01,18.83-54.99.85-14.78-2.23-13.58-2.98-33.5-.49-13.25-1.28-41.29,10.9-67.07,8.17-17.28,14.67-17.68,25.76-33.69,23.86-34.41,23.27-75.05,22.79-108-.63-43.46-10.52-51.96-2.97-84.22,5.73-24.49,15.86-44.59,15.86-44.59,10.77-21.36,17.79-24.98,23.77-43.59,5.25-16.34,5.1-29.88,4.96-41.62-.18-15.3-.38-32.31-9.91-49.54-3.52-6.36-3.7-4.42-12.88-17.83-5.7-8.33-13.71-20.12-20.81-35.23-4.57-9.71-10.04-23.5-13.87-41.07-2.72-8.5-5.12-20.86-.99-33.68,4.35-13.51,13.36-19.47,23.59-30.24,5.21,2.82,9.43,5.63,12.05,8.89,7.28,9.05,10.87,11.06,17.99,19.75,31.51,38.49,39.29,76.37,51.55,100.94,19.09,38.27,38.16,76.51,61.28,126.89,14.4,31.38,32.38,71.87,52.16,119.84-3.48,3.47-8.03,8.02-17.48,18.55-13.8,15.38-18.31,21.53-28.74,29.72-8.56,6.73-16.43,11.16-21.79,13.88-5.5,2.83-13.33,7.94-18.83,16.84-7.77,12.57-6.55,25.73-4.95,40.62,4.12,38.6,9.17,75.05,10.81,87.2,2.61,19.35,4.04,32.3,5.04,47.25,1.44,21.55,2.15,32.33.99,37.96-3.81,18.42-15.42,33.75-38.64,64.4-4.1,5.41-6.15,8.11-7.05,9.06-.24.25-1.17,1.2-2.14,2.66,0,0-.38.57-.72,1.16-16.84,29.6,27.74,107.01,27.74,107.01,20.49,35.58,27.53,36.89,33.69,59.45,4.83,17.7,5.33,34.6,5.95,55.49.76,25.92-1.65,32.37.47,56.47,1.81,20.67,2.71,31.01,8.44,42.61,10.4,21.05,28.15,31.6,36.66,36.66,22.43,13.33,43.96,15.18,63.42,16.84,18.47,1.59,21.4-3.21,35.67,0,15.92,3.59,19.5,9.79,38.64,13.88,7.12,1.52,16.43,3.5,28.05,2.06,15.48,22.62,27.83,41.45,36.59,55.01,22.99,35.61,28.65,46.42,53.76,84.81,10.67,16.31,24.66,37.67,43.41,64.25,25.93,36.76,36.64,49.05,60.83,81.92,0,0,10.38,14.41,61.97,89.53,8.38,10.09,12.5,17.07,20.89,27.16,2.61,3.64,9.49,10.4,12.11,14.04,2.53,9.77,4.96,18.83,7.22,27.08Z"/>
        <path id="_14_graveyard" data-name="14_graveyard" class="cls-16" d="M2175.79,938.62c-14.65.66-16.45.93-20.08,2.11-15.61,5.09-17.35,11.71-32.54,17.83-9.5,3.84-22.76,6.87-40.63,4.96-7.18-.19-18.18-1.37-29.72-6.94-24.7-11.9-26.49-31.6-50.54-48.55-16.99-11.97-34.05-14.78-46.56-16.84-23.19-3.82-42.16-.57-74.32,4.95-33.62,5.77-33.54,9.19-43.59,6.94-19.15-4.29-21.75-17.21-57.47-44.59-16.42-12.59-24.63-18.88-35.67-22.79-24.07-8.52-30.29,1.47-60.53-4.95-27.24-5.79-49-19.59-52.42-21.8-15.6-10.06-16.7-14.84-28.74-18.83-4.85-1.6-13.58-3.78-45.58,0-24.32,2.88-36.48,4.32-40.62,6.94-17.8,11.26-10.88,29.4-30.72,78.51-10.38,25.72-15.57,38.58-26.75,51.29-1.06,1.21-2.12,2.36-3.16,3.45-6.52-3.52-14.6-7.04-23.03-11.42-22.27-11.58-26.79-11.55-41.18-19.78-15.41-8.8-14.44-11.23-46.85-36.61-17.24-13.5-28.49-22.3-44.82-32.97-20.75-13.57-25.28-14.18-36.57-23.31-15.96-12.92-15.77-27.97-32.98-38.94-6.88-4.39-9.03-4.08-13.34-5.25-5.66-1.22-11.62-2.64-17.76-4.15,3.21-21.46,3.69-22.28,3.07-26.21-1.22-7.74-3.7-8.5-3.3-14.54.43-6.73,3.99-13.22,8.58-17.17,4.79-4.11,10.57-5.36,31.05-4.63,20.72.75,28.83,2.52,46.24,1.99,16.65-.52,22.11-2.54,25.76-6.61,4.33-4.83,5.11-11.4,5.94-18.49,1.39-11.79-1.69-13.88,0-22.46,2.45-12.4,11.25-20.04,12.55-21.14,8.39-7.07,17.58-8.02,27.09-8.99,7.02-.72,21.15-2.17,36.33,4.37,18.73,8.06,20.77,20.41,35.01,20.47,1.47.01,10.49.05,17.17-5.94,6.74-6.05,4.48-12.31,10.57-16.52,5.73-3.96,13.35-2.28,23.12,0,13.35,3.13,22.65,8.33,23.12,8.59,19.61,10.97,40.85,17.15,56.8,21.8,30.03,8.74,31.51.53,68.04,9.25,17.96,4.28,14.22,5.46,46.9,15.03,48.7,14.25,59.81,12.45,64.73,11.39,15.84-3.41,18.7-10.08,36.33-11.23,4.77-.31,19.16-1.08,34.35,5.94,16.3,7.54,18.75,17.23,34.35,30.39,8.29,6.99,21.65,16.1,42.28,22.46,6.48,1.14,15.81,2.75,27.08,4.62,7.11,1.18,12.9,2.16,17.7,2.93h0c.09.54.19.96.3,1.27.03.09.2.57.41,1.24.21.68.66,2.2,1.01,4.28.12.71.19,1.21.28,1.97.23,1.8.32,3.01.36,3.54,0,0,.19,2.06,1.43,5.51,10.38,29.01,81.73,68.25,81.73,68.25,67.3,37.02,47.61,52.03,106.94,80.25,18.41,8.76,38.77,16.1,52.84,29.12h.01Z"/>
        <path id="_15_timber" data-name="15_timber" class="cls-17" d="M3249.35,818.76c-4.87,2.88-33.47,21.53-38.34,24.41-16.43,9.43-30.15,17.84-40.54,24.38-13.55,8.54-33.61,21.23-58.46,39.49-7.02,5.16-18.24,12.68-28.99,19.91-2.39-14.38-2.51-21.32-8.66-27.84-8.23-8.72-21.05-10.12-30.72-9.9-11.9-8.74-20.82-9.67-26.75-8.92-7.04.89-9.07,4.05-27.74,12.88-9.54,4.51-14.31,6.77-18.83,7.93-10.6,2.72-14.66.55-33.69,0-15.89-.47-24.59-.72-35.67,2.14-14.37,3.7-23.84,10.35-25.76,11.73-13.11,9.41-15.11,17.89-23.78,27.74-11.04,12.54-23.65,16.76-47.56,24.77-30.76,10.3-59.18,12.05-74.31,12.88-22.49,1.24-30.75-.55-46.57,4.96-14.4,5.01-14.29,8.84-33.69,18.82-19.04,9.81-37.38,19.25-60.44,18.83-15.82-.29-31.57-5.18-43.59-8.92-15.05-4.68-17.3-7.15-26.76-7.93-6.87-.56-11.26.28-39.63,7.93-26.32,7.1-28.56,7.99-35.67,8.93-5.42.72-19.92,2.55-34.68,0-19.23-3.32-22.13-11.19-51.52-27.76-38.35-21.61-43.7-14-61.1-30.71-10.56-10.14-15.5-19.59-30.06-24.77-6.1-2.18-13.07-2.47-26.75-2.97-12.26-.45-19.53-.07-43.59.99-8.4.37-14.78.64-19.71.86h-.01c-14.07-13.03-34.43-20.37-52.84-29.13-59.33-28.22-39.64-43.23-106.94-80.25,0,0-71.35-39.24-81.73-68.25-1.24-3.45-1.43-5.51-1.43-5.51-.04-.53-.13-1.74-.36-3.54-.09-.76-.16-1.26-.28-1.97-.35-2.08-.8-3.6-1.01-4.28-.21-.67-.38-1.15-.41-1.24-.11-.31-.21-.73-.3-1.26h0c8.04,1.31,13.31,2.08,17.31,2.35,9.86.66,16.97.42,31.04,1.98,3.92.43,12.95.27,18.5,2.64,21.97,9.39,39.49,23.74,48.22,30.39,2.65,2.01,20.87,15.74,44.26,26.42,22.38,10.22,44.04,20.11,69.36,15.85,15.58-2.62,19.76-8.45,36.33-8.25,7.23.1,15.96,1.33,35.67,9.57,40.62,17,43.62,28.55,72,35.01,15.54,3.54,29.42,3.43,34.34,3.3,7.23-.19,16.76-1,29.73-3.96,35.79-8.18,37.87-19.1,70.68-26.42,9.2-2.05,27.32-6.1,42.93-3.3,2.05.36,10.46,2,22.47,3.75,4.32.64,8.75,1.23,11.22,1.53,8.17.98,25.4,3.05,42.28,0,9.04-1.64,17.7-5.71,35.01-13.87,18.6-8.77,31.7-16.51,31.7-16.51,10.29-6.09,13.15-8.54,20.48-11.23,7.66-2.82,13.8-3.53,25.76-4.42,22.27-1.64,31.53-1.41,50.86-2.85,17.91-1.34,23.86-2.58,30.39-5.28,9.36-3.89,16.14-9.22,20.48-13.22,3.45-2.87,8.4-6.85,14.53-11.39,9.88-7.31,14.83-10.97,19.15-12.39,1-.32,1.91-.57,2.76-.74,6.46-1.36,9.74,1.03,24.33.08,11.08-.72,16.62-1.08,21.13-3.96,9.05-5.76,6.15-14.04,14.54-30.38,2.53-4.95,11.81-21.76,30.38-32.37,5.27-3.01,12.48-7.14,22.46-7.93,16.16-1.28,19.92,7.74,38.31,11.23,16.15,3.07,29.74-.75,48.22-5.94,18.7-5.26,16.96-8.06,31.71-11.89,27.38-7.12,51.01-2.06,60.11,0,22.77,5.14,38.39,14.84,46.24,19.81,13.99,8.87,12.11,10.8,48.22,40.96,15.14,12.64,17.53,14.02,21.8,19.81,11.05,15.01,7.23,22.4,16.28,44.92,3.22,8,8.34,20.74,17.68,32.27Z"/>
        <path id="_16_livestock" data-name="16_livestock" class="cls-9" d="M3603.68,1546.22c-16.77.62-45.69,1.63-48.32,1.76-7.09.23-18.23.56-31.89.8-43.06.75-69.76-.11-111.25-.58-10.47-.12-36.73-1.41-59.28-2.17,1.05-18.71,3.03-41.84,6.78-69.26,4.13-12.64,7.62-30.73,0-47.56-4.64-10.24-11.15-15.08-19.14-22.79-5.89-5.69-31.61-30.54-41.3-58.46-5.61-16.16-3.74-38.85,0-84.22,1.98-24.11,3.5-26.72.99-34.68-1.49-4.7-3.53-8.57-6.56-12.42-7.28-9.26-20.26-18.46-44.97-39.1-17.69-14.79-26.53-22.18-30.71-26.76-11.67-12.78-33.62-36.8-36.66-69.35-2.24-23.95,7.73-31.23,0-46.13-2-3.84-5.47-8.76-35.83-26.2-33.79-19.43-39.02-18.81-46.41-28.74-6.88-9.23-9.21-20.02-13.87-41.61-.96-4.43-1.67-8.34-2.24-11.8,10.75-7.23,21.97-14.75,28.99-19.91,24.85-18.26,44.91-30.95,58.46-39.49,10.39-6.54,24.11-14.95,40.54-24.38,4.87-2.88,33.47-21.53,38.34-24.41,4.54,5.62,10.09,10.94,16.9,15.29,12.26,7.83,14.73,3.63,27.74,10.57,34.2,18.22,43.81,61.42,44.92,66.71,5.04,24.19-3.73,24.78,0,55.49,4.06,33.41,17.39,57.06,22.46,65.4,13.24,21.78,29.32,36.4,41.61,45.57,6.91,3.09,16.63,8.35,26.42,17.18,2.79,2.52,7.07,6.42,11.53,11.97,2.8,3.48,5.68,7.62,8.29,12.47,6.17,11.44,4.81,15.57,13.21,30.38,5.32,9.38,8.75,12.83,11.89,15.2,7.34,5.53,14.8,6.45,19.16,7.26,24.87,4.66,43.65,23.71,52.84,33.03,6.59,6.69,15.81,16.04,21.14,29.72,9.57,24.6-2,41.16-7.93,75.31-3.77,21.72-11.82,68.05,8.26,108.99,11.77,24.01,26.39,32.24,32.7,62.75,1.73,8.37.73,8.24,1.98,37.32.43,9.93.81,18.83,1.21,26.85Z"/>
        <path id="_17_refinery" data-name="17_refinery" class="cls-13" d="M3603.46,1787.89c-7.44,22.1-11.5,33.17-8.92,48.55,1.63,9.69,4.36,12,6.94,23.78,3.82,17.46,1.94,31.28,0,45.57-2.92,21.43-6.23,45.81-22.79,68.37-9.42,12.84-15.93,15.28-21.8,29.52-4.52,10.95-3.3,15.92-9.91,29.93-5.54,11.75-8.37,12.44-10.9,20.81-3.54,11.69-.7,19.22,0,29.72.87,12.88-3.38,24.77-11.89,48.55-9.68,27.08-14.52,40.62-27.74,51.53-8.08,6.67-7.44,2.7-26.75,13.87-28.18,16.29-32.03,26.17-49.54,28.73-12.3,1.8-13.07-2.68-24.77,0-16.17,3.7-19.62,13.38-34.68,21.8-14.71,8.22-28.44,8.51-47.56,8.92-24.15.51-42.22-4.86-55.49-8.92-12.58-3.85-29.73-10.38-48.55-21.8-15.16-3.67-27.37-3.61-35.34-2.97-9.04.72-16.59,2.68-31.71,6.6-1.74.45-3.28.86-4.65,1.24-.04-.46-.07-.92-.1-1.38-2.19-6-6.13-13.74-13.63-19.59-9.53-7.44-17.32-4.73-45.36-11.85-41.21-10.47-46.07-10.9-63.2-15.56-40.53-11.02-46.59-17.64-89.94-31.88-12.33-4.05-30.29-16.74-51.3-26.27,8.61-5.14,14.35-9.27,27.08-12.28,19.77-4.68,37.47-2.2,49.54.73,10.9,3.25,32.88,7.96,57.47,0,27.12-8.78,43.1-28.32,49.54-36.4,15.92-19.98,11.27-27.5,23.78-36.66,22.11-16.19,55.96-6.85,66.39-3.97,34.06,9.4,46.48,28.94,63.41,21.8,8.57-3.61,13.46-12.02,16.85-17.83,6.69-11.51,5.44-19.06,8.91-36.87,4.23-21.73,7.87-19.59,11.89-39.43,6.21-30.55-2.6-34.66,4.96-46.9,8.55-13.84,20.18-9.17,46.57-30.38,10.6-8.52,15.9-12.78,19.81-19.82,8.13-14.6,3.15-24.01,10.9-49.54,4.1-13.5,5.37-10.47,7.93-20.81,3-12.12,1.32-16.58,0-51.52-.73-19.25-.41-22.85-2.97-30.07-3.72-10.45-7.4-11.39-11.89-22.44-1.39-3.41-7.51-18.44-4.96-33.69.56-3.37,1.43-6.06,2.55-8.39,6.75-14.06,15.77-22.88,18.94-25.96,11.75-11.39,10.66-29.93,11.48-58.13.17-6.05.44-12.81.86-20.29.01-.09.01-.19.02-.28,22.55.76,48.81,2.05,59.28,2.17,41.49.47,68.19,1.33,111.25.58,13.66-.24,24.8-.57,31.89-.8,2.63-.13,31.55-1.14,48.32-1.76,1.54,30.98,3.3,48.63,8.7,60.34,5.82,12.65,12.2,19.63,17.83,38.65,1.83,6.18,4.61,15.78,4.96,27.74.46,16.04-3.71,27.23-8.92,42.26-13.48,38.81-3.86,16.48-22.79,72.68Z"/>
        <path id="_18_factory" data-name="18_factory" class="cls-1" d="M3137.41,2231.69c-9.6,2.64-11.86,3.79-27.05,8.01-23.62,6.57-24.35,5.52-32.04,8.92-16.74,7.41-16.14,13.71-29.72,20.81-16.32,8.52-22.12,2-53.82,6.93-15.31,2.38-31.37,4.88-49.23,14.86-9.41,5.27-27.09,15.15-35.67,34.68-4.77,10.87-1.12,11.95-5.94,25.76-2.2,6.3-10.35,27.25-30.72,41.62-7.4,5.22-15.5,8.11-31.71,13.87-25.83,9.19-27.39,5.88-38.64,11.89-20.36,10.88-31.97,30.66-36.66,38.64-9.77,16.65-11.97,29.92-24.77,34.68-4.69,1.75-8.58,1.52-12.88,5.32-6.92,6.11-4.68,13.57-7.93,21.43-9.21,22.28-54.04,27.26-58.46,27.75-12.89,1.43-21.47,0-28.73,6.93-5.89,5.63-4.98,11.08-11.89,15.86-7.7,5.32-13.4,1.71-21.8,4.95-12.34,4.76-17.47,19.28-20.8,28.73-7.1,20.12-.53,26.5-4.96,50.64-1.56,8.49-4.54,23.92-14.86,39.53-14.74,22.3-35.9,32.06-46.57,36.82-10.67,4.75-19.99,6.75-38.64,10.74-18.37,3.93-31.94,6.83-49.54,6.94-8.47.04-22.94-2.28-51.53-6.94-27.2-4.43-40.8-6.65-49.54-8.92-26.94-7-40.41-10.5-44.59-12.88-5.15-2.93-13.84-8.6-22.78-5.94-4.18,1.23-7.11,3.9-8.92,5.94-6.71,3.92-16.54,9-29.07,13.21-5.49,1.85-20.3,6.5-40.31,8.07-1.37-11.15-3.42-24.12-6.12-35.17-2.32-7.01-4.51-7.97-8.63-20.26-8.17-24.34-12.22-36.78-16.46-47.76-7.83-20.28-9.81-22.55-16.61-40.45-7.01-18.46-11.14-32.7-19.41-61.17-2.12-7.3-4.56-15.86-7.22-25.54,6.21-1.52,13.33-3.63,23.94-5.15,9.33-1.33,22.81-2.41,39.63-.79,5.72.76,13.99,1.32,23.78,0,5.91-.79,24.73-3.55,41.62-16.84,10.97-8.64,8.79-12.03,30.71-34.68,3.18-3.29,8.83-9.01,17.84-13.87,4.21-2.28,9.11-4.92,15.19-5.95,14.13-2.38,18.68,6.68,39.3,9.91,7.57,1.19,16.11,2.42,25.76-.99,9.37-3.31,14.94-9.29,21.8-16.84,4.76-5.24,13.74-15.3,19.82-30.72,5.06-12.84,5.42-28.55,5.94-59.45.47-27.51-.76-29.39,1.76-38.64,5.71-20.96,18.14-33.75,23.01-38.64,8.71-8.75,15.28-15.34,24.77-15.86,9.72-.52,13.62,5.78,29.73,14.87,12.44,7.02,24.7,13.93,39.63,14.86,20.67,1.28,37.55-9.47,47.56-15.85,7.8-4.97,13.13-9.92,23.78-19.82,13.99-13,20.98-19.49,23.78-25.76,8.4-18.82-6.06-29.18,0-48.55,5.28-16.89,21.42-25.53,36.66-33.69,9.63-5.16,36.57-19.58,65.4-11.89,22.04,5.88,19.31,17.78,41.61,26.75,38.35,15.42,82.99-5.09,93.48-9.91,5.9-2.71,10.33-5.22,14.19-7.53,21.01,9.53,38.97,22.22,51.3,26.27,43.35,14.24,49.41,20.86,89.94,31.88,17.13,4.66,21.99,5.09,63.2,15.56,28.04,7.12,35.83,4.41,45.36,11.85,7.5,5.85,11.44,13.59,13.63,19.59.03.46.06.92.1,1.38Z"/>
        <path id="_19_ash-heap" data-name="19_ash-heap" class="cls-5" d="M2177.64,2740.54c-3.47.28-7.11.46-10.88.52-7.98.12-19.12-.27-39.63-.99-5.9-.21-12.36-.46-20.81.99-10.49,1.8-18.1,5.22-21.8,6.94-31.92,14.8-43.53,28.33-63.41,33.68-17.44,4.7-15.25-3.89-61.43-6.93-53.75-3.54-66.01,7.5-69.36,10.9-8.47,8.59-4.61,13.59-15.19,25.76-5.42,6.23-10.55,9.65-40.3,23.78-40.98,19.47-46.14,20.06-51.52,19.81-10.34-.46-13.84-3.67-32.7-4.95-11.42-.78-17.81-.12-24.77,0-22.33.39-39.59-4.9-62.42-11.89-30.21-9.25-28.37-13.38-50.35-17.83-22.55-4.57-25.48-.44-41.79-5.95-19.28-6.52-31.81-17.92-42.61-27.74-15.68-14.27-24.79-28.08-29.73-35.67-10.56-16.25-8.54-18.27-17.83-33.69-8.31-13.79-21.98-36.46-46.57-50.53-18.12-10.37-23.19-5.19-43.6-16.85-11.89-6.79-22.09-15.35-35.66-30.71-31.23-35.33-29.21-48.79-56.48-84.22-29.04-37.72-56.05-54.6-62.42-58.46-25.68-15.57-46.07-19.91-50.54-20.81-23.98-4.83-44.19-2.43-56.47,0-22.02-1.99-38.09-8.27-48.88-13.87-4.63-2.4-9.22-5.39-14.83-9.52,2.08-7.53,4.17-15.93,6.13-25.17,8.78-12.24,17.56-24.49,26.34-36.73,10.9-22.69,27.09-57.1,45.72-99.68,22.74-51.97,24-58.71,44.91-106.25,21.96-49.91,40.49-87.76,61.89-131.5,8.43-17.21,25.36-51.55,47.77-95.02,13.41-26.01,29.12-55.93,47.04-89.09,2.23,9.93,5.29,23.17,10.81,49,4.76,22.3,8.49,40.57,10.9,52.51,17.4,38.28,22.43,70.05,23.77,92.15,1.28,20.93-.71,33.97,0,101.06.23,21.01.61,36.85,8.92,55.49,3.39,7.58,11.87,25.96,31.71,39.63,18.08,12.46,36.49,14.73,46.57,15.85,19.83,2.22,21.22-2.79,33.69,0,26.51,5.95,42.04,33.51,50.53,48.55,16.99,30.15,8.19,37.34,23.78,59.45,15.5,22,36.45,32.26,51.52,39.64,11.43,5.6,35.23,16.94,66.39,16.84,13.03-.04,31.14-4.32,67.37-12.88,33.1-7.82,34.28-9.5,43.6-8.92,35.19,2.19,59.13,28.61,60.11,29.73,12.47,14.16,7.5,18.61,20.15,29.72,17.02,14.96,42.39,21.27,44.58,21.8,7.83,1.88,12.51,2.06,19.82,5.95,8.93,4.74,11.18,9.38,19.15,11.89,7,2.19,12.58.92,18.5,0,2.61-.41,31.36-4.73,54.5,1.35,18.07,4.75,15.25,11.25,30.71,13.81,8.08,1.34,13.82.38,20.65-1.3,2.66,9.68,5.1,18.24,7.22,25.54,8.27,28.47,12.4,42.71,19.41,61.17,6.8,17.9,8.78,20.17,16.61,40.45,4.24,10.98,8.29,23.42,16.46,47.76,4.12,12.29,6.31,13.25,8.63,20.26,2.7,11.05,4.75,24.02,6.12,35.17Z"/>
        <path id="_20_tenements" data-name="20_tenements" class="cls-12" d="M1486.06,1179.52c-5.98,18.61-13,22.23-23.77,43.59,0,0-10.13,20.1-15.86,44.59-7.55,32.26,2.34,40.76,2.97,84.22.48,32.95,1.07,73.59-22.79,108-11.09,16.01-17.59,16.41-25.76,33.69-12.18,25.78-11.39,53.82-10.9,67.07.75,19.92,3.83,18.72,2.98,33.5-.52,8.98-2.2,32.53-18.83,54.99-10.14,13.7-17.05,14.87-25.76,23.78-33.01,33.75-18.04,104.56-4.95,166.46.64,3.01,1.3,6.04,2.07,9.46-17.92,33.16-33.63,63.08-47.04,89.09-22.41,43.47-39.34,77.81-47.77,95.02-21.4,43.74-39.93,81.59-61.89,131.5-20.91,47.54-22.17,54.28-44.91,106.25-18.63,42.58-34.82,76.99-45.72,99.68-8.78,12.24-17.56,24.49-26.34,36.73-1.96,9.24-4.05,17.64-6.13,25.17-6.15-4.51-13.51-10.4-23.49-18.37-20.88-16.69-23.33-20.37-38.97-31.56-10.35-7.41-19.26-13.82-31.7-19.82-17.59-8.47-31.74-11.51-41.62-13.87-27.71-6.61-54.65-13.03-77.94-25.1-10.15-5.26-49.94-25.87-66.72-67.37-6.73-16.65-8.97-34.7-10.57-47.56-3.27-26.36-.06-34.49-5.94-54.83-1.09-3.74-5.94-19.87-17.84-37.65-14.27-21.32-21.34-19.13-38.97-40.29-24.26-29.13-31.04-57.51-32.37-63.42-3.28-14.62-3.32-26.3-3.3-33.69.06-25.81,5.96-44.92,10.57-59.45,11.95-37.65,29.63-62.38,40.95-77.94,11.51-15.81,17.51-23.89,29.07-31.05,10.63-6.59,16.16-6.32,32.36-16.51,9.36-5.88,17.2-12.06,22.46-16.51,13.11-11.1,12.9-13.78,23.12-21.14,11.33-8.16,21.76-12.21,24.44-13.21,14.72-5.52,17.73-2.63,25.1-7.27,10.37-6.51,8.39-14.72,17.84-29.72,13.06-20.76,32.75-30.33,38.31-33.03,10.41-5.06,19.17-6.85,35.67-10.22,8.37-1.7,17.92-3.65,30.38-4.31,28.3-1.5,34.48,5.62,51.53,0,4.91-1.62,10.76-5.27,22.46-12.55,16.7-10.41,17.48-13.32,31.04-21.14,14.83-8.55,16.46-6.55,27.08-13.87,6.91-4.76,7.86-6.74,23.12-21.8,22.64-22.34,25.75-23.12,29.66-31.05,3.64-7.4,2.2-9.31,4.69-33.02,4.29-40.81,9.72-46.25,5.29-62.76-2.24-8.32-2.98-4.57-12.55-27.74-10.41-25.2-11.21-33.7-11.12-39.63.18-11.43,3.76-20.55,6.49-26.09,1.35-4.43,3.31-11.68,4.63-20.81.67-4.69.96-8.4,1.11-11.7.33-7.16.01-12.36,1.53-21.33,2.36-13.95,6.94-23.83,7.86-25.76,7.02-14.82,14-17.72,21.86-28.4,16.81-22.85,17.5-53.96,11.89-74.65-.35-1.32-5.08-10.8-14.52-29.72-20.15-40.37-23.57-46.64-25.77-58.79-3.01-16.62-1.19-30.08,0-38.31,3.03-21.05,8.59-24.02,17.17-54.17,5.24-18.37,8.45-29.99,8.59-46.24.16-19.4-4.17-34.6-6.6-42.93-2.73-9.32-7.33-19.61-16.52-40.19-9.51-21.3-12.43-26.01-15.19-37.76-5-21.24-1.27-30.48,0-33.27,4.01-8.86,10.94-14.07,15.19-16.72.3-2.35.75-5.86,1.32-10.12.64-4.69,1.42-10.27,2.65-18.49.08-.52.15-1.03.23-1.53,6.14,1.51,12.1,2.93,17.76,4.15,4.31,1.17,6.46.86,13.34,5.25,17.21,10.97,17.02,26.02,32.98,38.94,11.29,9.13,15.82,9.74,36.57,23.31,16.33,10.67,27.58,19.47,44.82,32.97,32.41,25.38,31.44,27.81,46.85,36.61,14.39,8.23,18.91,8.2,41.18,19.78,8.43,4.38,16.51,7.9,23.03,11.42-10.23,10.77-19.24,16.73-23.59,30.24-4.13,12.82-1.73,25.18.99,33.68,3.83,17.57,9.3,31.36,13.87,41.07,7.1,15.11,15.11,26.9,20.81,35.23,9.18,13.41,9.36,11.47,12.88,17.83,9.53,17.23,9.73,34.24,9.91,49.54.14,11.74.29,25.28-4.96,41.62Z"/>
        <path id="_21_shipwrights" data-name="21_shipwrights" class="cls-11" d="M1937.82,600.21c-1.55,22.12-3.45,50.6-4.51,65.17-1.45,20.03-2.53,35.07-2.53,35.07,0,0-2.49,25.63-3.2,42.26-4.19-.69-9.06-1.51-14.8-2.46-11.27-1.87-20.6-3.48-27.08-4.62-20.63-6.36-33.99-15.47-42.28-22.46-15.6-13.16-18.05-22.85-34.35-30.39-15.19-7.02-29.58-6.25-34.35-5.94-17.63,1.15-20.49,7.82-36.33,11.23-4.92,1.06-16.03,2.86-64.73-11.39-32.68-9.57-28.94-10.75-46.9-15.03-36.53-8.72-38.01-.51-68.04-9.25-15.95-4.65-37.19-10.83-56.8-21.8-.47-.26-9.77-5.46-23.12-8.59-9.77-2.28-17.39-3.96-23.12,0-6.09,4.21-3.83,10.47-10.57,16.52-6.68,5.99-15.7,5.95-17.17,5.94-14.24-.06-16.28-12.41-35.01-20.47-15.18-6.54-29.31-5.09-36.33-4.37-9.51.97-18.7,1.92-27.09,8.99-1.3,1.1-10.1,8.74-12.55,21.14-1.69,8.58,1.39,10.67,0,22.46-.83,7.09-1.61,13.66-5.94,18.49-3.65,4.07-9.11,6.09-25.76,6.61-17.41.53-25.52-1.24-46.24-1.99-20.48-.73-26.26.52-31.05,4.63-4.59,3.95-8.15,10.44-8.58,17.17-.4,6.04,2.08,6.8,3.3,14.54.62,3.93.14,4.75-3.07,26.21h-.01c-17.52-4.33-36.37-9.48-53.01-13.43-22.84-5.41-45.24-10.96-67.21-16.62-3.67-1.22-29.87-10.56-33.54-11.77.55-1.8,1.08-3.64,1.61-5.53,10.94-39.4,4.02-52.99,19.15-77.29,4.98-7.99,10.69-16.9,21.8-21.8,22.19-9.78,46.31,5.06,50.2,7.53,9.55-.68,19.63-3.33,26.43-10.83,7.2-7.95,5.49-15.56,12.66-25.1,5.56-7.39,12.93-11.26,25.32-15.85,31.98-11.85,58.46-14.53,58.46-14.53,57.16-5.79,48.83-10.72,96.44-14.54,22.2-1.78,34.83-1.57,100.4,0,77.87,1.88,117.43,2.84,147.96,3.97,101.62,3.75,115.62,6.07,125.51,7.92,36.07,6.78,41.34,11.97,92.48,21.14,33.35,5.98,46.26,6.49,72.66,14.53,14.76,4.5,27.81,8.47,40.89,14.53Z"/>
        <path id="_22_north-harbor" data-name="22_north-harbor" class="cls-3" d="M1937.82,600.21c-1.55,22.12-3.45,50.6-4.51,65.17-1.45,20.03-2.53,35.07-2.53,35.07,0,0-2.49,25.63-3.2,42.26,1.01.16,1.97.32,2.9.47,8.04,1.32,13.31,2.09,17.31,2.36,9.86.66,16.97.42,31.04,1.98,3.92.43,12.95.27,18.5,2.64,21.97,9.39,39.49,23.74,48.22,30.39,2.65,2.01,20.87,15.74,44.26,26.42,22.38,10.22,44.04,20.11,69.36,15.85,15.58-2.62,19.76-8.45,36.33-8.25,7.23.1,15.96,1.33,35.67,9.57,40.62,17,43.62,28.55,72,35.01,15.54,3.54,29.42,3.43,34.34,3.3,7.23-.19,16.76-1,29.73-3.96,35.79-8.18,37.87-19.1,70.68-26.42,9.2-2.05,27.32-6.1,42.93-3.3,2.05.36,10.46,2,22.47,3.75,4.32.64,8.75,1.23,11.22,1.53,8.17.98,25.4,3.05,42.28,0,9.04-1.64,17.7-5.71,35.01-13.87,18.6-8.77,31.7-16.51,31.7-16.51,10.29-6.09,13.15-8.54,20.48-11.23,7.66-2.82,13.8-3.53,25.76-4.42,22.27-1.64,31.53-1.41,50.86-2.85,17.91-1.34,23.86-2.58,30.39-5.28,9.36-3.89,16.14-9.22,20.48-13.22,3.45-2.87,8.4-6.85,14.53-11.39,9.88-7.31,14.83-10.97,19.15-12.39,1-.32,1.91-.57,2.76-.74l-43.51-114.77c-17.37,6.19-34.25,12.8-57.01,21.72-36.27,14.21-35.02,14.79-68.03,27.74-12.58,4.93-53.49,20.81-107.67,38.31-29.97,9.68-50.73,15.56-70.02,20.48-25.6,6.52-38.75,9.81-55.49,11.35-18.31,1.68-21.81-.19-68.04-2.76-51.26-2.86-51.51-.82-77.28-3.97-22.7-2.77-22.92-4.4-58.13-9.25-34.49-4.74-33.93-3.13-52.84-6.6-36.12-6.63-33.06-11.58-64.08-16.51-27.1-4.31-37.74-1.85-50.86-11.89-9.46-7.25-10.76-13.76-18.98-27.09-19.06-30.9-44.38-48.22-55-55.48-7.97-5.46-15.58-9.69-23.18-13.22Z"/>
        <path id="_23_red-light" data-name="23_red-light" class="cls-1" d="M3553.55,1015.79c-1.61,2.85-17.26,23.85-20.11,27.17-4.95,5.78-10.19,9.6-14.21,12.05-14.12,10.76-26.07,18.72-34.22,23.91-18.24,11.63-28.73,16.94-44.08,28.02-4.46-5.55-8.74-9.45-11.53-11.97-9.79-8.83-19.51-14.09-26.42-17.18-12.29-9.17-28.37-23.79-41.61-45.57-5.07-8.34-18.4-31.99-22.46-65.4-3.73-30.71,5.04-31.3,0-55.49-1.11-5.29-10.72-48.49-44.92-66.71-13.01-6.94-15.48-2.74-27.74-10.57-6.81-4.35-12.36-9.67-16.9-15.29-9.34-11.53-14.46-24.27-17.68-32.27-9.05-22.52-5.23-29.91-16.28-44.92-4.27-5.79-6.66-7.17-21.8-19.81-36.11-30.16-34.23-32.09-48.22-40.96-7.85-4.97-23.47-14.67-46.24-19.81-9.1-2.06-32.73-7.12-60.11,0-14.75,3.83-13.01,6.63-31.71,11.89-18.48,5.19-32.07,9.01-48.22,5.94-18.39-3.49-22.15-12.51-38.31-11.23-9.98.79-17.19,4.92-22.46,7.93-18.57,10.61-27.85,27.42-30.38,32.37-8.39,16.34-5.49,24.62-14.54,30.38-4.51,2.88-10.05,3.24-21.13,3.96-14.59.95-17.87-1.44-24.33-.08l-43.51-114.77c8.18-2.92,16.48-5.74,25.56-8.67,11.52-3.71,50.2-15.95,102.39-27.08,35.01-7.47,61.13-11.24,83.89-14.53,33.3-4.82,56.77-8.14,89.17-9.25,34.3-1.18,54.3.95,62.75,1.98,10.1,1.24,25.16,3.53,47.56,9.25,37.2,9.49,78,19.9,124.19,48.22,10.23,6.27,38.15,24.11,68.03,54.16,20.09,20.21,37.21,37.42,50.86,65.52,16,32.91,18.92,63.62,20.48,81.79,3.47,40.24-4.82,49.29,3.97,78.6,1.65,5.53,8.96,28.59,28.4,51.52,6.11,7.22,16.07,17.54,66.05,47.56,5.99,3.6,11.22,6.68,15.82,9.34Z"/>
        <path id="_24_east-harbor" data-name="24_east-harbor" class="cls-3" d="M3719.39,1612.84c-.72,32.2,1.69,32.68.66,72.66-.83,31.83-3.01,56.99-4.63,75.3-2.91,32.9-6.18,57.61-8.59,75.64-9.61,71.97-13.46,72.49-15.19,108.66-.79,16.56-.59,29.22-3.3,52.18-2.59,21.88-6.09,38.51-8.59,50.2-7.17,33.6-15.3,58.52-17.83,66.13-3.03,9.09-10.7,31.35-23.12,58.72-3.06,6.73-7.99,16.6-17.84,36.33-13.74,27.53-17.21,33.44-21.79,39.96-9.95,14.13-11.81,12.16-23.78,27.41-15.84,20.19-13.96,25.41-31.05,49.54-11.83,16.72-18.52,25.96-31.05,34.35-4.14,2.78-12.48,7.84-36.99,14.53-14.81,4.05-34.08,9.32-60.77,11.23-48.99,3.52-90.92-6.56-103.7-9.9-14.73-3.86-23.23-7.29-39.64-8.59-22.43-1.79-29.02,2.83-45.58-.66-20.29-4.28-22.95-13.88-39.63-20.48-14.61-5.78-29.22-5.01-44.92-1.07-.56-3.16-1.36-28.4-2.06-34.38-2.12-18.18-1.25-29.61-1.38-47.48-.06-7.44-.3-18.22-1.21-31.43,1.37-.38,2.91-.79,4.65-1.24,15.12-3.92,22.67-5.88,31.71-6.6,7.97-.64,20.18-.7,35.34,2.97,18.82,11.42,35.97,17.95,48.55,21.8,13.27,4.06,31.34,9.43,55.49,8.92,19.12-.41,32.85-.7,47.56-8.92,15.06-8.42,18.51-18.1,34.68-21.8,11.7-2.68,12.47,1.8,24.77,0,17.51-2.56,21.36-12.44,49.54-28.73,19.31-11.17,18.67-7.2,26.75-13.87,13.22-10.91,18.06-24.45,27.74-51.53,8.51-23.78,12.76-35.67,11.89-48.55-.7-10.5-3.54-18.03,0-29.72,2.53-8.37,5.36-9.06,10.9-20.81,6.61-14.01,5.39-18.98,9.91-29.93,5.87-14.24,12.38-16.68,21.8-29.52,16.56-22.56,19.87-46.94,22.79-68.37,1.94-14.29,3.82-28.11,0-45.57-2.58-11.78-5.31-14.09-6.94-23.78-2.58-15.38,1.48-26.45,8.92-48.55,18.93-56.2,9.31-33.87,22.79-72.68,5.21-15.03,9.38-26.22,8.92-42.26-.35-11.96-3.13-21.56-4.96-27.74-5.63-19.02-12.01-26-17.83-38.65-6.8-14.74-7.83-38.89-9.91-87.19-1.25-29.08-.25-28.95-1.98-37.32-6.31-30.51-20.93-38.74-32.7-62.75-20.08-40.94-12.03-87.27-8.26-108.99,5.93-34.15,17.5-50.71,7.93-75.31-5.33-13.68-14.55-23.03-21.14-29.72-9.19-9.32-27.97-28.37-52.84-33.03-4.36-.81-11.82-1.73-19.16-7.26-3.14-2.37-6.57-5.82-11.89-15.2-8.4-14.81-7.04-18.94-13.21-30.38-2.61-4.85-5.49-8.99-8.29-12.47,15.35-11.08,25.84-16.39,44.08-28.02,8.15-5.19,20.1-13.15,34.22-23.91,4.02-2.45,9.26-6.27,14.21-12.05,2.85-3.32,18.5-24.32,20.11-27.17,30.87,17.86,33.28,16.84,46.94,27.65,30.84,24.44,47.04,52.25,54.16,64.74,12.94,22.69,19.59,49.34,32.37,101.72,5.81,23.81,14.18,60.44,22.46,107.67,5.46,31.14,10.65,61.14,14.53,101.73,3.17,33.19,5.3,55.38,4.62,85.87-1.09,49.23-8.04,53.21-9.24,107.67Z"/>
        <path id="_25_mongers" data-name="25_mongers" class="cls-9" d="M3142.06,2344.98c-11.4,2.87-23.37,7.4-36.33,12.3-42.95,16.26-71.92,39.29-82.56,48.22-37.68,31.62-33.69,44.45-85.22,92.81-9.16,8.6-17.34,15.76-26.42,28.73-15.18,21.71-14.89,34.02-28.4,60.11-7.95,15.36-10.16,15.16-31.05,45.58-24.26,35.33-27.81,45.1-41.61,65.39-15.77,23.2-33.42,40.79-68.7,75.97-77.37,77.14-83.27,64.72-125.5,105.02-5.93,5.66-17.6,17.15-34.35,18.5-11.59.93-15.25-3.83-27.75-3.96-17.7-.2-22.39,9.22-41.61,15.85-28.01,9.67-55.43,2.58-65.39,0-24.01-6.21-26.35-14.72-44.26-14.53-19.08.2-20.13,9.89-40.3,12.55-13.83,1.82-21.62-1.65-66.05-16.52-26.21-8.77-39.31-13.15-42.28-13.87-28.86-6.99-55.04-5.51-74.14-2.67-.01-2.43-.36-32.26-.38-36.69-.07-16.62-.18-27.55-.23-33.63-.27-35.08.51-32.96,0-43.26-.23-4.76-.87-12.04-1.89-20.34,20.01-1.57,34.82-6.22,40.31-8.07,12.53-4.21,22.36-9.29,29.07-13.21,1.81-2.04,4.74-4.71,8.92-5.94,8.94-2.66,17.63,3.01,22.78,5.94,4.18,2.38,17.65,5.88,44.59,12.88,8.74,2.27,22.34,4.49,49.54,8.92,28.59,4.66,43.06,6.98,51.53,6.94,17.6-.11,31.17-3.01,49.54-6.94,18.65-3.99,27.97-5.99,38.64-10.74,10.67-4.76,31.83-14.52,46.57-36.82,10.32-15.61,13.3-31.04,14.86-39.53,4.43-24.14-2.14-30.52,4.96-50.64,3.33-9.45,8.46-23.97,20.8-28.73,8.4-3.24,14.1.37,21.8-4.95,6.91-4.78,6-10.23,11.89-15.86,7.26-6.93,15.84-5.5,28.73-6.93,4.42-.49,49.25-5.47,58.46-27.75,3.25-7.86,1.01-15.32,7.93-21.43,4.3-3.8,8.19-3.57,12.88-5.32,12.8-4.76,15-18.03,24.77-34.68,4.69-7.98,16.3-27.76,36.66-38.64,11.25-6.01,12.81-2.7,38.64-11.89,16.21-5.76,24.31-8.65,31.71-13.87,20.37-14.37,28.52-35.32,30.72-41.62,4.82-13.81,1.17-14.89,5.94-25.76,8.58-19.53,26.26-29.41,35.67-34.68,17.86-9.98,33.92-12.48,49.23-14.86,31.7-4.93,37.5,1.59,53.82-6.93,13.58-7.1,12.98-13.4,29.72-20.81,7.69-3.4,8.42-2.35,32.04-8.92,15.19-4.22,17.45-5.37,27.05-8.01.91,13.21,1.15,23.99,1.21,31.43.13,17.87-.74,29.3,1.38,47.48.7,5.98,1.5,31.22,2.06,34.38Z"/>
        <path id="_27_garden" data-name="27_garden" class="cls-17" d="M1196.08,1524.99c-2.49,23.71-1.05,25.62-4.69,33.02-3.91,7.93-7.02,8.71-29.66,31.05-15.26,15.06-16.21,17.04-23.12,21.8-10.62,7.32-12.25,5.32-27.08,13.87-13.56,7.82-14.34,10.73-31.04,21.14-11.7,7.28-17.55,10.93-22.46,12.55-17.05,5.62-23.23-1.5-51.53,0-12.46.66-22.01,2.61-30.38,4.31-16.5,3.37-25.26,5.16-35.67,10.22-5.56,2.7-25.25,12.27-38.31,33.03-9.45,15-7.47,23.21-17.84,29.72-7.37,4.64-10.38,1.75-25.1,7.27-2.68,1-13.11,5.05-24.44,13.21-10.22,7.36-10.01,10.04-23.12,21.14-5.26,4.45-13.1,10.63-22.46,16.51-16.2,10.19-21.73,9.92-32.36,16.51-11.56,7.16-17.56,15.24-29.07,31.05-11.32,15.56-29,40.29-40.95,77.94-4.61,14.53-10.51,33.64-10.57,59.45-.02,7.39.02,19.07,3.3,33.69,1.33,5.91,8.11,34.29,32.37,63.42,17.63,21.16,24.7,18.97,38.97,40.29,11.9,17.78,16.75,33.91,17.84,37.65,5.88,20.34,2.67,28.47,5.94,54.83,1.6,12.86,3.84,30.91,10.57,47.56,16.78,41.5,56.57,62.11,66.72,67.37,23.29,12.07,50.23,18.49,77.94,25.1,9.88,2.36,24.03,5.4,41.62,13.87,12.44,6,21.35,12.41,31.7,19.82,15.64,11.19,18.09,14.87,38.97,31.56,9.98,7.97,17.34,13.86,23.49,18.37-3.04,11.03-6.07,20.18-8.62,27.35-3.83,10.74-10.06,26.7-16.35,46.04-1.57,4.81-3.88,12.13-6.44,21.34-1.83,6.59-8.71,32.59-9.74,36.87-10.28-5.8-22.1-11.39-35.18-15.73-45.97-15.23-86.98-7.98-120.88-1.98-47.98,8.48-44.14,17.75-88.51,23.12-8.8,1.06-8.94.7-70.63.21-8.48-.07-18.13-.14-29.12-.21-23.01-.14-35.54-.18-45-1.29-6.32-.74-11.28-1.96-17.09-4-9.07-3.19-17.06-7.29-24.07-11.76-14.9-9.47-25.32-20.56-32.08-27.87-21.93-23.75-32.82-49.05-38.31-62.09-8.64-20.53-10.14-32.31-21.81-52.77-.62-1.1-1.28-2.22-1.97-3.38-8.66-14.5-12.23-16.41-19.15-27.08-6.95-10.72-13.73-24.81-23.12-84.55-7.34-46.65-11.01-69.97-9.91-90.5,1.34-25.15,5.38-32.77,6.6-68.7.93-27.3-1.14-30.52,0-48.88,1.98-31.68,9.87-49.3,18.5-77.94,9.53-31.61,13.4-55.86,21.14-104.37,11.61-72.79,6.63-89.05,24.44-118.9,5.93-9.95,19.31-32.37,45.58-47.56,31.51-18.22,47.54-6.36,97.76-23.12,33.02-11.01,56.28-26.21,63.41-31.04,38.28-25.94,34.85-39.67,68.7-60.11,22.33-13.49,42.34-18.69,74.64-27.08,22.62-5.88,40.86-10.63,66.05-11.72,36.5-1.59,43.24,6.41,67.38,0,26.44-7.02,43.41-23.25,50.2-29.9,10.93-10.7,22.58-26.1,34.35-58.79,17.12-47.56,18.64-87.69,19.82-127.15.34-11.32.66-23.2.53-35.89l83.15,3.38c-.15,3.3-.44,7.01-1.11,11.7-1.32,9.13-3.28,16.38-4.63,20.81-2.73,5.54-6.31,14.66-6.49,26.09-.09,5.93.71,14.43,11.12,39.63,9.57,23.17,10.31,19.42,12.55,27.74,4.43,16.51-1,21.95-5.29,62.76Z"/>
        <path id="_26_south-harbor" data-name="26_south-harbor" class="cls-3" d="M2180.14,2874.46c-8.54,1.27-15.66,2.81-20.97,3.99-20.99,4.66-27.15,8.94-77.29,31.05-77.27,34.07-73.62,28.73-105.69,44.92-63.91,32.26-60.31,44.33-103.7,62.75-58.6,24.87-112.03,22.77-131.45,21.8-85.31-4.27-146.25-43.33-171.75-60.11-57.84-38.08-48.12-54.77-114.93-95.78-34.46-21.15-53.23-26.65-97.1-56.81-12.85-8.83-26.35-18.74-48.22-29.72-27.86-13.99-32.54-11.24-54.83-23.12-10.88-5.8-36.99-20.03-59.45-46.9-20.07-24.03-14.41-30.85-35.01-53.51-13.58-14.93-18.03-14.16-46.9-37.65-30.31-24.67-30.96-30.05-51.52-46.24-7.34-5.78-20.02-15.75-36.82-25.22,1.03-4.28,7.91-30.28,9.74-36.87,2.56-9.21,4.87-16.53,6.44-21.34,6.29-19.34,12.52-35.3,16.35-46.04,2.55-7.17,5.58-16.32,8.62-27.35,5.61,4.13,10.2,7.12,14.83,9.52,10.79,5.6,26.86,11.88,48.88,13.87,12.28-2.43,32.49-4.83,56.47,0,4.47.9,24.86,5.24,50.54,20.81,6.37,3.86,33.38,20.74,62.42,58.46,27.27,35.43,25.25,48.89,56.48,84.22,13.57,15.36,23.77,23.92,35.66,30.71,20.41,11.66,25.48,6.48,43.6,16.85,24.59,14.07,38.26,36.74,46.57,50.53,9.29,15.42,7.27,17.44,17.83,33.69,4.94,7.59,14.05,21.4,29.73,35.67,10.8,9.82,23.33,21.22,42.61,27.74,16.31,5.51,19.24,1.38,41.79,5.95,21.98,4.45,20.14,8.58,50.35,17.83,22.83,6.99,40.09,12.28,62.42,11.89,6.96-.12,13.35-.78,24.77,0,18.86,1.28,22.36,4.49,32.7,4.95,5.38.25,10.54-.34,51.52-19.81,29.75-14.13,34.88-17.55,40.3-23.78,10.58-12.17,6.72-17.17,15.19-25.76,3.35-3.4,15.61-14.44,69.36-10.9,46.18,3.04,43.99,11.63,61.43,6.93,19.88-5.35,31.49-18.88,63.41-33.68,3.7-1.72,11.31-5.14,21.8-6.94,8.45-1.45,14.91-1.2,20.81-.99,20.51.72,31.65,1.11,39.63.99,3.77-.06,7.41-.24,10.88-.52,1.02,8.3,1.66,15.58,1.89,20.34.51,10.3-.27,8.18,0,43.26.05,6.08.16,17.01.23,33.63.02,4.43.37,34.26.38,36.69Z"/>
        <path id="_28_west-harbor" data-name="28_west-harbor" class="cls-3" d="M1221.18,1260.77c-7.86,10.68-14.84,13.58-21.86,28.4-.92,1.93-5.5,11.81-7.86,25.76-1.52,8.97-1.2,14.17-1.53,21.33l-83.15-3.38c-.25-22.75-1.98-48.09-7.8-77.4-5.47-27.53-10.08-50.75-21.14-79.93-8.08-21.32-15.86-35.96-18.49-61.43-1.3-12.58-.26-17.3-3.3-29.06-5.28-20.37-13.21-24.79-19.82-43.6-5.87-16.7-2.42-21.22-5.95-42.27-4.19-25.07-12.19-37.2-19.81-56.15-6.84-17.01-34.7-86.29-9.25-138.71,7.32-15.09,13.68-17.7,27.08-44.92,4.45-9.03,11.59-23.72,17.55-43.35,3.67,1.21,29.87,10.55,33.54,11.77,21.97,5.66,44.37,11.21,67.21,16.62,16.64,3.95,35.49,9.1,53.01,13.43h.01c-.08.5-.15,1.01-.23,1.53-1.23,8.22-2.01,13.8-2.65,18.49-.57,4.26-1.02,7.77-1.32,10.12-4.25,2.65-11.18,7.86-15.19,16.72-1.27,2.79-5,12.03,0,33.27,2.76,11.75,5.68,16.46,15.19,37.76,9.19,20.58,13.79,30.87,16.52,40.19,2.43,8.33,6.76,23.53,6.6,42.93-.14,16.25-3.35,27.87-8.59,46.24-8.58,30.15-14.14,33.12-17.17,54.17-1.19,8.23-3.01,21.69,0,38.31,2.2,12.15,5.62,18.42,25.77,58.79,9.44,18.92,14.17,28.4,14.52,29.72,5.61,20.69,4.92,51.8-11.89,74.65Z"/>
      </g>
    </g>
  </g>
</svg>