<?xml version="1.0" encoding="UTF-8"?>
<svg id="Layer_2" data-name="Layer 2" xmlns="http://www.w3.org/2000/svg" viewBox="0 0 3714.79 3097.57">
  <defs>
    <style>
      .cls-1 {
        fill: none;
        stroke: #000;
        stroke-miterlimit: 10;
        stroke-width: .5px;
      }

      .cls-2 {
        opacity: .5;
      }
    </style>
  </defs>
  <g id="grid">
    <g id="verticalGraticule" class="cls-2">
      <line class="cls-1" x1=".26" y1="23.81" x2=".25" y2="3097.57"/>
      <line class="cls-1" x1="106.38" y1="0" x2="106.37" y2="3097.57"/>
      <line class="cls-1" x1="213.69" y1="23.81" x2="211.31" y2="3097.57"/>
      <line class="cls-1" x1="318.62" y1="35.64" x2="318.62" y2="3097.57"/>
      <line class="cls-1" x1="424.75" y1="23.81" x2="424.74" y2="3097.57"/>
      <line class="cls-1" x1="530.87" y1="0" x2="530.86" y2="3097.57"/>
      <line class="cls-1" x1="638.18" y1="23.81" x2="635.8" y2="3097.57"/>
      <line class="cls-1" x1="743.11" y1="35.64" x2="743.11" y2="3097.57"/>
      <line class="cls-1" x1="849.24" y1="23.81" x2="849.23" y2="3097.57"/>
      <line class="cls-1" x1="955.36" y1="0" x2="955.35" y2="3097.57"/>
      <line class="cls-1" x1="1062.67" y1="23.81" x2="1060.29" y2="3097.57"/>
      <line class="cls-1" x1="1167.6" y1="35.64" x2="1167.6" y2="3097.57"/>
      <line class="cls-1" x1="1273.72" y1="23.81" x2="1273.72" y2="3097.57"/>
      <line class="cls-1" x1="1379.85" y1="0" x2="1379.84" y2="3097.57"/>
      <line class="cls-1" x1="1487.16" y1="23.81" x2="1484.78" y2="3097.57"/>
      <line class="cls-1" x1="1592.09" y1="35.64" x2="1592.09" y2="3097.57"/>
      <line class="cls-1" x1="1698.21" y1="23.81" x2="1698.21" y2="3097.57"/>
      <line class="cls-1" x1="1804.34" y1="0" x2="1804.33" y2="3097.57"/>
      <line class="cls-1" x1="1911.65" y1="23.81" x2="1909.27" y2="3097.57"/>
      <line class="cls-1" x1="2016.58" y1="35.64" x2="2016.58" y2="3097.57"/>
      <line class="cls-1" x1="2122.7" y1="23.81" x2="2122.7" y2="3097.57"/>
      <line class="cls-1" x1="2228.83" y1="0" x2="2228.82" y2="3097.57"/>
      <line class="cls-1" x1="2336.14" y1="23.81" x2="2333.75" y2="3097.57"/>
      <line class="cls-1" x1="2441.07" y1="35.64" x2="2441.07" y2="3097.57"/>
      <line class="cls-1" x1="2547.19" y1="23.81" x2="2547.19" y2="3097.57"/>
      <line class="cls-1" x1="2653.32" y1="0" x2="2653.31" y2="3097.57"/>
      <line class="cls-1" x1="2760.63" y1="23.81" x2="2758.24" y2="3097.57"/>
      <line class="cls-1" x1="2865.56" y1="35.64" x2="2865.56" y2="3097.57"/>
      <line class="cls-1" x1="2971.68" y1="23.81" x2="2971.68" y2="3097.57"/>
      <line class="cls-1" x1="3077.81" y1="0" x2="3077.8" y2="3097.57"/>
      <line class="cls-1" x1="3185.12" y1="23.81" x2="3182.73" y2="3097.57"/>
      <line class="cls-1" x1="3290.05" y1="35.64" x2="3290.05" y2="3097.57"/>
      <line class="cls-1" x1="3396.17" y1="23.81" x2="3396.17" y2="3097.57"/>
      <line class="cls-1" x1="3502.3" y1="0" x2="3502.29" y2="3097.57"/>
      <line class="cls-1" x1="3609.6" y1="23.81" x2="3607.22" y2="3097.57"/>
      <line class="cls-1" x1="3714.54" y1="35.64" x2="3714.54" y2="3097.57"/>
    </g>
    <g id="horizontalGraticule" class="cls-2">
      <line class="cls-1" x1=".25" y1="3096.79" x2="3714.71" y2="3096.49"/>
      <line class="cls-1" x1=".25" y1="2999.24" x2="3714.71" y2="2998.94"/>
      <line class="cls-1" x1=".25" y1="2901.69" x2="3714.71" y2="2901.39"/>
      <line class="cls-1" x1=".25" y1="2804.14" x2="3714.71" y2="2803.84"/>
      <line class="cls-1" x1=".25" y1="2706.59" x2="3714.71" y2="2706.29"/>
      <line class="cls-1" x1=".25" y1="2609.04" x2="3714.71" y2="2608.74"/>
      <line class="cls-1" x1=".25" y1="2511.49" x2="3714.71" y2="2511.19"/>
      <line class="cls-1" x1=".25" y1="2413.94" x2="3714.71" y2="2413.64"/>
      <line class="cls-1" x1=".25" y1="2316.39" x2="3714.71" y2="2316.09"/>
      <line class="cls-1" x1=".25" y1="2218.84" x2="3714.71" y2="2218.54"/>
      <line class="cls-1" x1=".25" y1="2121.29" x2="3714.71" y2="2120.99"/>
      <line class="cls-1" x1=".25" y1="2023.74" x2="3714.71" y2="2023.44"/>
      <line class="cls-1" x1=".25" y1="1926.19" x2="3714.71" y2="1925.89"/>
      <line class="cls-1" x1=".25" y1="1828.64" x2="3714.71" y2="1828.34"/>
      <line class="cls-1" x1=".25" y1="1731.09" x2="3714.71" y2="1730.79"/>
      <line class="cls-1" x1=".25" y1="1633.54" x2="3714.71" y2="1633.24"/>
      <line class="cls-1" x1=".25" y1="1535.99" x2="3714.71" y2="1535.69"/>
      <line class="cls-1" x1=".25" y1="1438.44" x2="3714.71" y2="1438.14"/>
      <line class="cls-1" x1=".25" y1="1340.89" x2="3714.71" y2="1340.59"/>
      <line class="cls-1" x1=".25" y1="1243.34" x2="3714.71" y2="1243.04"/>
      <line class="cls-1" x1=".25" y1="1145.79" x2="3714.71" y2="1145.49"/>
      <line class="cls-1" x1=".25" y1="1048.24" x2="3714.71" y2="1047.94"/>
      <line class="cls-1" x1=".25" y1="950.69" x2="3714.71" y2="950.39"/>
      <line class="cls-1" x1=".25" y1="853.14" x2="3714.71" y2="852.84"/>
      <line class="cls-1" x1=".25" y1="755.59" x2="3714.71" y2="755.29"/>
      <line class="cls-1" x1=".25" y1="658.04" x2="3714.71" y2="657.74"/>
      <line class="cls-1" x1=".25" y1="560.49" x2="3714.71" y2="560.19"/>
      <line class="cls-1" x1=".25" y1="462.94" x2="3714.71" y2="462.64"/>
      <line class="cls-1" x1=".25" y1="365.39" x2="3714.71" y2="365.09"/>
      <line class="cls-1" x1=".25" y1="267.84" x2="3714.71" y2="267.54"/>
      <line class="cls-1" x1=".25" y1="170.29" x2="3714.71" y2="169.99"/>
      <line class="cls-1" x1=".25" y1="72.74" x2="3714.71" y2="72.44"/>
    </g>
  </g>
</svg>