<?xml version="1.0" encoding="UTF-8"?>
<svg id="Layer_2" data-name="Layer 2" xmlns="http://www.w3.org/2000/svg" viewBox="0 0 634.08 1299.61">
  <defs>
    <style>
      .cls-1 {
        stroke: #ff0;
      }

      .cls-1, .cls-2, .cls-3, .cls-4, .cls-5, .cls-6, .cls-7, .cls-8, .cls-9, .cls-10, .cls-11 {
        stroke-dasharray: 6 11 6 12 6 10;
        stroke-miterlimit: 10;
      }

      .cls-1, .cls-2, .cls-3, .cls-4, .cls-5, .cls-6, .cls-7, .cls-9, .cls-10, .cls-11 {
        fill: none;
        stroke-width: 6.9px;
      }

      .cls-2 {
        stroke: #c1272d;
      }

      .cls-3 {
        stroke: #ed1e79;
      }

      .cls-12 {
        letter-spacing: -.01em;
      }

      .cls-4 {
        stroke: #1b1464;
      }

      .cls-13 {
        fill: #fff;
      }

      .cls-5 {
        stroke: #0071bc;
      }

      .cls-14 {
        font-family: Garamond, Garamond;
        font-size: 60px;
      }

      .cls-14, .cls-15 {
        fill: #1a1a1a;
      }

      .cls-6 {
        stroke: aqua;
      }

      .cls-7 {
        stroke: #662d91;
      }

      .cls-8 {
        fill: #f2f2f2;
        stroke: #1a1a1a;
        stroke-width: .5px;
      }

      .cls-16 {
        fill: #94989b;
      }

      .cls-9 {
        stroke: #f7931e;
      }

      .cls-10 {
        stroke: #009245;
      }

      .cls-11 {
        stroke: #fbb03b;
      }

      .cls-17 {
        fill: #3e4347;
      }

      .cls-18 {
        fill: #c7e755;
      }

      .cls-19 {
        letter-spacing: 0em;
      }

      .cls-20 {
        fill: #e6e6e6;
      }
    </style>
  </defs>
  <g id="legend">
    <rect class="cls-20" width="634.08" height="1299.61"/>
    <text class="cls-14" transform="translate(244.64 84.92)"><tspan class="cls-12" x="0" y="0">Le</tspan><tspan class="cls-19" x="57.56" y="0">g</tspan><tspan class="cls-12" x="84.43" y="0">end</tspan></text>
    <g>
      <path class="cls-15" d="M170.28,131.43h-7.41v-3.52h19.02v3.52h-7.42v20.01h-4.19v-20.01Z"/>
      <path class="cls-15" d="M182.81,133.76h3.43l.35,4.02h.1c1.8-2.88,4.48-4.45,7.52-4.45,1.43,0,2.39.22,3.44.72l-.88,3.52c-1.17-.37-1.86-.55-3.2-.55-2.42,0-4.79,1.24-6.6,4.67v9.75h-4.16v-17.68Z"/>
      <path class="cls-15" d="M196.61,142.63c0-5.91,4.22-9.29,8.88-9.29s8.88,3.39,8.88,9.29-4.22,9.25-8.88,9.25-8.88-3.39-8.88-9.25ZM210.1,142.63c0-3.56-1.73-5.9-4.61-5.9s-4.62,2.34-4.62,5.9,1.73,5.85,4.62,5.85,4.61-2.32,4.61-5.85Z"/>
      <path class="cls-15" d="M219.36,145.01v-15.68h-5.9v-3.3h10.06v19.2c0,2.36,1.39,3.26,3.18,3.26.92,0,1.89-.21,3.02-.69l.97,3.08c-1.74.64-2.94,1-5.01,1-4.13,0-6.32-2.53-6.32-6.87Z"/>
      <path class="cls-15" d="M235.92,145.01v-15.68h-5.9v-3.3h10.06v19.2c0,2.36,1.39,3.26,3.18,3.26.92,0,1.89-.21,3.02-.69l.97,3.08c-1.74.64-2.94,1-5.01,1-4.13,0-6.32-2.53-6.32-6.87Z"/>
      <path class="cls-15" d="M246.58,142.58c0-5.77,4.38-9.25,9.11-9.25,5.28,0,8.2,3.5,8.2,8.39,0,.83-.11,1.64-.18,2.09h-14.16v-2.94h11.47l-.8.92c0-3.49-1.64-5.27-4.41-5.27-2.92,0-5.17,2.1-5.17,6.05s2.48,6.07,6.15,6.07c1.85,0,3.37-.54,4.96-1.44l1.42,2.58c-1.89,1.23-4.33,2.09-6.93,2.09-5.41,0-9.67-3.41-9.67-9.29Z"/>
      <path class="cls-15" d="M263.34,158.33l.78-3.22c.47.14.99.24,1.48.24,2.25,0,3.54-1.24,4.26-3.01l.42-1.11-7.92-17.46h4.16l3.61,8.64c.66,1.61,1.32,3.44,1.96,5.22h.14c.55-1.72,1.19-3.56,1.75-5.22l3.18-8.64h3.96l-7.38,18.48c-1.52,3.97-3.64,6.44-7.9,6.44-.93,0-1.82-.14-2.51-.36Z"/>
      <path class="cls-15" d="M296.15,148.44l2.43-2.88c1.79,1.61,4.1,2.68,6.57,2.68,2.74,0,4.19-1.21,4.19-2.85,0-2.1-1.61-2.66-3.91-3.63l-3.24-1.41c-2.47-.96-5.02-2.79-5.02-6.24,0-3.74,3.37-6.63,8.18-6.63,2.88,0,5.61,1.12,7.54,3l-2.14,2.66c-1.6-1.28-3.23-2.01-5.6-2.01-2.23,0-3.74,1-3.74,2.75,0,1.83,1.88,2.5,4.01,3.32l3.09,1.34c3,1.15,5.11,2.94,5.11,6.34,0,3.82-3.22,7.01-8.72,7.01-3.31,0-6.44-1.26-8.75-3.44Z"/>
      <path class="cls-15" d="M317.44,144.33v-7.27h-4.73v-3.1l4.9-.19.54-5.54h3.45v5.54h8.04v3.3h-8.04v7.26c0,2.92,1.1,4.24,4.08,4.24,1.47,0,2.69-.3,3.85-.71l.81,3.03c-1.58.52-3.37,1-5.66,1-5.4,0-7.24-3.03-7.24-7.54Z"/>
      <path class="cls-15" d="M329.7,146.7c0-3.96,3.49-5.94,12.22-6.55-.15-1.98-1.33-3.47-4.21-3.47-1.99,0-3.96.87-5.78,1.88l-1.54-2.75c2.14-1.28,5.04-2.47,8.09-2.47,4.91,0,7.6,2.72,7.6,7.65v10.46h-3.42l-.32-2.19h-.12c-1.86,1.43-4.23,2.62-6.6,2.62-3.45,0-5.92-2.11-5.92-5.18ZM341.92,146.46v-3.72c-6.35.42-8.18,1.72-8.18,3.63,0,1.56,1.38,2.23,3.13,2.23s3.42-.83,5.05-2.14Z"/>
      <path class="cls-15" d="M350.56,144.33v-7.27h-4.73v-3.1l4.9-.19.54-5.54h3.45v5.54h8.04v3.3h-8.04v7.26c0,2.92,1.1,4.24,4.08,4.24,1.47,0,2.69-.3,3.85-.71l.81,3.03c-1.58.52-3.37,1-5.66,1-5.4,0-7.24-3.03-7.24-7.54Z"/>
      <path class="cls-15" d="M370.95,137.06h-7.64v-3.3h11.8v17.68h-4.16v-14.38ZM369.8,127.76c0-1.66,1.25-2.81,2.96-2.81s2.96,1.15,2.96,2.81-1.25,2.78-2.96,2.78-2.96-1.1-2.96-2.78Z"/>
      <path class="cls-15" d="M378.77,142.63c0-5.91,4.22-9.29,8.88-9.29s8.88,3.39,8.88,9.29-4.22,9.25-8.88,9.25-8.88-3.39-8.88-9.25ZM392.26,142.63c0-3.56-1.73-5.9-4.61-5.9s-4.62,2.34-4.62,5.9,1.73,5.85,4.62,5.85,4.61-2.32,4.61-5.85Z"/>
      <path class="cls-15" d="M396.37,133.76h3.4l.32,2.66h.14c1.69-1.71,3.68-3.09,6.38-3.09,4.09,0,5.93,2.61,5.93,7.16v10.95h-4.16v-10.41c0-2.84-.91-4.13-3.29-4.13-1.74,0-2.92.85-4.54,2.48v12.06h-4.16v-17.68Z"/>
    </g>
    <g id="_" data-name="🚇">
      <g>
        <circle class="cls-17" cx="99.81" cy="137.05" r="46.88"/>
        <path class="cls-16" d="M81.32,159.46l-10.2,14.64c1.27.99,2.59,1.91,3.97,2.77l11.41-17.41h-5.17Z"/>
        <path class="cls-20" d="M81.32,159.46h-5.17l-8.74,11.44c1.18,1.13,2.42,2.2,3.71,3.2l10.21-14.64Z"/>
        <path class="cls-16" d="M118.3,159.46h-5.17l11.41,17.41c1.37-.85,2.69-1.78,3.96-2.77l-10.2-14.64Z"/>
        <path class="cls-20" d="M118.3,159.46l10.2,14.64c1.29-1,2.53-2.07,3.71-3.2l-8.74-11.44h-5.17Z"/>
        <path class="cls-18" d="M126.78,156.16c0,2.74-2.24,4.97-4.99,4.97h-43.95c-2.76,0-5-2.23-5-4.97v-36.8c0-19.65,53.93-19.65,53.93,0v36.8h0Z"/>
        <path class="cls-17" d="M123.62,150.38c0,1.68-1.37,3.04-3.06,3.04h-7.37c-1.69,0-3.06-1.36-3.06-3.04s1.37-3.05,3.06-3.05h7.37c1.69,0,3.06,1.36,3.06,3.05Z"/>
        <path class="cls-17" d="M76.01,150.38c0-1.68,1.37-3.05,3.06-3.05h7.36c1.69,0,3.06,1.36,3.06,3.05s-1.37,3.04-3.06,3.04h-7.36c-1.69,0-3.06-1.36-3.06-3.04Z"/>
        <path class="cls-17" d="M123.57,134.58c0,2.3-1.87,4.17-4.17,4.17h-39.17c-2.3,0-4.17-1.87-4.17-4.17v-13.46c0-2.3,1.86-4.17,4.17-4.17h39.17c2.3,0,4.17,1.87,4.17,4.17v13.46h0Z"/>
        <circle class="cls-13" cx="82.75" cy="150.38" r="2.61" transform="translate(-51.25 43.11) rotate(-22.5)"/>
        <circle class="cls-13" cx="116.87" cy="150.38" r="2.61"/>
      </g>
    </g>
    <rect class="cls-8" x="46.04" y="198.22" width="108" height="108"/>
    <rect class="cls-8" x="46.04" y="305" width="108" height="108"/>
    <rect class="cls-8" x="46.04" y="413.04" width="108" height="108"/>
    <rect class="cls-8" x="46.04" y="518.98" width="108" height="108"/>
    <rect class="cls-8" x="46.04" y="627.64" width="108" height="108"/>
    <rect class="cls-8" x="46.93" y="735.08" width="108" height="108"/>
    <rect class="cls-8" x="46.67" y="842.29" width="108" height="108"/>
    <rect class="cls-8" x="46.67" y="950.33" width="108" height="108"/>
    <rect class="cls-8" x="46.67" y="1056.26" width="108" height="108"/>
    <rect class="cls-8" x="46.67" y="1164.42" width="108" height="108"/>
    <line id="coastloop" class="cls-5" x1="64.69" y1="283.51" x2="135.4" y2="212.8"/>
    <line id="bigloop" class="cls-2" x1="64.69" y1="385.45" x2="135.4" y2="314.74"/>
    <line id="oldloop" class="cls-10" x1="64.69" y1="493.57" x2="135.4" y2="422.86"/>
    <line id="goldoop" class="cls-11" x1="64.69" y1="606.37" x2="135.4" y2="535.66"/>
    <line id="summitviewloop" class="cls-7" x1="64.69" y1="716.98" x2="135.4" y2="646.27"/>
    <line id="summitviewloop-2" data-name="summitviewloop" class="cls-3" x1="65.58" y1="824.41" x2="136.29" y2="753.7"/>
    <line id="northorsouthslope" class="cls-4" x1="65.31" y1="928.85" x2="136.02" y2="858.14"/>
    <line id="summitslopes" class="cls-1" x1="65.31" y1="1036.21" x2="136.02" y2="965.5"/>
    <line id="drainslopes" class="cls-9" x1="65.31" y1="1141.22" x2="136.02" y2="1070.51"/>
    <line id="drainslopes-2" data-name="drainslopes" class="cls-6" x1="65.31" y1="1253.72" x2="136.02" y2="1183"/>
    <g id="labels">
      <g>
        <path class="cls-15" d="M167.9,251.26c0-7.69,4.68-12.26,10.9-12.26,2.91,0,5.25,1.39,6.74,2.93l-2.34,2.61c-1.17-1.16-2.57-1.9-4.41-1.9-3.9,0-6.59,3.23-6.59,8.5s2.69,8.62,6.7,8.62c1.92,0,3.45-.88,4.75-2.33l2.34,2.54c-1.88,2.21-4.36,3.43-7.51,3.43-5.83,0-10.58-4.32-10.58-12.13Z"/>
        <path class="cls-15" d="M184.24,254.14c0-5.91,4.22-9.29,8.88-9.29s8.88,3.39,8.88,9.29-4.22,9.25-8.88,9.25-8.88-3.39-8.88-9.25ZM197.73,254.14c0-3.56-1.73-5.9-4.61-5.9s-4.62,2.34-4.62,5.9,1.73,5.85,4.62,5.85,4.61-2.32,4.61-5.85Z"/>
        <path class="cls-15" d="M201.41,258.21c0-3.96,3.49-5.94,12.22-6.55-.15-1.98-1.33-3.47-4.21-3.47-1.99,0-3.96.87-5.78,1.88l-1.54-2.75c2.14-1.28,5.04-2.47,8.09-2.47,4.91,0,7.6,2.72,7.6,7.65v10.46h-3.42l-.32-2.19h-.12c-1.86,1.43-4.23,2.62-6.6,2.62-3.45,0-5.92-2.11-5.92-5.18ZM213.63,257.98v-3.72c-6.35.42-8.18,1.72-8.18,3.63,0,1.56,1.38,2.23,3.13,2.23s3.42-.83,5.05-2.14Z"/>
        <path class="cls-15" d="M217.66,260.66l1.82-2.65c2.11,1.4,4.52,2.24,7.4,2.24,2.45,0,3.6-.93,3.6-2.1s-.78-1.81-4.89-2.66c-4.72-.99-6.81-2.66-6.81-5.35,0-3.07,2.8-5.28,7.75-5.28,2.93,0,5.61,1.15,7.4,2.34l-1.92,2.56c-1.71-1.1-3.75-1.77-5.85-1.77-2.29,0-3.24.88-3.24,1.96,0,1.25,1.3,1.68,4.61,2.4,5.65,1.25,7.12,2.75,7.12,5.56,0,3.04-2.93,5.5-8.3,5.5-3.3,0-6.48-1.25-8.67-2.74Z"/>
        <path class="cls-15" d="M238.83,255.85v-7.27h-4.73v-3.1l4.9-.19.54-5.54h3.45v5.54h8.04v3.3h-8.04v7.26c0,2.92,1.1,4.24,4.08,4.24,1.47,0,2.69-.3,3.85-.71l.81,3.03c-1.58.52-3.37,1-5.66,1-5.4,0-7.24-3.03-7.24-7.54Z"/>
        <path class="cls-15" d="M269.43,239.43h4.16v20.01h11.04v3.52h-15.21v-23.53Z"/>
        <path class="cls-15" d="M283.59,254.14c0-5.91,4.22-9.29,8.88-9.29s8.88,3.39,8.88,9.29-4.22,9.25-8.88,9.25-8.88-3.39-8.88-9.25ZM297.09,254.14c0-3.56-1.73-5.9-4.61-5.9s-4.62,2.34-4.62,5.9,1.73,5.85,4.62,5.85,4.61-2.32,4.61-5.85Z"/>
        <path class="cls-15" d="M300.15,254.14c0-5.91,4.22-9.29,8.88-9.29s8.88,3.39,8.88,9.29-4.22,9.25-8.88,9.25-8.88-3.39-8.88-9.25ZM313.65,254.14c0-3.56-1.73-5.9-4.61-5.9s-4.62,2.34-4.62,5.9,1.73,5.85,4.62,5.85,4.61-2.32,4.61-5.85Z"/>
        <path class="cls-15" d="M317.76,245.28h3.4l.32,2.02h.12c1.53-1.43,3.66-2.45,5.68-2.45,4.58,0,7.2,3.53,7.2,9.01,0,6.03-3.74,9.54-7.85,9.54-1.59,0-3.37-.76-4.8-2.1h-.1l.2,3.1v5.56h-4.16v-24.67ZM330.21,253.88c0-3.52-1.24-5.59-4.1-5.59-1.34,0-2.75.63-4.19,2.12v7.94c1.3,1.17,2.78,1.59,3.84,1.59,2.51,0,4.45-2.06,4.45-6.07Z"/>
      </g>
      <g>
        <path class="cls-15" d="M170.12,346.21h7.3c4.85,0,8.35,1.47,8.35,5.79,0,2.22-1.29,4.39-4.07,5.11v.14c3.4.58,5.29,2.4,5.29,5.58,0,4.71-3.76,6.91-8.96,6.91h-7.91v-23.53ZM177.05,355.88c3.29,0,4.63-1.19,4.63-3.38s-1.5-2.95-4.54-2.95h-2.86v6.33h2.77ZM177.6,366.4c3.45,0,5.3-1.19,5.3-3.85,0-2.48-1.78-3.5-5.3-3.5h-3.31v7.34h3.31Z"/>
        <path class="cls-15" d="M194.24,355.36h-7.64v-3.3h11.8v17.68h-4.16v-14.38ZM193.09,346.06c0-1.66,1.25-2.81,2.96-2.81s2.96,1.15,2.96,2.81-1.25,2.78-2.96,2.78-2.96-1.1-2.96-2.78Z"/>
        <path class="cls-15" d="M202.36,372.85c0-1.43.98-2.73,2.83-3.73v-.14c-.96-.56-1.8-1.47-1.8-2.96,0-1.16.81-2.43,2.11-3.32v-.14c-1.25-.89-2.27-2.47-2.27-4.56,0-4.05,3.39-6.37,7.27-6.37,1.03,0,1.95.14,2.76.43h7.25v3.17h-4.06c.59.68,1.12,1.77,1.12,2.92,0,3.93-3.11,6-7.07,6-.81,0-1.77-.16-2.7-.5-.71.46-1.08.95-1.08,1.66,0,1.16,1.13,1.67,3.33,1.67h3.61c4.59,0,6.96,1.23,6.96,4.32,0,3.5-3.96,6.28-10.19,6.28-4.87,0-8.08-1.57-8.08-4.71ZM216.63,371.98c0-1.39-1.21-1.74-3.56-1.74h-2.83c-1.15,0-1.99-.07-2.69-.26-1.27.73-1.74,1.5-1.74,2.32,0,1.58,1.86,2.5,5.12,2.5,3.46,0,5.7-1.31,5.7-2.82ZM213.86,358c0-2.16-1.51-3.5-3.36-3.5s-3.34,1.34-3.34,3.5,1.52,3.54,3.34,3.54,3.36-1.32,3.36-3.54Z"/>
        <path class="cls-15" d="M237.58,346.21h4.16v20.01h11.04v3.52h-15.21v-23.53Z"/>
        <path class="cls-15" d="M251.74,360.92c0-5.91,4.22-9.29,8.88-9.29s8.88,3.39,8.88,9.29-4.22,9.25-8.88,9.25-8.88-3.39-8.88-9.25ZM265.23,360.92c0-3.56-1.73-5.9-4.61-5.9s-4.62,2.34-4.62,5.9,1.73,5.85,4.62,5.85,4.61-2.32,4.61-5.85Z"/>
        <path class="cls-15" d="M268.3,360.92c0-5.91,4.22-9.29,8.88-9.29s8.88,3.39,8.88,9.29-4.22,9.25-8.88,9.25-8.88-3.39-8.88-9.25ZM281.79,360.92c0-3.56-1.73-5.9-4.61-5.9s-4.62,2.34-4.62,5.9,1.73,5.85,4.62,5.85,4.61-2.32,4.61-5.85Z"/>
        <path class="cls-15" d="M285.9,352.06h3.4l.32,2.02h.12c1.53-1.43,3.66-2.45,5.68-2.45,4.58,0,7.2,3.53,7.2,9.01,0,6.03-3.74,9.54-7.85,9.54-1.59,0-3.37-.76-4.8-2.1h-.1l.2,3.1v5.56h-4.16v-24.67ZM298.35,360.66c0-3.52-1.24-5.59-4.1-5.59-1.34,0-2.75.63-4.19,2.12v7.94c1.3,1.17,2.78,1.59,3.84,1.59,2.51,0,4.45-2.06,4.45-6.07Z"/>
      </g>
      <g>
        <path class="cls-15" d="M166.93,467.59c0-7.74,3.8-12.09,9.26-12.09s9.26,4.35,9.26,12.09-3.8,12.31-9.26,12.31-9.26-4.42-9.26-12.31ZM181.13,467.59c0-5.4-1.95-8.45-4.95-8.45s-4.95,3.05-4.95,8.45,1.95,8.67,4.95,8.67,4.95-3.12,4.95-8.67Z"/>
        <path class="cls-15" d="M190.06,473.03v-15.68h-5.9v-3.3h10.06v19.2c0,2.36,1.39,3.26,3.18,3.26.92,0,1.89-.21,3.02-.69l.97,3.08c-1.74.64-2.94,1-5.01,1-4.13,0-6.32-2.53-6.32-6.87Z"/>
        <path class="cls-15" d="M200.43,470.65c0-5.77,3.77-9.29,7.77-9.29,2.02,0,3.5.76,4.87,2.07h.1l-.2-2.98v-6.4h4.16v25.42h-3.4l-.32-2.07h-.12c-1.37,1.38-3.34,2.5-5.33,2.5-4.55,0-7.55-3.42-7.55-9.25ZM212.98,474.34v-7.94c-1.27-1.17-2.49-1.59-3.77-1.59-2.47,0-4.52,2.11-4.52,5.8s1.61,5.85,4.29,5.85c1.46,0,2.77-.65,4-2.12Z"/>
        <path class="cls-15" d="M235.95,455.93h4.16v20.01h11.04v3.52h-15.21v-23.53Z"/>
        <path class="cls-15" d="M250.11,470.65c0-5.91,4.22-9.29,8.88-9.29s8.88,3.39,8.88,9.29-4.22,9.25-8.88,9.25-8.88-3.39-8.88-9.25ZM263.6,470.65c0-3.56-1.73-5.9-4.61-5.9s-4.62,2.34-4.62,5.9,1.73,5.85,4.62,5.85,4.61-2.32,4.61-5.85Z"/>
        <path class="cls-15" d="M266.67,470.65c0-5.91,4.22-9.29,8.88-9.29s8.88,3.39,8.88,9.29-4.22,9.25-8.88,9.25-8.88-3.39-8.88-9.25ZM280.16,470.65c0-3.56-1.73-5.9-4.61-5.9s-4.62,2.34-4.62,5.9,1.73,5.85,4.62,5.85,4.61-2.32,4.61-5.85Z"/>
        <path class="cls-15" d="M284.27,461.79h3.4l.32,2.02h.12c1.53-1.43,3.66-2.45,5.68-2.45,4.58,0,7.2,3.53,7.2,9.01,0,6.03-3.74,9.54-7.85,9.54-1.59,0-3.37-.76-4.8-2.1h-.1l.2,3.1v5.56h-4.16v-24.67ZM296.72,470.39c0-3.52-1.24-5.59-4.1-5.59-1.34,0-2.75.63-4.19,2.12v7.94c1.3,1.17,2.78,1.59,3.84,1.59,2.51,0,4.45-2.06,4.45-6.07Z"/>
      </g>
      <g>
        <path class="cls-15" d="M168.27,574.31c0-7.74,4.57-12.26,10.67-12.26,3.14,0,5.28,1.46,6.69,2.93l-2.33,2.61c-1.06-1.1-2.3-1.9-4.35-1.9-3.74,0-6.33,3.23-6.33,8.5s2.26,8.62,6.4,8.62c1.26,0,2.48-.37,3.16-1.02v-5.08h-4.03v-3.42h7.83v10.38c-1.52,1.49-4.17,2.79-7.2,2.79-5.97,0-10.5-4.32-10.5-12.13Z"/>
        <path class="cls-15" d="M185.01,577.2c0-5.91,4.22-9.29,8.88-9.29s8.88,3.39,8.88,9.29-4.22,9.25-8.88,9.25-8.88-3.39-8.88-9.25ZM198.5,577.2c0-3.56-1.73-5.9-4.61-5.9s-4.62,2.34-4.62,5.9,1.73,5.85,4.62,5.85,4.61-2.32,4.61-5.85Z"/>
        <path class="cls-15" d="M207.77,579.58v-15.68h-5.9v-3.3h10.06v19.2c0,2.36,1.39,3.26,3.18,3.26.92,0,1.89-.21,3.02-.69l.97,3.08c-1.74.64-2.94,1-5.01,1-4.13,0-6.32-2.53-6.32-6.87Z"/>
        <path class="cls-15" d="M218.13,577.2c0-5.77,3.77-9.29,7.77-9.29,2.02,0,3.5.76,4.87,2.07h.1l-.2-2.98v-6.4h4.16v25.42h-3.4l-.32-2.07h-.12c-1.37,1.38-3.34,2.5-5.33,2.5-4.55,0-7.55-3.42-7.55-9.25ZM230.68,580.88v-7.94c-1.27-1.17-2.49-1.59-3.77-1.59-2.47,0-4.52,2.11-4.52,5.8s1.61,5.85,4.29,5.85c1.46,0,2.77-.65,4-2.12Z"/>
        <path class="cls-15" d="M253.65,562.48h4.16v20.01h11.04v3.52h-15.21v-23.53Z"/>
        <path class="cls-15" d="M267.81,577.2c0-5.91,4.22-9.29,8.88-9.29s8.88,3.39,8.88,9.29-4.22,9.25-8.88,9.25-8.88-3.39-8.88-9.25ZM281.3,577.2c0-3.56-1.73-5.9-4.61-5.9s-4.62,2.34-4.62,5.9,1.73,5.85,4.62,5.85,4.61-2.32,4.61-5.85Z"/>
        <path class="cls-15" d="M284.37,577.2c0-5.91,4.22-9.29,8.88-9.29s8.88,3.39,8.88,9.29-4.22,9.25-8.88,9.25-8.88-3.39-8.88-9.25ZM297.86,577.2c0-3.56-1.73-5.9-4.61-5.9s-4.62,2.34-4.62,5.9,1.73,5.85,4.62,5.85,4.61-2.32,4.61-5.85Z"/>
        <path class="cls-15" d="M301.97,568.33h3.4l.32,2.02h.12c1.53-1.43,3.66-2.45,5.68-2.45,4.58,0,7.2,3.53,7.2,9.01,0,6.03-3.74,9.54-7.85,9.54-1.59,0-3.37-.76-4.8-2.1h-.1l.2,3.1v5.56h-4.16v-24.67ZM314.42,576.93c0-3.52-1.24-5.59-4.1-5.59-1.34,0-2.75.63-4.19,2.12v7.94c1.3,1.17,2.78,1.59,3.84,1.59,2.51,0,4.45-2.06,4.45-6.07Z"/>
      </g>
      <g>
        <path class="cls-15" d="M171.03,690.67l2.43-2.88c1.79,1.61,4.1,2.68,6.57,2.68,2.74,0,4.19-1.21,4.19-2.85,0-2.1-1.61-2.66-3.91-3.63l-3.24-1.41c-2.47-.96-5.02-2.79-5.02-6.24,0-3.74,3.37-6.63,8.18-6.63,2.88,0,5.61,1.12,7.54,3l-2.14,2.66c-1.6-1.28-3.23-2.01-5.6-2.01-2.23,0-3.74,1-3.74,2.75,0,1.83,1.88,2.5,4.01,3.32l3.09,1.34c3,1.15,5.11,2.94,5.11,6.34,0,3.82-3.22,7.01-8.72,7.01-3.31,0-6.44-1.26-8.75-3.44Z"/>
        <path class="cls-15" d="M187.98,686.94v-10.95h4.16v10.41c0,2.81.89,4.13,3.31,4.13,1.66,0,2.86-.7,4.43-2.61v-11.93h4.16v17.68h-3.42l-.32-2.81h-.14c-1.67,1.93-3.63,3.24-6.26,3.24-4.1,0-5.92-2.61-5.92-7.16Z"/>
        <path class="cls-15" d="M203.71,675.99h3.19l.32,2.25h.1c.78-1.53,1.89-2.68,3.93-2.68,1.63,0,2.74,1.01,3.21,2.97.82-1.74,2-2.97,4.02-2.97,2.5,0,3.94,2.05,3.94,5.58v12.53h-4.01v-12.23c0-1.55-.42-2.33-1.41-2.33s-1.5.73-2.21,2.21v12.35h-3.45v-12.23c0-1.55-.41-2.33-1.4-2.33-.93,0-1.55.73-2.22,2.21v12.35h-4.01v-17.68Z"/>
        <path class="cls-15" d="M220.27,675.99h3.19l.32,2.25h.1c.78-1.53,1.89-2.68,3.93-2.68,1.63,0,2.74,1.01,3.21,2.97.82-1.74,2-2.97,4.02-2.97,2.5,0,3.94,2.05,3.94,5.58v12.53h-4.01v-12.23c0-1.55-.42-2.33-1.41-2.33s-1.5.73-2.21,2.21v12.35h-3.45v-12.23c0-1.55-.41-2.33-1.4-2.33-.93,0-1.55.73-2.22,2.21v12.35h-4.01v-17.68Z"/>
        <path class="cls-15" d="M245.83,679.29h-7.64v-3.3h11.8v17.68h-4.16v-14.38ZM244.68,669.99c0-1.66,1.25-2.81,2.96-2.81s2.96,1.15,2.96,2.81-1.25,2.78-2.96,2.78-2.96-1.1-2.96-2.78Z"/>
        <path class="cls-15" d="M258.56,686.57v-7.27h-4.73v-3.1l4.9-.19.54-5.54h3.45v5.54h8.04v3.3h-8.04v7.26c0,2.92,1.1,4.24,4.08,4.24,1.47,0,2.69-.3,3.85-.71l.81,3.03c-1.58.52-3.37,1-5.66,1-5.4,0-7.24-3.03-7.24-7.54Z"/>
        <path class="cls-15" d="M269.74,675.99h4.21l3.41,9.15c.63,1.78,1.2,3.56,1.77,5.34h.14c.57-1.78,1.09-3.56,1.75-5.34l3.41-9.15h3.99l-6.9,17.68h-4.74l-7.05-17.68Z"/>
        <path class="cls-15" d="M295.51,679.29h-7.64v-3.3h11.8v17.68h-4.16v-14.38ZM294.36,669.99c0-1.66,1.25-2.81,2.96-2.81s2.96,1.15,2.96,2.81-1.25,2.78-2.96,2.78-2.96-1.1-2.96-2.78Z"/>
        <path class="cls-15" d="M303.61,684.81c0-5.77,4.38-9.25,9.11-9.25,5.28,0,8.2,3.5,8.2,8.39,0,.83-.11,1.64-.18,2.09h-14.16v-2.94h11.47l-.8.92c0-3.49-1.64-5.27-4.41-5.27-2.92,0-5.17,2.1-5.17,6.05s2.48,6.07,6.15,6.07c1.85,0,3.37-.54,4.96-1.44l1.42,2.58c-1.89,1.23-4.33,2.09-6.93,2.09-5.41,0-9.67-3.41-9.67-9.29Z"/>
        <path class="cls-15" d="M318.17,675.99h4.06l1.58,9.2c.27,1.71.47,3.33.69,5.06h.13c.2-1.74.53-3.4.92-5.06l1.63-7.46h3.4l1.61,7.46c.37,1.71.76,3.33.99,5.06h.14c.26-1.74.39-3.35.65-5.06l1.53-9.2h3.85l-3.24,17.68h-5.03l-1.49-7.06c-.26-1.38-.51-3.1-.76-5.24h-.14c-.22,1.86-.44,3.5-.73,5.24l-1.44,7.06h-4.98l-3.37-17.68Z"/>
        <path class="cls-15" d="M355.4,670.14h4.16v20.01h11.04v3.52h-15.21v-23.53Z"/>
        <path class="cls-15" d="M369.57,684.86c0-5.91,4.22-9.29,8.88-9.29s8.88,3.39,8.88,9.29-4.22,9.25-8.88,9.25-8.88-3.39-8.88-9.25ZM383.06,684.86c0-3.56-1.73-5.9-4.61-5.9s-4.62,2.34-4.62,5.9,1.73,5.85,4.62,5.85,4.61-2.32,4.61-5.85Z"/>
        <path class="cls-15" d="M386.12,684.86c0-5.91,4.22-9.29,8.88-9.29s8.88,3.39,8.88,9.29-4.22,9.25-8.88,9.25-8.88-3.39-8.88-9.25ZM399.62,684.86c0-3.56-1.73-5.9-4.61-5.9s-4.62,2.34-4.62,5.9,1.73,5.85,4.62,5.85,4.61-2.32,4.61-5.85Z"/>
        <path class="cls-15" d="M403.73,675.99h3.4l.32,2.02h.12c1.53-1.43,3.66-2.45,5.68-2.45,4.58,0,7.2,3.53,7.2,9.01,0,6.03-3.74,9.54-7.85,9.54-1.59,0-3.37-.76-4.8-2.1h-.1l.2,3.1v5.56h-4.16v-24.67ZM416.18,684.59c0-3.52-1.24-5.59-4.1-5.59-1.34,0-2.75.63-4.19,2.12v7.94c1.3,1.17,2.78,1.59,3.84,1.59,2.51,0,4.45-2.06,4.45-6.07Z"/>
      </g>
      <g>
        <path class="cls-15" d="M178.52,781.1h-7.41v-3.52h19.02v3.52h-7.42v20.01h-4.19v-20.01Z"/>
        <path class="cls-15" d="M188.59,792.25c0-5.77,4.38-9.25,9.11-9.25,5.28,0,8.2,3.5,8.2,8.39,0,.83-.11,1.64-.18,2.09h-14.16v-2.94h11.47l-.8.92c0-3.49-1.64-5.27-4.41-5.27-2.92,0-5.17,2.1-5.17,6.05s2.48,6.07,6.15,6.07c1.85,0,3.37-.54,4.96-1.44l1.42,2.58c-1.89,1.23-4.33,2.09-6.93,2.09-5.41,0-9.67-3.41-9.67-9.29Z"/>
        <path class="cls-15" d="M204.6,783.43h3.19l.32,2.25h.1c.78-1.53,1.89-2.68,3.93-2.68,1.63,0,2.74,1.01,3.21,2.97.82-1.74,2-2.97,4.02-2.97,2.5,0,3.94,2.05,3.94,5.58v12.53h-4.01v-12.23c0-1.55-.42-2.33-1.41-2.33s-1.5.73-2.21,2.21v12.35h-3.45v-12.23c0-1.55-.41-2.33-1.4-2.33-.93,0-1.55.73-2.22,2.21v12.35h-4.01v-17.68Z"/>
        <path class="cls-15" d="M222.46,783.43h3.4l.32,2.02h.12c1.53-1.43,3.66-2.45,5.68-2.45,4.58,0,7.2,3.53,7.2,9.01,0,6.03-3.74,9.54-7.85,9.54-1.59,0-3.37-.76-4.8-2.1h-.1l.2,3.1v5.56h-4.16v-24.67ZM234.91,792.03c0-3.52-1.24-5.59-4.1-5.59-1.34,0-2.75.63-4.19,2.12v7.94c1.3,1.17,2.78,1.59,3.84,1.59,2.51,0,4.45-2.06,4.45-6.07Z"/>
        <path class="cls-15" d="M244.17,794.67v-15.68h-5.9v-3.3h10.06v19.2c0,2.36,1.39,3.26,3.18,3.26.92,0,1.89-.21,3.02-.69l.97,3.08c-1.74.64-2.94,1-5.01,1-4.13,0-6.32-2.53-6.32-6.87Z"/>
        <path class="cls-15" d="M254.82,792.25c0-5.77,4.38-9.25,9.11-9.25,5.28,0,8.2,3.5,8.2,8.39,0,.83-.11,1.64-.18,2.09h-14.16v-2.94h11.47l-.8.92c0-3.49-1.64-5.27-4.41-5.27-2.92,0-5.17,2.1-5.17,6.05s2.48,6.07,6.15,6.07c1.85,0,3.37-.54,4.96-1.44l1.42,2.58c-1.89,1.23-4.33,2.09-6.92,2.09-5.41,0-9.67-3.41-9.67-9.29Z"/>
        <path class="cls-15" d="M290.05,777.58h4.16v20.01h11.04v3.52h-15.21v-23.53Z"/>
        <path class="cls-15" d="M304.21,792.29c0-5.91,4.22-9.29,8.88-9.29s8.88,3.39,8.88,9.29-4.22,9.25-8.88,9.25-8.88-3.39-8.88-9.25ZM317.71,792.29c0-3.56-1.73-5.9-4.61-5.9s-4.62,2.34-4.62,5.9,1.73,5.85,4.62,5.85,4.61-2.32,4.61-5.85Z"/>
        <path class="cls-15" d="M320.77,792.29c0-5.91,4.22-9.29,8.88-9.29s8.88,3.39,8.88,9.29-4.22,9.25-8.88,9.25-8.88-3.39-8.88-9.25ZM334.27,792.29c0-3.56-1.73-5.9-4.61-5.9s-4.62,2.34-4.62,5.9,1.73,5.85,4.62,5.85,4.61-2.32,4.61-5.85Z"/>
        <path class="cls-15" d="M338.38,783.43h3.4l.32,2.02h.12c1.53-1.43,3.66-2.45,5.68-2.45,4.58,0,7.2,3.53,7.2,9.01,0,6.03-3.74,9.54-7.85,9.54-1.59,0-3.37-.76-4.8-2.1h-.1l.2,3.1v5.56h-4.16v-24.67ZM350.83,792.03c0-3.52-1.24-5.59-4.1-5.59-1.34,0-2.75.63-4.19,2.12v7.94c1.3,1.17,2.78,1.59,3.84,1.59,2.51,0,4.45-2.06,4.45-6.07Z"/>
      </g>
      <g>
        <path class="cls-15" d="M172.74,873.8h4.39l6.22,13.22,2.14,5.03h.1c-.17-2.41-.57-5.39-.57-8.02v-10.23h3.99v23.53h-4.4l-6.22-13.23-2.14-5.01h-.1c.17,2.5.57,5.34.57,7.95v10.3h-3.99v-23.53Z"/>
        <path class="cls-15" d="M188.56,888.52c0-5.91,4.22-9.29,8.88-9.29s8.88,3.39,8.88,9.29-4.22,9.25-8.88,9.25-8.88-3.39-8.88-9.25ZM202.06,888.52c0-3.56-1.73-5.9-4.61-5.9s-4.62,2.34-4.62,5.9,1.73,5.85,4.62,5.85,4.61-2.32,4.61-5.85Z"/>
        <path class="cls-15" d="M207.88,879.66h3.43l.35,4.02h.1c1.8-2.88,4.48-4.45,7.52-4.45,1.43,0,2.39.22,3.44.72l-.88,3.52c-1.17-.37-1.86-.55-3.2-.55-2.42,0-4.79,1.24-6.6,4.67v9.75h-4.16v-17.68Z"/>
        <path class="cls-15" d="M226.6,890.23v-7.27h-4.73v-3.1l4.9-.19.54-5.54h3.45v5.54h8.04v3.3h-8.04v7.26c0,2.92,1.1,4.24,4.08,4.24,1.47,0,2.69-.3,3.85-.71l.81,3.03c-1.58.52-3.37,1-5.66,1-5.4,0-7.24-3.03-7.24-7.54Z"/>
        <path class="cls-15" d="M239.29,871.92h4.16v6.56l-.25,3.78h.12c1.54-1.65,3.53-3.04,6.21-3.04,4.07,0,5.92,2.61,5.92,7.16v10.95h-4.16v-10.41c0-2.84-.91-4.13-3.29-4.13-1.74,0-2.92.85-4.54,2.48v12.06h-4.16v-25.42Z"/>
        <path class="cls-15" d="M271.55,894.33l2.43-2.88c1.79,1.61,4.1,2.68,6.57,2.68,2.74,0,4.19-1.21,4.19-2.85,0-2.1-1.61-2.66-3.91-3.63l-3.24-1.41c-2.47-.96-5.02-2.79-5.02-6.24,0-3.74,3.37-6.63,8.18-6.63,2.88,0,5.61,1.12,7.54,3l-2.14,2.66c-1.6-1.28-3.23-2.01-5.6-2.01-2.23,0-3.74,1-3.74,2.75,0,1.83,1.88,2.5,4.01,3.32l3.09,1.34c3,1.15,5.11,2.94,5.11,6.34,0,3.82-3.22,7.01-8.72,7.01-3.31,0-6.44-1.26-8.75-3.44Z"/>
        <path class="cls-15" d="M294.12,890.9v-15.68h-5.9v-3.3h10.06v19.2c0,2.36,1.39,3.26,3.18,3.26.92,0,1.89-.21,3.02-.69l.97,3.08c-1.74.64-2.94,1-5.01,1-4.13,0-6.32-2.53-6.32-6.87Z"/>
        <path class="cls-15" d="M304.48,888.52c0-5.91,4.22-9.29,8.88-9.29s8.88,3.39,8.88,9.29-4.22,9.25-8.88,9.25-8.88-3.39-8.88-9.25ZM317.97,888.52c0-3.56-1.73-5.9-4.61-5.9s-4.62,2.34-4.62,5.9,1.73,5.85,4.62,5.85,4.61-2.32,4.61-5.85Z"/>
        <path class="cls-15" d="M322.08,879.66h3.4l.32,2.02h.12c1.53-1.43,3.66-2.45,5.68-2.45,4.58,0,7.2,3.53,7.2,9.01,0,6.03-3.74,9.54-7.85,9.54-1.59,0-3.37-.76-4.8-2.1h-.1l.2,3.1v5.56h-4.16v-24.67ZM334.53,888.26c0-3.52-1.24-5.59-4.1-5.59-1.34,0-2.75.63-4.19,2.12v7.94c1.3,1.17,2.78,1.59,3.84,1.59,2.51,0,4.45-2.06,4.45-6.07Z"/>
        <path class="cls-15" d="M337.89,888.48c0-5.77,4.38-9.25,9.11-9.25,5.28,0,8.2,3.5,8.2,8.39,0,.83-.11,1.64-.18,2.09h-14.16v-2.94h11.47l-.8.92c0-3.49-1.64-5.27-4.41-5.27-2.92,0-5.17,2.1-5.17,6.05s2.48,6.07,6.15,6.07c1.85,0,3.37-.54,4.96-1.44l1.42,2.58c-1.89,1.23-4.33,2.09-6.93,2.09-5.41,0-9.67-3.41-9.67-9.29Z"/>
        <path class="cls-15" d="M359.04,902.59c3.13-1.25,4.65-3.13,4.6-5.76l-.41-3.81,2.1,3.24c-.63.61-1.4.83-2.2.83-1.8,0-3.36-1.11-3.36-3.2s1.57-3.22,3.47-3.22c2.53,0,3.86,2.04,3.86,5.4,0,4.4-2.5,7.52-6.97,9.01l-1.09-2.48Z"/>
        <path class="cls-15" d="M387.28,888.52c0-5.91,4.22-9.29,8.88-9.29s8.88,3.39,8.88,9.29-4.22,9.25-8.88,9.25-8.88-3.39-8.88-9.25ZM400.77,888.52c0-3.56-1.73-5.9-4.61-5.9s-4.62,2.34-4.62,5.9,1.73,5.85,4.62,5.85,4.61-2.32,4.61-5.85Z"/>
        <path class="cls-15" d="M406.6,879.66h3.43l.35,4.02h.1c1.8-2.88,4.48-4.45,7.52-4.45,1.43,0,2.39.22,3.44.72l-.88,3.52c-1.17-.37-1.86-.55-3.2-.55-2.42,0-4.79,1.24-6.6,4.67v9.75h-4.16v-17.68Z"/>
        <path class="cls-15" d="M172.19,924.33l2.43-2.88c1.79,1.61,4.1,2.68,6.57,2.68,2.74,0,4.19-1.21,4.19-2.85,0-2.1-1.61-2.66-3.91-3.63l-3.24-1.41c-2.47-.96-5.02-2.79-5.02-6.24,0-3.74,3.37-6.63,8.18-6.63,2.88,0,5.61,1.12,7.54,3l-2.14,2.66c-1.6-1.28-3.23-2.01-5.6-2.01-2.23,0-3.74,1-3.74,2.75,0,1.83,1.88,2.5,4.01,3.32l3.09,1.34c3,1.15,5.11,2.94,5.11,6.34,0,3.82-3.22,7.01-8.72,7.01-3.31,0-6.44-1.26-8.75-3.44Z"/>
        <path class="cls-15" d="M188.56,918.52c0-5.91,4.22-9.29,8.88-9.29s8.88,3.39,8.88,9.29-4.22,9.25-8.88,9.25-8.88-3.39-8.88-9.25ZM202.06,918.52c0-3.56-1.73-5.9-4.61-5.9s-4.62,2.34-4.62,5.9,1.73,5.85,4.62,5.85,4.61-2.32,4.61-5.85Z"/>
        <path class="cls-15" d="M205.7,920.61v-10.95h4.16v10.41c0,2.81.89,4.13,3.31,4.13,1.66,0,2.86-.7,4.43-2.61v-11.93h4.16v17.68h-3.42l-.32-2.81h-.14c-1.67,1.93-3.63,3.24-6.26,3.24-4.1,0-5.92-2.61-5.92-7.16Z"/>
        <path class="cls-15" d="M226.6,920.23v-7.27h-4.73v-3.1l4.9-.19.54-5.54h3.45v5.54h8.04v3.3h-8.04v7.26c0,2.92,1.1,4.24,4.08,4.24,1.47,0,2.69-.3,3.85-.71l.81,3.03c-1.58.52-3.37,1-5.66,1-5.4,0-7.24-3.03-7.24-7.54Z"/>
        <path class="cls-15" d="M239.29,901.92h4.16v6.56l-.25,3.78h.12c1.54-1.65,3.53-3.04,6.21-3.04,4.07,0,5.92,2.61,5.92,7.16v10.95h-4.16v-10.41c0-2.84-.91-4.13-3.29-4.13-1.74,0-2.92.85-4.54,2.48v12.06h-4.16v-25.42Z"/>
        <path class="cls-15" d="M271.55,924.33l2.43-2.88c1.79,1.61,4.1,2.68,6.57,2.68,2.74,0,4.19-1.21,4.19-2.85,0-2.1-1.61-2.66-3.91-3.63l-3.24-1.41c-2.47-.96-5.02-2.79-5.02-6.24,0-3.74,3.37-6.63,8.18-6.63,2.88,0,5.61,1.12,7.54,3l-2.14,2.66c-1.6-1.28-3.23-2.01-5.6-2.01-2.23,0-3.74,1-3.74,2.75,0,1.83,1.88,2.5,4.01,3.32l3.09,1.34c3,1.15,5.11,2.94,5.11,6.34,0,3.82-3.22,7.01-8.72,7.01-3.31,0-6.44-1.26-8.75-3.44Z"/>
        <path class="cls-15" d="M294.12,920.9v-15.68h-5.9v-3.3h10.06v19.2c0,2.36,1.39,3.26,3.18,3.26.92,0,1.89-.21,3.02-.69l.97,3.08c-1.74.64-2.94,1-5.01,1-4.13,0-6.32-2.53-6.32-6.87Z"/>
        <path class="cls-15" d="M304.48,918.52c0-5.91,4.22-9.29,8.88-9.29s8.88,3.39,8.88,9.29-4.22,9.25-8.88,9.25-8.88-3.39-8.88-9.25ZM317.97,918.52c0-3.56-1.73-5.9-4.61-5.9s-4.62,2.34-4.62,5.9,1.73,5.85,4.62,5.85,4.61-2.32,4.61-5.85Z"/>
        <path class="cls-15" d="M322.08,909.66h3.4l.32,2.02h.12c1.53-1.43,3.66-2.45,5.68-2.45,4.58,0,7.2,3.53,7.2,9.01,0,6.03-3.74,9.54-7.85,9.54-1.59,0-3.37-.76-4.8-2.1h-.1l.2,3.1v5.56h-4.16v-24.67ZM334.53,918.26c0-3.52-1.24-5.59-4.1-5.59-1.34,0-2.75.63-4.19,2.12v7.94c1.3,1.17,2.78,1.59,3.84,1.59,2.51,0,4.45-2.06,4.45-6.07Z"/>
        <path class="cls-15" d="M337.89,918.48c0-5.77,4.38-9.25,9.11-9.25,5.28,0,8.2,3.5,8.2,8.39,0,.83-.11,1.64-.18,2.09h-14.16v-2.94h11.47l-.8.92c0-3.49-1.64-5.27-4.41-5.27-2.92,0-5.17,2.1-5.17,6.05s2.48,6.07,6.15,6.07c1.85,0,3.37-.54,4.96-1.44l1.42,2.58c-1.89,1.23-4.33,2.09-6.93,2.09-5.41,0-9.67-3.41-9.67-9.29Z"/>
      </g>
      <g>
        <path class="cls-15" d="M172.5,1016.03l2.43-2.88c1.79,1.61,4.1,2.68,6.57,2.68,2.74,0,4.19-1.21,4.19-2.85,0-2.1-1.61-2.66-3.91-3.63l-3.24-1.41c-2.47-.96-5.02-2.79-5.02-6.24,0-3.74,3.37-6.63,8.18-6.63,2.88,0,5.61,1.12,7.54,3l-2.14,2.66c-1.6-1.28-3.23-2.01-5.6-2.01-2.23,0-3.74,1-3.74,2.75,0,1.83,1.88,2.5,4.01,3.32l3.09,1.34c3,1.15,5.11,2.94,5.11,6.34,0,3.82-3.22,7.01-8.72,7.01-3.31,0-6.44-1.26-8.75-3.44Z"/>
        <path class="cls-15" d="M189.44,1012.31v-10.95h4.16v10.41c0,2.81.89,4.13,3.31,4.13,1.66,0,2.86-.7,4.43-2.61v-11.93h4.16v17.68h-3.42l-.32-2.81h-.14c-1.67,1.93-3.63,3.24-6.26,3.24-4.1,0-5.92-2.61-5.92-7.16Z"/>
        <path class="cls-15" d="M205.17,1001.36h3.19l.32,2.25h.1c.78-1.53,1.89-2.68,3.93-2.68,1.63,0,2.74,1.01,3.21,2.97.82-1.74,2-2.97,4.02-2.97,2.5,0,3.94,2.05,3.94,5.58v12.53h-4.01v-12.23c0-1.55-.42-2.33-1.41-2.33s-1.5.73-2.21,2.21v12.35h-3.45v-12.23c0-1.55-.41-2.33-1.4-2.33-.93,0-1.55.73-2.22,2.21v12.35h-4.01v-17.68Z"/>
        <path class="cls-15" d="M221.73,1001.36h3.19l.32,2.25h.1c.78-1.53,1.89-2.68,3.93-2.68,1.63,0,2.74,1.01,3.21,2.97.82-1.74,2-2.97,4.02-2.97,2.5,0,3.94,2.05,3.94,5.58v12.53h-4.01v-12.23c0-1.55-.42-2.33-1.41-2.33s-1.5.73-2.21,2.21v12.35h-3.45v-12.23c0-1.55-.41-2.33-1.4-2.33-.93,0-1.55.73-2.22,2.21v12.35h-4.01v-17.68Z"/>
        <path class="cls-15" d="M247.29,1004.66h-7.64v-3.3h11.8v17.68h-4.16v-14.38ZM246.14,995.36c0-1.66,1.25-2.81,2.96-2.81s2.96,1.15,2.96,2.81-1.25,2.78-2.96,2.78-2.96-1.1-2.96-2.78Z"/>
        <path class="cls-15" d="M260.02,1011.93v-7.27h-4.73v-3.1l4.9-.19.54-5.54h3.45v5.54h8.04v3.3h-8.04v7.26c0,2.92,1.1,4.24,4.08,4.24,1.47,0,2.69-.3,3.85-.71l.81,3.03c-1.58.52-3.37,1-5.66,1-5.4,0-7.24-3.03-7.24-7.54Z"/>
        <path class="cls-15" d="M288.42,1016.03l2.43-2.88c1.79,1.61,4.1,2.68,6.57,2.68,2.74,0,4.19-1.21,4.19-2.85,0-2.1-1.61-2.66-3.91-3.63l-3.24-1.41c-2.47-.96-5.02-2.79-5.02-6.24,0-3.74,3.37-6.63,8.18-6.63,2.88,0,5.61,1.12,7.54,3l-2.14,2.66c-1.6-1.28-3.23-2.01-5.6-2.01-2.23,0-3.74,1-3.74,2.75,0,1.83,1.88,2.5,4.01,3.32l3.09,1.34c3,1.15,5.11,2.94,5.11,6.34,0,3.82-3.22,7.01-8.72,7.01-3.31,0-6.44-1.26-8.75-3.44Z"/>
        <path class="cls-15" d="M310.98,1012.6v-15.68h-5.9v-3.3h10.06v19.2c0,2.36,1.39,3.26,3.18,3.26.92,0,1.89-.21,3.02-.69l.97,3.08c-1.74.64-2.94,1-5.01,1-4.13,0-6.32-2.53-6.32-6.87Z"/>
        <path class="cls-15" d="M321.35,1010.22c0-5.91,4.22-9.29,8.88-9.29s8.88,3.39,8.88,9.29-4.22,9.25-8.88,9.25-8.88-3.39-8.88-9.25ZM334.84,1010.22c0-3.56-1.73-5.9-4.61-5.9s-4.62,2.34-4.62,5.9,1.73,5.85,4.62,5.85,4.61-2.32,4.61-5.85Z"/>
        <path class="cls-15" d="M338.95,1001.36h3.4l.32,2.02h.12c1.53-1.43,3.66-2.45,5.68-2.45,4.58,0,7.2,3.53,7.2,9.01,0,6.03-3.74,9.54-7.85,9.54-1.59,0-3.37-.76-4.8-2.1h-.1l.2,3.1v5.56h-4.16v-24.67ZM351.4,1009.96c0-3.52-1.24-5.59-4.1-5.59-1.34,0-2.75.63-4.19,2.12v7.94c1.3,1.17,2.78,1.59,3.84,1.59,2.51,0,4.45-2.06,4.45-6.07Z"/>
        <path class="cls-15" d="M354.76,1010.18c0-5.77,4.38-9.25,9.11-9.25,5.28,0,8.2,3.5,8.2,8.39,0,.83-.11,1.64-.18,2.09h-14.16v-2.94h11.47l-.8.92c0-3.49-1.64-5.27-4.41-5.27-2.92,0-5.17,2.1-5.17,6.05s2.48,6.07,6.15,6.07c1.85,0,3.37-.54,4.96-1.44l1.42,2.58c-1.89,1.23-4.33,2.09-6.92,2.09-5.41,0-9.67-3.41-9.67-9.29Z"/>
        <path class="cls-15" d="M371.33,1016.74l1.82-2.65c2.11,1.4,4.52,2.24,7.4,2.24,2.45,0,3.6-.93,3.6-2.1s-.78-1.81-4.89-2.66c-4.72-.99-6.81-2.66-6.81-5.35,0-3.07,2.8-5.28,7.75-5.28,2.93,0,5.61,1.15,7.4,2.34l-1.92,2.56c-1.71-1.1-3.75-1.77-5.85-1.77-2.29,0-3.24.88-3.24,1.96,0,1.25,1.3,1.68,4.61,2.4,5.65,1.25,7.12,2.75,7.12,5.56,0,3.04-2.93,5.5-8.3,5.5-3.3,0-6.48-1.25-8.67-2.74Z"/>
      </g>
      <g>
        <path class="cls-15" d="M171.49,1101.93h6.16c6.95,0,11.11,3.88,11.11,11.66s-4.17,11.88-10.89,11.88h-6.38v-23.53ZM177.4,1122.07c4.49,0,7.06-2.69,7.06-8.48s-2.57-8.26-7.06-8.26h-1.72v16.74h1.72Z"/>
        <path class="cls-15" d="M189.9,1107.79h3.43l.35,4.02h.1c1.8-2.88,4.48-4.45,7.52-4.45,1.43,0,2.39.22,3.44.72l-.88,3.52c-1.17-.37-1.86-.55-3.2-.55-2.42,0-4.79,1.24-6.6,4.67v9.75h-4.16v-17.68Z"/>
        <path class="cls-15" d="M204.32,1120.72c0-3.96,3.49-5.94,12.22-6.55-.15-1.98-1.33-3.47-4.21-3.47-1.99,0-3.96.87-5.78,1.88l-1.54-2.75c2.14-1.28,5.04-2.47,8.09-2.47,4.91,0,7.6,2.72,7.6,7.65v10.46h-3.42l-.32-2.19h-.12c-1.86,1.43-4.23,2.62-6.6,2.62-3.45,0-5.92-2.11-5.92-5.18ZM216.54,1120.48v-3.72c-6.35.42-8.18,1.72-8.18,3.63,0,1.56,1.38,2.23,3.13,2.23s3.42-.83,5.05-2.14Z"/>
        <path class="cls-15" d="M229.01,1111.08h-7.64v-3.3h11.8v17.68h-4.16v-14.38ZM227.86,1101.78c0-1.66,1.25-2.81,2.96-2.81s2.96,1.15,2.96,2.81-1.25,2.78-2.96,2.78-2.96-1.1-2.96-2.78Z"/>
        <path class="cls-15" d="M237.87,1107.79h3.4l.32,2.66h.14c1.69-1.71,3.68-3.09,6.38-3.09,4.09,0,5.93,2.61,5.93,7.16v10.95h-4.16v-10.41c0-2.84-.91-4.13-3.29-4.13-1.74,0-2.92.85-4.54,2.48v12.06h-4.16v-17.68Z"/>
        <path class="cls-15" d="M254,1120.72c0-3.96,3.49-5.94,12.22-6.55-.15-1.98-1.33-3.47-4.21-3.47-1.99,0-3.96.87-5.78,1.88l-1.54-2.75c2.14-1.28,5.04-2.47,8.09-2.47,4.91,0,7.6,2.72,7.6,7.65v10.46h-3.42l-.32-2.19h-.12c-1.86,1.43-4.23,2.62-6.6,2.62-3.45,0-5.92-2.11-5.92-5.18ZM266.21,1120.48v-3.72c-6.35.42-8.18,1.72-8.18,3.63,0,1.56,1.38,2.23,3.13,2.23s3.42-.83,5.05-2.14Z"/>
        <path class="cls-15" d="M270.24,1128.58c0-1.43.98-2.73,2.83-3.73v-.14c-.96-.56-1.8-1.47-1.8-2.96,0-1.16.81-2.43,2.11-3.32v-.14c-1.25-.89-2.27-2.47-2.27-4.56,0-4.05,3.39-6.37,7.27-6.37,1.03,0,1.95.14,2.76.43h7.25v3.17h-4.06c.59.68,1.12,1.77,1.12,2.92,0,3.93-3.11,6-7.07,6-.81,0-1.77-.16-2.7-.5-.71.46-1.08.95-1.08,1.66,0,1.16,1.13,1.67,3.33,1.67h3.61c4.59,0,6.96,1.23,6.96,4.32,0,3.5-3.96,6.28-10.19,6.28-4.87,0-8.08-1.57-8.08-4.71ZM284.51,1127.7c0-1.39-1.21-1.74-3.56-1.74h-2.83c-1.15,0-1.99-.07-2.69-.26-1.27.73-1.74,1.5-1.74,2.32,0,1.58,1.86,2.5,5.12,2.5,3.46,0,5.7-1.31,5.7-2.82ZM281.75,1113.72c0-2.16-1.51-3.5-3.36-3.5s-3.34,1.34-3.34,3.5,1.52,3.54,3.34,3.54,3.36-1.32,3.36-3.54Z"/>
        <path class="cls-15" d="M286.79,1116.6c0-5.77,4.38-9.25,9.11-9.25,5.28,0,8.2,3.5,8.2,8.39,0,.83-.11,1.64-.18,2.09h-14.16v-2.94h11.47l-.8.92c0-3.49-1.64-5.27-4.41-5.27-2.92,0-5.17,2.1-5.17,6.05s2.48,6.07,6.15,6.07c1.85,0,3.37-.54,4.96-1.44l1.42,2.58c-1.89,1.23-4.33,2.09-6.92,2.09-5.41,0-9.67-3.41-9.67-9.29Z"/>
        <path class="cls-15" d="M319.81,1122.46l2.43-2.88c1.79,1.61,4.1,2.68,6.57,2.68,2.74,0,4.19-1.21,4.19-2.85,0-2.1-1.61-2.66-3.91-3.63l-3.24-1.41c-2.47-.96-5.02-2.79-5.02-6.24,0-3.74,3.37-6.63,8.18-6.63,2.88,0,5.61,1.12,7.54,3l-2.14,2.66c-1.6-1.28-3.23-2.01-5.6-2.01-2.23,0-3.74,1-3.74,2.75,0,1.83,1.88,2.5,4.01,3.32l3.09,1.34c3,1.15,5.11,2.94,5.11,6.34,0,3.82-3.22,7.01-8.72,7.01-3.31,0-6.44-1.26-8.75-3.44Z"/>
        <path class="cls-15" d="M342.37,1119.03v-15.68h-5.9v-3.3h10.06v19.2c0,2.36,1.39,3.26,3.18,3.26.92,0,1.89-.21,3.02-.69l.97,3.08c-1.74.64-2.94,1-5.01,1-4.13,0-6.32-2.53-6.32-6.87Z"/>
        <path class="cls-15" d="M352.74,1116.65c0-5.91,4.22-9.29,8.88-9.29s8.88,3.39,8.88,9.29-4.22,9.25-8.88,9.25-8.88-3.39-8.88-9.25ZM366.23,1116.65c0-3.56-1.73-5.9-4.61-5.9s-4.62,2.34-4.62,5.9,1.73,5.85,4.62,5.85,4.61-2.32,4.61-5.85Z"/>
        <path class="cls-15" d="M370.34,1107.79h3.4l.32,2.02h.12c1.53-1.43,3.66-2.45,5.68-2.45,4.58,0,7.2,3.53,7.2,9.01,0,6.03-3.74,9.54-7.85,9.54-1.59,0-3.37-.76-4.8-2.1h-.1l.2,3.1v5.56h-4.16v-24.67ZM382.79,1116.39c0-3.52-1.24-5.59-4.1-5.59-1.34,0-2.75.63-4.19,2.12v7.94c1.3,1.17,2.78,1.59,3.84,1.59,2.51,0,4.45-2.06,4.45-6.07Z"/>
        <path class="cls-15" d="M386.15,1116.6c0-5.77,4.38-9.25,9.11-9.25,5.28,0,8.2,3.5,8.2,8.39,0,.83-.11,1.64-.18,2.09h-14.16v-2.94h11.47l-.8.92c0-3.49-1.64-5.27-4.41-5.27-2.92,0-5.17,2.1-5.17,6.05s2.48,6.07,6.15,6.07c1.85,0,3.37-.54,4.96-1.44l1.42,2.58c-1.89,1.23-4.33,2.09-6.92,2.09-5.41,0-9.67-3.41-9.67-9.29Z"/>
        <path class="cls-15" d="M402.72,1123.16l1.82-2.65c2.11,1.4,4.52,2.24,7.4,2.24,2.45,0,3.6-.93,3.6-2.1s-.78-1.81-4.89-2.66c-4.72-.99-6.81-2.66-6.81-5.35,0-3.07,2.8-5.28,7.75-5.28,2.93,0,5.61,1.15,7.4,2.34l-1.92,2.56c-1.71-1.1-3.75-1.77-5.85-1.77-2.29,0-3.24.88-3.24,1.96,0,1.25,1.3,1.68,4.61,2.4,5.65,1.25,7.12,2.75,7.12,5.56,0,3.04-2.93,5.5-8.3,5.5-3.3,0-6.48-1.25-8.67-2.74Z"/>
      </g>
      <g>
        <path class="cls-15" d="M168.84,1234.85l2.43-2.88c1.79,1.61,4.1,2.68,6.57,2.68,2.74,0,4.19-1.21,4.19-2.85,0-2.1-1.61-2.66-3.91-3.63l-3.24-1.41c-2.47-.96-5.02-2.79-5.02-6.24,0-3.74,3.37-6.63,8.18-6.63,2.88,0,5.61,1.12,7.54,3l-2.14,2.66c-1.6-1.28-3.23-2.01-5.6-2.01-2.23,0-3.74,1-3.74,2.75,0,1.83,1.88,2.5,4.01,3.32l3.09,1.34c3,1.15,5.11,2.94,5.11,6.34,0,3.82-3.22,7.01-8.72,7.01-3.31,0-6.44-1.26-8.75-3.44Z"/>
        <path class="cls-15" d="M185.5,1229c0-5.77,4.38-9.25,9.11-9.25,5.28,0,8.2,3.5,8.2,8.39,0,.83-.11,1.64-.18,2.09h-14.16v-2.94h11.47l-.8.92c0-3.49-1.64-5.27-4.41-5.27-2.92,0-5.17,2.1-5.17,6.05s2.48,6.07,6.15,6.07c1.85,0,3.37-.54,4.96-1.44l1.42,2.58c-1.89,1.23-4.33,2.09-6.93,2.09-5.41,0-9.67-3.41-9.67-9.29Z"/>
        <path class="cls-15" d="M204.53,1220.18h3.43l.35,4.02h.1c1.8-2.88,4.48-4.45,7.52-4.45,1.43,0,2.39.22,3.44.72l-.88,3.52c-1.17-.37-1.86-.55-3.2-.55-2.42,0-4.79,1.24-6.6,4.67v9.75h-4.16v-17.68Z"/>
        <path class="cls-15" d="M217.87,1220.18h4.21l3.41,9.15c.63,1.78,1.2,3.56,1.77,5.34h.14c.57-1.78,1.09-3.56,1.75-5.34l3.41-9.15h3.99l-6.9,17.68h-4.74l-7.05-17.68Z"/>
        <path class="cls-15" d="M243.63,1223.48h-7.64v-3.3h11.8v17.68h-4.16v-14.38ZM242.49,1214.18c0-1.66,1.25-2.81,2.96-2.81s2.96,1.15,2.96,2.81-1.25,2.78-2.96,2.78-2.96-1.1-2.96-2.78Z"/>
        <path class="cls-15" d="M252.17,1229.04c0-5.91,4.65-9.29,10.05-9.29,2.83,0,5.06,1.07,6.53,2.49l-1.96,2.61c-1.4-1.11-2.78-1.7-4.36-1.7-3.54,0-5.98,2.34-5.98,5.9s2.41,5.85,5.86,5.85c2.01,0,3.68-.89,5.04-1.95l1.74,2.66c-2.05,1.77-4.63,2.68-7.15,2.68-5.55,0-9.76-3.39-9.76-9.25Z"/>
        <path class="cls-15" d="M268.3,1229c0-5.77,4.38-9.25,9.11-9.25,5.28,0,8.2,3.5,8.2,8.39,0,.83-.11,1.64-.18,2.09h-14.16v-2.94h11.47l-.8.92c0-3.49-1.64-5.27-4.41-5.27-2.92,0-5.17,2.1-5.17,6.05s2.48,6.07,6.15,6.07c1.85,0,3.37-.54,4.96-1.44l1.42,2.58c-1.89,1.23-4.33,2.09-6.93,2.09-5.41,0-9.67-3.41-9.67-9.29Z"/>
        <path class="cls-15" d="M301.35,1226.16c0-7.69,4.68-12.26,10.9-12.26,2.91,0,5.25,1.39,6.74,2.93l-2.34,2.61c-1.17-1.16-2.57-1.9-4.41-1.9-3.9,0-6.59,3.23-6.59,8.5s2.69,8.62,6.7,8.62c1.92,0,3.45-.88,4.75-2.33l2.34,2.54c-1.88,2.21-4.36,3.43-7.51,3.43-5.83,0-10.58-4.32-10.58-12.13Z"/>
        <path class="cls-15" d="M317.69,1229.04c0-5.91,4.22-9.29,8.88-9.29s8.88,3.39,8.88,9.29-4.22,9.25-8.88,9.25-8.88-3.39-8.88-9.25ZM331.18,1229.04c0-3.56-1.73-5.9-4.61-5.9s-4.62,2.34-4.62,5.9,1.73,5.85,4.62,5.85,4.61-2.32,4.61-5.85Z"/>
        <path class="cls-15" d="M335.29,1220.18h3.4l.32,2.66h.14c1.69-1.71,3.68-3.09,6.38-3.09,4.09,0,5.93,2.61,5.93,7.16v10.95h-4.16v-10.41c0-2.84-.91-4.13-3.29-4.13-1.74,0-2.92.85-4.54,2.48v12.06h-4.16v-17.68Z"/>
        <path class="cls-15" d="M351.85,1220.18h3.4l.32,2.66h.14c1.69-1.71,3.68-3.09,6.38-3.09,4.09,0,5.93,2.61,5.93,7.16v10.95h-4.16v-10.41c0-2.84-.91-4.13-3.29-4.13-1.74,0-2.92.85-4.54,2.48v12.06h-4.16v-17.68Z"/>
        <path class="cls-15" d="M367.66,1229c0-5.77,4.38-9.25,9.11-9.25,5.28,0,8.2,3.5,8.2,8.39,0,.83-.11,1.64-.18,2.09h-14.16v-2.94h11.47l-.8.92c0-3.49-1.64-5.27-4.41-5.27-2.92,0-5.17,2.1-5.17,6.05s2.48,6.07,6.15,6.07c1.85,0,3.37-.54,4.96-1.44l1.42,2.58c-1.89,1.23-4.33,2.09-6.93,2.09-5.41,0-9.67-3.41-9.67-9.29Z"/>
        <path class="cls-15" d="M384.65,1229.04c0-5.91,4.65-9.29,10.05-9.29,2.83,0,5.06,1.07,6.53,2.49l-1.96,2.61c-1.4-1.11-2.78-1.7-4.36-1.7-3.54,0-5.98,2.34-5.98,5.9s2.41,5.85,5.86,5.85c2.01,0,3.68-.89,5.04-1.95l1.74,2.66c-2.05,1.77-4.63,2.68-7.15,2.68-5.55,0-9.76-3.39-9.76-9.25Z"/>
        <path class="cls-15" d="M405.4,1230.75v-7.27h-4.73v-3.1l4.9-.19.54-5.54h3.45v5.54h8.04v3.3h-8.04v7.26c0,2.92,1.1,4.24,4.08,4.24,1.47,0,2.69-.3,3.85-.71l.81,3.03c-1.58.52-3.37,1-5.66,1-5.4,0-7.24-3.03-7.24-7.54Z"/>
        <path class="cls-15" d="M425.79,1223.48h-7.64v-3.3h11.8v17.68h-4.16v-14.38ZM424.64,1214.18c0-1.66,1.25-2.81,2.96-2.81s2.96,1.15,2.96,2.81-1.25,2.78-2.96,2.78-2.96-1.1-2.96-2.78Z"/>
        <path class="cls-15" d="M433.61,1229.04c0-5.91,4.22-9.29,8.88-9.29s8.88,3.39,8.88,9.29-4.22,9.25-8.88,9.25-8.88-3.39-8.88-9.25ZM447.1,1229.04c0-3.56-1.73-5.9-4.61-5.9s-4.62,2.34-4.62,5.9,1.73,5.85,4.62,5.85,4.61-2.32,4.61-5.85Z"/>
        <path class="cls-15" d="M451.21,1220.18h3.4l.32,2.66h.14c1.69-1.71,3.68-3.09,6.38-3.09,4.09,0,5.93,2.61,5.93,7.16v10.95h-4.16v-10.41c0-2.84-.91-4.13-3.29-4.13-1.74,0-2.92.85-4.54,2.48v12.06h-4.16v-17.68Z"/>
        <path class="cls-15" d="M467.03,1235.55l1.82-2.65c2.11,1.4,4.52,2.24,7.4,2.24,2.45,0,3.6-.93,3.6-2.1s-.78-1.81-4.89-2.66c-4.72-.99-6.81-2.66-6.81-5.35,0-3.07,2.8-5.28,7.75-5.28,2.93,0,5.61,1.15,7.4,2.34l-1.92,2.56c-1.71-1.1-3.75-1.77-5.85-1.77-2.29,0-3.24.88-3.24,1.96,0,1.25,1.3,1.68,4.61,2.4,5.65,1.25,7.12,2.75,7.12,5.56,0,3.04-2.93,5.5-8.3,5.5-3.3,0-6.48-1.25-8.67-2.74Z"/>
      </g>
    </g>
  </g>
</svg>