<?xml version="1.0" encoding="UTF-8"?>
<svg id="Layer_2" data-name="Layer 2" xmlns="http://www.w3.org/2000/svg" viewBox="0 0 997.2 157.62">
  <defs>
    <style>
      .cls-1, .cls-2 {
        fill: #1a1a1a;
        font-family: Garamond, Garamond;
        font-size: 60px;
      }

      .cls-3 {
        fill: none;
        stroke: #1a1a1a;
        stroke-miterlimit: 10;
        stroke-width: 5px;
      }

      .cls-2 {
        letter-spacing: -.02em;
      }
    </style>
  </defs>
  <g id="scaleBar">
    <line class="cls-3" x1="2.5" y1="109.89" x2="851.48" y2="109.81"/>
    <line class="cls-3" x1="2.5" y1="60.07" x2="2.51" y2="157.62"/>
    <line class="cls-3" x1="851.47" y1="60.07" x2="851.47" y2="157.62"/>
    <line class="cls-3" x1="426.99" y1="60.07" x2="427" y2="157.62"/>
    <line class="cls-3" x1="214.74" y1="84.46" x2="214.74" y2="133.23"/>
    <line class="cls-3" x1="107.43" y1="84.46" x2="107.43" y2="133.23"/>
    <line class="cls-3" x1="320.87" y1="84.46" x2="320.87" y2="133.23"/>
    <line class="cls-3" x1="639.23" y1="84.46" x2="639.23" y2="133.23"/>
    <line class="cls-3" x1="531.92" y1="84.46" x2="531.92" y2="133.23"/>
    <line class="cls-3" x1="745.36" y1="84.46" x2="745.36" y2="133.23"/>
    <text class="cls-1" transform="translate(413.7 48.87)"><tspan x="0" y="0">8</tspan></text>
    <text class="cls-2" transform="translate(813.73 48.87)"><tspan x="0" y="0">16 miles</tspan></text>
    <text class="cls-1" transform="translate(92.79 79.12)"><tspan x="0" y="0">2</tspan></text>
    <text class="cls-1" transform="translate(197.99 79.12)"><tspan x="0" y="0">4</tspan></text>
    <text class="cls-1" transform="translate(613.23 79.12)"><tspan x="0" y="0">12</tspan></text>
  </g>
</svg>