<?xml version="1.0" encoding="UTF-8"?>
<svg id="Layer_2" data-name="Layer 2" xmlns="http://www.w3.org/2000/svg" viewBox="0 0 3193.73 2420.04">
  <defs>
    <style>
      .cls-1 {
        fill: #fff;
      }

      .cls-2 {
        fill: #94989b;
      }

      .cls-3 {
        fill: #3e4347;
      }

      .cls-4 {
        fill: #c7e755;
      }

      .cls-5 {
        fill: #e6e6e6;
      }
    </style>
  </defs>
  <g id="stations">
    <g id="stations-2" data-name="stations">
      <g id="_1" data-name="🚇1">
        <g>
          <circle class="cls-3" cx="1633.17" cy="705.72" r="22.5"/>
          <path class="cls-2" d="M1624.29,716.47l-4.9,7.03c.61.47,1.24.92,1.9,1.33l5.48-8.36h-2.48Z"/>
          <path class="cls-5" d="M1624.29,716.47h-2.48l-4.2,5.49c.57.54,1.16,1.05,1.78,1.54l4.9-7.03Z"/>
          <path class="cls-2" d="M1642.04,716.47h-2.48l5.48,8.36c.66-.41,1.29-.85,1.9-1.33l-4.9-7.03Z"/>
          <path class="cls-5" d="M1642.04,716.47l4.9,7.03c.62-.48,1.21-.99,1.78-1.54l-4.2-5.49h-2.48Z"/>
          <path class="cls-4" d="M1646.11,714.89c0,1.32-1.07,2.39-2.4,2.39h-21.09c-1.32,0-2.4-1.07-2.4-2.39v-17.66c0-9.43,25.89-9.43,25.89,0v17.66h0Z"/>
          <path class="cls-3" d="M1644.59,712.11c0,.81-.66,1.46-1.47,1.46h-3.54c-.81,0-1.47-.65-1.47-1.46s.66-1.46,1.47-1.46h3.54c.81,0,1.47.65,1.47,1.46Z"/>
          <path class="cls-3" d="M1621.74,712.11c0-.81.66-1.46,1.47-1.46h3.53c.81,0,1.47.65,1.47,1.46s-.66,1.46-1.47,1.46h-3.53c-.81,0-1.47-.65-1.47-1.46Z"/>
          <rect class="cls-3" x="1621.77" y="696.07" width="22.8" height="10.46" rx="2" ry="2"/>
          <path class="cls-1" d="M1624.98,710.86c.69,0,1.25.56,1.25,1.25s-.56,1.25-1.25,1.25-1.25-.56-1.25-1.25.56-1.25,1.25-1.25Z"/>
          <path class="cls-1" d="M1641.36,710.86c.69,0,1.25.56,1.25,1.25s-.56,1.25-1.25,1.25-1.25-.56-1.25-1.25.56-1.25,1.25-1.25Z"/>
        </g>
      </g>
      <g id="_2" data-name="🚇2">
        <g>
          <circle class="cls-3" cx="1845.82" cy="954.15" r="22.5"/>
          <path class="cls-2" d="M1836.94,964.91l-4.9,7.03c.61.47,1.24.92,1.9,1.33l5.48-8.36h-2.48Z"/>
          <path class="cls-5" d="M1836.94,964.91h-2.48l-4.2,5.49c.57.54,1.16,1.05,1.78,1.54l4.9-7.03Z"/>
          <path class="cls-2" d="M1854.69,964.91h-2.48l5.48,8.36c.66-.41,1.29-.85,1.9-1.33l-4.9-7.03Z"/>
          <path class="cls-5" d="M1854.69,964.91l4.9,7.03c.62-.48,1.21-.99,1.78-1.54l-4.2-5.49h-2.48Z"/>
          <path class="cls-4" d="M1858.76,963.33c0,1.32-1.07,2.39-2.4,2.39h-21.09c-1.32,0-2.4-1.07-2.4-2.39v-17.66c0-9.43,25.89-9.43,25.89,0v17.66h0Z"/>
          <path class="cls-3" d="M1857.24,960.55c0,.81-.66,1.46-1.47,1.46h-3.54c-.81,0-1.47-.65-1.47-1.46s.66-1.46,1.47-1.46h3.54c.81,0,1.47.65,1.47,1.46Z"/>
          <path class="cls-3" d="M1834.39,960.55c0-.81.66-1.46,1.47-1.46h3.53c.81,0,1.47.65,1.47,1.46s-.66,1.46-1.47,1.46h-3.53c-.81,0-1.47-.65-1.47-1.46Z"/>
          <rect class="cls-3" x="1834.41" y="944.51" width="22.8" height="10.46" rx="2" ry="2"/>
          <path class="cls-1" d="M1837.63,959.3c.69,0,1.25.56,1.25,1.25s-.56,1.25-1.25,1.25-1.25-.56-1.25-1.25.56-1.25,1.25-1.25Z"/>
          <path class="cls-1" d="M1854.01,959.3c.69,0,1.25.56,1.25,1.25s-.56,1.25-1.25,1.25-1.25-.56-1.25-1.25.56-1.25,1.25-1.25Z"/>
        </g>
      </g>
      <g id="_3" data-name="🚇3">
        <g>
          <circle class="cls-3" cx="1383.37" cy="991.27" r="22.5"/>
          <path class="cls-2" d="M1374.5,1002.03l-4.9,7.03c.61.47,1.24.92,1.9,1.33l5.48-8.36h-2.48Z"/>
          <path class="cls-5" d="M1374.5,1002.03h-2.48l-4.2,5.49c.57.54,1.16,1.05,1.78,1.54l4.9-7.03Z"/>
          <path class="cls-2" d="M1392.25,1002.03h-2.48l5.48,8.36c.66-.41,1.29-.85,1.9-1.33l-4.9-7.03Z"/>
          <path class="cls-5" d="M1392.25,1002.03l4.9,7.03c.62-.48,1.21-.99,1.78-1.54l-4.2-5.49h-2.48Z"/>
          <path class="cls-4" d="M1396.32,1000.44c0,1.32-1.07,2.39-2.4,2.39h-21.09c-1.32,0-2.4-1.07-2.4-2.39v-17.66c0-9.43,25.89-9.43,25.89,0v17.66h0Z"/>
          <path class="cls-3" d="M1394.8,997.67c0,.81-.66,1.46-1.47,1.46h-3.54c-.81,0-1.47-.65-1.47-1.46s.66-1.46,1.47-1.46h3.54c.81,0,1.47.65,1.47,1.46Z"/>
          <path class="cls-3" d="M1371.95,997.67c0-.81.66-1.46,1.47-1.46h3.53c.81,0,1.47.65,1.47,1.46s-.66,1.46-1.47,1.46h-3.53c-.81,0-1.47-.65-1.47-1.46Z"/>
          <rect class="cls-3" x="1371.97" y="981.63" width="22.8" height="10.46" rx="2" ry="2"/>
          <path class="cls-1" d="M1375.18,996.42c.69,0,1.25.56,1.25,1.25s-.56,1.25-1.25,1.25-1.25-.56-1.25-1.25.56-1.25,1.25-1.25Z"/>
          <path class="cls-1" d="M1391.56,996.41c.69,0,1.25.56,1.25,1.25s-.56,1.25-1.25,1.25-1.25-.56-1.25-1.25.56-1.25,1.25-1.25Z"/>
        </g>
      </g>
      <g id="_4" data-name="🚇4">
        <g>
          <circle class="cls-3" cx="1632.29" cy="606.89" r="22.5"/>
          <path class="cls-2" d="M1623.42,617.65l-4.9,7.03c.61.47,1.24.92,1.9,1.33l5.48-8.36h-2.48Z"/>
          <path class="cls-5" d="M1623.42,617.65h-2.48l-4.2,5.49c.57.54,1.16,1.05,1.78,1.54l4.9-7.03Z"/>
          <path class="cls-2" d="M1641.17,617.65h-2.48l5.48,8.36c.66-.41,1.29-.85,1.9-1.33l-4.9-7.03Z"/>
          <path class="cls-5" d="M1641.17,617.65l4.9,7.03c.62-.48,1.21-.99,1.78-1.54l-4.2-5.49h-2.48Z"/>
          <path class="cls-4" d="M1645.24,616.07c0,1.32-1.07,2.39-2.4,2.39h-21.09c-1.32,0-2.4-1.07-2.4-2.39v-17.66c0-9.43,25.89-9.43,25.89,0v17.66h0Z"/>
          <path class="cls-3" d="M1643.72,613.29c0,.81-.66,1.46-1.47,1.46h-3.54c-.81,0-1.47-.65-1.47-1.46s.66-1.46,1.47-1.46h3.54c.81,0,1.47.65,1.47,1.46Z"/>
          <path class="cls-3" d="M1620.87,613.29c0-.81.66-1.46,1.47-1.46h3.53c.81,0,1.47.65,1.47,1.46s-.66,1.46-1.47,1.46h-3.53c-.81,0-1.47-.65-1.47-1.46Z"/>
          <rect class="cls-3" x="1620.89" y="597.25" width="22.8" height="10.46" rx="2" ry="2"/>
          <path class="cls-1" d="M1624.1,612.04c.69,0,1.25.56,1.25,1.25s-.56,1.25-1.25,1.25-1.25-.56-1.25-1.25.56-1.25,1.25-1.25Z"/>
          <path class="cls-1" d="M1640.48,612.04c.69,0,1.25.56,1.25,1.25s-.56,1.25-1.25,1.25-1.25-.56-1.25-1.25.56-1.25,1.25-1.25Z"/>
        </g>
      </g>
      <g id="_5" data-name="🚇5">
        <g>
          <circle class="cls-3" cx="2143.39" cy="938.24" r="22.5"/>
          <path class="cls-2" d="M2134.51,948.99l-4.9,7.03c.61.47,1.24.92,1.9,1.33l5.48-8.36h-2.48Z"/>
          <path class="cls-5" d="M2134.51,948.99h-2.48l-4.2,5.49c.57.54,1.16,1.05,1.78,1.54l4.9-7.03Z"/>
          <path class="cls-2" d="M2152.26,948.99h-2.48l5.48,8.36c.66-.41,1.29-.85,1.9-1.33l-4.9-7.03Z"/>
          <path class="cls-5" d="M2152.26,948.99l4.9,7.03c.62-.48,1.21-.99,1.78-1.54l-4.2-5.49h-2.48Z"/>
          <path class="cls-4" d="M2156.33,947.41c0,1.32-1.07,2.39-2.4,2.39h-21.09c-1.32,0-2.4-1.07-2.4-2.39v-17.66c0-9.43,25.89-9.43,25.89,0v17.66h0Z"/>
          <path class="cls-3" d="M2154.81,944.63c0,.81-.66,1.46-1.47,1.46h-3.54c-.81,0-1.47-.65-1.47-1.46s.66-1.46,1.47-1.46h3.54c.81,0,1.47.65,1.47,1.46Z"/>
          <path class="cls-3" d="M2131.96,944.63c0-.81.66-1.46,1.47-1.46h3.53c.81,0,1.47.65,1.47,1.46s-.66,1.46-1.47,1.46h-3.53c-.81,0-1.47-.65-1.47-1.46Z"/>
          <rect class="cls-3" x="2131.98" y="928.59" width="22.8" height="10.46" rx="2" ry="2"/>
          <path class="cls-1" d="M2135.2,943.38c.69,0,1.25.56,1.25,1.25s-.56,1.25-1.25,1.25-1.25-.56-1.25-1.25.56-1.25,1.25-1.25Z"/>
          <path class="cls-1" d="M2151.58,943.38c.69,0,1.25.56,1.25,1.25s-.56,1.25-1.25,1.25-1.25-.56-1.25-1.25.56-1.25,1.25-1.25Z"/>
        </g>
      </g>
      <g id="_6" data-name="🚇6">
        <g>
          <circle class="cls-3" cx="1688.75" cy="1188.34" r="22.5"/>
          <path class="cls-2" d="M1679.87,1199.1l-4.9,7.03c.61.47,1.24.92,1.9,1.33l5.48-8.36h-2.48Z"/>
          <path class="cls-5" d="M1679.87,1199.1h-2.48l-4.2,5.49c.57.54,1.16,1.05,1.78,1.54l4.9-7.03Z"/>
          <path class="cls-2" d="M1697.62,1199.1h-2.48l5.48,8.36c.66-.41,1.29-.85,1.9-1.33l-4.9-7.03Z"/>
          <path class="cls-5" d="M1697.62,1199.1l4.9,7.03c.62-.48,1.21-.99,1.78-1.54l-4.2-5.49h-2.48Z"/>
          <path class="cls-4" d="M1701.69,1197.52c0,1.32-1.07,2.39-2.4,2.39h-21.09c-1.32,0-2.4-1.07-2.4-2.39v-17.66c0-9.43,25.89-9.43,25.89,0v17.66h0Z"/>
          <path class="cls-3" d="M1700.17,1194.74c0,.81-.66,1.46-1.47,1.46h-3.54c-.81,0-1.47-.65-1.47-1.46s.66-1.46,1.47-1.46h3.54c.81,0,1.47.65,1.47,1.46Z"/>
          <path class="cls-3" d="M1677.32,1194.74c0-.81.66-1.46,1.47-1.46h3.53c.81,0,1.47.65,1.47,1.46s-.66,1.46-1.47,1.46h-3.53c-.81,0-1.47-.65-1.47-1.46Z"/>
          <rect class="cls-3" x="1677.35" y="1178.7" width="22.8" height="10.46" rx="2" ry="2"/>
          <path class="cls-1" d="M1680.56,1193.49c.69,0,1.25.56,1.25,1.25s-.56,1.25-1.25,1.25-1.25-.56-1.25-1.25.56-1.25,1.25-1.25Z"/>
          <path class="cls-1" d="M1696.94,1193.49c.69,0,1.25.56,1.25,1.25s-.56,1.25-1.25,1.25-1.25-.56-1.25-1.25.56-1.25,1.25-1.25Z"/>
        </g>
      </g>
      <g id="_7" data-name="🚇7">
        <g>
          <circle class="cls-3" cx="1194.47" cy="1028.12" r="22.5"/>
          <path class="cls-2" d="M1185.59,1038.88l-4.9,7.03c.61.47,1.24.92,1.9,1.33l5.48-8.36h-2.48Z"/>
          <path class="cls-5" d="M1185.59,1038.88h-2.48l-4.2,5.49c.57.54,1.16,1.05,1.78,1.54l4.9-7.03Z"/>
          <path class="cls-2" d="M1203.34,1038.88h-2.48l5.48,8.36c.66-.41,1.29-.85,1.9-1.33l-4.9-7.03Z"/>
          <path class="cls-5" d="M1203.34,1038.88l4.9,7.03c.62-.48,1.21-.99,1.78-1.54l-4.2-5.49h-2.48Z"/>
          <path class="cls-4" d="M1207.41,1037.29c0,1.32-1.07,2.39-2.4,2.39h-21.09c-1.32,0-2.4-1.07-2.4-2.39v-17.66c0-9.43,25.89-9.43,25.89,0v17.66h0Z"/>
          <path class="cls-3" d="M1205.9,1034.52c0,.81-.66,1.46-1.47,1.46h-3.54c-.81,0-1.47-.65-1.47-1.46s.66-1.46,1.47-1.46h3.54c.81,0,1.47.65,1.47,1.46Z"/>
          <path class="cls-3" d="M1183.04,1034.52c0-.81.66-1.46,1.47-1.46h3.53c.81,0,1.47.65,1.47,1.46s-.66,1.46-1.47,1.46h-3.53c-.81,0-1.47-.65-1.47-1.46Z"/>
          <rect class="cls-3" x="1183.07" y="1018.48" width="22.8" height="10.46" rx="2" ry="2"/>
          <path class="cls-1" d="M1186.28,1033.26c.69,0,1.25.56,1.25,1.25s-.56,1.25-1.25,1.25-1.25-.56-1.25-1.25.56-1.25,1.25-1.25Z"/>
          <path class="cls-1" d="M1202.66,1033.26c.69,0,1.25.56,1.25,1.25s-.56,1.25-1.25,1.25-1.25-.56-1.25-1.25.56-1.25,1.25-1.25Z"/>
        </g>
      </g>
      <g id="_8" data-name="🚇8">
        <g>
          <circle class="cls-3" cx="1658.53" cy="478.91" r="22.5"/>
          <path class="cls-2" d="M1649.65,489.67l-4.9,7.03c.61.47,1.24.92,1.9,1.33l5.48-8.36h-2.48Z"/>
          <path class="cls-5" d="M1649.65,489.67h-2.48l-4.2,5.49c.57.54,1.16,1.05,1.78,1.54l4.9-7.03Z"/>
          <path class="cls-2" d="M1667.4,489.67h-2.48l5.48,8.36c.66-.41,1.29-.85,1.9-1.33l-4.9-7.03Z"/>
          <path class="cls-5" d="M1667.4,489.67l4.9,7.03c.62-.48,1.21-.99,1.78-1.54l-4.2-5.49h-2.48Z"/>
          <path class="cls-4" d="M1671.47,488.08c0,1.32-1.07,2.39-2.4,2.39h-21.09c-1.32,0-2.4-1.07-2.4-2.39v-17.66c0-9.43,25.89-9.43,25.89,0v17.66h0Z"/>
          <path class="cls-3" d="M1669.95,485.31c0,.81-.66,1.46-1.47,1.46h-3.54c-.81,0-1.47-.65-1.47-1.46s.66-1.46,1.47-1.46h3.54c.81,0,1.47.65,1.47,1.46Z"/>
          <path class="cls-3" d="M1647.1,485.31c0-.81.66-1.46,1.47-1.46h3.53c.81,0,1.47.65,1.47,1.46s-.66,1.46-1.47,1.46h-3.53c-.81,0-1.47-.65-1.47-1.46Z"/>
          <rect class="cls-3" x="1647.13" y="469.27" width="22.8" height="10.46" rx="2" ry="2"/>
          <path class="cls-1" d="M1650.34,484.05c.69,0,1.25.56,1.25,1.25s-.56,1.25-1.25,1.25-1.25-.56-1.25-1.25.56-1.25,1.25-1.25Z"/>
          <path class="cls-1" d="M1666.72,484.05c.69,0,1.25.56,1.25,1.25s-.56,1.25-1.25,1.25-1.25-.56-1.25-1.25.56-1.25,1.25-1.25Z"/>
        </g>
      </g>
      <g id="_9" data-name="🚇9">
        <g>
          <circle class="cls-3" cx="2448.27" cy="671.83" r="22.5"/>
          <path class="cls-2" d="M2439.4,682.59l-4.9,7.03c.61.47,1.24.92,1.9,1.33l5.48-8.36h-2.48Z"/>
          <path class="cls-5" d="M2439.4,682.59h-2.48l-4.2,5.49c.57.54,1.16,1.05,1.78,1.54l4.9-7.03Z"/>
          <path class="cls-2" d="M2457.15,682.59h-2.48l5.48,8.36c.66-.41,1.29-.85,1.9-1.33l-4.9-7.03Z"/>
          <path class="cls-5" d="M2457.15,682.59l4.9,7.03c.62-.48,1.21-.99,1.78-1.54l-4.2-5.49h-2.48Z"/>
          <path class="cls-4" d="M2461.22,681c0,1.32-1.07,2.39-2.4,2.39h-21.09c-1.32,0-2.4-1.07-2.4-2.39v-17.66c0-9.43,25.89-9.43,25.89,0v17.66h0Z"/>
          <path class="cls-3" d="M2459.7,678.23c0,.81-.66,1.46-1.47,1.46h-3.54c-.81,0-1.47-.65-1.47-1.46s.66-1.46,1.47-1.46h3.54c.81,0,1.47.65,1.47,1.46Z"/>
          <path class="cls-3" d="M2436.84,678.23c0-.81.66-1.46,1.47-1.46h3.53c.81,0,1.47.65,1.47,1.46s-.66,1.46-1.47,1.46h-3.53c-.81,0-1.47-.65-1.47-1.46Z"/>
          <rect class="cls-3" x="2436.87" y="662.18" width="22.8" height="10.46" rx="2" ry="2"/>
          <path class="cls-1" d="M2440.08,676.97c.69,0,1.25.56,1.25,1.25s-.56,1.25-1.25,1.25-1.25-.56-1.25-1.25.56-1.25,1.25-1.25Z"/>
          <path class="cls-1" d="M2456.46,676.97c.69,0,1.25.56,1.25,1.25s-.56,1.25-1.25,1.25-1.25-.56-1.25-1.25.56-1.25,1.25-1.25Z"/>
        </g>
      </g>
      <g id="_10" data-name="🚇10">
        <g>
          <circle class="cls-3" cx="2386.56" cy="945.26" r="22.5"/>
          <path class="cls-2" d="M2377.68,956.01l-4.9,7.03c.61.47,1.24.92,1.9,1.33l5.48-8.36h-2.48Z"/>
          <path class="cls-5" d="M2377.68,956.01h-2.48l-4.2,5.49c.57.54,1.16,1.05,1.78,1.54l4.9-7.03Z"/>
          <path class="cls-2" d="M2395.43,956.01h-2.48l5.48,8.36c.66-.41,1.29-.85,1.9-1.33l-4.9-7.03Z"/>
          <path class="cls-5" d="M2395.43,956.01l4.9,7.03c.62-.48,1.21-.99,1.78-1.54l-4.2-5.49h-2.48Z"/>
          <path class="cls-4" d="M2399.5,954.43c0,1.32-1.07,2.39-2.4,2.39h-21.09c-1.32,0-2.4-1.07-2.4-2.39v-17.66c0-9.43,25.89-9.43,25.89,0v17.66h0Z"/>
          <path class="cls-3" d="M2397.98,951.66c0,.81-.66,1.46-1.47,1.46h-3.54c-.81,0-1.47-.65-1.47-1.46s.66-1.46,1.47-1.46h3.54c.81,0,1.47.65,1.47,1.46Z"/>
          <path class="cls-3" d="M2375.13,951.66c0-.81.66-1.46,1.47-1.46h3.53c.81,0,1.47.65,1.47,1.46s-.66,1.46-1.47,1.46h-3.53c-.81,0-1.47-.65-1.47-1.46Z"/>
          <rect class="cls-3" x="2375.15" y="935.61" width="22.8" height="10.46" rx="2" ry="2"/>
          <path class="cls-1" d="M2378.37,950.4c.69,0,1.25.56,1.25,1.25s-.56,1.25-1.25,1.25-1.25-.56-1.25-1.25.56-1.25,1.25-1.25Z"/>
          <path class="cls-1" d="M2394.75,950.4c.69,0,1.25.56,1.25,1.25s-.56,1.25-1.25,1.25-1.25-.56-1.25-1.25.56-1.25,1.25-1.25Z"/>
        </g>
      </g>
      <g id="_11" data-name="🚇11">
        <g>
          <circle class="cls-3" cx="2127.28" cy="1256.23" r="22.5"/>
          <path class="cls-2" d="M2118.4,1266.99l-4.9,7.03c.61.47,1.24.92,1.9,1.33l5.48-8.36h-2.48Z"/>
          <path class="cls-5" d="M2118.4,1266.99h-2.48l-4.2,5.49c.57.54,1.16,1.05,1.78,1.54l4.9-7.03Z"/>
          <path class="cls-2" d="M2136.15,1266.99h-2.48l5.48,8.36c.66-.41,1.29-.85,1.9-1.33l-4.9-7.03Z"/>
          <path class="cls-5" d="M2136.15,1266.99l4.9,7.03c.62-.48,1.21-.99,1.78-1.54l-4.2-5.49h-2.48Z"/>
          <path class="cls-4" d="M2140.22,1265.41c0,1.32-1.07,2.39-2.4,2.39h-21.09c-1.32,0-2.4-1.07-2.4-2.39v-17.66c0-9.43,25.89-9.43,25.89,0v17.66h0Z"/>
          <path class="cls-3" d="M2138.7,1262.63c0,.81-.66,1.46-1.47,1.46h-3.54c-.81,0-1.47-.65-1.47-1.46s.66-1.46,1.47-1.46h3.54c.81,0,1.47.65,1.47,1.46Z"/>
          <path class="cls-3" d="M2115.85,1262.63c0-.81.66-1.46,1.47-1.46h3.53c.81,0,1.47.65,1.47,1.46s-.66,1.46-1.47,1.46h-3.53c-.81,0-1.47-.65-1.47-1.46Z"/>
          <rect class="cls-3" x="2115.88" y="1246.59" width="22.8" height="10.46" rx="2" ry="2"/>
          <path class="cls-1" d="M2119.09,1261.38c.69,0,1.25.56,1.25,1.25s-.56,1.25-1.25,1.25-1.25-.56-1.25-1.25.56-1.25,1.25-1.25Z"/>
          <path class="cls-1" d="M2135.47,1261.38c.69,0,1.25.56,1.25,1.25s-.56,1.25-1.25,1.25-1.25-.56-1.25-1.25.56-1.25,1.25-1.25Z"/>
        </g>
      </g>
      <g id="_12" data-name="🚇12">
        <g>
          <circle class="cls-3" cx="1689.26" cy="1369.92" r="22.5"/>
          <path class="cls-2" d="M1680.39,1380.68l-4.9,7.03c.61.47,1.24.92,1.9,1.33l5.48-8.36h-2.48Z"/>
          <path class="cls-5" d="M1680.39,1380.68h-2.48l-4.2,5.49c.57.54,1.16,1.05,1.78,1.54l4.9-7.03Z"/>
          <path class="cls-2" d="M1698.14,1380.68h-2.48l5.48,8.36c.66-.41,1.29-.85,1.9-1.33l-4.9-7.03Z"/>
          <path class="cls-5" d="M1698.14,1380.68l4.9,7.03c.62-.48,1.21-.99,1.78-1.54l-4.2-5.49h-2.48Z"/>
          <path class="cls-4" d="M1702.21,1379.1c0,1.32-1.07,2.39-2.4,2.39h-21.09c-1.32,0-2.4-1.07-2.4-2.39v-17.66c0-9.43,25.89-9.43,25.89,0v17.66h0Z"/>
          <path class="cls-3" d="M1700.69,1376.32c0,.81-.66,1.46-1.47,1.46h-3.54c-.81,0-1.47-.65-1.47-1.46s.66-1.46,1.47-1.46h3.54c.81,0,1.47.65,1.47,1.46Z"/>
          <path class="cls-3" d="M1677.84,1376.32c0-.81.66-1.46,1.47-1.46h3.53c.81,0,1.47.65,1.47,1.46s-.66,1.46-1.47,1.46h-3.53c-.81,0-1.47-.65-1.47-1.46Z"/>
          <rect class="cls-3" x="1677.86" y="1360.28" width="22.8" height="10.46" rx="2" ry="2"/>
          <path class="cls-1" d="M1681.07,1375.07c.69,0,1.25.56,1.25,1.25s-.56,1.25-1.25,1.25-1.25-.56-1.25-1.25.56-1.25,1.25-1.25Z"/>
          <path class="cls-1" d="M1697.45,1375.07c.69,0,1.25.56,1.25,1.25s-.56,1.25-1.25,1.25-1.25-.56-1.25-1.25.56-1.25,1.25-1.25Z"/>
        </g>
      </g>
      <g id="_13" data-name="🚇13">
        <g>
          <circle class="cls-3" cx="1270.53" cy="1435.07" r="22.5"/>
          <path class="cls-2" d="M1261.65,1445.83l-4.9,7.03c.61.47,1.24.92,1.9,1.33l5.48-8.36h-2.48Z"/>
          <path class="cls-5" d="M1261.65,1445.83h-2.48l-4.2,5.49c.57.54,1.16,1.05,1.78,1.54l4.9-7.03Z"/>
          <path class="cls-2" d="M1279.4,1445.83h-2.48l5.48,8.36c.66-.41,1.29-.85,1.9-1.33l-4.9-7.03Z"/>
          <path class="cls-5" d="M1279.4,1445.83l4.9,7.03c.62-.48,1.21-.99,1.78-1.54l-4.2-5.49h-2.48Z"/>
          <path class="cls-4" d="M1283.47,1444.25c0,1.32-1.07,2.39-2.4,2.39h-21.09c-1.32,0-2.4-1.07-2.4-2.39v-17.66c0-9.43,25.89-9.43,25.89,0v17.66h0Z"/>
          <path class="cls-3" d="M1281.95,1441.47c0,.81-.66,1.46-1.47,1.46h-3.54c-.81,0-1.47-.65-1.47-1.46s.66-1.46,1.47-1.46h3.54c.81,0,1.47.65,1.47,1.46Z"/>
          <path class="cls-3" d="M1259.1,1441.47c0-.81.66-1.46,1.47-1.46h3.53c.81,0,1.47.65,1.47,1.46s-.66,1.46-1.47,1.46h-3.53c-.81,0-1.47-.65-1.47-1.46Z"/>
          <rect class="cls-3" x="1259.12" y="1425.43" width="22.8" height="10.46" rx="2" ry="2"/>
          <path class="cls-1" d="M1262.34,1440.22c.69,0,1.25.56,1.25,1.25s-.56,1.25-1.25,1.25-1.25-.56-1.25-1.25.56-1.25,1.25-1.25Z"/>
          <path class="cls-1" d="M1278.72,1440.22c.69,0,1.25.56,1.25,1.25s-.56,1.25-1.25,1.25-1.25-.56-1.25-1.25.56-1.25,1.25-1.25Z"/>
        </g>
      </g>
      <g id="_14" data-name="🚇14">
        <g>
          <circle class="cls-3" cx="1136.71" cy="721.54" r="22.5"/>
          <path class="cls-2" d="M1127.84,732.3l-4.9,7.03c.61.47,1.24.92,1.9,1.33l5.48-8.36h-2.48Z"/>
          <path class="cls-5" d="M1127.84,732.3h-2.48l-4.2,5.49c.57.54,1.16,1.05,1.78,1.54l4.9-7.03Z"/>
          <path class="cls-2" d="M1145.59,732.3h-2.48l5.48,8.36c.66-.41,1.29-.85,1.9-1.33l-4.9-7.03Z"/>
          <path class="cls-5" d="M1145.59,732.3l4.9,7.03c.62-.48,1.21-.99,1.78-1.54l-4.2-5.49h-2.48Z"/>
          <path class="cls-4" d="M1149.66,730.72c0,1.32-1.07,2.39-2.4,2.39h-21.09c-1.32,0-2.4-1.07-2.4-2.39v-17.66c0-9.43,25.89-9.43,25.89,0v17.66h0Z"/>
          <path class="cls-3" d="M1148.14,727.94c0,.81-.66,1.46-1.47,1.46h-3.54c-.81,0-1.47-.65-1.47-1.46s.66-1.46,1.47-1.46h3.54c.81,0,1.47.65,1.47,1.46Z"/>
          <path class="cls-3" d="M1125.29,727.94c0-.81.66-1.46,1.47-1.46h3.53c.81,0,1.47.65,1.47,1.46s-.66,1.46-1.47,1.46h-3.53c-.81,0-1.47-.65-1.47-1.46Z"/>
          <rect class="cls-3" x="1125.31" y="711.9" width="22.8" height="10.46" rx="2" ry="2"/>
          <path class="cls-1" d="M1128.52,726.69c.69,0,1.25.56,1.25,1.25s-.56,1.25-1.25,1.25-1.25-.56-1.25-1.25.56-1.25,1.25-1.25Z"/>
          <path class="cls-1" d="M1144.9,726.69c.69,0,1.25.56,1.25,1.25s-.56,1.25-1.25,1.25-1.25-.56-1.25-1.25.56-1.25,1.25-1.25Z"/>
        </g>
      </g>
      <g id="_15" data-name="🚇15">
        <g>
          <circle class="cls-3" cx="1668.82" cy="360.02" r="22.5"/>
          <path class="cls-2" d="M1659.95,370.78l-4.9,7.03c.61.47,1.24.92,1.9,1.33l5.48-8.36h-2.48Z"/>
          <path class="cls-5" d="M1659.95,370.78h-2.48l-4.2,5.49c.57.54,1.16,1.05,1.78,1.54l4.9-7.03Z"/>
          <path class="cls-2" d="M1677.7,370.78h-2.48l5.48,8.36c.66-.41,1.29-.85,1.9-1.33l-4.9-7.03Z"/>
          <path class="cls-5" d="M1677.7,370.78l4.9,7.03c.62-.48,1.21-.99,1.78-1.54l-4.2-5.49h-2.48Z"/>
          <path class="cls-4" d="M1681.77,369.19c0,1.32-1.07,2.39-2.4,2.39h-21.09c-1.32,0-2.4-1.07-2.4-2.39v-17.66c0-9.43,25.89-9.43,25.89,0v17.66h0Z"/>
          <path class="cls-3" d="M1680.25,366.42c0,.81-.66,1.46-1.47,1.46h-3.54c-.81,0-1.47-.65-1.47-1.46s.66-1.46,1.47-1.46h3.54c.81,0,1.47.65,1.47,1.46Z"/>
          <path class="cls-3" d="M1657.4,366.42c0-.81.66-1.46,1.47-1.46h3.53c.81,0,1.47.65,1.47,1.46s-.66,1.46-1.47,1.46h-3.53c-.81,0-1.47-.65-1.47-1.46Z"/>
          <rect class="cls-3" x="1657.42" y="350.38" width="22.8" height="10.46" rx="2" ry="2"/>
          <path class="cls-1" d="M1660.63,365.17c.69,0,1.25.56,1.25,1.25s-.56,1.25-1.25,1.25-1.25-.56-1.25-1.25.56-1.25,1.25-1.25Z"/>
          <path class="cls-1" d="M1677.01,365.17c.69,0,1.25.56,1.25,1.25s-.56,1.25-1.25,1.25-1.25-.56-1.25-1.25.56-1.25,1.25-1.25Z"/>
        </g>
      </g>
      <g id="_16" data-name="🚇16">
        <g>
          <circle class="cls-3" cx="2535.41" cy="331.85" r="22.5"/>
          <path class="cls-2" d="M2526.53,342.6l-4.9,7.03c.61.47,1.24.92,1.9,1.33l5.48-8.36h-2.48Z"/>
          <path class="cls-5" d="M2526.53,342.6h-2.48l-4.2,5.49c.57.54,1.16,1.05,1.78,1.54l4.9-7.03Z"/>
          <path class="cls-2" d="M2544.28,342.6h-2.48l5.48,8.36c.66-.41,1.29-.85,1.9-1.33l-4.9-7.03Z"/>
          <path class="cls-5" d="M2544.28,342.6l4.9,7.03c.62-.48,1.21-.99,1.78-1.54l-4.2-5.49h-2.48Z"/>
          <path class="cls-4" d="M2548.35,341.02c0,1.32-1.07,2.39-2.4,2.39h-21.09c-1.32,0-2.4-1.07-2.4-2.39v-17.66c0-9.43,25.89-9.43,25.89,0v17.66h0Z"/>
          <path class="cls-3" d="M2546.84,338.24c0,.81-.66,1.46-1.47,1.46h-3.54c-.81,0-1.47-.65-1.47-1.46s.66-1.46,1.47-1.46h3.54c.81,0,1.47.65,1.47,1.46Z"/>
          <path class="cls-3" d="M2523.98,338.24c0-.81.66-1.46,1.47-1.46h3.53c.81,0,1.47.65,1.47,1.46s-.66,1.46-1.47,1.46h-3.53c-.81,0-1.47-.65-1.47-1.46Z"/>
          <rect class="cls-3" x="2524.01" y="322.2" width="22.8" height="10.46" rx="2" ry="2"/>
          <path class="cls-1" d="M2527.22,336.99c.69,0,1.25.56,1.25,1.25s-.56,1.25-1.25,1.25-1.25-.56-1.25-1.25.56-1.25,1.25-1.25Z"/>
          <path class="cls-1" d="M2543.6,336.99c.69,0,1.25.56,1.25,1.25s-.56,1.25-1.25,1.25-1.25-.56-1.25-1.25.56-1.25,1.25-1.25Z"/>
        </g>
      </g>
      <g id="_17" data-name="🚇17">
        <g>
          <circle class="cls-3" cx="2736" cy="622.69" r="22.5"/>
          <path class="cls-2" d="M2727.12,633.45l-4.9,7.03c.61.47,1.24.92,1.9,1.33l5.48-8.36h-2.48Z"/>
          <path class="cls-5" d="M2727.12,633.45h-2.48l-4.2,5.49c.57.54,1.16,1.05,1.78,1.54l4.9-7.03Z"/>
          <path class="cls-2" d="M2744.87,633.45h-2.48l5.48,8.36c.66-.41,1.29-.85,1.9-1.33l-4.9-7.03Z"/>
          <path class="cls-5" d="M2744.87,633.45l4.9,7.03c.62-.48,1.21-.99,1.78-1.54l-4.2-5.49h-2.48Z"/>
          <path class="cls-4" d="M2748.94,631.87c0,1.32-1.07,2.39-2.4,2.39h-21.09c-1.32,0-2.4-1.07-2.4-2.39v-17.66c0-9.43,25.89-9.43,25.89,0v17.66h0Z"/>
          <path class="cls-3" d="M2747.42,629.09c0,.81-.66,1.46-1.47,1.46h-3.54c-.81,0-1.47-.65-1.47-1.46s.66-1.46,1.47-1.46h3.54c.81,0,1.47.65,1.47,1.46Z"/>
          <path class="cls-3" d="M2724.57,629.09c0-.81.66-1.46,1.47-1.46h3.53c.81,0,1.47.65,1.47,1.46s-.66,1.46-1.47,1.46h-3.53c-.81,0-1.47-.65-1.47-1.46Z"/>
          <rect class="cls-3" x="2724.59" y="613.05" width="22.8" height="10.46" rx="2" ry="2"/>
          <path class="cls-1" d="M2727.81,627.84c.69,0,1.25.56,1.25,1.25s-.56,1.25-1.25,1.25-1.25-.56-1.25-1.25.56-1.25,1.25-1.25Z"/>
          <path class="cls-1" d="M2744.19,627.84c.69,0,1.25.56,1.25,1.25s-.56,1.25-1.25,1.25-1.25-.56-1.25-1.25.56-1.25,1.25-1.25Z"/>
        </g>
      </g>
      <g id="_18" data-name="🚇18">
        <g>
          <circle class="cls-3" cx="2798.05" cy="939.24" r="22.5"/>
          <path class="cls-2" d="M2789.18,949.99l-4.9,7.03c.61.47,1.24.92,1.9,1.33l5.48-8.36h-2.48Z"/>
          <path class="cls-5" d="M2789.18,949.99h-2.48l-4.2,5.49c.57.54,1.16,1.05,1.78,1.54l4.9-7.03Z"/>
          <path class="cls-2" d="M2806.93,949.99h-2.48l5.48,8.36c.66-.41,1.29-.85,1.9-1.33l-4.9-7.03Z"/>
          <path class="cls-5" d="M2806.93,949.99l4.9,7.03c.62-.48,1.21-.99,1.78-1.54l-4.2-5.49h-2.48Z"/>
          <path class="cls-4" d="M2811,948.41c0,1.32-1.07,2.39-2.4,2.39h-21.09c-1.32,0-2.4-1.07-2.4-2.39v-17.66c0-9.43,25.89-9.43,25.89,0v17.66h0Z"/>
          <path class="cls-3" d="M2809.48,945.63c0,.81-.66,1.46-1.47,1.46h-3.54c-.81,0-1.47-.65-1.47-1.46s.66-1.46,1.47-1.46h3.54c.81,0,1.47.65,1.47,1.46Z"/>
          <path class="cls-3" d="M2786.63,945.63c0-.81.66-1.46,1.47-1.46h3.53c.81,0,1.47.65,1.47,1.46s-.66,1.46-1.47,1.46h-3.53c-.81,0-1.47-.65-1.47-1.46Z"/>
          <rect class="cls-3" x="2786.65" y="929.59" width="22.8" height="10.46" rx="2" ry="2"/>
          <path class="cls-1" d="M2789.86,944.38c.69,0,1.25.56,1.25,1.25s-.56,1.25-1.25,1.25-1.25-.56-1.25-1.25.56-1.25,1.25-1.25Z"/>
          <path class="cls-1" d="M2806.24,944.38c.69,0,1.25.56,1.25,1.25s-.56,1.25-1.25,1.25-1.25-.56-1.25-1.25.56-1.25,1.25-1.25Z"/>
        </g>
      </g>
      <g id="_19" data-name="🚇19">
        <g>
          <circle class="cls-3" cx="2323.02" cy="1509" r="22.5"/>
          <path class="cls-2" d="M2314.15,1519.76l-4.9,7.03c.61.47,1.24.92,1.9,1.33l5.48-8.36h-2.48Z"/>
          <path class="cls-5" d="M2314.15,1519.76h-2.48l-4.2,5.49c.57.54,1.16,1.05,1.78,1.54l4.9-7.03Z"/>
          <path class="cls-2" d="M2331.9,1519.76h-2.48l5.48,8.36c.66-.41,1.29-.85,1.9-1.33l-4.9-7.03Z"/>
          <path class="cls-5" d="M2331.9,1519.76l4.9,7.03c.62-.48,1.21-.99,1.78-1.54l-4.2-5.49h-2.48Z"/>
          <path class="cls-4" d="M2335.97,1518.17c0,1.32-1.07,2.39-2.4,2.39h-21.09c-1.32,0-2.4-1.07-2.4-2.39v-17.66c0-9.43,25.89-9.43,25.89,0v17.66h0Z"/>
          <path class="cls-3" d="M2334.45,1515.4c0,.81-.66,1.46-1.47,1.46h-3.54c-.81,0-1.47-.65-1.47-1.46s.66-1.46,1.47-1.46h3.54c.81,0,1.47.65,1.47,1.46Z"/>
          <path class="cls-3" d="M2311.6,1515.4c0-.81.66-1.46,1.47-1.46h3.53c.81,0,1.47.65,1.47,1.46s-.66,1.46-1.47,1.46h-3.53c-.81,0-1.47-.65-1.47-1.46Z"/>
          <rect class="cls-3" x="2311.62" y="1499.36" width="22.8" height="10.46" rx="2" ry="2"/>
          <path class="cls-1" d="M2314.83,1514.15c.69,0,1.25.56,1.25,1.25s-.56,1.25-1.25,1.25-1.25-.56-1.25-1.25.56-1.25,1.25-1.25Z"/>
          <path class="cls-1" d="M2331.21,1514.14c.69,0,1.25.56,1.25,1.25s-.56,1.25-1.25,1.25-1.25-.56-1.25-1.25.56-1.25,1.25-1.25Z"/>
        </g>
      </g>
      <g id="_20" data-name="🚇20">
        <g>
          <circle class="cls-3" cx="1558.45" cy="1860.98" r="22.5"/>
          <path class="cls-2" d="M1549.58,1871.74l-4.9,7.03c.61.47,1.24.92,1.9,1.33l5.48-8.36h-2.48Z"/>
          <path class="cls-5" d="M1549.58,1871.74h-2.48l-4.2,5.49c.57.54,1.16,1.05,1.78,1.54l4.9-7.03Z"/>
          <path class="cls-2" d="M1567.33,1871.74h-2.48l5.48,8.36c.66-.41,1.29-.85,1.9-1.33l-4.9-7.03Z"/>
          <path class="cls-5" d="M1567.33,1871.74l4.9,7.03c.62-.48,1.21-.99,1.78-1.54l-4.2-5.49h-2.48Z"/>
          <path class="cls-4" d="M1571.4,1870.16c0,1.32-1.07,2.39-2.4,2.39h-21.09c-1.32,0-2.4-1.07-2.4-2.39v-17.66c0-9.43,25.89-9.43,25.89,0v17.66h0Z"/>
          <path class="cls-3" d="M1569.88,1867.38c0,.81-.66,1.46-1.47,1.46h-3.54c-.81,0-1.47-.65-1.47-1.46s.66-1.46,1.47-1.46h3.54c.81,0,1.47.65,1.47,1.46Z"/>
          <path class="cls-3" d="M1547.03,1867.38c0-.81.66-1.46,1.47-1.46h3.53c.81,0,1.47.65,1.47,1.46s-.66,1.46-1.47,1.46h-3.53c-.81,0-1.47-.65-1.47-1.46Z"/>
          <rect class="cls-3" x="1547.05" y="1851.34" width="22.8" height="10.46" rx="2" ry="2"/>
          <path class="cls-1" d="M1550.26,1866.13c.69,0,1.25.56,1.25,1.25s-.56,1.25-1.25,1.25-1.25-.56-1.25-1.25.56-1.25,1.25-1.25Z"/>
          <path class="cls-1" d="M1566.64,1866.13c.69,0,1.25.56,1.25,1.25s-.56,1.25-1.25,1.25-1.25-.56-1.25-1.25.56-1.25,1.25-1.25Z"/>
        </g>
      </g>
      <g id="_21" data-name="🚇21">
        <g>
          <circle class="cls-3" cx="847.11" cy="1186.34" r="22.5"/>
          <path class="cls-2" d="M838.23,1197.1l-4.9,7.03c.61.47,1.24.92,1.9,1.33l5.48-8.36h-2.48Z"/>
          <path class="cls-5" d="M838.23,1197.1h-2.48l-4.2,5.49c.57.54,1.16,1.05,1.78,1.54l4.9-7.03Z"/>
          <path class="cls-2" d="M855.98,1197.1h-2.48l5.48,8.36c.66-.41,1.29-.85,1.9-1.33l-4.9-7.03Z"/>
          <path class="cls-5" d="M855.98,1197.1l4.9,7.03c.62-.48,1.21-.99,1.78-1.54l-4.2-5.49h-2.48Z"/>
          <path class="cls-4" d="M860.05,1195.52c0,1.32-1.07,2.39-2.4,2.39h-21.09c-1.32,0-2.4-1.07-2.4-2.39v-17.66c0-9.43,25.89-9.43,25.89,0v17.66h0Z"/>
          <path class="cls-3" d="M858.53,1192.74c0,.81-.66,1.46-1.47,1.46h-3.54c-.81,0-1.47-.65-1.47-1.46s.66-1.46,1.47-1.46h3.54c.81,0,1.47.65,1.47,1.46Z"/>
          <path class="cls-3" d="M835.68,1192.74c0-.81.66-1.46,1.47-1.46h3.53c.81,0,1.47.65,1.47,1.46s-.66,1.46-1.47,1.46h-3.53c-.81,0-1.47-.65-1.47-1.46Z"/>
          <rect class="cls-3" x="835.7" y="1176.7" width="22.8" height="10.46" rx="2" ry="2"/>
          <path class="cls-1" d="M838.92,1191.49c.69,0,1.25.56,1.25,1.25s-.56,1.25-1.25,1.25-1.25-.56-1.25-1.25.56-1.25,1.25-1.25Z"/>
          <path class="cls-1" d="M855.3,1191.49c.69,0,1.25.56,1.25,1.25s-.56,1.25-1.25,1.25-1.25-.56-1.25-1.25.56-1.25,1.25-1.25Z"/>
        </g>
      </g>
      <g id="_22" data-name="🚇22">
        <g>
          <circle class="cls-3" cx="955.68" cy="334.82" r="22.5"/>
          <path class="cls-2" d="M946.8,345.58l-4.9,7.03c.61.47,1.24.92,1.9,1.33l5.48-8.36h-2.48Z"/>
          <path class="cls-5" d="M946.8,345.58h-2.48l-4.2,5.49c.57.54,1.16,1.05,1.78,1.54l4.9-7.03Z"/>
          <path class="cls-2" d="M964.55,345.58h-2.48l5.48,8.36c.66-.41,1.29-.85,1.9-1.33l-4.9-7.03Z"/>
          <path class="cls-5" d="M964.55,345.58l4.9,7.03c.62-.48,1.21-.99,1.78-1.54l-4.2-5.49h-2.48Z"/>
          <path class="cls-4" d="M968.62,344c0,1.32-1.07,2.39-2.4,2.39h-21.09c-1.32,0-2.4-1.07-2.4-2.39v-17.66c0-9.43,25.89-9.43,25.89,0v17.66h0Z"/>
          <path class="cls-3" d="M967.1,341.22c0,.81-.66,1.46-1.47,1.46h-3.54c-.81,0-1.47-.65-1.47-1.46s.66-1.46,1.47-1.46h3.54c.81,0,1.47.65,1.47,1.46Z"/>
          <path class="cls-3" d="M944.25,341.22c0-.81.66-1.46,1.47-1.46h3.53c.81,0,1.47.65,1.47,1.46s-.66,1.46-1.47,1.46h-3.53c-.81,0-1.47-.65-1.47-1.46Z"/>
          <rect class="cls-3" x="944.27" y="325.18" width="22.8" height="10.46" rx="2" ry="2"/>
          <path class="cls-1" d="M947.48,339.97c.69,0,1.25.56,1.25,1.25s-.56,1.25-1.25,1.25-1.25-.56-1.25-1.25.56-1.25,1.25-1.25Z"/>
          <path class="cls-1" d="M963.87,339.97c.69,0,1.25.56,1.25,1.25s-.56,1.25-1.25,1.25-1.25-.56-1.25-1.25.56-1.25,1.25-1.25Z"/>
        </g>
      </g>
      <g id="_23" data-name="🚇23">
        <g>
          <circle class="cls-3" cx="1404.55" cy="147.38" r="22.5"/>
          <path class="cls-2" d="M1395.67,158.14l-4.9,7.03c.61.47,1.24.92,1.9,1.33l5.48-8.36h-2.48Z"/>
          <path class="cls-5" d="M1395.67,158.14h-2.48l-4.2,5.49c.57.54,1.16,1.05,1.78,1.54l4.9-7.03Z"/>
          <path class="cls-2" d="M1413.42,158.14h-2.48l5.48,8.36c.66-.41,1.29-.85,1.9-1.33l-4.9-7.03Z"/>
          <path class="cls-5" d="M1413.42,158.14l4.9,7.03c.62-.48,1.21-.99,1.78-1.54l-4.2-5.49h-2.48Z"/>
          <path class="cls-4" d="M1417.49,156.56c0,1.32-1.07,2.39-2.4,2.39h-21.09c-1.32,0-2.4-1.07-2.4-2.39v-17.66c0-9.43,25.89-9.43,25.89,0v17.66h0Z"/>
          <path class="cls-3" d="M1415.97,153.78c0,.81-.66,1.46-1.47,1.46h-3.54c-.81,0-1.47-.65-1.47-1.46s.66-1.46,1.47-1.46h3.54c.81,0,1.47.65,1.47,1.46Z"/>
          <path class="cls-3" d="M1393.12,153.78c0-.81.66-1.46,1.47-1.46h3.53c.81,0,1.47.65,1.47,1.46s-.66,1.46-1.47,1.46h-3.53c-.81,0-1.47-.65-1.47-1.46Z"/>
          <rect class="cls-3" x="1393.14" y="137.74" width="22.8" height="10.46" rx="2" ry="2"/>
          <path class="cls-1" d="M1396.36,152.53c.69,0,1.25.56,1.25,1.25s-.56,1.25-1.25,1.25-1.25-.56-1.25-1.25.56-1.25,1.25-1.25Z"/>
          <path class="cls-1" d="M1412.74,152.53c.69,0,1.25.56,1.25,1.25s-.56,1.25-1.25,1.25-1.25-.56-1.25-1.25.56-1.25,1.25-1.25Z"/>
        </g>
      </g>
      <g id="_24" data-name="🚇24">
        <g>
          <circle class="cls-3" cx="2287.5" cy="151.38" r="22.5"/>
          <path class="cls-2" d="M2278.63,162.14l-4.9,7.03c.61.47,1.24.92,1.9,1.33l5.48-8.36h-2.48Z"/>
          <path class="cls-5" d="M2278.63,162.14h-2.48l-4.2,5.49c.57.54,1.16,1.05,1.78,1.54l4.9-7.03Z"/>
          <path class="cls-2" d="M2296.38,162.14h-2.48l5.48,8.36c.66-.41,1.29-.85,1.9-1.33l-4.9-7.03Z"/>
          <path class="cls-5" d="M2296.38,162.14l4.9,7.03c.62-.48,1.21-.99,1.78-1.54l-4.2-5.49h-2.48Z"/>
          <path class="cls-4" d="M2300.45,160.56c0,1.32-1.07,2.39-2.4,2.39h-21.09c-1.32,0-2.4-1.07-2.4-2.39v-17.66c0-9.43,25.89-9.43,25.89,0v17.66h0Z"/>
          <path class="cls-3" d="M2298.93,157.78c0,.81-.66,1.46-1.47,1.46h-3.54c-.81,0-1.47-.65-1.47-1.46s.66-1.46,1.47-1.46h3.54c.81,0,1.47.65,1.47,1.46Z"/>
          <path class="cls-3" d="M2276.08,157.78c0-.81.66-1.46,1.47-1.46h3.53c.81,0,1.47.65,1.47,1.46s-.66,1.46-1.47,1.46h-3.53c-.81,0-1.47-.65-1.47-1.46Z"/>
          <rect class="cls-3" x="2276.1" y="141.74" width="22.8" height="10.46" rx="2" ry="2"/>
          <path class="cls-1" d="M2279.31,156.53c.69,0,1.25.56,1.25,1.25s-.56,1.25-1.25,1.25-1.25-.56-1.25-1.25.56-1.25,1.25-1.25Z"/>
          <path class="cls-1" d="M2295.69,156.53c.69,0,1.25.56,1.25,1.25s-.56,1.25-1.25,1.25-1.25-.56-1.25-1.25.56-1.25,1.25-1.25Z"/>
        </g>
      </g>
      <g id="_25" data-name="🚇25">
        <g>
          <circle class="cls-3" cx="2696.78" cy="226.83" r="22.5"/>
          <path class="cls-2" d="M2687.9,237.59l-4.9,7.03c.61.47,1.24.92,1.9,1.33l5.48-8.36h-2.48Z"/>
          <path class="cls-5" d="M2687.9,237.59h-2.48l-4.2,5.49c.57.54,1.16,1.05,1.78,1.54l4.9-7.03Z"/>
          <path class="cls-2" d="M2705.65,237.59h-2.48l5.48,8.36c.66-.41,1.29-.85,1.9-1.33l-4.9-7.03Z"/>
          <path class="cls-5" d="M2705.65,237.59l4.9,7.03c.62-.48,1.21-.99,1.78-1.54l-4.2-5.49h-2.48Z"/>
          <path class="cls-4" d="M2709.72,236c0,1.32-1.07,2.39-2.4,2.39h-21.09c-1.32,0-2.4-1.07-2.4-2.39v-17.66c0-9.43,25.89-9.43,25.89,0v17.66h0Z"/>
          <path class="cls-3" d="M2708.2,233.23c0,.81-.66,1.46-1.47,1.46h-3.54c-.81,0-1.47-.65-1.47-1.46s.66-1.46,1.47-1.46h3.54c.81,0,1.47.65,1.47,1.46Z"/>
          <path class="cls-3" d="M2685.35,233.23c0-.81.66-1.46,1.47-1.46h3.53c.81,0,1.47.65,1.47,1.46s-.66,1.46-1.47,1.46h-3.53c-.81,0-1.47-.65-1.47-1.46Z"/>
          <rect class="cls-3" x="2685.37" y="217.19" width="22.8" height="10.46" rx="2" ry="2"/>
          <path class="cls-1" d="M2688.59,231.98c.69,0,1.25.56,1.25,1.25s-.56,1.25-1.25,1.25-1.25-.56-1.25-1.25.56-1.25,1.25-1.25Z"/>
          <path class="cls-1" d="M2704.97,231.97c.69,0,1.25.56,1.25,1.25s-.56,1.25-1.25,1.25-1.25-.56-1.25-1.25.56-1.25,1.25-1.25Z"/>
        </g>
      </g>
      <g id="_26" data-name="🚇26">
        <g>
          <circle class="cls-3" cx="2891.75" cy="513.56" r="22.5"/>
          <path class="cls-2" d="M2882.87,524.32l-4.9,7.03c.61.47,1.24.92,1.9,1.33l5.48-8.36h-2.48Z"/>
          <path class="cls-5" d="M2882.87,524.32h-2.48l-4.2,5.49c.57.54,1.16,1.05,1.78,1.54l4.9-7.03Z"/>
          <path class="cls-2" d="M2900.62,524.32h-2.48l5.48,8.36c.66-.41,1.29-.85,1.9-1.33l-4.9-7.03Z"/>
          <path class="cls-5" d="M2900.62,524.32l4.9,7.03c.62-.48,1.21-.99,1.78-1.54l-4.2-5.49h-2.48Z"/>
          <path class="cls-4" d="M2904.69,522.74c0,1.32-1.07,2.39-2.4,2.39h-21.09c-1.32,0-2.4-1.07-2.4-2.39v-17.66c0-9.43,25.89-9.43,25.89,0v17.66h0Z"/>
          <path class="cls-3" d="M2903.17,519.96c0,.81-.66,1.46-1.47,1.46h-3.54c-.81,0-1.47-.65-1.47-1.46s.66-1.46,1.47-1.46h3.54c.81,0,1.47.65,1.47,1.46Z"/>
          <path class="cls-3" d="M2880.32,519.96c0-.81.66-1.46,1.47-1.46h3.53c.81,0,1.47.65,1.47,1.46s-.66,1.46-1.47,1.46h-3.53c-.81,0-1.47-.65-1.47-1.46Z"/>
          <rect class="cls-3" x="2880.35" y="503.92" width="22.8" height="10.46" rx="2" ry="2"/>
          <path class="cls-1" d="M2883.56,518.71c.69,0,1.25.56,1.25,1.25s-.56,1.25-1.25,1.25-1.25-.56-1.25-1.25.56-1.25,1.25-1.25Z"/>
          <path class="cls-1" d="M2899.94,518.71c.69,0,1.25.56,1.25,1.25s-.56,1.25-1.25,1.25-1.25-.56-1.25-1.25.56-1.25,1.25-1.25Z"/>
        </g>
      </g>
      <g id="_27" data-name="🚇27">
        <g>
          <circle class="cls-3" cx="3045.01" cy="941.23" r="22.5"/>
          <path class="cls-2" d="M3036.13,951.99l-4.9,7.03c.61.47,1.24.92,1.9,1.33l5.48-8.36h-2.48Z"/>
          <path class="cls-5" d="M3036.13,951.99h-2.48l-4.2,5.49c.57.54,1.16,1.05,1.78,1.54l4.9-7.03Z"/>
          <path class="cls-2" d="M3053.88,951.99h-2.48l5.48,8.36c.66-.41,1.29-.85,1.9-1.33l-4.9-7.03Z"/>
          <path class="cls-5" d="M3053.88,951.99l4.9,7.03c.62-.48,1.21-.99,1.78-1.54l-4.2-5.49h-2.48Z"/>
          <path class="cls-4" d="M3057.95,950.41c0,1.32-1.07,2.39-2.4,2.39h-21.09c-1.32,0-2.4-1.07-2.4-2.39v-17.66c0-9.43,25.89-9.43,25.89,0v17.66h0Z"/>
          <path class="cls-3" d="M3056.43,947.63c0,.81-.66,1.46-1.47,1.46h-3.54c-.81,0-1.47-.65-1.47-1.46s.66-1.46,1.47-1.46h3.54c.81,0,1.47.65,1.47,1.46Z"/>
          <path class="cls-3" d="M3033.58,947.63c0-.81.66-1.46,1.47-1.46h3.53c.81,0,1.47.65,1.47,1.46s-.66,1.46-1.47,1.46h-3.53c-.81,0-1.47-.65-1.47-1.46Z"/>
          <rect class="cls-3" x="3033.6" y="931.59" width="22.8" height="10.46" rx="2" ry="2"/>
          <path class="cls-1" d="M3036.82,946.38c.69,0,1.25.56,1.25,1.25s-.56,1.25-1.25,1.25-1.25-.56-1.25-1.25.56-1.25,1.25-1.25Z"/>
          <path class="cls-1" d="M3053.2,946.38c.69,0,1.25.56,1.25,1.25s-.56,1.25-1.25,1.25-1.25-.56-1.25-1.25.56-1.25,1.25-1.25Z"/>
        </g>
      </g>
      <g id="_28" data-name="🚇28">
        <g>
          <circle class="cls-3" cx="2610.08" cy="1606.69" r="22.5"/>
          <path class="cls-2" d="M2601.21,1617.45l-4.9,7.03c.61.47,1.24.92,1.9,1.33l5.48-8.36h-2.48Z"/>
          <path class="cls-5" d="M2601.21,1617.45h-2.48l-4.2,5.49c.57.54,1.16,1.05,1.78,1.54l4.9-7.03Z"/>
          <path class="cls-2" d="M2618.96,1617.45h-2.48l5.48,8.36c.66-.41,1.29-.85,1.9-1.33l-4.9-7.03Z"/>
          <path class="cls-5" d="M2618.96,1617.45l4.9,7.03c.62-.48,1.21-.99,1.78-1.54l-4.2-5.49h-2.48Z"/>
          <path class="cls-4" d="M2623.03,1615.86c0,1.32-1.07,2.39-2.4,2.39h-21.09c-1.32,0-2.4-1.07-2.4-2.39v-17.66c0-9.43,25.89-9.43,25.89,0v17.66h0Z"/>
          <path class="cls-3" d="M2621.51,1613.09c0,.81-.66,1.46-1.47,1.46h-3.54c-.81,0-1.47-.65-1.47-1.46s.66-1.46,1.47-1.46h3.54c.81,0,1.47.65,1.47,1.46Z"/>
          <path class="cls-3" d="M2598.66,1613.09c0-.81.66-1.46,1.47-1.46h3.53c.81,0,1.47.65,1.47,1.46s-.66,1.46-1.47,1.46h-3.53c-.81,0-1.47-.65-1.47-1.46Z"/>
          <rect class="cls-3" x="2598.68" y="1597.05" width="22.8" height="10.46" rx="2" ry="2"/>
          <path class="cls-1" d="M2601.89,1611.84c.69,0,1.25.56,1.25,1.25s-.56,1.25-1.25,1.25-1.25-.56-1.25-1.25.56-1.25,1.25-1.25Z"/>
          <path class="cls-1" d="M2618.27,1611.84c.69,0,1.25.56,1.25,1.25s-.56,1.25-1.25,1.25-1.25-.56-1.25-1.25.56-1.25,1.25-1.25Z"/>
        </g>
      </g>
      <g id="_29" data-name="🚇29">
        <g>
          <circle class="cls-3" cx="1644.33" cy="2095.24" r="22.5"/>
          <path class="cls-2" d="M1635.45,2106l-4.9,7.03c.61.47,1.24.92,1.9,1.33l5.48-8.36h-2.48Z"/>
          <path class="cls-5" d="M1635.45,2106h-2.48l-4.2,5.49c.57.54,1.16,1.05,1.78,1.54l4.9-7.03Z"/>
          <path class="cls-2" d="M1653.2,2106h-2.48l5.48,8.36c.66-.41,1.29-.85,1.9-1.33l-4.9-7.03Z"/>
          <path class="cls-5" d="M1653.2,2106l4.9,7.03c.62-.48,1.21-.99,1.78-1.54l-4.2-5.49h-2.48Z"/>
          <path class="cls-4" d="M1657.27,2104.42c0,1.32-1.07,2.39-2.4,2.39h-21.09c-1.32,0-2.4-1.07-2.4-2.39v-17.66c0-9.43,25.89-9.43,25.89,0v17.66h0Z"/>
          <path class="cls-3" d="M1655.75,2101.64c0,.81-.66,1.46-1.47,1.46h-3.54c-.81,0-1.47-.65-1.47-1.46s.66-1.46,1.47-1.46h3.54c.81,0,1.47.65,1.47,1.46Z"/>
          <path class="cls-3" d="M1632.9,2101.64c0-.81.66-1.46,1.47-1.46h3.53c.81,0,1.47.65,1.47,1.46s-.66,1.46-1.47,1.46h-3.53c-.81,0-1.47-.65-1.47-1.46Z"/>
          <rect class="cls-3" x="1632.93" y="2085.6" width="22.8" height="10.46" rx="2" ry="2"/>
          <path class="cls-1" d="M1636.14,2100.39c.69,0,1.25.56,1.25,1.25s-.56,1.25-1.25,1.25-1.25-.56-1.25-1.25.56-1.25,1.25-1.25Z"/>
          <path class="cls-1" d="M1652.52,2100.39c.69,0,1.25.56,1.25,1.25s-.56,1.25-1.25,1.25-1.25-.56-1.25-1.25.56-1.25,1.25-1.25Z"/>
        </g>
      </g>
      <g id="_30" data-name="🚇30">
        <g>
          <circle class="cls-3" cx="554.84" cy="1788.01" r="22.5"/>
          <path class="cls-2" d="M545.96,1798.77l-4.9,7.03c.61.47,1.24.92,1.9,1.33l5.48-8.36h-2.48Z"/>
          <path class="cls-5" d="M545.96,1798.77h-2.48l-4.2,5.49c.57.54,1.16,1.05,1.78,1.54l4.9-7.03Z"/>
          <path class="cls-2" d="M563.71,1798.77h-2.48l5.48,8.36c.66-.41,1.29-.85,1.9-1.33l-4.9-7.03Z"/>
          <path class="cls-5" d="M563.71,1798.77l4.9,7.03c.62-.48,1.21-.99,1.78-1.54l-4.2-5.49h-2.48Z"/>
          <path class="cls-4" d="M567.78,1797.19c0,1.32-1.07,2.39-2.4,2.39h-21.09c-1.32,0-2.4-1.07-2.4-2.39v-17.66c0-9.43,25.89-9.43,25.89,0v17.66h0Z"/>
          <path class="cls-3" d="M566.26,1794.41c0,.81-.66,1.46-1.47,1.46h-3.54c-.81,0-1.47-.65-1.47-1.46s.66-1.46,1.47-1.46h3.54c.81,0,1.47.65,1.47,1.46Z"/>
          <path class="cls-3" d="M543.41,1794.41c0-.81.66-1.46,1.47-1.46h3.53c.81,0,1.47.65,1.47,1.46s-.66,1.46-1.47,1.46h-3.53c-.81,0-1.47-.65-1.47-1.46Z"/>
          <rect class="cls-3" x="543.44" y="1778.37" width="22.8" height="10.46" rx="2" ry="2"/>
          <path class="cls-1" d="M546.65,1793.16c.69,0,1.25.56,1.25,1.25s-.56,1.25-1.25,1.25-1.25-.56-1.25-1.25.56-1.25,1.25-1.25Z"/>
          <path class="cls-1" d="M563.03,1793.16c.69,0,1.25.56,1.25,1.25s-.56,1.25-1.25,1.25-1.25-.56-1.25-1.25.56-1.25,1.25-1.25Z"/>
        </g>
      </g>
      <g id="_31" data-name="🚇31">
        <g>
          <circle class="cls-3" cx="698.55" cy="724.24" r="22.5"/>
          <path class="cls-2" d="M689.68,735l-4.9,7.03c.61.47,1.24.92,1.9,1.33l5.48-8.36h-2.48Z"/>
          <path class="cls-5" d="M689.68,735h-2.48l-4.2,5.49c.57.54,1.16,1.05,1.78,1.54l4.9-7.03Z"/>
          <path class="cls-2" d="M707.43,735h-2.48l5.48,8.36c.66-.41,1.29-.85,1.9-1.33l-4.9-7.03Z"/>
          <path class="cls-5" d="M707.43,735l4.9,7.03c.62-.48,1.21-.99,1.78-1.54l-4.2-5.49h-2.48Z"/>
          <path class="cls-4" d="M711.5,733.42c0,1.32-1.07,2.39-2.4,2.39h-21.09c-1.32,0-2.4-1.07-2.4-2.39v-17.66c0-9.43,25.89-9.43,25.89,0v17.66h0Z"/>
          <path class="cls-3" d="M709.98,730.64c0,.81-.66,1.46-1.47,1.46h-3.54c-.81,0-1.47-.65-1.47-1.46s.66-1.46,1.47-1.46h3.54c.81,0,1.47.65,1.47,1.46Z"/>
          <path class="cls-3" d="M687.13,730.64c0-.81.66-1.46,1.47-1.46h3.53c.81,0,1.47.65,1.47,1.46s-.66,1.46-1.47,1.46h-3.53c-.81,0-1.47-.65-1.47-1.46Z"/>
          <rect class="cls-3" x="687.15" y="714.6" width="22.8" height="10.46" rx="2" ry="2"/>
          <path class="cls-1" d="M690.36,729.39c.69,0,1.25.56,1.25,1.25s-.56,1.25-1.25,1.25-1.25-.56-1.25-1.25.56-1.25,1.25-1.25Z"/>
          <path class="cls-1" d="M706.74,729.39c.69,0,1.25.56,1.25,1.25s-.56,1.25-1.25,1.25-1.25-.56-1.25-1.25.56-1.25,1.25-1.25Z"/>
        </g>
      </g>
      <g id="_32" data-name="🚇32">
        <g>
          <circle class="cls-3" cx="699.78" cy="151.66" r="22.5"/>
          <path class="cls-2" d="M690.91,162.41l-4.9,7.03c.61.47,1.24.92,1.9,1.33l5.48-8.36h-2.48Z"/>
          <path class="cls-5" d="M690.91,162.41h-2.48l-4.2,5.49c.57.54,1.16,1.05,1.78,1.54l4.9-7.03Z"/>
          <path class="cls-2" d="M708.66,162.41h-2.48l5.48,8.36c.66-.41,1.29-.85,1.9-1.33l-4.9-7.03Z"/>
          <path class="cls-5" d="M708.66,162.41l4.9,7.03c.62-.48,1.21-.99,1.78-1.54l-4.2-5.49h-2.48Z"/>
          <path class="cls-4" d="M712.73,160.83c0,1.32-1.07,2.39-2.4,2.39h-21.09c-1.32,0-2.4-1.07-2.4-2.39v-17.66c0-9.43,25.89-9.43,25.89,0v17.66h0Z"/>
          <path class="cls-3" d="M711.21,158.06c0,.81-.66,1.46-1.47,1.46h-3.54c-.81,0-1.47-.65-1.47-1.46s.66-1.46,1.47-1.46h3.54c.81,0,1.47.65,1.47,1.46Z"/>
          <path class="cls-3" d="M688.36,158.06c0-.81.66-1.46,1.47-1.46h3.53c.81,0,1.47.65,1.47,1.46s-.66,1.46-1.47,1.46h-3.53c-.81,0-1.47-.65-1.47-1.46Z"/>
          <rect class="cls-3" x="688.38" y="142.01" width="22.8" height="10.46" rx="2" ry="2"/>
          <path class="cls-1" d="M691.59,156.8c.69,0,1.25.56,1.25,1.25s-.56,1.25-1.25,1.25-1.25-.56-1.25-1.25.56-1.25,1.25-1.25Z"/>
          <path class="cls-1" d="M707.97,156.8c.69,0,1.25.56,1.25,1.25s-.56,1.25-1.25,1.25-1.25-.56-1.25-1.25.56-1.25,1.25-1.25Z"/>
        </g>
      </g>
      <g id="_33" data-name="🚇33">
        <g>
          <circle class="cls-3" cx="1407.67" cy="25.44" r="22.5"/>
          <path class="cls-2" d="M1398.8,36.2l-4.9,7.03c.61.47,1.24.92,1.9,1.33l5.48-8.36h-2.48Z"/>
          <path class="cls-5" d="M1398.8,36.2h-2.48l-4.2,5.49c.57.54,1.16,1.05,1.78,1.54l4.9-7.03Z"/>
          <path class="cls-2" d="M1416.55,36.2h-2.48l5.48,8.36c.66-.41,1.29-.85,1.9-1.33l-4.9-7.03Z"/>
          <path class="cls-5" d="M1416.55,36.2l4.9,7.03c.62-.48,1.21-.99,1.78-1.54l-4.2-5.49h-2.48Z"/>
          <path class="cls-4" d="M1420.62,34.61c0,1.32-1.07,2.39-2.4,2.39h-21.09c-1.32,0-2.4-1.07-2.4-2.39v-17.66c0-9.43,25.89-9.43,25.89,0v17.66h0Z"/>
          <path class="cls-3" d="M1419.1,31.84c0,.81-.66,1.46-1.47,1.46h-3.54c-.81,0-1.47-.65-1.47-1.46s.66-1.46,1.47-1.46h3.54c.81,0,1.47.65,1.47,1.46Z"/>
          <path class="cls-3" d="M1396.25,31.84c0-.81.66-1.46,1.47-1.46h3.53c.81,0,1.47.65,1.47,1.46s-.66,1.46-1.47,1.46h-3.53c-.81,0-1.47-.65-1.47-1.46Z"/>
          <rect class="cls-3" x="1396.27" y="15.8" width="22.8" height="10.46" rx="2" ry="2"/>
          <path class="cls-1" d="M1399.48,30.59c.69,0,1.25.56,1.25,1.25s-.56,1.25-1.25,1.25-1.25-.56-1.25-1.25.56-1.25,1.25-1.25Z"/>
          <path class="cls-1" d="M1415.86,30.58c.69,0,1.25.56,1.25,1.25s-.56,1.25-1.25,1.25-1.25-.56-1.25-1.25.56-1.25,1.25-1.25Z"/>
        </g>
      </g>
      <g id="_34" data-name="🚇34">
        <g>
          <circle class="cls-3" cx="2249.26" cy="48.97" r="22.5"/>
          <path class="cls-2" d="M2240.39,59.73l-4.9,7.03c.61.47,1.24.92,1.9,1.33l5.48-8.36h-2.48Z"/>
          <path class="cls-5" d="M2240.39,59.73h-2.48l-4.2,5.49c.57.54,1.16,1.05,1.78,1.54l4.9-7.03Z"/>
          <path class="cls-2" d="M2258.14,59.73h-2.48l5.48,8.36c.66-.41,1.29-.85,1.9-1.33l-4.9-7.03Z"/>
          <path class="cls-5" d="M2258.14,59.73l4.9,7.03c.62-.48,1.21-.99,1.78-1.54l-4.2-5.49h-2.48Z"/>
          <path class="cls-4" d="M2262.21,58.15c0,1.32-1.07,2.39-2.4,2.39h-21.09c-1.32,0-2.4-1.07-2.4-2.39v-17.66c0-9.43,25.89-9.43,25.89,0v17.66h0Z"/>
          <path class="cls-3" d="M2260.69,55.37c0,.81-.66,1.46-1.47,1.46h-3.54c-.81,0-1.47-.65-1.47-1.46s.66-1.46,1.47-1.46h3.54c.81,0,1.47.65,1.47,1.46Z"/>
          <path class="cls-3" d="M2237.84,55.37c0-.81.66-1.46,1.47-1.46h3.53c.81,0,1.47.65,1.47,1.46s-.66,1.46-1.47,1.46h-3.53c-.81,0-1.47-.65-1.47-1.46Z"/>
          <rect class="cls-3" x="2237.86" y="39.33" width="22.8" height="10.46" rx="2" ry="2"/>
          <path class="cls-1" d="M2241.07,54.12c.69,0,1.25.56,1.25,1.25s-.56,1.25-1.25,1.25-1.25-.56-1.25-1.25.56-1.25,1.25-1.25Z"/>
          <path class="cls-1" d="M2257.45,54.12c.69,0,1.25.56,1.25,1.25s-.56,1.25-1.25,1.25-1.25-.56-1.25-1.25.56-1.25,1.25-1.25Z"/>
        </g>
      </g>
      <g id="_35" data-name="🚇35">
        <g>
          <circle class="cls-3" cx="3021.55" cy="431.59" r="22.5"/>
          <path class="cls-2" d="M3012.68,442.35l-4.9,7.03c.61.47,1.24.92,1.9,1.33l5.48-8.36h-2.48Z"/>
          <path class="cls-5" d="M3012.68,442.35h-2.48l-4.2,5.49c.57.54,1.16,1.05,1.78,1.54l4.9-7.03Z"/>
          <path class="cls-2" d="M3030.43,442.35h-2.48l5.48,8.36c.66-.41,1.29-.85,1.9-1.33l-4.9-7.03Z"/>
          <path class="cls-5" d="M3030.43,442.35l4.9,7.03c.62-.48,1.21-.99,1.78-1.54l-4.2-5.49h-2.48Z"/>
          <path class="cls-4" d="M3034.5,440.77c0,1.32-1.07,2.39-2.4,2.39h-21.09c-1.32,0-2.4-1.07-2.4-2.39v-17.66c0-9.43,25.89-9.43,25.89,0v17.66h0Z"/>
          <path class="cls-3" d="M3032.98,437.99c0,.81-.66,1.46-1.47,1.46h-3.54c-.81,0-1.47-.65-1.47-1.46s.66-1.46,1.47-1.46h3.54c.81,0,1.47.65,1.47,1.46Z"/>
          <path class="cls-3" d="M3010.13,437.99c0-.81.66-1.46,1.47-1.46h3.53c.81,0,1.47.65,1.47,1.46s-.66,1.46-1.47,1.46h-3.53c-.81,0-1.47-.65-1.47-1.46Z"/>
          <rect class="cls-3" x="3010.15" y="421.95" width="22.8" height="10.46" rx="2" ry="2"/>
          <path class="cls-1" d="M3013.36,436.74c.69,0,1.25.56,1.25,1.25s-.56,1.25-1.25,1.25-1.25-.56-1.25-1.25.56-1.25,1.25-1.25Z"/>
          <path class="cls-1" d="M3029.74,436.74c.69,0,1.25.56,1.25,1.25s-.56,1.25-1.25,1.25-1.25-.56-1.25-1.25.56-1.25,1.25-1.25Z"/>
        </g>
      </g>
      <g id="_36" data-name="🚇36">
        <g>
          <circle class="cls-3" cx="3169.73" cy="995.54" r="22.5"/>
          <path class="cls-2" d="M3160.85,1006.3l-4.9,7.03c.61.47,1.24.92,1.9,1.33l5.48-8.36h-2.48Z"/>
          <path class="cls-5" d="M3160.85,1006.3h-2.48l-4.2,5.49c.57.54,1.16,1.05,1.78,1.54l4.9-7.03Z"/>
          <path class="cls-2" d="M3178.6,1006.3h-2.48l5.48,8.36c.66-.41,1.29-.85,1.9-1.33l-4.9-7.03Z"/>
          <path class="cls-5" d="M3178.6,1006.3l4.9,7.03c.62-.48,1.21-.99,1.78-1.54l-4.2-5.49h-2.48Z"/>
          <path class="cls-4" d="M3182.67,1004.72c0,1.32-1.07,2.39-2.4,2.39h-21.09c-1.32,0-2.4-1.07-2.4-2.39v-17.66c0-9.43,25.89-9.43,25.89,0v17.66h0Z"/>
          <path class="cls-3" d="M3181.16,1001.94c0,.81-.66,1.46-1.47,1.46h-3.54c-.81,0-1.47-.65-1.47-1.46s.66-1.46,1.47-1.46h3.54c.81,0,1.47.65,1.47,1.46Z"/>
          <path class="cls-3" d="M3158.3,1001.94c0-.81.66-1.46,1.47-1.46h3.53c.81,0,1.47.65,1.47,1.46s-.66,1.46-1.47,1.46h-3.53c-.81,0-1.47-.65-1.47-1.46Z"/>
          <rect class="cls-3" x="3158.33" y="985.9" width="22.8" height="10.46" rx="2" ry="2"/>
          <path class="cls-1" d="M3161.54,1000.69c.69,0,1.25.56,1.25,1.25s-.56,1.25-1.25,1.25-1.25-.56-1.25-1.25.56-1.25,1.25-1.25Z"/>
          <path class="cls-1" d="M3177.92,1000.69c.69,0,1.25.56,1.25,1.25s-.56,1.25-1.25,1.25-1.25-.56-1.25-1.25.56-1.25,1.25-1.25Z"/>
        </g>
      </g>
      <g id="_37" data-name="🚇37">
        <g>
          <circle class="cls-3" cx="2611.77" cy="1713.53" r="22.5"/>
          <path class="cls-2" d="M2602.89,1724.29l-4.9,7.03c.61.47,1.24.92,1.9,1.33l5.48-8.36h-2.48Z"/>
          <path class="cls-5" d="M2602.89,1724.29h-2.48l-4.2,5.49c.57.54,1.16,1.05,1.78,1.54l4.9-7.03Z"/>
          <path class="cls-2" d="M2620.64,1724.29h-2.48l5.48,8.36c.66-.41,1.29-.85,1.9-1.33l-4.9-7.03Z"/>
          <path class="cls-5" d="M2620.64,1724.29l4.9,7.03c.62-.48,1.21-.99,1.78-1.54l-4.2-5.49h-2.48Z"/>
          <path class="cls-4" d="M2624.71,1722.7c0,1.32-1.07,2.39-2.4,2.39h-21.09c-1.32,0-2.4-1.07-2.4-2.39v-17.66c0-9.43,25.89-9.43,25.89,0v17.66h0Z"/>
          <path class="cls-3" d="M2623.19,1719.93c0,.81-.66,1.46-1.47,1.46h-3.54c-.81,0-1.47-.65-1.47-1.46s.66-1.46,1.47-1.46h3.54c.81,0,1.47.65,1.47,1.46Z"/>
          <path class="cls-3" d="M2600.34,1719.93c0-.81.66-1.46,1.47-1.46h3.53c.81,0,1.47.65,1.47,1.46s-.66,1.46-1.47,1.46h-3.53c-.81,0-1.47-.65-1.47-1.46Z"/>
          <rect class="cls-3" x="2600.36" y="1703.88" width="22.8" height="10.46" rx="2" ry="2"/>
          <path class="cls-1" d="M2603.58,1718.67c.69,0,1.25.56,1.25,1.25s-.56,1.25-1.25,1.25-1.25-.56-1.25-1.25.56-1.25,1.25-1.25Z"/>
          <path class="cls-1" d="M2619.96,1718.67c.69,0,1.25.56,1.25,1.25s-.56,1.25-1.25,1.25-1.25-.56-1.25-1.25.56-1.25,1.25-1.25Z"/>
        </g>
      </g>
      <g id="_38" data-name="🚇38">
        <g>
          <circle class="cls-3" cx="1654.53" cy="2239.7" r="22.5"/>
          <path class="cls-2" d="M1645.65,2250.45l-4.9,7.03c.61.47,1.24.92,1.9,1.33l5.48-8.36h-2.48Z"/>
          <path class="cls-5" d="M1645.65,2250.45h-2.48l-4.2,5.49c.57.54,1.16,1.05,1.78,1.54l4.9-7.03Z"/>
          <path class="cls-2" d="M1663.4,2250.45h-2.48l5.48,8.36c.66-.41,1.29-.85,1.9-1.33l-4.9-7.03Z"/>
          <path class="cls-5" d="M1663.4,2250.45l4.9,7.03c.62-.48,1.21-.99,1.78-1.54l-4.2-5.49h-2.48Z"/>
          <path class="cls-4" d="M1667.47,2248.87c0,1.32-1.07,2.39-2.4,2.39h-21.09c-1.32,0-2.4-1.07-2.4-2.39v-17.66c0-9.43,25.89-9.43,25.89,0v17.66h0Z"/>
          <path class="cls-3" d="M1665.95,2246.09c0,.81-.66,1.46-1.47,1.46h-3.54c-.81,0-1.47-.65-1.47-1.46s.66-1.46,1.47-1.46h3.54c.81,0,1.47.65,1.47,1.46Z"/>
          <path class="cls-3" d="M1643.1,2246.09c0-.81.66-1.46,1.47-1.46h3.53c.81,0,1.47.65,1.47,1.46s-.66,1.46-1.47,1.46h-3.53c-.81,0-1.47-.65-1.47-1.46Z"/>
          <rect class="cls-3" x="1643.13" y="2230.05" width="22.8" height="10.46" rx="2" ry="2"/>
          <path class="cls-1" d="M1646.34,2244.84c.69,0,1.25.56,1.25,1.25s-.56,1.25-1.25,1.25-1.25-.56-1.25-1.25.56-1.25,1.25-1.25Z"/>
          <path class="cls-1" d="M1662.72,2244.84c.69,0,1.25.56,1.25,1.25s-.56,1.25-1.25,1.25-1.25-.56-1.25-1.25.56-1.25,1.25-1.25Z"/>
        </g>
      </g>
      <g id="_39" data-name="🚇39">
        <g>
          <circle class="cls-3" cx="1237.48" cy="2396.04" r="22.5"/>
          <path class="cls-2" d="M1228.61,2406.8l-4.9,7.03c.61.47,1.24.92,1.9,1.33l5.48-8.36h-2.48Z"/>
          <path class="cls-5" d="M1228.61,2406.8h-2.48l-4.2,5.49c.57.54,1.16,1.05,1.78,1.54l4.9-7.03Z"/>
          <path class="cls-2" d="M1246.36,2406.8h-2.48l5.48,8.36c.66-.41,1.29-.85,1.9-1.33l-4.9-7.03Z"/>
          <path class="cls-5" d="M1246.36,2406.8l4.9,7.03c.62-.48,1.21-.99,1.78-1.54l-4.2-5.49h-2.48Z"/>
          <path class="cls-4" d="M1250.43,2405.21c0,1.32-1.07,2.39-2.4,2.39h-21.09c-1.32,0-2.4-1.07-2.4-2.39v-17.66c0-9.43,25.89-9.43,25.89,0v17.66h0Z"/>
          <path class="cls-3" d="M1248.91,2402.44c0,.81-.66,1.46-1.47,1.46h-3.54c-.81,0-1.47-.65-1.47-1.46s.66-1.46,1.47-1.46h3.54c.81,0,1.47.65,1.47,1.46Z"/>
          <path class="cls-3" d="M1226.06,2402.44c0-.81.66-1.46,1.47-1.46h3.53c.81,0,1.47.65,1.47,1.46s-.66,1.46-1.47,1.46h-3.53c-.81,0-1.47-.65-1.47-1.46Z"/>
          <rect class="cls-3" x="1226.08" y="2386.4" width="22.8" height="10.46" rx="2" ry="2"/>
          <path class="cls-1" d="M1229.29,2401.19c.69,0,1.25.56,1.25,1.25s-.56,1.25-1.25,1.25-1.25-.56-1.25-1.25.56-1.25,1.25-1.25Z"/>
          <path class="cls-1" d="M1245.67,2401.19c.69,0,1.25.56,1.25,1.25s-.56,1.25-1.25,1.25-1.25-.56-1.25-1.25.56-1.25,1.25-1.25Z"/>
        </g>
      </g>
      <g id="_40" data-name="🚇40">
        <g>
          <circle class="cls-3" cx="504.5" cy="1931.2" r="22.5"/>
          <path class="cls-2" d="M495.62,1941.96l-4.9,7.03c.61.47,1.24.92,1.9,1.33l5.48-8.36h-2.48Z"/>
          <path class="cls-5" d="M495.62,1941.96h-2.48l-4.2,5.49c.57.54,1.16,1.05,1.78,1.54l4.9-7.03Z"/>
          <path class="cls-2" d="M513.37,1941.96h-2.48l5.48,8.36c.66-.41,1.29-.85,1.9-1.33l-4.9-7.03Z"/>
          <path class="cls-5" d="M513.37,1941.96l4.9,7.03c.62-.48,1.21-.99,1.78-1.54l-4.2-5.49h-2.48Z"/>
          <path class="cls-4" d="M517.44,1940.37c0,1.32-1.07,2.39-2.4,2.39h-21.09c-1.32,0-2.4-1.07-2.4-2.39v-17.66c0-9.43,25.89-9.43,25.89,0v17.66h0Z"/>
          <path class="cls-3" d="M515.93,1937.6c0,.81-.66,1.46-1.47,1.46h-3.54c-.81,0-1.47-.65-1.47-1.46s.66-1.46,1.47-1.46h3.54c.81,0,1.47.65,1.47,1.46Z"/>
          <path class="cls-3" d="M493.07,1937.6c0-.81.66-1.46,1.47-1.46h3.53c.81,0,1.47.65,1.47,1.46s-.66,1.46-1.47,1.46h-3.53c-.81,0-1.47-.65-1.47-1.46Z"/>
          <rect class="cls-3" x="493.1" y="1921.55" width="22.8" height="10.46" rx="2" ry="2"/>
          <path class="cls-1" d="M496.31,1936.34c.69,0,1.25.56,1.25,1.25s-.56,1.25-1.25,1.25-1.25-.56-1.25-1.25.56-1.25,1.25-1.25Z"/>
          <path class="cls-1" d="M512.69,1936.34c.69,0,1.25.56,1.25,1.25s-.56,1.25-1.25,1.25-1.25-.56-1.25-1.25.56-1.25,1.25-1.25Z"/>
        </g>
      </g>
      <g id="_42" data-name="🚇42">
        <g>
          <circle class="cls-3" cx="24" cy="1182.26" r="22.5"/>
          <path class="cls-2" d="M15.12,1193.01l-4.9,7.03c.61.47,1.24.92,1.9,1.33l5.48-8.36h-2.48Z"/>
          <path class="cls-5" d="M15.12,1193.01h-2.48l-4.2,5.49c.57.54,1.16,1.05,1.78,1.54l4.9-7.03Z"/>
          <path class="cls-2" d="M32.87,1193.01h-2.48l5.48,8.36c.66-.41,1.29-.85,1.9-1.33l-4.9-7.03Z"/>
          <path class="cls-5" d="M32.87,1193.01l4.9,7.03c.62-.48,1.21-.99,1.78-1.54l-4.2-5.49h-2.48Z"/>
          <path class="cls-4" d="M36.94,1191.43c0,1.32-1.07,2.39-2.4,2.39H13.45c-1.32,0-2.4-1.07-2.4-2.39v-17.66c0-9.43,25.89-9.43,25.89,0v17.66h0Z"/>
          <path class="cls-3" d="M35.43,1188.66c0,.81-.66,1.46-1.47,1.46h-3.54c-.81,0-1.47-.65-1.47-1.46s.66-1.46,1.47-1.46h3.54c.81,0,1.47.65,1.47,1.46Z"/>
          <path class="cls-3" d="M12.57,1188.66c0-.81.66-1.46,1.47-1.46h3.53c.81,0,1.47.65,1.47,1.46s-.66,1.46-1.47,1.46h-3.53c-.81,0-1.47-.65-1.47-1.46Z"/>
          <rect class="cls-3" x="12.6" y="1172.61" width="22.8" height="10.46" rx="2" ry="2"/>
          <path class="cls-1" d="M15.81,1187.4c.69,0,1.25.56,1.25,1.25s-.56,1.25-1.25,1.25-1.25-.56-1.25-1.25.56-1.25,1.25-1.25Z"/>
          <path class="cls-1" d="M32.19,1187.4c.69,0,1.25.56,1.25,1.25s-.56,1.25-1.25,1.25-1.25-.56-1.25-1.25.56-1.25,1.25-1.25Z"/>
        </g>
      </g>
      <g id="_41" data-name="🚇41">
        <g>
          <circle class="cls-3" cx="202.86" cy="1733.32" r="22.5"/>
          <path class="cls-2" d="M193.98,1744.08l-4.9,7.03c.61.47,1.24.92,1.9,1.33l5.48-8.36h-2.48Z"/>
          <path class="cls-5" d="M193.98,1744.08h-2.48l-4.2,5.49c.57.54,1.16,1.05,1.78,1.54l4.9-7.03Z"/>
          <path class="cls-2" d="M211.73,1744.08h-2.48l5.48,8.36c.66-.41,1.29-.85,1.9-1.33l-4.9-7.03Z"/>
          <path class="cls-5" d="M211.73,1744.08l4.9,7.03c.62-.48,1.21-.99,1.78-1.54l-4.2-5.49h-2.48Z"/>
          <path class="cls-4" d="M215.8,1742.49c0,1.32-1.07,2.39-2.4,2.39h-21.09c-1.32,0-2.4-1.07-2.4-2.39v-17.66c0-9.43,25.89-9.43,25.89,0v17.66h0Z"/>
          <path class="cls-3" d="M214.28,1739.72c0,.81-.66,1.46-1.47,1.46h-3.54c-.81,0-1.47-.65-1.47-1.46s.66-1.46,1.47-1.46h3.54c.81,0,1.47.65,1.47,1.46Z"/>
          <path class="cls-3" d="M191.43,1739.72c0-.81.66-1.46,1.47-1.46h3.53c.81,0,1.47.65,1.47,1.46s-.66,1.46-1.47,1.46h-3.53c-.81,0-1.47-.65-1.47-1.46Z"/>
          <rect class="cls-3" x="191.46" y="1723.68" width="22.8" height="10.46" rx="2" ry="2"/>
          <path class="cls-1" d="M194.67,1738.47c.69,0,1.25.56,1.25,1.25s-.56,1.25-1.25,1.25-1.25-.56-1.25-1.25.56-1.25,1.25-1.25Z"/>
          <path class="cls-1" d="M211.05,1738.47c.69,0,1.25.56,1.25,1.25s-.56,1.25-1.25,1.25-1.25-.56-1.25-1.25.56-1.25,1.25-1.25Z"/>
        </g>
      </g>
      <g id="_43" data-name="🚇43">
        <g>
          <circle class="cls-3" cx="606.49" cy="725.25" r="22.5"/>
          <path class="cls-2" d="M597.62,736.01l-4.9,7.03c.61.47,1.24.92,1.9,1.33l5.48-8.36h-2.48Z"/>
          <path class="cls-5" d="M597.62,736.01h-2.48l-4.2,5.49c.57.54,1.16,1.05,1.78,1.54l4.9-7.03Z"/>
          <path class="cls-2" d="M615.37,736.01h-2.48l5.48,8.36c.66-.41,1.29-.85,1.9-1.33l-4.9-7.03Z"/>
          <path class="cls-5" d="M615.37,736.01l4.9,7.03c.62-.48,1.21-.99,1.78-1.54l-4.2-5.49h-2.48Z"/>
          <path class="cls-4" d="M619.44,734.42c0,1.32-1.07,2.39-2.4,2.39h-21.09c-1.32,0-2.4-1.07-2.4-2.39v-17.66c0-9.43,25.89-9.43,25.89,0v17.66h0Z"/>
          <path class="cls-3" d="M617.92,731.65c0,.81-.66,1.46-1.47,1.46h-3.54c-.81,0-1.47-.65-1.47-1.46s.66-1.46,1.47-1.46h3.54c.81,0,1.47.65,1.47,1.46Z"/>
          <path class="cls-3" d="M595.06,731.65c0-.81.66-1.46,1.47-1.46h3.53c.81,0,1.47.65,1.47,1.46s-.66,1.46-1.47,1.46h-3.53c-.81,0-1.47-.65-1.47-1.46Z"/>
          <rect class="cls-3" x="595.09" y="715.61" width="22.8" height="10.46" rx="2" ry="2"/>
          <path class="cls-1" d="M598.3,730.4c.69,0,1.25.56,1.25,1.25s-.56,1.25-1.25,1.25-1.25-.56-1.25-1.25.56-1.25,1.25-1.25Z"/>
          <path class="cls-1" d="M614.68,730.39c.69,0,1.25.56,1.25,1.25s-.56,1.25-1.25,1.25-1.25-.56-1.25-1.25.56-1.25,1.25-1.25Z"/>
        </g>
      </g>
      <g id="_44" data-name="🚇44">
        <g>
          <circle class="cls-3" cx="547.08" cy="117.29" r="22.5"/>
          <path class="cls-2" d="M538.2,128.04l-4.9,7.03c.61.47,1.24.92,1.9,1.33l5.48-8.36h-2.48Z"/>
          <path class="cls-5" d="M538.2,128.04h-2.48l-4.2,5.49c.57.54,1.16,1.05,1.78,1.54l4.9-7.03Z"/>
          <path class="cls-2" d="M555.95,128.04h-2.48l5.48,8.36c.66-.41,1.29-.85,1.9-1.33l-4.9-7.03Z"/>
          <path class="cls-5" d="M555.95,128.04l4.9,7.03c.62-.48,1.21-.99,1.78-1.54l-4.2-5.49h-2.48Z"/>
          <path class="cls-4" d="M560.02,126.46c0,1.32-1.07,2.39-2.4,2.39h-21.09c-1.32,0-2.4-1.07-2.4-2.39v-17.66c0-9.43,25.89-9.43,25.89,0v17.66h0Z"/>
          <path class="cls-3" d="M558.51,123.69c0,.81-.66,1.46-1.47,1.46h-3.54c-.81,0-1.47-.65-1.47-1.46s.66-1.46,1.47-1.46h3.54c.81,0,1.47.65,1.47,1.46Z"/>
          <path class="cls-3" d="M535.65,123.69c0-.81.66-1.46,1.47-1.46h3.53c.81,0,1.47.65,1.47,1.46s-.66,1.46-1.47,1.46h-3.53c-.81,0-1.47-.65-1.47-1.46Z"/>
          <rect class="cls-3" x="535.68" y="107.64" width="22.8" height="10.46" rx="2" ry="2"/>
          <path class="cls-1" d="M538.89,122.43c.69,0,1.25.56,1.25,1.25s-.56,1.25-1.25,1.25-1.25-.56-1.25-1.25.56-1.25,1.25-1.25Z"/>
          <path class="cls-1" d="M555.27,122.43c.69,0,1.25.56,1.25,1.25s-.56,1.25-1.25,1.25-1.25-.56-1.25-1.25.56-1.25,1.25-1.25Z"/>
        </g>
      </g>
    </g>
  </g>
</svg>