<?xml version="1.0" encoding="UTF-8"?>
<svg id="stations" xmlns="http://www.w3.org/2000/svg" viewBox="0 0 4032 3097.57">
  <defs>
    <style>
      .cls-1 {
        fill: #fff;
      }

      .cls-2 {
        fill: #94989b;
      }

      .cls-3 {
        fill: #3e4347;
      }

      .cls-4 {
        fill: #c7e755;
      }

      .cls-5 {
        fill: #e6e6e6;
      }
    </style>
  </defs>
  <g id="stations-2" data-name="stations">
    <g id="_1" data-name="🚇1">
      <g>
        <circle class="cls-3" cx="2160.4" cy="1310.26" r="22.5"/>
        <path class="cls-2" d="M2151.53,1321.02l-4.9,7.03c.61.47,1.24.92,1.9,1.33l5.48-8.36h-2.48Z"/>
        <path class="cls-5" d="M2151.53,1321.02h-2.48l-4.2,5.49c.57.54,1.16,1.05,1.78,1.54l4.9-7.03Z"/>
        <path class="cls-2" d="M2169.28,1321.02h-2.48l5.48,8.36c.66-.41,1.29-.85,1.9-1.33l-4.9-7.03Z"/>
        <path class="cls-5" d="M2169.28,1321.02l4.9,7.03c.62-.48,1.21-.99,1.78-1.54l-4.2-5.49h-2.48Z"/>
        <path class="cls-4" d="M2173.34,1319.44c0,1.32-1.07,2.39-2.4,2.39h-21.09c-1.32,0-2.4-1.07-2.4-2.39v-17.66c0-9.43,25.89-9.43,25.89,0v17.66h0Z"/>
        <path class="cls-3" d="M2171.83,1316.66c0,.81-.66,1.46-1.47,1.46h-3.54c-.81,0-1.47-.65-1.47-1.46s.66-1.46,1.47-1.46h3.54c.81,0,1.47.65,1.47,1.46Z"/>
        <path class="cls-3" d="M2148.97,1316.66c0-.81.66-1.46,1.47-1.46h3.53c.81,0,1.47.65,1.47,1.46s-.66,1.46-1.47,1.46h-3.53c-.81,0-1.47-.65-1.47-1.46Z"/>
        <rect class="cls-3" x="2149" y="1300.62" width="22.8" height="10.46" rx="2" ry="2"/>
        <path class="cls-1" d="M2152.21,1315.41c.69,0,1.25.56,1.25,1.25s-.56,1.25-1.25,1.25-1.25-.56-1.25-1.25.56-1.25,1.25-1.25Z"/>
        <path class="cls-1" d="M2168.59,1315.41c.69,0,1.25.56,1.25,1.25s-.56,1.25-1.25,1.25-1.25-.56-1.25-1.25.56-1.25,1.25-1.25Z"/>
      </g>
    </g>
    <g id="_2" data-name="🚇2">
      <g>
        <circle class="cls-3" cx="2373.05" cy="1558.7" r="22.5"/>
        <path class="cls-2" d="M2364.17,1569.46l-4.9,7.03c.61.47,1.24.92,1.9,1.33l5.48-8.36h-2.48Z"/>
        <path class="cls-5" d="M2364.17,1569.46h-2.48l-4.2,5.49c.57.54,1.16,1.05,1.78,1.54l4.9-7.03Z"/>
        <path class="cls-2" d="M2381.92,1569.46h-2.48l5.48,8.36c.66-.41,1.29-.85,1.9-1.33l-4.9-7.03Z"/>
        <path class="cls-5" d="M2381.92,1569.46l4.9,7.03c.62-.48,1.21-.99,1.78-1.54l-4.2-5.49h-2.48Z"/>
        <path class="cls-4" d="M2385.99,1567.87c0,1.32-1.07,2.39-2.4,2.39h-21.09c-1.32,0-2.4-1.07-2.4-2.39v-17.66c0-9.43,25.89-9.43,25.89,0v17.66h0Z"/>
        <path class="cls-3" d="M2384.48,1565.1c0,.81-.66,1.46-1.47,1.46h-3.54c-.81,0-1.47-.65-1.47-1.46s.66-1.46,1.47-1.46h3.54c.81,0,1.47.65,1.47,1.46Z"/>
        <path class="cls-3" d="M2361.62,1565.1c0-.81.66-1.46,1.47-1.46h3.53c.81,0,1.47.65,1.47,1.46s-.66,1.46-1.47,1.46h-3.53c-.81,0-1.47-.65-1.47-1.46Z"/>
        <rect class="cls-3" x="2361.65" y="1549.06" width="22.8" height="10.46" rx="2" ry="2"/>
        <path class="cls-1" d="M2364.86,1563.85c.69,0,1.25.56,1.25,1.25s-.56,1.25-1.25,1.25-1.25-.56-1.25-1.25.56-1.25,1.25-1.25Z"/>
        <path class="cls-1" d="M2381.24,1563.84c.69,0,1.25.56,1.25,1.25s-.56,1.25-1.25,1.25-1.25-.56-1.25-1.25.56-1.25,1.25-1.25Z"/>
      </g>
    </g>
    <g id="_3" data-name="🚇3">
      <g>
        <circle class="cls-3" cx="1910.61" cy="1595.82" r="22.5"/>
        <path class="cls-2" d="M1901.73,1606.57l-4.9,7.03c.61.47,1.24.92,1.9,1.33l5.48-8.36h-2.48Z"/>
        <path class="cls-5" d="M1901.73,1606.57h-2.48l-4.2,5.49c.57.54,1.16,1.05,1.78,1.54l4.9-7.03Z"/>
        <path class="cls-2" d="M1919.48,1606.57h-2.48l5.48,8.36c.66-.41,1.29-.85,1.9-1.33l-4.9-7.03Z"/>
        <path class="cls-5" d="M1919.48,1606.57l4.9,7.03c.62-.48,1.21-.99,1.78-1.54l-4.2-5.49h-2.48Z"/>
        <path class="cls-4" d="M1923.55,1604.99c0,1.32-1.07,2.39-2.4,2.39h-21.09c-1.32,0-2.4-1.07-2.4-2.39v-17.66c0-9.43,25.89-9.43,25.89,0v17.66h0Z"/>
        <path class="cls-3" d="M1922.03,1602.21c0,.81-.66,1.46-1.47,1.46h-3.54c-.81,0-1.47-.65-1.47-1.46s.66-1.46,1.47-1.46h3.54c.81,0,1.47.65,1.47,1.46Z"/>
        <path class="cls-3" d="M1899.18,1602.21c0-.81.66-1.46,1.47-1.46h3.53c.81,0,1.47.65,1.47,1.46s-.66,1.46-1.47,1.46h-3.53c-.81,0-1.47-.65-1.47-1.46Z"/>
        <rect class="cls-3" x="1899.2" y="1586.17" width="22.8" height="10.46" rx="2" ry="2"/>
        <path class="cls-1" d="M1902.42,1600.96c.69,0,1.25.56,1.25,1.25s-.56,1.25-1.25,1.25-1.25-.56-1.25-1.25.56-1.25,1.25-1.25Z"/>
        <path class="cls-1" d="M1918.8,1600.96c.69,0,1.25.56,1.25,1.25s-.56,1.25-1.25,1.25-1.25-.56-1.25-1.25.56-1.25,1.25-1.25Z"/>
      </g>
    </g>
    <g id="_4" data-name="🚇4">
      <g>
        <circle class="cls-3" cx="2159.53" cy="1211.44" r="22.5"/>
        <path class="cls-2" d="M2150.65,1222.2l-4.9,7.03c.61.47,1.24.92,1.9,1.33l5.48-8.36h-2.48Z"/>
        <path class="cls-5" d="M2150.65,1222.2h-2.48l-4.2,5.49c.57.54,1.16,1.05,1.78,1.54l4.9-7.03Z"/>
        <path class="cls-2" d="M2168.4,1222.2h-2.48l5.48,8.36c.66-.41,1.29-.85,1.9-1.33l-4.9-7.03Z"/>
        <path class="cls-5" d="M2168.4,1222.2l4.9,7.03c.62-.48,1.21-.99,1.78-1.54l-4.2-5.49h-2.48Z"/>
        <path class="cls-4" d="M2172.47,1220.61c0,1.32-1.07,2.39-2.4,2.39h-21.09c-1.32,0-2.4-1.07-2.4-2.39v-17.66c0-9.43,25.89-9.43,25.89,0v17.66h0Z"/>
        <path class="cls-3" d="M2170.95,1217.84c0,.81-.66,1.46-1.47,1.46h-3.54c-.81,0-1.47-.65-1.47-1.46s.66-1.46,1.47-1.46h3.54c.81,0,1.47.65,1.47,1.46Z"/>
        <path class="cls-3" d="M2148.1,1217.84c0-.81.66-1.46,1.47-1.46h3.53c.81,0,1.47.65,1.47,1.46s-.66,1.46-1.47,1.46h-3.53c-.81,0-1.47-.65-1.47-1.46Z"/>
        <rect class="cls-3" x="2148.12" y="1201.79" width="22.8" height="10.46" rx="2" ry="2"/>
        <path class="cls-1" d="M2151.34,1216.58c.69,0,1.25.56,1.25,1.25s-.56,1.25-1.25,1.25-1.25-.56-1.25-1.25.56-1.25,1.25-1.25Z"/>
        <path class="cls-1" d="M2167.72,1216.58c.69,0,1.25.56,1.25,1.25s-.56,1.25-1.25,1.25-1.25-.56-1.25-1.25.56-1.25,1.25-1.25Z"/>
      </g>
    </g>
    <g id="_5" data-name="🚇5">
      <g>
        <circle class="cls-3" cx="2670.62" cy="1542.78" r="22.5"/>
        <path class="cls-2" d="M2661.74,1553.54l-4.9,7.03c.61.47,1.24.92,1.9,1.33l5.48-8.36h-2.48Z"/>
        <path class="cls-5" d="M2661.74,1553.54h-2.48l-4.2,5.49c.57.54,1.16,1.05,1.78,1.54l4.9-7.03Z"/>
        <path class="cls-2" d="M2679.49,1553.54h-2.48l5.48,8.36c.66-.41,1.29-.85,1.9-1.33l-4.9-7.03Z"/>
        <path class="cls-5" d="M2679.49,1553.54l4.9,7.03c.62-.48,1.21-.99,1.78-1.54l-4.2-5.49h-2.48Z"/>
        <path class="cls-4" d="M2683.56,1551.96c0,1.32-1.07,2.39-2.4,2.39h-21.09c-1.32,0-2.4-1.07-2.4-2.39v-17.66c0-9.43,25.89-9.43,25.89,0v17.66h0Z"/>
        <path class="cls-3" d="M2682.04,1549.18c0,.81-.66,1.46-1.47,1.46h-3.54c-.81,0-1.47-.65-1.47-1.46s.66-1.46,1.47-1.46h3.54c.81,0,1.47.65,1.47,1.46Z"/>
        <path class="cls-3" d="M2659.19,1549.18c0-.81.66-1.46,1.47-1.46h3.53c.81,0,1.47.65,1.47,1.46s-.66,1.46-1.47,1.46h-3.53c-.81,0-1.47-.65-1.47-1.46Z"/>
        <rect class="cls-3" x="2659.22" y="1533.14" width="22.8" height="10.46" rx="2" ry="2"/>
        <path class="cls-1" d="M2662.43,1547.93c.69,0,1.25.56,1.25,1.25s-.56,1.25-1.25,1.25-1.25-.56-1.25-1.25.56-1.25,1.25-1.25Z"/>
        <path class="cls-1" d="M2678.81,1547.93c.69,0,1.25.56,1.25,1.25s-.56,1.25-1.25,1.25-1.25-.56-1.25-1.25.56-1.25,1.25-1.25Z"/>
      </g>
    </g>
    <g id="_6" data-name="🚇6">
      <g>
        <circle class="cls-3" cx="2215.98" cy="1792.89" r="22.5"/>
        <path class="cls-2" d="M2207.1,1803.65l-4.9,7.03c.61.47,1.24.92,1.9,1.33l5.48-8.36h-2.48Z"/>
        <path class="cls-5" d="M2207.1,1803.65h-2.48l-4.2,5.49c.57.54,1.16,1.05,1.78,1.54l4.9-7.03Z"/>
        <path class="cls-2" d="M2224.85,1803.65h-2.48l5.48,8.36c.66-.41,1.29-.85,1.9-1.33l-4.9-7.03Z"/>
        <path class="cls-5" d="M2224.85,1803.65l4.9,7.03c.62-.48,1.21-.99,1.78-1.54l-4.2-5.49h-2.48Z"/>
        <path class="cls-4" d="M2228.92,1802.06c0,1.32-1.07,2.39-2.4,2.39h-21.09c-1.32,0-2.4-1.07-2.4-2.39v-17.66c0-9.43,25.89-9.43,25.89,0v17.66h0Z"/>
        <path class="cls-3" d="M2227.41,1799.29c0,.81-.66,1.46-1.47,1.46h-3.54c-.81,0-1.47-.65-1.47-1.46s.66-1.46,1.47-1.46h3.54c.81,0,1.47.65,1.47,1.46Z"/>
        <path class="cls-3" d="M2204.55,1799.29c0-.81.66-1.46,1.47-1.46h3.53c.81,0,1.47.65,1.47,1.46s-.66,1.46-1.47,1.46h-3.53c-.81,0-1.47-.65-1.47-1.46Z"/>
        <rect class="cls-3" x="2204.58" y="1783.25" width="22.8" height="10.46" rx="2" ry="2"/>
        <path class="cls-1" d="M2207.79,1798.03c.69,0,1.25.56,1.25,1.25s-.56,1.25-1.25,1.25-1.25-.56-1.25-1.25.56-1.25,1.25-1.25Z"/>
        <path class="cls-1" d="M2224.17,1798.03c.69,0,1.25.56,1.25,1.25s-.56,1.25-1.25,1.25-1.25-.56-1.25-1.25.56-1.25,1.25-1.25Z"/>
      </g>
    </g>
    <g id="_7" data-name="🚇7">
      <g>
        <circle class="cls-3" cx="1721.7" cy="1632.67" r="22.5"/>
        <path class="cls-2" d="M1712.83,1643.42l-4.9,7.03c.61.47,1.24.92,1.9,1.33l5.48-8.36h-2.48Z"/>
        <path class="cls-5" d="M1712.83,1643.42h-2.48l-4.2,5.49c.57.54,1.16,1.05,1.78,1.54l4.9-7.03Z"/>
        <path class="cls-2" d="M1730.58,1643.42h-2.48l5.48,8.36c.66-.41,1.29-.85,1.9-1.33l-4.9-7.03Z"/>
        <path class="cls-5" d="M1730.58,1643.42l4.9,7.03c.62-.48,1.21-.99,1.78-1.54l-4.2-5.49h-2.48Z"/>
        <path class="cls-4" d="M1734.65,1641.84c0,1.32-1.07,2.39-2.4,2.39h-21.09c-1.32,0-2.4-1.07-2.4-2.39v-17.66c0-9.43,25.89-9.43,25.89,0v17.66h0Z"/>
        <path class="cls-3" d="M1733.13,1639.06c0,.81-.66,1.46-1.47,1.46h-3.54c-.81,0-1.47-.65-1.47-1.46s.66-1.46,1.47-1.46h3.54c.81,0,1.47.65,1.47,1.46Z"/>
        <path class="cls-3" d="M1710.28,1639.06c0-.81.66-1.46,1.47-1.46h3.53c.81,0,1.47.65,1.47,1.46s-.66,1.46-1.47,1.46h-3.53c-.81,0-1.47-.65-1.47-1.46Z"/>
        <rect class="cls-3" x="1710.3" y="1623.02" width="22.8" height="10.46" rx="2" ry="2"/>
        <path class="cls-1" d="M1713.51,1637.81c.69,0,1.25.56,1.25,1.25s-.56,1.25-1.25,1.25-1.25-.56-1.25-1.25.56-1.25,1.25-1.25Z"/>
        <path class="cls-1" d="M1729.89,1637.81c.69,0,1.25.56,1.25,1.25s-.56,1.25-1.25,1.25-1.25-.56-1.25-1.25.56-1.25,1.25-1.25Z"/>
      </g>
    </g>
    <g id="_8" data-name="🚇8">
      <g>
        <circle class="cls-3" cx="2185.76" cy="1083.45" r="22.5"/>
        <path class="cls-2" d="M2176.89,1094.21l-4.9,7.03c.61.47,1.24.92,1.9,1.33l5.48-8.36h-2.48Z"/>
        <path class="cls-5" d="M2176.89,1094.21h-2.48l-4.2,5.49c.57.54,1.16,1.05,1.78,1.54l4.9-7.03Z"/>
        <path class="cls-2" d="M2194.63,1094.21h-2.48l5.48,8.36c.66-.41,1.29-.85,1.9-1.33l-4.9-7.03Z"/>
        <path class="cls-5" d="M2194.63,1094.21l4.9,7.03c.62-.48,1.21-.99,1.78-1.54l-4.2-5.49h-2.48Z"/>
        <path class="cls-4" d="M2198.7,1092.63c0,1.32-1.07,2.39-2.4,2.39h-21.09c-1.32,0-2.4-1.07-2.4-2.39v-17.66c0-9.43,25.89-9.43,25.89,0v17.66h0Z"/>
        <path class="cls-3" d="M2197.19,1089.85c0,.81-.66,1.46-1.47,1.46h-3.54c-.81,0-1.47-.65-1.47-1.46s.66-1.46,1.47-1.46h3.54c.81,0,1.47.65,1.47,1.46Z"/>
        <path class="cls-3" d="M2174.33,1089.85c0-.81.66-1.46,1.47-1.46h3.53c.81,0,1.47.65,1.47,1.46s-.66,1.46-1.47,1.46h-3.53c-.81,0-1.47-.65-1.47-1.46Z"/>
        <rect class="cls-3" x="2174.36" y="1073.81" width="22.8" height="10.46" rx="2" ry="2"/>
        <path class="cls-1" d="M2177.57,1088.6c.69,0,1.25.56,1.25,1.25s-.56,1.25-1.25,1.25-1.25-.56-1.25-1.25.56-1.25,1.25-1.25Z"/>
        <path class="cls-1" d="M2193.95,1088.6c.69,0,1.25.56,1.25,1.25s-.56,1.25-1.25,1.25-1.25-.56-1.25-1.25.56-1.25,1.25-1.25Z"/>
      </g>
    </g>
    <g id="_9" data-name="🚇9">
      <g>
        <circle class="cls-3" cx="2975.5" cy="1276.37" r="22.5"/>
        <path class="cls-2" d="M2966.63,1287.13l-4.9,7.03c.61.47,1.24.92,1.9,1.33l5.48-8.36h-2.48Z"/>
        <path class="cls-5" d="M2966.63,1287.13h-2.48l-4.2,5.49c.57.54,1.16,1.05,1.78,1.54l4.9-7.03Z"/>
        <path class="cls-2" d="M2984.38,1287.13h-2.48l5.48,8.36c.66-.41,1.29-.85,1.9-1.33l-4.9-7.03Z"/>
        <path class="cls-5" d="M2984.38,1287.13l4.9,7.03c.62-.48,1.21-.99,1.78-1.54l-4.2-5.49h-2.48Z"/>
        <path class="cls-4" d="M2988.45,1285.55c0,1.32-1.07,2.39-2.4,2.39h-21.09c-1.32,0-2.4-1.07-2.4-2.39v-17.66c0-9.43,25.89-9.43,25.89,0v17.66h0Z"/>
        <path class="cls-3" d="M2986.93,1282.77c0,.81-.66,1.46-1.47,1.46h-3.54c-.81,0-1.47-.65-1.47-1.46s.66-1.46,1.47-1.46h3.54c.81,0,1.47.65,1.47,1.46Z"/>
        <path class="cls-3" d="M2964.08,1282.77c0-.81.66-1.46,1.47-1.46h3.53c.81,0,1.47.65,1.47,1.46s-.66,1.46-1.47,1.46h-3.53c-.81,0-1.47-.65-1.47-1.46Z"/>
        <rect class="cls-3" x="2964.1" y="1266.73" width="22.8" height="10.46" rx="2" ry="2"/>
        <path class="cls-1" d="M2967.31,1281.52c.69,0,1.25.56,1.25,1.25s-.56,1.25-1.25,1.25-1.25-.56-1.25-1.25.56-1.25,1.25-1.25Z"/>
        <path class="cls-1" d="M2983.69,1281.52c.69,0,1.25.56,1.25,1.25s-.56,1.25-1.25,1.25-1.25-.56-1.25-1.25.56-1.25,1.25-1.25Z"/>
      </g>
    </g>
    <g id="_10" data-name="🚇10">
      <g>
        <circle class="cls-3" cx="2913.79" cy="1549.8" r="22.5"/>
        <path class="cls-2" d="M2904.91,1560.56l-4.9,7.03c.61.47,1.24.92,1.9,1.33l5.48-8.36h-2.48Z"/>
        <path class="cls-5" d="M2904.91,1560.56h-2.48l-4.2,5.49c.57.54,1.16,1.05,1.78,1.54l4.9-7.03Z"/>
        <path class="cls-2" d="M2922.66,1560.56h-2.48l5.48,8.36c.66-.41,1.29-.85,1.9-1.33l-4.9-7.03Z"/>
        <path class="cls-5" d="M2922.66,1560.56l4.9,7.03c.62-.48,1.21-.99,1.78-1.54l-4.2-5.49h-2.48Z"/>
        <path class="cls-4" d="M2926.73,1558.98c0,1.32-1.07,2.39-2.4,2.39h-21.09c-1.32,0-2.4-1.07-2.4-2.39v-17.66c0-9.43,25.89-9.43,25.89,0v17.66h0Z"/>
        <path class="cls-3" d="M2925.21,1556.2c0,.81-.66,1.46-1.47,1.46h-3.54c-.81,0-1.47-.65-1.47-1.46s.66-1.46,1.47-1.46h3.54c.81,0,1.47.65,1.47,1.46Z"/>
        <path class="cls-3" d="M2902.36,1556.2c0-.81.66-1.46,1.47-1.46h3.53c.81,0,1.47.65,1.47,1.46s-.66,1.46-1.47,1.46h-3.53c-.81,0-1.47-.65-1.47-1.46Z"/>
        <rect class="cls-3" x="2902.39" y="1540.16" width="22.8" height="10.46" rx="2" ry="2"/>
        <path class="cls-1" d="M2905.6,1554.95c.69,0,1.25.56,1.25,1.25s-.56,1.25-1.25,1.25-1.25-.56-1.25-1.25.56-1.25,1.25-1.25Z"/>
        <path class="cls-1" d="M2921.98,1554.95c.69,0,1.25.56,1.25,1.25s-.56,1.25-1.25,1.25-1.25-.56-1.25-1.25.56-1.25,1.25-1.25Z"/>
      </g>
    </g>
    <g id="_11" data-name="🚇11">
      <g>
        <circle class="cls-3" cx="2654.51" cy="1860.78" r="22.5"/>
        <path class="cls-2" d="M2645.64,1871.54l-4.9,7.03c.61.47,1.24.92,1.9,1.33l5.48-8.36h-2.48Z"/>
        <path class="cls-5" d="M2645.64,1871.54h-2.48l-4.2,5.49c.57.54,1.16,1.05,1.78,1.54l4.9-7.03Z"/>
        <path class="cls-2" d="M2663.39,1871.54h-2.48l5.48,8.36c.66-.41,1.29-.85,1.9-1.33l-4.9-7.03Z"/>
        <path class="cls-5" d="M2663.39,1871.54l4.9,7.03c.62-.48,1.21-.99,1.78-1.54l-4.2-5.49h-2.48Z"/>
        <path class="cls-4" d="M2667.46,1869.95c0,1.32-1.07,2.39-2.4,2.39h-21.09c-1.32,0-2.4-1.07-2.4-2.39v-17.66c0-9.43,25.89-9.43,25.89,0v17.66h0Z"/>
        <path class="cls-3" d="M2665.94,1867.18c0,.81-.66,1.46-1.47,1.46h-3.54c-.81,0-1.47-.65-1.47-1.46s.66-1.46,1.47-1.46h3.54c.81,0,1.47.65,1.47,1.46Z"/>
        <path class="cls-3" d="M2643.08,1867.18c0-.81.66-1.46,1.47-1.46h3.53c.81,0,1.47.65,1.47,1.46s-.66,1.46-1.47,1.46h-3.53c-.81,0-1.47-.65-1.47-1.46Z"/>
        <rect class="cls-3" x="2643.11" y="1851.13" width="22.8" height="10.46" rx="2" ry="2"/>
        <path class="cls-1" d="M2646.32,1865.92c.69,0,1.25.56,1.25,1.25s-.56,1.25-1.25,1.25-1.25-.56-1.25-1.25.56-1.25,1.25-1.25Z"/>
        <path class="cls-1" d="M2662.7,1865.92c.69,0,1.25.56,1.25,1.25s-.56,1.25-1.25,1.25-1.25-.56-1.25-1.25.56-1.25,1.25-1.25Z"/>
      </g>
    </g>
    <g id="_12" data-name="🚇12">
      <g>
        <circle class="cls-3" cx="2216.5" cy="1974.47" r="22.5"/>
        <path class="cls-2" d="M2207.62,1985.23l-4.9,7.03c.61.47,1.24.92,1.9,1.33l5.48-8.36h-2.48Z"/>
        <path class="cls-5" d="M2207.62,1985.23h-2.48l-4.2,5.49c.57.54,1.16,1.05,1.78,1.54l4.9-7.03Z"/>
        <path class="cls-2" d="M2225.37,1985.23h-2.48l5.48,8.36c.66-.41,1.29-.85,1.9-1.33l-4.9-7.03Z"/>
        <path class="cls-5" d="M2225.37,1985.23l4.9,7.03c.62-.48,1.21-.99,1.78-1.54l-4.2-5.49h-2.48Z"/>
        <path class="cls-4" d="M2229.44,1983.64c0,1.32-1.07,2.39-2.4,2.39h-21.09c-1.32,0-2.4-1.07-2.4-2.39v-17.66c0-9.43,25.89-9.43,25.89,0v17.66h0Z"/>
        <path class="cls-3" d="M2227.92,1980.87c0,.81-.66,1.46-1.47,1.46h-3.54c-.81,0-1.47-.65-1.47-1.46s.66-1.46,1.47-1.46h3.54c.81,0,1.47.65,1.47,1.46Z"/>
        <path class="cls-3" d="M2205.07,1980.87c0-.81.66-1.46,1.47-1.46h3.53c.81,0,1.47.65,1.47,1.46s-.66,1.46-1.47,1.46h-3.53c-.81,0-1.47-.65-1.47-1.46Z"/>
        <rect class="cls-3" x="2205.09" y="1964.82" width="22.8" height="10.46" rx="2" ry="2"/>
        <path class="cls-1" d="M2208.3,1979.61c.69,0,1.25.56,1.25,1.25s-.56,1.25-1.25,1.25-1.25-.56-1.25-1.25.56-1.25,1.25-1.25Z"/>
        <path class="cls-1" d="M2224.69,1979.61c.69,0,1.25.56,1.25,1.25s-.56,1.25-1.25,1.25-1.25-.56-1.25-1.25.56-1.25,1.25-1.25Z"/>
      </g>
    </g>
    <g id="_13" data-name="🚇13">
      <g>
        <circle class="cls-3" cx="1797.76" cy="2039.62" r="22.5"/>
        <path class="cls-2" d="M1788.88,2050.38l-4.9,7.03c.61.47,1.24.92,1.9,1.33l5.48-8.36h-2.48Z"/>
        <path class="cls-5" d="M1788.88,2050.38h-2.48l-4.2,5.49c.57.54,1.16,1.05,1.78,1.54l4.9-7.03Z"/>
        <path class="cls-2" d="M1806.63,2050.38h-2.48l5.48,8.36c.66-.41,1.29-.85,1.9-1.33l-4.9-7.03Z"/>
        <path class="cls-5" d="M1806.63,2050.38l4.9,7.03c.62-.48,1.21-.99,1.78-1.54l-4.2-5.49h-2.48Z"/>
        <path class="cls-4" d="M1810.7,2048.79c0,1.32-1.07,2.39-2.4,2.39h-21.09c-1.32,0-2.4-1.07-2.4-2.39v-17.66c0-9.43,25.89-9.43,25.89,0v17.66h0Z"/>
        <path class="cls-3" d="M1809.18,2046.02c0,.81-.66,1.46-1.47,1.46h-3.54c-.81,0-1.47-.65-1.47-1.46s.66-1.46,1.47-1.46h3.54c.81,0,1.47.65,1.47,1.46Z"/>
        <path class="cls-3" d="M1786.33,2046.02c0-.81.66-1.46,1.47-1.46h3.53c.81,0,1.47.65,1.47,1.46s-.66,1.46-1.47,1.46h-3.53c-.81,0-1.47-.65-1.47-1.46Z"/>
        <rect class="cls-3" x="1786.36" y="2029.98" width="22.8" height="10.46" rx="2" ry="2"/>
        <path class="cls-1" d="M1789.57,2044.77c.69,0,1.25.56,1.25,1.25s-.56,1.25-1.25,1.25-1.25-.56-1.25-1.25.56-1.25,1.25-1.25Z"/>
        <path class="cls-1" d="M1805.95,2044.77c.69,0,1.25.56,1.25,1.25s-.56,1.25-1.25,1.25-1.25-.56-1.25-1.25.56-1.25,1.25-1.25Z"/>
      </g>
    </g>
    <g id="_14" data-name="🚇14">
      <g>
        <circle class="cls-3" cx="1663.95" cy="1326.09" r="22.5"/>
        <path class="cls-2" d="M1655.07,1336.85l-4.9,7.03c.61.47,1.24.92,1.9,1.33l5.48-8.36h-2.48Z"/>
        <path class="cls-5" d="M1655.07,1336.85h-2.48l-4.2,5.49c.57.54,1.16,1.05,1.78,1.54l4.9-7.03Z"/>
        <path class="cls-2" d="M1672.82,1336.85h-2.48l5.48,8.36c.66-.41,1.29-.85,1.9-1.33l-4.9-7.03Z"/>
        <path class="cls-5" d="M1672.82,1336.85l4.9,7.03c.62-.48,1.21-.99,1.78-1.54l-4.2-5.49h-2.48Z"/>
        <path class="cls-4" d="M1676.89,1335.26c0,1.32-1.07,2.39-2.4,2.39h-21.09c-1.32,0-2.4-1.07-2.4-2.39v-17.66c0-9.43,25.89-9.43,25.89,0v17.66h0Z"/>
        <path class="cls-3" d="M1675.37,1332.49c0,.81-.66,1.46-1.47,1.46h-3.54c-.81,0-1.47-.65-1.47-1.46s.66-1.46,1.47-1.46h3.54c.81,0,1.47.65,1.47,1.46Z"/>
        <path class="cls-3" d="M1652.52,1332.49c0-.81.66-1.46,1.47-1.46h3.53c.81,0,1.47.65,1.47,1.46s-.66,1.46-1.47,1.46h-3.53c-.81,0-1.47-.65-1.47-1.46Z"/>
        <rect class="cls-3" x="1652.55" y="1316.45" width="22.8" height="10.46" rx="2" ry="2"/>
        <path class="cls-1" d="M1655.76,1331.23c.69,0,1.25.56,1.25,1.25s-.56,1.25-1.25,1.25-1.25-.56-1.25-1.25.56-1.25,1.25-1.25Z"/>
        <path class="cls-1" d="M1672.14,1331.23c.69,0,1.25.56,1.25,1.25s-.56,1.25-1.25,1.25-1.25-.56-1.25-1.25.56-1.25,1.25-1.25Z"/>
      </g>
    </g>
    <g id="_15" data-name="🚇15">
      <g>
        <circle class="cls-3" cx="2196.06" cy="964.57" r="22.5"/>
        <path class="cls-2" d="M2187.18,975.32l-4.9,7.03c.61.47,1.24.92,1.9,1.33l5.48-8.36h-2.48Z"/>
        <path class="cls-5" d="M2187.18,975.32h-2.48l-4.2,5.49c.57.54,1.16,1.05,1.78,1.54l4.9-7.03Z"/>
        <path class="cls-2" d="M2204.93,975.32h-2.48l5.48,8.36c.66-.41,1.29-.85,1.9-1.33l-4.9-7.03Z"/>
        <path class="cls-5" d="M2204.93,975.32l4.9,7.03c.62-.48,1.21-.99,1.78-1.54l-4.2-5.49h-2.48Z"/>
        <path class="cls-4" d="M2209,973.74c0,1.32-1.07,2.39-2.4,2.39h-21.09c-1.32,0-2.4-1.07-2.4-2.39v-17.66c0-9.43,25.89-9.43,25.89,0v17.66h0Z"/>
        <path class="cls-3" d="M2207.48,970.97c0,.81-.66,1.46-1.47,1.46h-3.54c-.81,0-1.47-.65-1.47-1.46s.66-1.46,1.47-1.46h3.54c.81,0,1.47.65,1.47,1.46Z"/>
        <path class="cls-3" d="M2184.63,970.97c0-.81.66-1.46,1.47-1.46h3.53c.81,0,1.47.65,1.47,1.46s-.66,1.46-1.47,1.46h-3.53c-.81,0-1.47-.65-1.47-1.46Z"/>
        <rect class="cls-3" x="2184.66" y="954.92" width="22.8" height="10.46" rx="2" ry="2"/>
        <path class="cls-1" d="M2187.87,969.71c.69,0,1.25.56,1.25,1.25s-.56,1.25-1.25,1.25-1.25-.56-1.25-1.25.56-1.25,1.25-1.25Z"/>
        <path class="cls-1" d="M2204.25,969.71c.69,0,1.25.56,1.25,1.25s-.56,1.25-1.25,1.25-1.25-.56-1.25-1.25.56-1.25,1.25-1.25Z"/>
      </g>
    </g>
    <g id="_16" data-name="🚇16">
      <g>
        <circle class="cls-3" cx="3062.64" cy="936.39" r="22.5"/>
        <path class="cls-2" d="M3053.77,947.15l-4.9,7.03c.61.47,1.24.92,1.9,1.33l5.48-8.36h-2.48Z"/>
        <path class="cls-5" d="M3053.77,947.15h-2.48l-4.2,5.49c.57.54,1.16,1.05,1.78,1.54l4.9-7.03Z"/>
        <path class="cls-2" d="M3071.52,947.15h-2.48l5.48,8.36c.66-.41,1.29-.85,1.9-1.33l-4.9-7.03Z"/>
        <path class="cls-5" d="M3071.52,947.15l4.9,7.03c.62-.48,1.21-.99,1.78-1.54l-4.2-5.49h-2.48Z"/>
        <path class="cls-4" d="M3075.59,945.57c0,1.32-1.07,2.39-2.4,2.39h-21.09c-1.32,0-2.4-1.07-2.4-2.39v-17.66c0-9.43,25.89-9.43,25.89,0v17.66h0Z"/>
        <path class="cls-3" d="M3074.07,942.79c0,.81-.66,1.46-1.47,1.46h-3.54c-.81,0-1.47-.65-1.47-1.46s.66-1.46,1.47-1.46h3.54c.81,0,1.47.65,1.47,1.46Z"/>
        <path class="cls-3" d="M3051.22,942.79c0-.81.66-1.46,1.47-1.46h3.53c.81,0,1.47.65,1.47,1.46s-.66,1.46-1.47,1.46h-3.53c-.81,0-1.47-.65-1.47-1.46Z"/>
        <rect class="cls-3" x="3051.24" y="926.75" width="22.8" height="10.46" rx="2" ry="2"/>
        <path class="cls-1" d="M3054.45,941.54c.69,0,1.25.56,1.25,1.25s-.56,1.25-1.25,1.25-1.25-.56-1.25-1.25.56-1.25,1.25-1.25Z"/>
        <path class="cls-1" d="M3070.83,941.54c.69,0,1.25.56,1.25,1.25s-.56,1.25-1.25,1.25-1.25-.56-1.25-1.25.56-1.25,1.25-1.25Z"/>
      </g>
    </g>
    <g id="_17" data-name="🚇17">
      <g>
        <circle class="cls-3" cx="3263.23" cy="1227.24" r="22.5"/>
        <path class="cls-2" d="M3254.35,1238l-4.9,7.03c.61.47,1.24.92,1.9,1.33l5.48-8.36h-2.48Z"/>
        <path class="cls-5" d="M3254.35,1238h-2.48l-4.2,5.49c.57.54,1.16,1.05,1.78,1.54l4.9-7.03Z"/>
        <path class="cls-2" d="M3272.1,1238h-2.48l5.48,8.36c.66-.41,1.29-.85,1.9-1.33l-4.9-7.03Z"/>
        <path class="cls-5" d="M3272.1,1238l4.9,7.03c.62-.48,1.21-.99,1.78-1.54l-4.2-5.49h-2.48Z"/>
        <path class="cls-4" d="M3276.17,1236.41c0,1.32-1.07,2.39-2.4,2.39h-21.09c-1.32,0-2.4-1.07-2.4-2.39v-17.66c0-9.43,25.89-9.43,25.89,0v17.66h0Z"/>
        <path class="cls-3" d="M3274.66,1233.64c0,.81-.66,1.46-1.47,1.46h-3.54c-.81,0-1.47-.65-1.47-1.46s.66-1.46,1.47-1.46h3.54c.81,0,1.47.65,1.47,1.46Z"/>
        <path class="cls-3" d="M3251.8,1233.64c0-.81.66-1.46,1.47-1.46h3.53c.81,0,1.47.65,1.47,1.46s-.66,1.46-1.47,1.46h-3.53c-.81,0-1.47-.65-1.47-1.46Z"/>
        <rect class="cls-3" x="3251.83" y="1217.6" width="22.8" height="10.46" rx="2" ry="2"/>
        <path class="cls-1" d="M3255.04,1232.38c.69,0,1.25.56,1.25,1.25s-.56,1.25-1.25,1.25-1.25-.56-1.25-1.25.56-1.25,1.25-1.25Z"/>
        <path class="cls-1" d="M3271.42,1232.38c.69,0,1.25.56,1.25,1.25s-.56,1.25-1.25,1.25-1.25-.56-1.25-1.25.56-1.25,1.25-1.25Z"/>
      </g>
    </g>
    <g id="_18" data-name="🚇18">
      <g>
        <circle class="cls-3" cx="3325.29" cy="1543.78" r="22.5"/>
        <path class="cls-2" d="M3316.41,1554.54l-4.9,7.03c.61.47,1.24.92,1.9,1.33l5.48-8.36h-2.48Z"/>
        <path class="cls-5" d="M3316.41,1554.54h-2.48l-4.2,5.49c.57.54,1.16,1.05,1.78,1.54l4.9-7.03Z"/>
        <path class="cls-2" d="M3334.16,1554.54h-2.48l5.48,8.36c.66-.41,1.29-.85,1.9-1.33l-4.9-7.03Z"/>
        <path class="cls-5" d="M3334.16,1554.54l4.9,7.03c.62-.48,1.21-.99,1.78-1.54l-4.2-5.49h-2.48Z"/>
        <path class="cls-4" d="M3338.23,1552.96c0,1.32-1.07,2.39-2.4,2.39h-21.09c-1.32,0-2.4-1.07-2.4-2.39v-17.66c0-9.43,25.89-9.43,25.89,0v17.66h0Z"/>
        <path class="cls-3" d="M3336.71,1550.18c0,.81-.66,1.46-1.47,1.46h-3.54c-.81,0-1.47-.65-1.47-1.46s.66-1.46,1.47-1.46h3.54c.81,0,1.47.65,1.47,1.46Z"/>
        <path class="cls-3" d="M3313.86,1550.18c0-.81.66-1.46,1.47-1.46h3.53c.81,0,1.47.65,1.47,1.46s-.66,1.46-1.47,1.46h-3.53c-.81,0-1.47-.65-1.47-1.46Z"/>
        <rect class="cls-3" x="3313.88" y="1534.14" width="22.8" height="10.46" rx="2" ry="2"/>
        <path class="cls-1" d="M3317.1,1548.93c.69,0,1.25.56,1.25,1.25s-.56,1.25-1.25,1.25-1.25-.56-1.25-1.25.56-1.25,1.25-1.25Z"/>
        <path class="cls-1" d="M3333.48,1548.93c.69,0,1.25.56,1.25,1.25s-.56,1.25-1.25,1.25-1.25-.56-1.25-1.25.56-1.25,1.25-1.25Z"/>
      </g>
    </g>
    <g id="_19" data-name="🚇19">
      <g>
        <circle class="cls-3" cx="2850.26" cy="2113.55" r="22.5"/>
        <path class="cls-2" d="M2841.38,2124.3l-4.9,7.03c.61.47,1.24.92,1.9,1.33l5.48-8.36h-2.48Z"/>
        <path class="cls-5" d="M2841.38,2124.3h-2.48l-4.2,5.49c.57.54,1.16,1.05,1.78,1.54l4.9-7.03Z"/>
        <path class="cls-2" d="M2859.13,2124.3h-2.48l5.48,8.36c.66-.41,1.29-.85,1.9-1.33l-4.9-7.03Z"/>
        <path class="cls-5" d="M2859.13,2124.3l4.9,7.03c.62-.48,1.21-.99,1.78-1.54l-4.2-5.49h-2.48Z"/>
        <path class="cls-4" d="M2863.2,2122.72c0,1.32-1.07,2.39-2.4,2.39h-21.09c-1.32,0-2.4-1.07-2.4-2.39v-17.66c0-9.43,25.89-9.43,25.89,0v17.66h0Z"/>
        <path class="cls-3" d="M2861.68,2119.95c0,.81-.66,1.46-1.47,1.46h-3.54c-.81,0-1.47-.65-1.47-1.46s.66-1.46,1.47-1.46h3.54c.81,0,1.47.65,1.47,1.46Z"/>
        <path class="cls-3" d="M2838.83,2119.95c0-.81.66-1.46,1.47-1.46h3.53c.81,0,1.47.65,1.47,1.46s-.66,1.46-1.47,1.46h-3.53c-.81,0-1.47-.65-1.47-1.46Z"/>
        <rect class="cls-3" x="2838.85" y="2103.9" width="22.8" height="10.46" rx="2" ry="2"/>
        <path class="cls-1" d="M2842.07,2118.69c.69,0,1.25.56,1.25,1.25s-.56,1.25-1.25,1.25-1.25-.56-1.25-1.25.56-1.25,1.25-1.25Z"/>
        <path class="cls-1" d="M2858.45,2118.69c.69,0,1.25.56,1.25,1.25s-.56,1.25-1.25,1.25-1.25-.56-1.25-1.25.56-1.25,1.25-1.25Z"/>
      </g>
    </g>
    <g id="_20" data-name="🚇20">
      <g>
        <circle class="cls-3" cx="2085.69" cy="2465.53" r="22.5"/>
        <path class="cls-2" d="M2076.81,2476.29l-4.9,7.03c.61.47,1.24.92,1.9,1.33l5.48-8.36h-2.48Z"/>
        <path class="cls-5" d="M2076.81,2476.29h-2.48l-4.2,5.49c.57.54,1.16,1.05,1.78,1.54l4.9-7.03Z"/>
        <path class="cls-2" d="M2094.56,2476.29h-2.48l5.48,8.36c.66-.41,1.29-.85,1.9-1.33l-4.9-7.03Z"/>
        <path class="cls-5" d="M2094.56,2476.29l4.9,7.03c.62-.48,1.21-.99,1.78-1.54l-4.2-5.49h-2.48Z"/>
        <path class="cls-4" d="M2098.63,2474.7c0,1.32-1.07,2.39-2.4,2.39h-21.09c-1.32,0-2.4-1.07-2.4-2.39v-17.66c0-9.43,25.89-9.43,25.89,0v17.66h0Z"/>
        <path class="cls-3" d="M2097.11,2471.93c0,.81-.66,1.46-1.47,1.46h-3.54c-.81,0-1.47-.65-1.47-1.46s.66-1.46,1.47-1.46h3.54c.81,0,1.47.65,1.47,1.46Z"/>
        <path class="cls-3" d="M2074.26,2471.93c0-.81.66-1.46,1.47-1.46h3.53c.81,0,1.47.65,1.47,1.46s-.66,1.46-1.47,1.46h-3.53c-.81,0-1.47-.65-1.47-1.46Z"/>
        <rect class="cls-3" x="2074.28" y="2455.89" width="22.8" height="10.46" rx="2" ry="2"/>
        <path class="cls-1" d="M2077.49,2470.68c.69,0,1.25.56,1.25,1.25s-.56,1.25-1.25,1.25-1.25-.56-1.25-1.25.56-1.25,1.25-1.25Z"/>
        <path class="cls-1" d="M2093.88,2470.68c.69,0,1.25.56,1.25,1.25s-.56,1.25-1.25,1.25-1.25-.56-1.25-1.25.56-1.25,1.25-1.25Z"/>
      </g>
    </g>
    <g id="_21" data-name="🚇21">
      <g>
        <circle class="cls-3" cx="1374.34" cy="1790.89" r="22.5"/>
        <path class="cls-2" d="M1365.46,1801.65l-4.9,7.03c.61.47,1.24.92,1.9,1.33l5.48-8.36h-2.48Z"/>
        <path class="cls-5" d="M1365.46,1801.65h-2.48l-4.2,5.49c.57.54,1.16,1.05,1.78,1.54l4.9-7.03Z"/>
        <path class="cls-2" d="M1383.21,1801.65h-2.48l5.48,8.36c.66-.41,1.29-.85,1.9-1.33l-4.9-7.03Z"/>
        <path class="cls-5" d="M1383.21,1801.65l4.9,7.03c.62-.48,1.21-.99,1.78-1.54l-4.2-5.49h-2.48Z"/>
        <path class="cls-4" d="M1387.28,1800.06c0,1.32-1.07,2.39-2.4,2.39h-21.09c-1.32,0-2.4-1.07-2.4-2.39v-17.66c0-9.43,25.89-9.43,25.89,0v17.66h0Z"/>
        <path class="cls-3" d="M1385.77,1797.29c0,.81-.66,1.46-1.47,1.46h-3.54c-.81,0-1.47-.65-1.47-1.46s.66-1.46,1.47-1.46h3.54c.81,0,1.47.65,1.47,1.46Z"/>
        <path class="cls-3" d="M1362.91,1797.29c0-.81.66-1.46,1.47-1.46h3.53c.81,0,1.47.65,1.47,1.46s-.66,1.46-1.47,1.46h-3.53c-.81,0-1.47-.65-1.47-1.46Z"/>
        <rect class="cls-3" x="1362.94" y="1781.24" width="22.8" height="10.46" rx="2" ry="2"/>
        <path class="cls-1" d="M1366.15,1796.03c.69,0,1.25.56,1.25,1.25s-.56,1.25-1.25,1.25-1.25-.56-1.25-1.25.56-1.25,1.25-1.25Z"/>
        <path class="cls-1" d="M1382.53,1796.03c.69,0,1.25.56,1.25,1.25s-.56,1.25-1.25,1.25-1.25-.56-1.25-1.25.56-1.25,1.25-1.25Z"/>
      </g>
    </g>
    <g id="_22" data-name="🚇22">
      <g>
        <circle class="cls-3" cx="1482.91" cy="939.37" r="22.5"/>
        <path class="cls-2" d="M1474.03,950.13l-4.9,7.03c.61.47,1.24.92,1.9,1.33l5.48-8.36h-2.48Z"/>
        <path class="cls-5" d="M1474.03,950.13h-2.48l-4.2,5.49c.57.54,1.16,1.05,1.78,1.54l4.9-7.03Z"/>
        <path class="cls-2" d="M1491.78,950.13h-2.48l5.48,8.36c.66-.41,1.29-.85,1.9-1.33l-4.9-7.03Z"/>
        <path class="cls-5" d="M1491.78,950.13l4.9,7.03c.62-.48,1.21-.99,1.78-1.54l-4.2-5.49h-2.48Z"/>
        <path class="cls-4" d="M1495.85,948.54c0,1.32-1.07,2.39-2.4,2.39h-21.09c-1.32,0-2.4-1.07-2.4-2.39v-17.66c0-9.43,25.89-9.43,25.89,0v17.66h0Z"/>
        <path class="cls-3" d="M1494.33,945.77c0,.81-.66,1.46-1.47,1.46h-3.54c-.81,0-1.47-.65-1.47-1.46s.66-1.46,1.47-1.46h3.54c.81,0,1.47.65,1.47,1.46Z"/>
        <path class="cls-3" d="M1471.48,945.77c0-.81.66-1.46,1.47-1.46h3.53c.81,0,1.47.65,1.47,1.46s-.66,1.46-1.47,1.46h-3.53c-.81,0-1.47-.65-1.47-1.46Z"/>
        <rect class="cls-3" x="1471.51" y="929.72" width="22.8" height="10.46" rx="2" ry="2"/>
        <path class="cls-1" d="M1474.72,944.51c.69,0,1.25.56,1.25,1.25s-.56,1.25-1.25,1.25-1.25-.56-1.25-1.25.56-1.25,1.25-1.25Z"/>
        <path class="cls-1" d="M1491.1,944.51c.69,0,1.25.56,1.25,1.25s-.56,1.25-1.25,1.25-1.25-.56-1.25-1.25.56-1.25,1.25-1.25Z"/>
      </g>
    </g>
    <g id="_23" data-name="🚇23">
      <g>
        <circle class="cls-3" cx="1931.78" cy="751.93" r="22.5"/>
        <path class="cls-2" d="M1922.9,762.69l-4.9,7.03c.61.47,1.24.92,1.9,1.33l5.48-8.36h-2.48Z"/>
        <path class="cls-5" d="M1922.9,762.69h-2.48l-4.2,5.49c.57.54,1.16,1.05,1.78,1.54l4.9-7.03Z"/>
        <path class="cls-2" d="M1940.65,762.69h-2.48l5.48,8.36c.66-.41,1.29-.85,1.9-1.33l-4.9-7.03Z"/>
        <path class="cls-5" d="M1940.65,762.69l4.9,7.03c.62-.48,1.21-.99,1.78-1.54l-4.2-5.49h-2.48Z"/>
        <path class="cls-4" d="M1944.72,761.1c0,1.32-1.07,2.39-2.4,2.39h-21.09c-1.32,0-2.4-1.07-2.4-2.39v-17.66c0-9.43,25.89-9.43,25.89,0v17.66h0Z"/>
        <path class="cls-3" d="M1943.21,758.33c0,.81-.66,1.46-1.47,1.46h-3.54c-.81,0-1.47-.65-1.47-1.46s.66-1.46,1.47-1.46h3.54c.81,0,1.47.65,1.47,1.46Z"/>
        <path class="cls-3" d="M1920.35,758.33c0-.81.66-1.46,1.47-1.46h3.53c.81,0,1.47.65,1.47,1.46s-.66,1.46-1.47,1.46h-3.53c-.81,0-1.47-.65-1.47-1.46Z"/>
        <rect class="cls-3" x="1920.38" y="742.28" width="22.8" height="10.46" rx="2" ry="2"/>
        <path class="cls-1" d="M1923.59,757.07c.69,0,1.25.56,1.25,1.25s-.56,1.25-1.25,1.25-1.25-.56-1.25-1.25.56-1.25,1.25-1.25Z"/>
        <path class="cls-1" d="M1939.97,757.07c.69,0,1.25.56,1.25,1.25s-.56,1.25-1.25,1.25-1.25-.56-1.25-1.25.56-1.25,1.25-1.25Z"/>
      </g>
    </g>
    <g id="_24" data-name="🚇24">
      <g>
        <circle class="cls-3" cx="2814.74" cy="755.93" r="22.5"/>
        <path class="cls-2" d="M2805.86,766.69l-4.9,7.03c.61.47,1.24.92,1.9,1.33l5.48-8.36h-2.48Z"/>
        <path class="cls-5" d="M2805.86,766.69h-2.48l-4.2,5.49c.57.54,1.16,1.05,1.78,1.54l4.9-7.03Z"/>
        <path class="cls-2" d="M2823.61,766.69h-2.48l5.48,8.36c.66-.41,1.29-.85,1.9-1.33l-4.9-7.03Z"/>
        <path class="cls-5" d="M2823.61,766.69l4.9,7.03c.62-.48,1.21-.99,1.78-1.54l-4.2-5.49h-2.48Z"/>
        <path class="cls-4" d="M2827.68,765.1c0,1.32-1.07,2.39-2.4,2.39h-21.09c-1.32,0-2.4-1.07-2.4-2.39v-17.66c0-9.43,25.89-9.43,25.89,0v17.66h0Z"/>
        <path class="cls-3" d="M2826.16,762.33c0,.81-.66,1.46-1.47,1.46h-3.54c-.81,0-1.47-.65-1.47-1.46s.66-1.46,1.47-1.46h3.54c.81,0,1.47.65,1.47,1.46Z"/>
        <path class="cls-3" d="M2803.31,762.33c0-.81.66-1.46,1.47-1.46h3.53c.81,0,1.47.65,1.47,1.46s-.66,1.46-1.47,1.46h-3.53c-.81,0-1.47-.65-1.47-1.46Z"/>
        <rect class="cls-3" x="2803.33" y="746.28" width="22.8" height="10.46" rx="2" ry="2"/>
        <path class="cls-1" d="M2806.54,761.07c.69,0,1.25.56,1.25,1.25s-.56,1.25-1.25,1.25-1.25-.56-1.25-1.25.56-1.25,1.25-1.25Z"/>
        <path class="cls-1" d="M2822.93,761.07c.69,0,1.25.56,1.25,1.25s-.56,1.25-1.25,1.25-1.25-.56-1.25-1.25.56-1.25,1.25-1.25Z"/>
      </g>
    </g>
    <g id="_25" data-name="🚇25">
      <g>
        <circle class="cls-3" cx="3224.01" cy="831.38" r="22.5"/>
        <path class="cls-2" d="M3215.13,842.13l-4.9,7.03c.61.47,1.24.92,1.9,1.33l5.48-8.36h-2.48Z"/>
        <path class="cls-5" d="M3215.13,842.13h-2.48l-4.2,5.49c.57.54,1.16,1.05,1.78,1.54l4.9-7.03Z"/>
        <path class="cls-2" d="M3232.88,842.13h-2.48l5.48,8.36c.66-.41,1.29-.85,1.9-1.33l-4.9-7.03Z"/>
        <path class="cls-5" d="M3232.88,842.13l4.9,7.03c.62-.48,1.21-.99,1.78-1.54l-4.2-5.49h-2.48Z"/>
        <path class="cls-4" d="M3236.95,840.55c0,1.32-1.07,2.39-2.4,2.39h-21.09c-1.32,0-2.4-1.07-2.4-2.39v-17.66c0-9.43,25.89-9.43,25.89,0v17.66h0Z"/>
        <path class="cls-3" d="M3235.44,837.78c0,.81-.66,1.46-1.47,1.46h-3.54c-.81,0-1.47-.65-1.47-1.46s.66-1.46,1.47-1.46h3.54c.81,0,1.47.65,1.47,1.46Z"/>
        <path class="cls-3" d="M3212.58,837.78c0-.81.66-1.46,1.47-1.46h3.53c.81,0,1.47.65,1.47,1.46s-.66,1.46-1.47,1.46h-3.53c-.81,0-1.47-.65-1.47-1.46Z"/>
        <rect class="cls-3" x="3212.61" y="821.73" width="22.8" height="10.46" rx="2" ry="2"/>
        <path class="cls-1" d="M3215.82,836.52c.69,0,1.25.56,1.25,1.25s-.56,1.25-1.25,1.25-1.25-.56-1.25-1.25.56-1.25,1.25-1.25Z"/>
        <path class="cls-1" d="M3232.2,836.52c.69,0,1.25.56,1.25,1.25s-.56,1.25-1.25,1.25-1.25-.56-1.25-1.25.56-1.25,1.25-1.25Z"/>
      </g>
    </g>
    <g id="_26" data-name="🚇26">
      <g>
        <circle class="cls-3" cx="3418.98" cy="1118.11" r="22.5"/>
        <path class="cls-2" d="M3410.11,1128.87l-4.9,7.03c.61.47,1.24.92,1.9,1.33l5.48-8.36h-2.48Z"/>
        <path class="cls-5" d="M3410.11,1128.87h-2.48l-4.2,5.49c.57.54,1.16,1.05,1.78,1.54l4.9-7.03Z"/>
        <path class="cls-2" d="M3427.86,1128.87h-2.48l5.48,8.36c.66-.41,1.29-.85,1.9-1.33l-4.9-7.03Z"/>
        <path class="cls-5" d="M3427.86,1128.87l4.9,7.03c.62-.48,1.21-.99,1.78-1.54l-4.2-5.49h-2.48Z"/>
        <path class="cls-4" d="M3431.93,1127.28c0,1.32-1.07,2.39-2.4,2.39h-21.09c-1.32,0-2.4-1.07-2.4-2.39v-17.66c0-9.43,25.89-9.43,25.89,0v17.66h0Z"/>
        <path class="cls-3" d="M3430.41,1124.51c0,.81-.66,1.46-1.47,1.46h-3.54c-.81,0-1.47-.65-1.47-1.46s.66-1.46,1.47-1.46h3.54c.81,0,1.47.65,1.47,1.46Z"/>
        <path class="cls-3" d="M3407.55,1124.51c0-.81.66-1.46,1.47-1.46h3.53c.81,0,1.47.65,1.47,1.46s-.66,1.46-1.47,1.46h-3.53c-.81,0-1.47-.65-1.47-1.46Z"/>
        <rect class="cls-3" x="3407.58" y="1108.46" width="22.8" height="10.46" rx="2" ry="2"/>
        <path class="cls-1" d="M3410.79,1123.25c.69,0,1.25.56,1.25,1.25s-.56,1.25-1.25,1.25-1.25-.56-1.25-1.25.56-1.25,1.25-1.25Z"/>
        <path class="cls-1" d="M3427.17,1123.25c.69,0,1.25.56,1.25,1.25s-.56,1.25-1.25,1.25-1.25-.56-1.25-1.25.56-1.25,1.25-1.25Z"/>
      </g>
    </g>
    <g id="_27" data-name="🚇27">
      <g>
        <circle class="cls-3" cx="3572.24" cy="1545.78" r="22.5"/>
        <path class="cls-2" d="M3563.36,1556.54l-4.9,7.03c.61.47,1.24.92,1.9,1.33l5.48-8.36h-2.48Z"/>
        <path class="cls-5" d="M3563.36,1556.54h-2.48l-4.2,5.49c.57.54,1.16,1.05,1.78,1.54l4.9-7.03Z"/>
        <path class="cls-2" d="M3581.11,1556.54h-2.48l5.48,8.36c.66-.41,1.29-.85,1.9-1.33l-4.9-7.03Z"/>
        <path class="cls-5" d="M3581.11,1556.54l4.9,7.03c.62-.48,1.21-.99,1.78-1.54l-4.2-5.49h-2.48Z"/>
        <path class="cls-4" d="M3585.18,1554.96c0,1.32-1.07,2.39-2.4,2.39h-21.09c-1.32,0-2.4-1.07-2.4-2.39v-17.66c0-9.43,25.89-9.43,25.89,0v17.66h0Z"/>
        <path class="cls-3" d="M3583.66,1552.18c0,.81-.66,1.46-1.47,1.46h-3.54c-.81,0-1.47-.65-1.47-1.46s.66-1.46,1.47-1.46h3.54c.81,0,1.47.65,1.47,1.46Z"/>
        <path class="cls-3" d="M3560.81,1552.18c0-.81.66-1.46,1.47-1.46h3.53c.81,0,1.47.65,1.47,1.46s-.66,1.46-1.47,1.46h-3.53c-.81,0-1.47-.65-1.47-1.46Z"/>
        <rect class="cls-3" x="3560.84" y="1536.14" width="22.8" height="10.46" rx="2" ry="2"/>
        <path class="cls-1" d="M3564.05,1550.93c.69,0,1.25.56,1.25,1.25s-.56,1.25-1.25,1.25-1.25-.56-1.25-1.25.56-1.25,1.25-1.25Z"/>
        <path class="cls-1" d="M3580.43,1550.93c.69,0,1.25.56,1.25,1.25s-.56,1.25-1.25,1.25-1.25-.56-1.25-1.25.56-1.25,1.25-1.25Z"/>
      </g>
    </g>
    <g id="_28" data-name="🚇28">
      <g>
        <circle class="cls-3" cx="3137.32" cy="2211.24" r="22.5"/>
        <path class="cls-2" d="M3128.44,2221.99l-4.9,7.03c.61.47,1.24.92,1.9,1.33l5.48-8.36h-2.48Z"/>
        <path class="cls-5" d="M3128.44,2221.99h-2.48l-4.2,5.49c.57.54,1.16,1.05,1.78,1.54l4.9-7.03Z"/>
        <path class="cls-2" d="M3146.19,2221.99h-2.48l5.48,8.36c.66-.41,1.29-.85,1.9-1.33l-4.9-7.03Z"/>
        <path class="cls-5" d="M3146.19,2221.99l4.9,7.03c.62-.48,1.21-.99,1.78-1.54l-4.2-5.49h-2.48Z"/>
        <path class="cls-4" d="M3150.26,2220.41c0,1.32-1.07,2.39-2.4,2.39h-21.09c-1.32,0-2.4-1.07-2.4-2.39v-17.66c0-9.43,25.89-9.43,25.89,0v17.66h0Z"/>
        <path class="cls-3" d="M3148.74,2217.64c0,.81-.66,1.46-1.47,1.46h-3.54c-.81,0-1.47-.65-1.47-1.46s.66-1.46,1.47-1.46h3.54c.81,0,1.47.65,1.47,1.46Z"/>
        <path class="cls-3" d="M3125.89,2217.64c0-.81.66-1.46,1.47-1.46h3.53c.81,0,1.47.65,1.47,1.46s-.66,1.46-1.47,1.46h-3.53c-.81,0-1.47-.65-1.47-1.46Z"/>
        <rect class="cls-3" x="3125.92" y="2201.59" width="22.8" height="10.46" rx="2" ry="2"/>
        <path class="cls-1" d="M3129.13,2216.38c.69,0,1.25.56,1.25,1.25s-.56,1.25-1.25,1.25-1.25-.56-1.25-1.25.56-1.25,1.25-1.25Z"/>
        <path class="cls-1" d="M3145.51,2216.38c.69,0,1.25.56,1.25,1.25s-.56,1.25-1.25,1.25-1.25-.56-1.25-1.25.56-1.25,1.25-1.25Z"/>
      </g>
    </g>
    <g id="_29" data-name="🚇29">
      <g>
        <circle class="cls-3" cx="2171.56" cy="2699.79" r="22.5"/>
        <path class="cls-2" d="M2162.69,2710.55l-4.9,7.03c.61.47,1.24.92,1.9,1.33l5.48-8.36h-2.48Z"/>
        <path class="cls-5" d="M2162.69,2710.55h-2.48l-4.2,5.49c.57.54,1.16,1.05,1.78,1.54l4.9-7.03Z"/>
        <path class="cls-2" d="M2180.43,2710.55h-2.48l5.48,8.36c.66-.41,1.29-.85,1.9-1.33l-4.9-7.03Z"/>
        <path class="cls-5" d="M2180.43,2710.55l4.9,7.03c.62-.48,1.21-.99,1.78-1.54l-4.2-5.49h-2.48Z"/>
        <path class="cls-4" d="M2184.5,2708.97c0,1.32-1.07,2.39-2.4,2.39h-21.09c-1.32,0-2.4-1.07-2.4-2.39v-17.66c0-9.43,25.89-9.43,25.89,0v17.66h0Z"/>
        <path class="cls-3" d="M2182.99,2706.19c0,.81-.66,1.46-1.47,1.46h-3.54c-.81,0-1.47-.65-1.47-1.46s.66-1.46,1.47-1.46h3.54c.81,0,1.47.65,1.47,1.46Z"/>
        <path class="cls-3" d="M2160.13,2706.19c0-.81.66-1.46,1.47-1.46h3.53c.81,0,1.47.65,1.47,1.46s-.66,1.46-1.47,1.46h-3.53c-.81,0-1.47-.65-1.47-1.46Z"/>
        <rect class="cls-3" x="2160.16" y="2690.15" width="22.8" height="10.46" rx="2" ry="2"/>
        <path class="cls-1" d="M2163.37,2704.94c.69,0,1.25.56,1.25,1.25s-.56,1.25-1.25,1.25-1.25-.56-1.25-1.25.56-1.25,1.25-1.25Z"/>
        <path class="cls-1" d="M2179.75,2704.94c.69,0,1.25.56,1.25,1.25s-.56,1.25-1.25,1.25-1.25-.56-1.25-1.25.56-1.25,1.25-1.25Z"/>
      </g>
    </g>
    <g id="_30" data-name="🚇30">
      <g>
        <circle class="cls-3" cx="1082.07" cy="2392.56" r="22.5"/>
        <path class="cls-2" d="M1073.2,2403.32l-4.9,7.03c.61.47,1.24.92,1.9,1.33l5.48-8.36h-2.48Z"/>
        <path class="cls-5" d="M1073.2,2403.32h-2.48l-4.2,5.49c.57.54,1.16,1.05,1.78,1.54l4.9-7.03Z"/>
        <path class="cls-2" d="M1090.95,2403.32h-2.48l5.48,8.36c.66-.41,1.29-.85,1.9-1.33l-4.9-7.03Z"/>
        <path class="cls-5" d="M1090.95,2403.32l4.9,7.03c.62-.48,1.21-.99,1.78-1.54l-4.2-5.49h-2.48Z"/>
        <path class="cls-4" d="M1095.02,2401.73c0,1.32-1.07,2.39-2.4,2.39h-21.09c-1.32,0-2.4-1.07-2.4-2.39v-17.66c0-9.43,25.89-9.43,25.89,0v17.66h0Z"/>
        <path class="cls-3" d="M1093.5,2398.96c0,.81-.66,1.46-1.47,1.46h-3.54c-.81,0-1.47-.65-1.47-1.46s.66-1.46,1.47-1.46h3.54c.81,0,1.47.65,1.47,1.46Z"/>
        <path class="cls-3" d="M1070.64,2398.96c0-.81.66-1.46,1.47-1.46h3.53c.81,0,1.47.65,1.47,1.46s-.66,1.46-1.47,1.46h-3.53c-.81,0-1.47-.65-1.47-1.46Z"/>
        <rect class="cls-3" x="1070.67" y="2382.92" width="22.8" height="10.46" rx="2" ry="2"/>
        <path class="cls-1" d="M1073.88,2397.71c.69,0,1.25.56,1.25,1.25s-.56,1.25-1.25,1.25-1.25-.56-1.25-1.25.56-1.25,1.25-1.25Z"/>
        <path class="cls-1" d="M1090.26,2397.7c.69,0,1.25.56,1.25,1.25s-.56,1.25-1.25,1.25-1.25-.56-1.25-1.25.56-1.25,1.25-1.25Z"/>
      </g>
    </g>
    <g id="_31" data-name="🚇31">
      <g>
        <circle class="cls-3" cx="1225.79" cy="1328.79" r="22.5"/>
        <path class="cls-2" d="M1216.91,1339.55l-4.9,7.03c.61.47,1.24.92,1.9,1.33l5.48-8.36h-2.48Z"/>
        <path class="cls-5" d="M1216.91,1339.55h-2.48l-4.2,5.49c.57.54,1.16,1.05,1.78,1.54l4.9-7.03Z"/>
        <path class="cls-2" d="M1234.66,1339.55h-2.48l5.48,8.36c.66-.41,1.29-.85,1.9-1.33l-4.9-7.03Z"/>
        <path class="cls-5" d="M1234.66,1339.55l4.9,7.03c.62-.48,1.21-.99,1.78-1.54l-4.2-5.49h-2.48Z"/>
        <path class="cls-4" d="M1238.73,1337.96c0,1.32-1.07,2.39-2.4,2.39h-21.09c-1.32,0-2.4-1.07-2.4-2.39v-17.66c0-9.43,25.89-9.43,25.89,0v17.66h0Z"/>
        <path class="cls-3" d="M1237.21,1335.19c0,.81-.66,1.46-1.47,1.46h-3.54c-.81,0-1.47-.65-1.47-1.46s.66-1.46,1.47-1.46h3.54c.81,0,1.47.65,1.47,1.46Z"/>
        <path class="cls-3" d="M1214.36,1335.19c0-.81.66-1.46,1.47-1.46h3.53c.81,0,1.47.65,1.47,1.46s-.66,1.46-1.47,1.46h-3.53c-.81,0-1.47-.65-1.47-1.46Z"/>
        <rect class="cls-3" x="1214.38" y="1319.14" width="22.8" height="10.46" rx="2" ry="2"/>
        <path class="cls-1" d="M1217.59,1333.93c.69,0,1.25.56,1.25,1.25s-.56,1.25-1.25,1.25-1.25-.56-1.25-1.25.56-1.25,1.25-1.25Z"/>
        <path class="cls-1" d="M1233.98,1333.93c.69,0,1.25.56,1.25,1.25s-.56,1.25-1.25,1.25-1.25-.56-1.25-1.25.56-1.25,1.25-1.25Z"/>
      </g>
    </g>
    <g id="_32" data-name="🚇32">
      <g>
        <circle class="cls-3" cx="1227.02" cy="756.2" r="22.5"/>
        <path class="cls-2" d="M1218.14,766.96l-4.9,7.03c.61.47,1.24.92,1.9,1.33l5.48-8.36h-2.48Z"/>
        <path class="cls-5" d="M1218.14,766.96h-2.48l-4.2,5.49c.57.54,1.16,1.05,1.78,1.54l4.9-7.03Z"/>
        <path class="cls-2" d="M1235.89,766.96h-2.48l5.48,8.36c.66-.41,1.29-.85,1.9-1.33l-4.9-7.03Z"/>
        <path class="cls-5" d="M1235.89,766.96l4.9,7.03c.62-.48,1.21-.99,1.78-1.54l-4.2-5.49h-2.48Z"/>
        <path class="cls-4" d="M1239.96,765.38c0,1.32-1.07,2.39-2.4,2.39h-21.09c-1.32,0-2.4-1.07-2.4-2.39v-17.66c0-9.43,25.89-9.43,25.89,0v17.66h0Z"/>
        <path class="cls-3" d="M1238.44,762.6c0,.81-.66,1.46-1.47,1.46h-3.54c-.81,0-1.47-.65-1.47-1.46s.66-1.46,1.47-1.46h3.54c.81,0,1.47.65,1.47,1.46Z"/>
        <path class="cls-3" d="M1215.59,762.6c0-.81.66-1.46,1.47-1.46h3.53c.81,0,1.47.65,1.47,1.46s-.66,1.46-1.47,1.46h-3.53c-.81,0-1.47-.65-1.47-1.46Z"/>
        <rect class="cls-3" x="1215.61" y="746.56" width="22.8" height="10.46" rx="2" ry="2"/>
        <path class="cls-1" d="M1218.82,761.35c.69,0,1.25.56,1.25,1.25s-.56,1.25-1.25,1.25-1.25-.56-1.25-1.25.56-1.25,1.25-1.25Z"/>
        <path class="cls-1" d="M1235.21,761.35c.69,0,1.25.56,1.25,1.25s-.56,1.25-1.25,1.25-1.25-.56-1.25-1.25.56-1.25,1.25-1.25Z"/>
      </g>
    </g>
    <g id="_33" data-name="🚇33">
      <g>
        <circle class="cls-3" cx="1934.91" cy="629.99" r="22.5"/>
        <path class="cls-2" d="M1926.03,640.74l-4.9,7.03c.61.47,1.24.92,1.9,1.33l5.48-8.36h-2.48Z"/>
        <path class="cls-5" d="M1926.03,640.74h-2.48l-4.2,5.49c.57.54,1.16,1.05,1.78,1.54l4.9-7.03Z"/>
        <path class="cls-2" d="M1943.78,640.74h-2.48l5.48,8.36c.66-.41,1.29-.85,1.9-1.33l-4.9-7.03Z"/>
        <path class="cls-5" d="M1943.78,640.74l4.9,7.03c.62-.48,1.21-.99,1.78-1.54l-4.2-5.49h-2.48Z"/>
        <path class="cls-4" d="M1947.85,639.16c0,1.32-1.07,2.39-2.4,2.39h-21.09c-1.32,0-2.4-1.07-2.4-2.39v-17.66c0-9.43,25.89-9.43,25.89,0v17.66h0Z"/>
        <path class="cls-3" d="M1946.33,636.39c0,.81-.66,1.46-1.47,1.46h-3.54c-.81,0-1.47-.65-1.47-1.46s.66-1.46,1.47-1.46h3.54c.81,0,1.47.65,1.47,1.46Z"/>
        <path class="cls-3" d="M1923.48,636.39c0-.81.66-1.46,1.47-1.46h3.53c.81,0,1.47.65,1.47,1.46s-.66,1.46-1.47,1.46h-3.53c-.81,0-1.47-.65-1.47-1.46Z"/>
        <rect class="cls-3" x="1923.5" y="620.34" width="22.8" height="10.46" rx="2" ry="2"/>
        <path class="cls-1" d="M1926.71,635.13c.69,0,1.25.56,1.25,1.25s-.56,1.25-1.25,1.25-1.25-.56-1.25-1.25.56-1.25,1.25-1.25Z"/>
        <path class="cls-1" d="M1943.1,635.13c.69,0,1.25.56,1.25,1.25s-.56,1.25-1.25,1.25-1.25-.56-1.25-1.25.56-1.25,1.25-1.25Z"/>
      </g>
    </g>
    <g id="_34" data-name="🚇34">
      <g>
        <circle class="cls-3" cx="2776.5" cy="653.52" r="22.5"/>
        <path class="cls-2" d="M2767.62,664.28l-4.9,7.03c.61.47,1.24.92,1.9,1.33l5.48-8.36h-2.48Z"/>
        <path class="cls-5" d="M2767.62,664.28h-2.48l-4.2,5.49c.57.54,1.16,1.05,1.78,1.54l4.9-7.03Z"/>
        <path class="cls-2" d="M2785.37,664.28h-2.48l5.48,8.36c.66-.41,1.29-.85,1.9-1.33l-4.9-7.03Z"/>
        <path class="cls-5" d="M2785.37,664.28l4.9,7.03c.62-.48,1.21-.99,1.78-1.54l-4.2-5.49h-2.48Z"/>
        <path class="cls-4" d="M2789.44,662.69c0,1.32-1.07,2.39-2.4,2.39h-21.09c-1.32,0-2.4-1.07-2.4-2.39v-17.66c0-9.43,25.89-9.43,25.89,0v17.66h0Z"/>
        <path class="cls-3" d="M2787.92,659.92c0,.81-.66,1.46-1.47,1.46h-3.54c-.81,0-1.47-.65-1.47-1.46s.66-1.46,1.47-1.46h3.54c.81,0,1.47.65,1.47,1.46Z"/>
        <path class="cls-3" d="M2765.07,659.92c0-.81.66-1.46,1.47-1.46h3.53c.81,0,1.47.65,1.47,1.46s-.66,1.46-1.47,1.46h-3.53c-.81,0-1.47-.65-1.47-1.46Z"/>
        <rect class="cls-3" x="2765.09" y="643.88" width="22.8" height="10.46" rx="2" ry="2"/>
        <path class="cls-1" d="M2768.3,658.67c.69,0,1.25.56,1.25,1.25s-.56,1.25-1.25,1.25-1.25-.56-1.25-1.25.56-1.25,1.25-1.25Z"/>
        <path class="cls-1" d="M2784.69,658.67c.69,0,1.25.56,1.25,1.25s-.56,1.25-1.25,1.25-1.25-.56-1.25-1.25.56-1.25,1.25-1.25Z"/>
      </g>
    </g>
    <g id="_35" data-name="🚇35">
      <g>
        <circle class="cls-3" cx="3548.79" cy="1036.14" r="22.5"/>
        <path class="cls-2" d="M3539.91,1046.9l-4.9,7.03c.61.47,1.24.92,1.9,1.33l5.48-8.36h-2.48Z"/>
        <path class="cls-5" d="M3539.91,1046.9h-2.48l-4.2,5.49c.57.54,1.16,1.05,1.78,1.54l4.9-7.03Z"/>
        <path class="cls-2" d="M3557.66,1046.9h-2.48l5.48,8.36c.66-.41,1.29-.85,1.9-1.33l-4.9-7.03Z"/>
        <path class="cls-5" d="M3557.66,1046.9l4.9,7.03c.62-.48,1.21-.99,1.78-1.54l-4.2-5.49h-2.48Z"/>
        <path class="cls-4" d="M3561.73,1045.31c0,1.32-1.07,2.39-2.4,2.39h-21.09c-1.32,0-2.4-1.07-2.4-2.39v-17.66c0-9.43,25.89-9.43,25.89,0v17.66h0Z"/>
        <path class="cls-3" d="M3560.21,1042.54c0,.81-.66,1.46-1.47,1.46h-3.54c-.81,0-1.47-.65-1.47-1.46s.66-1.46,1.47-1.46h3.54c.81,0,1.47.65,1.47,1.46Z"/>
        <path class="cls-3" d="M3537.36,1042.54c0-.81.66-1.46,1.47-1.46h3.53c.81,0,1.47.65,1.47,1.46s-.66,1.46-1.47,1.46h-3.53c-.81,0-1.47-.65-1.47-1.46Z"/>
        <rect class="cls-3" x="3537.38" y="1026.49" width="22.8" height="10.46" rx="2" ry="2"/>
        <path class="cls-1" d="M3540.6,1041.28c.69,0,1.25.56,1.25,1.25s-.56,1.25-1.25,1.25-1.25-.56-1.25-1.25.56-1.25,1.25-1.25Z"/>
        <path class="cls-1" d="M3556.98,1041.28c.69,0,1.25.56,1.25,1.25s-.56,1.25-1.25,1.25-1.25-.56-1.25-1.25.56-1.25,1.25-1.25Z"/>
      </g>
    </g>
    <g id="_36" data-name="🚇36">
      <g>
        <circle class="cls-3" cx="3696.96" cy="1600.09" r="22.5"/>
        <path class="cls-2" d="M3688.09,1610.85l-4.9,7.03c.61.47,1.24.92,1.9,1.33l5.48-8.36h-2.48Z"/>
        <path class="cls-5" d="M3688.09,1610.85h-2.48l-4.2,5.49c.57.54,1.16,1.05,1.78,1.54l4.9-7.03Z"/>
        <path class="cls-2" d="M3705.84,1610.85h-2.48l5.48,8.36c.66-.41,1.29-.85,1.9-1.33l-4.9-7.03Z"/>
        <path class="cls-5" d="M3705.84,1610.85l4.9,7.03c.62-.48,1.21-.99,1.78-1.54l-4.2-5.49h-2.48Z"/>
        <path class="cls-4" d="M3709.91,1609.26c0,1.32-1.07,2.39-2.4,2.39h-21.09c-1.32,0-2.4-1.07-2.4-2.39v-17.66c0-9.43,25.89-9.43,25.89,0v17.66h0Z"/>
        <path class="cls-3" d="M3708.39,1606.49c0,.81-.66,1.46-1.47,1.46h-3.54c-.81,0-1.47-.65-1.47-1.46s.66-1.46,1.47-1.46h3.54c.81,0,1.47.65,1.47,1.46Z"/>
        <path class="cls-3" d="M3685.54,1606.49c0-.81.66-1.46,1.47-1.46h3.53c.81,0,1.47.65,1.47,1.46s-.66,1.46-1.47,1.46h-3.53c-.81,0-1.47-.65-1.47-1.46Z"/>
        <rect class="cls-3" x="3685.56" y="1590.45" width="22.8" height="10.46" rx="2" ry="2"/>
        <path class="cls-1" d="M3688.77,1605.24c.69,0,1.25.56,1.25,1.25s-.56,1.25-1.25,1.25-1.25-.56-1.25-1.25.56-1.25,1.25-1.25Z"/>
        <path class="cls-1" d="M3705.15,1605.24c.69,0,1.25.56,1.25,1.25s-.56,1.25-1.25,1.25-1.25-.56-1.25-1.25.56-1.25,1.25-1.25Z"/>
      </g>
    </g>
    <g id="_37" data-name="🚇37">
      <g>
        <circle class="cls-3" cx="3139" cy="2318.07" r="22.5"/>
        <path class="cls-2" d="M3130.12,2328.83l-4.9,7.03c.61.47,1.24.92,1.9,1.33l5.48-8.36h-2.48Z"/>
        <path class="cls-5" d="M3130.12,2328.83h-2.48l-4.2,5.49c.57.54,1.16,1.05,1.78,1.54l4.9-7.03Z"/>
        <path class="cls-2" d="M3147.87,2328.83h-2.48l5.48,8.36c.66-.41,1.29-.85,1.9-1.33l-4.9-7.03Z"/>
        <path class="cls-5" d="M3147.87,2328.83l4.9,7.03c.62-.48,1.21-.99,1.78-1.54l-4.2-5.49h-2.48Z"/>
        <path class="cls-4" d="M3151.94,2327.25c0,1.32-1.07,2.39-2.4,2.39h-21.09c-1.32,0-2.4-1.07-2.4-2.39v-17.66c0-9.43,25.89-9.43,25.89,0v17.66h0Z"/>
        <path class="cls-3" d="M3150.42,2324.47c0,.81-.66,1.46-1.47,1.46h-3.54c-.81,0-1.47-.65-1.47-1.46s.66-1.46,1.47-1.46h3.54c.81,0,1.47.65,1.47,1.46Z"/>
        <path class="cls-3" d="M3127.57,2324.47c0-.81.66-1.46,1.47-1.46h3.53c.81,0,1.47.65,1.47,1.46s-.66,1.46-1.47,1.46h-3.53c-.81,0-1.47-.65-1.47-1.46Z"/>
        <rect class="cls-3" x="3127.6" y="2308.43" width="22.8" height="10.46" rx="2" ry="2"/>
        <path class="cls-1" d="M3130.81,2323.22c.69,0,1.25.56,1.25,1.25s-.56,1.25-1.25,1.25-1.25-.56-1.25-1.25.56-1.25,1.25-1.25Z"/>
        <path class="cls-1" d="M3147.19,2323.22c.69,0,1.25.56,1.25,1.25s-.56,1.25-1.25,1.25-1.25-.56-1.25-1.25.56-1.25,1.25-1.25Z"/>
      </g>
    </g>
    <g id="_38" data-name="🚇38">
      <g>
        <circle class="cls-3" cx="2181.76" cy="2844.24" r="22.5"/>
        <path class="cls-2" d="M2172.89,2855l-4.9,7.03c.61.47,1.24.92,1.9,1.33l5.48-8.36h-2.48Z"/>
        <path class="cls-5" d="M2172.89,2855h-2.48l-4.2,5.49c.57.54,1.16,1.05,1.78,1.54l4.9-7.03Z"/>
        <path class="cls-2" d="M2190.64,2855h-2.48l5.48,8.36c.66-.41,1.29-.85,1.9-1.33l-4.9-7.03Z"/>
        <path class="cls-5" d="M2190.64,2855l4.9,7.03c.62-.48,1.21-.99,1.78-1.54l-4.2-5.49h-2.48Z"/>
        <path class="cls-4" d="M2194.71,2853.42c0,1.32-1.07,2.39-2.4,2.39h-21.09c-1.32,0-2.4-1.07-2.4-2.39v-17.66c0-9.43,25.89-9.43,25.89,0v17.66h0Z"/>
        <path class="cls-3" d="M2193.19,2850.64c0,.81-.66,1.46-1.47,1.46h-3.54c-.81,0-1.47-.65-1.47-1.46s.66-1.46,1.47-1.46h3.54c.81,0,1.47.65,1.47,1.46Z"/>
        <path class="cls-3" d="M2170.33,2850.64c0-.81.66-1.46,1.47-1.46h3.53c.81,0,1.47.65,1.47,1.46s-.66,1.46-1.47,1.46h-3.53c-.81,0-1.47-.65-1.47-1.46Z"/>
        <rect class="cls-3" x="2170.36" y="2834.6" width="22.8" height="10.46" rx="2" ry="2"/>
        <path class="cls-1" d="M2173.57,2849.39c.69,0,1.25.56,1.25,1.25s-.56,1.25-1.25,1.25-1.25-.56-1.25-1.25.56-1.25,1.25-1.25Z"/>
        <path class="cls-1" d="M2189.95,2849.39c.69,0,1.25.56,1.25,1.25s-.56,1.25-1.25,1.25-1.25-.56-1.25-1.25.56-1.25,1.25-1.25Z"/>
      </g>
    </g>
    <g id="_39" data-name="🚇39">
      <g>
        <circle class="cls-3" cx="1764.72" cy="3000.59" r="22.5"/>
        <path class="cls-2" d="M1755.84,3011.35l-4.9,7.03c.61.47,1.24.92,1.9,1.33l5.48-8.36h-2.48Z"/>
        <path class="cls-5" d="M1755.84,3011.35h-2.48l-4.2,5.49c.57.54,1.16,1.05,1.78,1.54l4.9-7.03Z"/>
        <path class="cls-2" d="M1773.59,3011.35h-2.48l5.48,8.36c.66-.41,1.29-.85,1.9-1.33l-4.9-7.03Z"/>
        <path class="cls-5" d="M1773.59,3011.35l4.9,7.03c.62-.48,1.21-.99,1.78-1.54l-4.2-5.49h-2.48Z"/>
        <path class="cls-4" d="M1777.66,3009.76c0,1.32-1.07,2.39-2.4,2.39h-21.09c-1.32,0-2.4-1.07-2.4-2.39v-17.66c0-9.43,25.89-9.43,25.89,0v17.66h0Z"/>
        <path class="cls-3" d="M1776.14,3006.99c0,.81-.66,1.46-1.47,1.46h-3.54c-.81,0-1.47-.65-1.47-1.46s.66-1.46,1.47-1.46h3.54c.81,0,1.47.65,1.47,1.46Z"/>
        <path class="cls-3" d="M1753.29,3006.99c0-.81.66-1.46,1.47-1.46h3.53c.81,0,1.47.65,1.47,1.46s-.66,1.46-1.47,1.46h-3.53c-.81,0-1.47-.65-1.47-1.46Z"/>
        <rect class="cls-3" x="1753.31" y="2990.94" width="22.8" height="10.46" rx="2" ry="2"/>
        <path class="cls-1" d="M1756.53,3005.73c.69,0,1.25.56,1.25,1.25s-.56,1.25-1.25,1.25-1.25-.56-1.25-1.25.56-1.25,1.25-1.25Z"/>
        <path class="cls-1" d="M1772.91,3005.73c.69,0,1.25.56,1.25,1.25s-.56,1.25-1.25,1.25-1.25-.56-1.25-1.25.56-1.25,1.25-1.25Z"/>
      </g>
    </g>
    <g id="_40" data-name="🚇40">
      <g>
        <circle class="cls-3" cx="1031.73" cy="2535.74" r="22.5"/>
        <path class="cls-2" d="M1022.86,2546.5l-4.9,7.03c.61.47,1.24.92,1.9,1.33l5.48-8.36h-2.48Z"/>
        <path class="cls-5" d="M1022.86,2546.5h-2.48l-4.2,5.49c.57.54,1.16,1.05,1.78,1.54l4.9-7.03Z"/>
        <path class="cls-2" d="M1040.61,2546.5h-2.48l5.48,8.36c.66-.41,1.29-.85,1.9-1.33l-4.9-7.03Z"/>
        <path class="cls-5" d="M1040.61,2546.5l4.9,7.03c.62-.48,1.21-.99,1.78-1.54l-4.2-5.49h-2.48Z"/>
        <path class="cls-4" d="M1044.68,2544.92c0,1.32-1.07,2.39-2.4,2.39h-21.09c-1.32,0-2.4-1.07-2.4-2.39v-17.66c0-9.43,25.89-9.43,25.89,0v17.66h0Z"/>
        <path class="cls-3" d="M1043.16,2542.14c0,.81-.66,1.46-1.47,1.46h-3.54c-.81,0-1.47-.65-1.47-1.46s.66-1.46,1.47-1.46h3.54c.81,0,1.47.65,1.47,1.46Z"/>
        <path class="cls-3" d="M1020.31,2542.14c0-.81.66-1.46,1.47-1.46h3.53c.81,0,1.47.65,1.47,1.46s-.66,1.46-1.47,1.46h-3.53c-.81,0-1.47-.65-1.47-1.46Z"/>
        <rect class="cls-3" x="1020.33" y="2526.1" width="22.8" height="10.46" rx="2" ry="2"/>
        <path class="cls-1" d="M1023.54,2540.89c.69,0,1.25.56,1.25,1.25s-.56,1.25-1.25,1.25-1.25-.56-1.25-1.25.56-1.25,1.25-1.25Z"/>
        <path class="cls-1" d="M1039.92,2540.89c.69,0,1.25.56,1.25,1.25s-.56,1.25-1.25,1.25-1.25-.56-1.25-1.25.56-1.25,1.25-1.25Z"/>
      </g>
    </g>
    <g id="_42" data-name="🚇42">
      <g>
        <circle class="cls-3" cx="551.23" cy="1786.8" r="22.5"/>
        <path class="cls-2" d="M542.36,1797.56l-4.9,7.03c.61.47,1.24.92,1.9,1.33l5.48-8.36h-2.48Z"/>
        <path class="cls-5" d="M542.36,1797.56h-2.48l-4.2,5.49c.57.54,1.16,1.05,1.78,1.54l4.9-7.03Z"/>
        <path class="cls-2" d="M560.11,1797.56h-2.48l5.48,8.36c.66-.41,1.29-.85,1.9-1.33l-4.9-7.03Z"/>
        <path class="cls-5" d="M560.11,1797.56l4.9,7.03c.62-.48,1.21-.99,1.78-1.54l-4.2-5.49h-2.48Z"/>
        <path class="cls-4" d="M564.18,1795.98c0,1.32-1.07,2.39-2.4,2.39h-21.09c-1.32,0-2.4-1.07-2.4-2.39v-17.66c0-9.43,25.89-9.43,25.89,0v17.66h0Z"/>
        <path class="cls-3" d="M562.66,1793.2c0,.81-.66,1.46-1.47,1.46h-3.54c-.81,0-1.47-.65-1.47-1.46s.66-1.46,1.47-1.46h3.54c.81,0,1.47.65,1.47,1.46Z"/>
        <path class="cls-3" d="M539.81,1793.2c0-.81.66-1.46,1.47-1.46h3.53c.81,0,1.47.65,1.47,1.46s-.66,1.46-1.47,1.46h-3.53c-.81,0-1.47-.65-1.47-1.46Z"/>
        <rect class="cls-3" x="539.83" y="1777.16" width="22.8" height="10.46" rx="2" ry="2"/>
        <path class="cls-1" d="M543.04,1791.95c.69,0,1.25.56,1.25,1.25s-.56,1.25-1.25,1.25-1.25-.56-1.25-1.25.56-1.25,1.25-1.25Z"/>
        <path class="cls-1" d="M559.42,1791.95c.69,0,1.25.56,1.25,1.25s-.56,1.25-1.25,1.25-1.25-.56-1.25-1.25.56-1.25,1.25-1.25Z"/>
      </g>
    </g>
    <g id="_41" data-name="🚇41">
      <g>
        <circle class="cls-3" cx="730.09" cy="2337.87" r="22.5"/>
        <path class="cls-2" d="M721.21,2348.62l-4.9,7.03c.61.47,1.24.92,1.9,1.33l5.48-8.36h-2.48Z"/>
        <path class="cls-5" d="M721.21,2348.62h-2.48l-4.2,5.49c.57.54,1.16,1.05,1.78,1.54l4.9-7.03Z"/>
        <path class="cls-2" d="M738.96,2348.62h-2.48l5.48,8.36c.66-.41,1.29-.85,1.9-1.33l-4.9-7.03Z"/>
        <path class="cls-5" d="M738.96,2348.62l4.9,7.03c.62-.48,1.21-.99,1.78-1.54l-4.2-5.49h-2.48Z"/>
        <path class="cls-4" d="M743.03,2347.04c0,1.32-1.07,2.39-2.4,2.39h-21.09c-1.32,0-2.4-1.07-2.4-2.39v-17.66c0-9.43,25.89-9.43,25.89,0v17.66h0Z"/>
        <path class="cls-3" d="M741.52,2344.27c0,.81-.66,1.46-1.47,1.46h-3.54c-.81,0-1.47-.65-1.47-1.46s.66-1.46,1.47-1.46h3.54c.81,0,1.47.65,1.47,1.46Z"/>
        <path class="cls-3" d="M718.66,2344.27c0-.81.66-1.46,1.47-1.46h3.53c.81,0,1.47.65,1.47,1.46s-.66,1.46-1.47,1.46h-3.53c-.81,0-1.47-.65-1.47-1.46Z"/>
        <rect class="cls-3" x="718.69" y="2328.22" width="22.8" height="10.46" rx="2" ry="2"/>
        <path class="cls-1" d="M721.9,2343.01c.69,0,1.25.56,1.25,1.25s-.56,1.25-1.25,1.25-1.25-.56-1.25-1.25.56-1.25,1.25-1.25Z"/>
        <path class="cls-1" d="M738.28,2343.01c.69,0,1.25.56,1.25,1.25s-.56,1.25-1.25,1.25-1.25-.56-1.25-1.25.56-1.25,1.25-1.25Z"/>
      </g>
    </g>
    <g id="_43" data-name="🚇43">
      <g>
        <circle class="cls-3" cx="1133.72" cy="1329.8" r="22.5"/>
        <path class="cls-2" d="M1124.85,1340.55l-4.9,7.03c.61.47,1.24.92,1.9,1.33l5.48-8.36h-2.48Z"/>
        <path class="cls-5" d="M1124.85,1340.55h-2.48l-4.2,5.49c.57.54,1.16,1.05,1.78,1.54l4.9-7.03Z"/>
        <path class="cls-2" d="M1142.6,1340.55h-2.48l5.48,8.36c.66-.41,1.29-.85,1.9-1.33l-4.9-7.03Z"/>
        <path class="cls-5" d="M1142.6,1340.55l4.9,7.03c.62-.48,1.21-.99,1.78-1.54l-4.2-5.49h-2.48Z"/>
        <path class="cls-4" d="M1146.67,1338.97c0,1.32-1.07,2.39-2.4,2.39h-21.09c-1.32,0-2.4-1.07-2.4-2.39v-17.66c0-9.43,25.89-9.43,25.89,0v17.66h0Z"/>
        <path class="cls-3" d="M1145.15,1336.2c0,.81-.66,1.46-1.47,1.46h-3.54c-.81,0-1.47-.65-1.47-1.46s.66-1.46,1.47-1.46h3.54c.81,0,1.47.65,1.47,1.46Z"/>
        <path class="cls-3" d="M1122.3,1336.2c0-.81.66-1.46,1.47-1.46h3.53c.81,0,1.47.65,1.47,1.46s-.66,1.46-1.47,1.46h-3.53c-.81,0-1.47-.65-1.47-1.46Z"/>
        <rect class="cls-3" x="1122.32" y="1320.15" width="22.8" height="10.46" rx="2" ry="2"/>
        <path class="cls-1" d="M1125.53,1334.94c.69,0,1.25.56,1.25,1.25s-.56,1.25-1.25,1.25-1.25-.56-1.25-1.25.56-1.25,1.25-1.25Z"/>
        <path class="cls-1" d="M1141.91,1334.94c.69,0,1.25.56,1.25,1.25s-.56,1.25-1.25,1.25-1.25-.56-1.25-1.25.56-1.25,1.25-1.25Z"/>
      </g>
    </g>
    <g id="_44" data-name="🚇44">
      <g>
        <circle class="cls-3" cx="1074.31" cy="721.83" r="22.5"/>
        <path class="cls-2" d="M1065.44,732.59l-4.9,7.03c.61.47,1.24.92,1.9,1.33l5.48-8.36h-2.48Z"/>
        <path class="cls-5" d="M1065.44,732.59h-2.48l-4.2,5.49c.57.54,1.16,1.05,1.78,1.54l4.9-7.03Z"/>
        <path class="cls-2" d="M1083.19,732.59h-2.48l5.48,8.36c.66-.41,1.29-.85,1.9-1.33l-4.9-7.03Z"/>
        <path class="cls-5" d="M1083.19,732.59l4.9,7.03c.62-.48,1.21-.99,1.78-1.54l-4.2-5.49h-2.48Z"/>
        <path class="cls-4" d="M1087.26,731.01c0,1.32-1.07,2.39-2.4,2.39h-21.09c-1.32,0-2.4-1.07-2.4-2.39v-17.66c0-9.43,25.89-9.43,25.89,0v17.66h0Z"/>
        <path class="cls-3" d="M1085.74,728.23c0,.81-.66,1.46-1.47,1.46h-3.54c-.81,0-1.47-.65-1.47-1.46s.66-1.46,1.47-1.46h3.54c.81,0,1.47.65,1.47,1.46Z"/>
        <path class="cls-3" d="M1062.89,728.23c0-.81.66-1.46,1.47-1.46h3.53c.81,0,1.47.65,1.47,1.46s-.66,1.46-1.47,1.46h-3.53c-.81,0-1.47-.65-1.47-1.46Z"/>
        <rect class="cls-3" x="1062.91" y="712.19" width="22.8" height="10.46" rx="2" ry="2"/>
        <path class="cls-1" d="M1066.12,726.98c.69,0,1.25.56,1.25,1.25s-.56,1.25-1.25,1.25-1.25-.56-1.25-1.25.56-1.25,1.25-1.25Z"/>
        <path class="cls-1" d="M1082.5,726.98c.69,0,1.25.56,1.25,1.25s-.56,1.25-1.25,1.25-1.25-.56-1.25-1.25.56-1.25,1.25-1.25Z"/>
      </g>
    </g>
  </g>
</svg>