<?xml version="1.0" encoding="UTF-8"?>
<svg id="grid" xmlns="http://www.w3.org/2000/svg" viewBox="0 0 4032 3097.57">
  <defs>
    <style>
      .cls-1 {
        fill: none;
        stroke: #000;
        stroke-miterlimit: 10;
        stroke-width: .5px;
      }

      .cls-2 {
        opacity: .5;
      }
    </style>
  </defs>
  <g id="verticalGraticule" class="cls-2">
    <line class="cls-1" x1="167.2" y1="23.81" x2="167.19" y2="3097.57"/>
    <line class="cls-1" x1="273.32" y1="0" x2="273.31" y2="3097.57"/>
    <line class="cls-1" x1="380.63" y1="23.81" x2="378.25" y2="3097.57"/>
    <line class="cls-1" x1="485.56" y1="35.64" x2="485.56" y2="3097.57"/>
    <line class="cls-1" x1="591.69" y1="23.81" x2="591.68" y2="3097.57"/>
    <line class="cls-1" x1="697.81" y1="0" x2="697.8" y2="3097.57"/>
    <line class="cls-1" x1="805.12" y1="23.81" x2="802.74" y2="3097.57"/>
    <line class="cls-1" x1="910.05" y1="35.64" x2="910.05" y2="3097.57"/>
    <line class="cls-1" x1="1016.18" y1="23.81" x2="1016.17" y2="3097.57"/>
    <line class="cls-1" x1="1122.3" y1="0" x2="1122.29" y2="3097.57"/>
    <line class="cls-1" x1="1229.61" y1="23.81" x2="1227.23" y2="3097.57"/>
    <line class="cls-1" x1="1334.54" y1="35.64" x2="1334.54" y2="3097.57"/>
    <line class="cls-1" x1="1440.67" y1="23.81" x2="1440.66" y2="3097.57"/>
    <line class="cls-1" x1="1546.79" y1="0" x2="1546.78" y2="3097.57"/>
    <line class="cls-1" x1="1654.1" y1="23.81" x2="1651.72" y2="3097.57"/>
    <line class="cls-1" x1="1759.03" y1="35.64" x2="1759.03" y2="3097.57"/>
    <line class="cls-1" x1="1865.15" y1="23.81" x2="1865.15" y2="3097.57"/>
    <line class="cls-1" x1="1971.28" y1="0" x2="1971.27" y2="3097.57"/>
    <line class="cls-1" x1="2078.59" y1="23.81" x2="2076.21" y2="3097.57"/>
    <line class="cls-1" x1="2183.52" y1="35.64" x2="2183.52" y2="3097.57"/>
    <line class="cls-1" x1="2289.64" y1="23.81" x2="2289.64" y2="3097.57"/>
    <line class="cls-1" x1="2395.77" y1="0" x2="2395.76" y2="3097.57"/>
    <line class="cls-1" x1="2503.08" y1="23.81" x2="2500.7" y2="3097.57"/>
    <line class="cls-1" x1="2608.01" y1="35.64" x2="2608.01" y2="3097.57"/>
    <line class="cls-1" x1="2714.13" y1="23.81" x2="2714.13" y2="3097.57"/>
    <line class="cls-1" x1="2820.26" y1="0" x2="2820.25" y2="3097.57"/>
    <line class="cls-1" x1="2927.57" y1="23.81" x2="2925.18" y2="3097.57"/>
    <line class="cls-1" x1="3032.5" y1="35.64" x2="3032.5" y2="3097.57"/>
    <line class="cls-1" x1="3138.62" y1="23.81" x2="3138.62" y2="3097.57"/>
    <line class="cls-1" x1="3244.75" y1="0" x2="3244.74" y2="3097.57"/>
    <line class="cls-1" x1="3352.06" y1="23.81" x2="3349.67" y2="3097.57"/>
    <line class="cls-1" x1="3456.99" y1="35.64" x2="3456.99" y2="3097.57"/>
    <line class="cls-1" x1="3563.11" y1="23.81" x2="3563.11" y2="3097.57"/>
    <line class="cls-1" x1="3669.24" y1="0" x2="3669.23" y2="3097.57"/>
    <line class="cls-1" x1="3776.55" y1="23.81" x2="3774.16" y2="3097.57"/>
    <line class="cls-1" x1="3881.48" y1="35.64" x2="3881.48" y2="3097.57"/>
  </g>
  <g id="horizontalGraticule" class="cls-2">
    <line class="cls-1" x1="167.19" y1="3096.79" x2="3881.65" y2="3096.49"/>
    <line class="cls-1" x1="167.19" y1="2999.24" x2="3881.65" y2="2998.94"/>
    <line class="cls-1" x1="167.19" y1="2901.69" x2="3881.65" y2="2901.39"/>
    <line class="cls-1" x1="167.19" y1="2804.14" x2="3881.65" y2="2803.84"/>
    <line class="cls-1" x1="167.19" y1="2706.59" x2="3881.65" y2="2706.29"/>
    <line class="cls-1" x1="167.19" y1="2609.04" x2="3881.65" y2="2608.74"/>
    <line class="cls-1" x1="167.19" y1="2511.49" x2="3881.65" y2="2511.19"/>
    <line class="cls-1" x1="167.19" y1="2413.94" x2="3881.65" y2="2413.64"/>
    <line class="cls-1" x1="167.19" y1="2316.39" x2="3881.65" y2="2316.09"/>
    <line class="cls-1" x1="167.19" y1="2218.84" x2="3881.65" y2="2218.54"/>
    <line class="cls-1" x1="167.19" y1="2121.29" x2="3881.65" y2="2120.99"/>
    <line class="cls-1" x1="167.19" y1="2023.74" x2="3881.65" y2="2023.44"/>
    <line class="cls-1" x1="167.19" y1="1926.19" x2="3881.65" y2="1925.89"/>
    <line class="cls-1" x1="167.19" y1="1828.64" x2="3881.65" y2="1828.34"/>
    <line class="cls-1" x1="167.19" y1="1731.09" x2="3881.65" y2="1730.79"/>
    <line class="cls-1" x1="167.19" y1="1633.54" x2="3881.65" y2="1633.24"/>
    <line class="cls-1" x1="167.19" y1="1535.99" x2="3881.65" y2="1535.69"/>
    <line class="cls-1" x1="167.19" y1="1438.44" x2="3881.65" y2="1438.14"/>
    <line class="cls-1" x1="167.19" y1="1340.89" x2="3881.65" y2="1340.59"/>
    <line class="cls-1" x1="167.19" y1="1243.34" x2="3881.65" y2="1243.04"/>
    <line class="cls-1" x1="167.19" y1="1145.79" x2="3881.65" y2="1145.49"/>
    <line class="cls-1" x1="167.19" y1="1048.24" x2="3881.65" y2="1047.94"/>
    <line class="cls-1" x1="167.19" y1="950.69" x2="3881.65" y2="950.39"/>
    <line class="cls-1" x1="167.19" y1="853.14" x2="3881.65" y2="852.84"/>
    <line class="cls-1" x1="167.19" y1="755.59" x2="3881.65" y2="755.29"/>
    <line class="cls-1" x1="167.19" y1="658.04" x2="3881.65" y2="657.74"/>
    <line class="cls-1" x1="167.19" y1="560.49" x2="3881.65" y2="560.19"/>
    <line class="cls-1" x1="167.19" y1="462.94" x2="3881.65" y2="462.64"/>
    <line class="cls-1" x1="167.19" y1="365.39" x2="3881.65" y2="365.09"/>
    <line class="cls-1" x1="167.19" y1="267.84" x2="3881.65" y2="267.54"/>
    <line class="cls-1" x1="167.19" y1="170.29" x2="3881.65" y2="169.99"/>
    <line class="cls-1" x1="167.19" y1="72.74" x2="3881.65" y2="72.44"/>
  </g>
</svg>