<?xml version="1.0" encoding="UTF-8"?>
<svg id="legend" xmlns="http://www.w3.org/2000/svg" viewBox="0 0 4032 3097.57">
  <defs>
    <style>
      .cls-1 {
        stroke: #ff0;
      }

      .cls-1, .cls-2, .cls-3, .cls-4, .cls-5, .cls-6, .cls-7, .cls-8, .cls-9, .cls-10, .cls-11 {
        stroke-dasharray: 6 11 6 12 6 10;
        stroke-miterlimit: 10;
      }

      .cls-1, .cls-2, .cls-3, .cls-4, .cls-5, .cls-6, .cls-7, .cls-9, .cls-10, .cls-11 {
        fill: none;
        stroke-width: 6.9px;
      }

      .cls-2 {
        stroke: #c1272d;
      }

      .cls-3 {
        stroke: #ed1e79;
      }

      .cls-12 {
        letter-spacing: -.01em;
      }

      .cls-4 {
        stroke: #1b1464;
      }

      .cls-13 {
        fill: #fff;
      }

      .cls-5 {
        stroke: #0071bc;
      }

      .cls-14 {
        font-family: Garamond, Garamond;
        font-size: 60px;
      }

      .cls-14, .cls-15 {
        fill: #1a1a1a;
      }

      .cls-6 {
        stroke: aqua;
      }

      .cls-7 {
        stroke: #662d91;
      }

      .cls-8 {
        fill: #f2f2f2;
        stroke: #1a1a1a;
        stroke-width: .5px;
      }

      .cls-16 {
        fill: #94989b;
      }

      .cls-9 {
        stroke: #f7931e;
      }

      .cls-10 {
        stroke: #009245;
      }

      .cls-11 {
        stroke: #fbb03b;
      }

      .cls-17 {
        fill: #3e4347;
      }

      .cls-18 {
        fill: #c7e755;
      }

      .cls-19 {
        letter-spacing: 0em;
      }

      .cls-20 {
        fill: #e6e6e6;
      }
    </style>
  </defs>
  <rect class="cls-20" x="275.96" y="170.96" width="634.08" height="1299.61"/>
  <text class="cls-14" transform="translate(520.61 255.88)"><tspan class="cls-12" x="0" y="0">Le</tspan><tspan class="cls-19" x="57.56" y="0">g</tspan><tspan class="cls-12" x="84.43" y="0">end</tspan></text>
  <g>
    <path class="cls-15" d="M446.24,302.39h-7.41v-3.52h19.02v3.52h-7.42v20.01h-4.19v-20.01Z"/>
    <path class="cls-15" d="M458.77,304.72h3.43l.35,4.02h.1c1.8-2.88,4.48-4.45,7.52-4.45,1.43,0,2.39.22,3.44.72l-.88,3.52c-1.17-.37-1.86-.55-3.2-.55-2.42,0-4.79,1.24-6.6,4.67v9.75h-4.16v-17.68Z"/>
    <path class="cls-15" d="M472.57,313.58c0-5.91,4.22-9.29,8.88-9.29s8.88,3.39,8.88,9.29-4.22,9.25-8.88,9.25-8.88-3.39-8.88-9.25ZM486.06,313.58c0-3.56-1.73-5.9-4.61-5.9s-4.62,2.34-4.62,5.9,1.73,5.85,4.62,5.85,4.61-2.32,4.61-5.85Z"/>
    <path class="cls-15" d="M495.33,315.96v-15.68h-5.9v-3.3h10.06v19.2c0,2.36,1.39,3.26,3.18,3.26.92,0,1.89-.21,3.02-.69l.97,3.08c-1.74.64-2.94,1-5.01,1-4.13,0-6.32-2.53-6.32-6.87Z"/>
    <path class="cls-15" d="M511.89,315.96v-15.68h-5.9v-3.3h10.06v19.2c0,2.36,1.39,3.26,3.18,3.26.92,0,1.89-.21,3.02-.69l.97,3.08c-1.74.64-2.94,1-5.01,1-4.13,0-6.32-2.53-6.32-6.87Z"/>
    <path class="cls-15" d="M522.54,313.54c0-5.77,4.38-9.25,9.11-9.25,5.28,0,8.2,3.5,8.2,8.39,0,.83-.11,1.64-.18,2.09h-14.16v-2.94h11.47l-.8.92c0-3.49-1.64-5.27-4.41-5.27-2.92,0-5.17,2.1-5.17,6.05s2.48,6.07,6.15,6.07c1.85,0,3.37-.54,4.96-1.44l1.42,2.58c-1.89,1.23-4.33,2.09-6.93,2.09-5.41,0-9.67-3.41-9.67-9.29Z"/>
    <path class="cls-15" d="M539.3,329.28l.78-3.22c.47.14.99.24,1.48.24,2.25,0,3.54-1.24,4.26-3.01l.42-1.11-7.92-17.46h4.16l3.61,8.64c.66,1.61,1.32,3.44,1.96,5.22h.14c.55-1.72,1.19-3.56,1.75-5.22l3.18-8.64h3.96l-7.38,18.48c-1.52,3.97-3.64,6.44-7.9,6.44-.93,0-1.82-.14-2.51-.36Z"/>
    <path class="cls-15" d="M572.12,319.39l2.43-2.88c1.79,1.61,4.1,2.68,6.57,2.68,2.74,0,4.19-1.21,4.19-2.85,0-2.1-1.61-2.66-3.91-3.63l-3.24-1.41c-2.47-.96-5.02-2.79-5.02-6.24,0-3.74,3.37-6.63,8.18-6.63,2.88,0,5.61,1.12,7.54,3l-2.14,2.66c-1.6-1.28-3.23-2.01-5.6-2.01-2.23,0-3.74,1-3.74,2.75,0,1.83,1.88,2.5,4.01,3.32l3.09,1.34c3,1.15,5.11,2.94,5.11,6.34,0,3.82-3.22,7.01-8.72,7.01-3.31,0-6.44-1.26-8.75-3.44Z"/>
    <path class="cls-15" d="M593.4,315.29v-7.27h-4.73v-3.1l4.9-.19.54-5.54h3.45v5.54h8.04v3.3h-8.04v7.26c0,2.92,1.1,4.24,4.08,4.24,1.47,0,2.69-.3,3.85-.71l.81,3.03c-1.58.52-3.37,1-5.66,1-5.4,0-7.24-3.03-7.24-7.54Z"/>
    <path class="cls-15" d="M605.67,317.65c0-3.96,3.49-5.94,12.22-6.55-.15-1.98-1.33-3.47-4.21-3.47-1.99,0-3.96.87-5.78,1.88l-1.54-2.75c2.14-1.28,5.04-2.47,8.09-2.47,4.91,0,7.6,2.72,7.6,7.65v10.46h-3.42l-.32-2.19h-.12c-1.86,1.43-4.23,2.62-6.6,2.62-3.45,0-5.92-2.11-5.92-5.18ZM617.88,317.42v-3.72c-6.35.42-8.18,1.72-8.18,3.63,0,1.56,1.38,2.23,3.13,2.23s3.42-.83,5.05-2.14Z"/>
    <path class="cls-15" d="M626.52,315.29v-7.27h-4.73v-3.1l4.9-.19.54-5.54h3.45v5.54h8.04v3.3h-8.04v7.26c0,2.92,1.1,4.24,4.08,4.24,1.47,0,2.69-.3,3.85-.71l.81,3.03c-1.58.52-3.37,1-5.66,1-5.4,0-7.24-3.03-7.24-7.54Z"/>
    <path class="cls-15" d="M646.91,308.02h-7.64v-3.3h11.8v17.68h-4.16v-14.38ZM645.77,298.72c0-1.66,1.25-2.81,2.96-2.81s2.96,1.15,2.96,2.81-1.25,2.78-2.96,2.78-2.96-1.1-2.96-2.78Z"/>
    <path class="cls-15" d="M654.73,313.58c0-5.91,4.22-9.29,8.88-9.29s8.88,3.39,8.88,9.29-4.22,9.25-8.88,9.25-8.88-3.39-8.88-9.25ZM668.22,313.58c0-3.56-1.73-5.9-4.61-5.9s-4.62,2.34-4.62,5.9,1.73,5.85,4.62,5.85,4.61-2.32,4.61-5.85Z"/>
    <path class="cls-15" d="M672.33,304.72h3.4l.32,2.66h.14c1.69-1.71,3.68-3.09,6.38-3.09,4.09,0,5.93,2.61,5.93,7.16v10.95h-4.16v-10.41c0-2.84-.91-4.13-3.29-4.13-1.74,0-2.92.85-4.54,2.48v12.06h-4.16v-17.68Z"/>
  </g>
  <g id="_" data-name="🚇">
    <g>
      <circle class="cls-17" cx="375.77" cy="308.01" r="46.88"/>
      <path class="cls-16" d="M357.28,330.42l-10.2,14.64c1.27.99,2.59,1.91,3.97,2.77l11.41-17.41h-5.17Z"/>
      <path class="cls-20" d="M357.28,330.42h-5.17l-8.74,11.44c1.18,1.13,2.42,2.2,3.71,3.2l10.21-14.64Z"/>
      <path class="cls-16" d="M394.26,330.42h-5.17l11.41,17.41c1.37-.85,2.69-1.78,3.96-2.77l-10.2-14.64Z"/>
      <path class="cls-20" d="M394.26,330.42l10.2,14.64c1.29-1,2.53-2.07,3.71-3.2l-8.74-11.44h-5.17Z"/>
      <path class="cls-18" d="M402.74,327.12c0,2.74-2.24,4.97-4.99,4.97h-43.95c-2.76,0-5-2.23-5-4.97v-36.8c0-19.65,53.93-19.65,53.93,0v36.8h0Z"/>
      <path class="cls-17" d="M399.58,321.34c0,1.68-1.37,3.04-3.06,3.04h-7.37c-1.69,0-3.06-1.36-3.06-3.04s1.37-3.05,3.06-3.05h7.37c1.69,0,3.06,1.36,3.06,3.05Z"/>
      <path class="cls-17" d="M351.97,321.34c0-1.68,1.37-3.05,3.06-3.05h7.36c1.69,0,3.06,1.36,3.06,3.05s-1.37,3.04-3.06,3.04h-7.36c-1.69,0-3.06-1.36-3.06-3.04Z"/>
      <path class="cls-17" d="M399.53,305.54c0,2.3-1.87,4.17-4.17,4.17h-39.17c-2.3,0-4.17-1.87-4.17-4.17v-13.46c0-2.3,1.86-4.17,4.17-4.17h39.17c2.3,0,4.17,1.87,4.17,4.17v13.46h0Z"/>
      <circle class="cls-13" cx="358.71" cy="321.34" r="2.61" transform="translate(-95.67 161.73) rotate(-22.5)"/>
      <circle class="cls-13" cx="392.84" cy="321.34" r="2.61"/>
    </g>
  </g>
  <rect class="cls-8" x="322.01" y="369.17" width="108" height="108"/>
  <rect class="cls-8" x="322.01" y="475.96" width="108" height="108"/>
  <rect class="cls-8" x="322.01" y="584" width="108" height="108"/>
  <rect class="cls-8" x="322.01" y="689.93" width="108" height="108"/>
  <rect class="cls-8" x="322.01" y="798.6" width="108" height="108"/>
  <rect class="cls-8" x="322.89" y="906.04" width="108" height="108"/>
  <rect class="cls-8" x="322.63" y="1013.25" width="108" height="108"/>
  <rect class="cls-8" x="322.63" y="1121.29" width="108" height="108"/>
  <rect class="cls-8" x="322.63" y="1227.22" width="108" height="108"/>
  <rect class="cls-8" x="322.63" y="1335.37" width="108" height="108"/>
  <line id="coastloop" class="cls-5" x1="340.65" y1="454.46" x2="411.36" y2="383.75"/>
  <line id="bigloop" class="cls-2" x1="340.65" y1="556.41" x2="411.36" y2="485.7"/>
  <line id="oldloop" class="cls-10" x1="340.65" y1="664.53" x2="411.36" y2="593.82"/>
  <line id="goldoop" class="cls-11" x1="340.65" y1="777.33" x2="411.36" y2="706.61"/>
  <line id="summitviewloop" class="cls-7" x1="340.65" y1="887.93" x2="411.36" y2="817.22"/>
  <line id="summitviewloop-2" data-name="summitviewloop" class="cls-3" x1="341.54" y1="995.37" x2="412.25" y2="924.66"/>
  <line id="northorsouthslope" class="cls-4" x1="341.28" y1="1099.81" x2="411.99" y2="1029.09"/>
  <line id="summitslopes" class="cls-1" x1="341.28" y1="1207.17" x2="411.99" y2="1136.46"/>
  <line id="drainslopes" class="cls-9" x1="341.28" y1="1312.17" x2="411.99" y2="1241.46"/>
  <line id="drainslopes-2" data-name="drainslopes" class="cls-6" x1="341.28" y1="1424.67" x2="411.99" y2="1353.96"/>
  <g id="labels">
    <g>
      <path class="cls-15" d="M443.86,422.22c0-7.69,4.68-12.26,10.9-12.26,2.91,0,5.25,1.39,6.74,2.93l-2.34,2.61c-1.17-1.16-2.57-1.9-4.41-1.9-3.9,0-6.59,3.23-6.59,8.5s2.69,8.62,6.7,8.62c1.92,0,3.45-.88,4.75-2.33l2.34,2.54c-1.88,2.21-4.36,3.43-7.51,3.43-5.83,0-10.58-4.32-10.58-12.13Z"/>
      <path class="cls-15" d="M460.2,425.1c0-5.91,4.22-9.29,8.88-9.29s8.88,3.39,8.88,9.29-4.22,9.25-8.88,9.25-8.88-3.39-8.88-9.25ZM473.69,425.1c0-3.56-1.73-5.9-4.61-5.9s-4.62,2.34-4.62,5.9,1.73,5.85,4.62,5.85,4.61-2.32,4.61-5.85Z"/>
      <path class="cls-15" d="M477.37,429.17c0-3.96,3.49-5.94,12.22-6.55-.15-1.98-1.33-3.47-4.21-3.47-1.99,0-3.96.87-5.78,1.88l-1.54-2.75c2.14-1.28,5.04-2.47,8.09-2.47,4.91,0,7.6,2.72,7.6,7.65v10.46h-3.42l-.32-2.19h-.12c-1.86,1.43-4.23,2.62-6.6,2.62-3.45,0-5.92-2.11-5.92-5.18ZM489.59,428.94v-3.72c-6.35.42-8.18,1.72-8.18,3.63,0,1.56,1.38,2.23,3.13,2.23s3.42-.83,5.05-2.14Z"/>
      <path class="cls-15" d="M493.62,431.61l1.82-2.65c2.11,1.4,4.52,2.24,7.4,2.24,2.45,0,3.6-.93,3.6-2.1s-.78-1.81-4.89-2.66c-4.72-.99-6.81-2.66-6.81-5.35,0-3.07,2.8-5.28,7.75-5.28,2.93,0,5.61,1.15,7.4,2.34l-1.92,2.56c-1.71-1.1-3.75-1.77-5.85-1.77-2.29,0-3.24.88-3.24,1.96,0,1.25,1.3,1.68,4.61,2.4,5.65,1.25,7.12,2.75,7.12,5.56,0,3.04-2.93,5.5-8.3,5.5-3.3,0-6.48-1.25-8.67-2.74Z"/>
      <path class="cls-15" d="M514.79,426.81v-7.27h-4.73v-3.1l4.9-.19.54-5.54h3.45v5.54h8.04v3.3h-8.04v7.26c0,2.92,1.1,4.24,4.08,4.24,1.47,0,2.69-.3,3.85-.71l.81,3.03c-1.58.52-3.37,1-5.66,1-5.4,0-7.24-3.03-7.24-7.54Z"/>
      <path class="cls-15" d="M545.4,410.38h4.16v20.01h11.04v3.52h-15.21v-23.53Z"/>
      <path class="cls-15" d="M559.56,425.1c0-5.91,4.22-9.29,8.88-9.29s8.88,3.39,8.88,9.29-4.22,9.25-8.88,9.25-8.88-3.39-8.88-9.25ZM573.05,425.1c0-3.56-1.73-5.9-4.61-5.9s-4.62,2.34-4.62,5.9,1.73,5.85,4.62,5.85,4.61-2.32,4.61-5.85Z"/>
      <path class="cls-15" d="M576.12,425.1c0-5.91,4.22-9.29,8.88-9.29s8.88,3.39,8.88,9.29-4.22,9.25-8.88,9.25-8.88-3.39-8.88-9.25ZM589.61,425.1c0-3.56-1.73-5.9-4.61-5.9s-4.62,2.34-4.62,5.9,1.73,5.85,4.62,5.85,4.61-2.32,4.61-5.85Z"/>
      <path class="cls-15" d="M593.72,416.24h3.4l.32,2.02h.12c1.53-1.43,3.66-2.45,5.68-2.45,4.58,0,7.2,3.53,7.2,9.01,0,6.03-3.74,9.54-7.85,9.54-1.59,0-3.37-.76-4.8-2.1h-.1l.2,3.1v5.56h-4.16v-24.67ZM606.17,424.84c0-3.52-1.24-5.59-4.1-5.59-1.34,0-2.75.63-4.19,2.12v7.94c1.3,1.17,2.78,1.59,3.84,1.59,2.51,0,4.45-2.06,4.45-6.07Z"/>
    </g>
    <g>
      <path class="cls-15" d="M446.08,517.16h7.3c4.85,0,8.35,1.47,8.35,5.79,0,2.22-1.29,4.39-4.07,5.11v.14c3.4.58,5.29,2.4,5.29,5.58,0,4.71-3.76,6.91-8.96,6.91h-7.91v-23.53ZM453.01,526.83c3.29,0,4.63-1.19,4.63-3.38s-1.5-2.95-4.54-2.95h-2.86v6.33h2.77ZM453.56,537.36c3.45,0,5.3-1.19,5.3-3.85,0-2.48-1.78-3.5-5.3-3.5h-3.31v7.34h3.31Z"/>
      <path class="cls-15" d="M470.21,526.32h-7.64v-3.3h11.8v17.68h-4.16v-14.38ZM469.06,517.02c0-1.66,1.25-2.81,2.96-2.81s2.96,1.15,2.96,2.81-1.25,2.78-2.96,2.78-2.96-1.1-2.96-2.78Z"/>
      <path class="cls-15" d="M478.32,543.81c0-1.43.98-2.73,2.83-3.73v-.14c-.96-.56-1.8-1.47-1.8-2.96,0-1.16.81-2.43,2.11-3.32v-.14c-1.25-.89-2.27-2.47-2.27-4.56,0-4.05,3.39-6.37,7.27-6.37,1.03,0,1.95.14,2.76.43h7.25v3.17h-4.06c.59.68,1.12,1.77,1.12,2.92,0,3.93-3.11,6-7.07,6-.81,0-1.77-.16-2.7-.5-.71.46-1.08.95-1.08,1.66,0,1.16,1.13,1.67,3.33,1.67h3.61c4.59,0,6.96,1.23,6.96,4.32,0,3.5-3.96,6.28-10.19,6.28-4.87,0-8.08-1.57-8.08-4.71ZM492.59,542.94c0-1.39-1.21-1.74-3.56-1.74h-2.83c-1.15,0-1.99-.07-2.69-.26-1.27.73-1.74,1.5-1.74,2.32,0,1.58,1.86,2.5,5.12,2.5,3.46,0,5.7-1.31,5.7-2.82ZM489.83,528.96c0-2.16-1.51-3.5-3.36-3.5s-3.34,1.34-3.34,3.5,1.52,3.54,3.34,3.54,3.36-1.32,3.36-3.54Z"/>
      <path class="cls-15" d="M513.54,517.16h4.16v20.01h11.04v3.52h-15.21v-23.53Z"/>
      <path class="cls-15" d="M527.7,531.88c0-5.91,4.22-9.29,8.88-9.29s8.88,3.39,8.88,9.29-4.22,9.25-8.88,9.25-8.88-3.39-8.88-9.25ZM541.19,531.88c0-3.56-1.73-5.9-4.61-5.9s-4.62,2.34-4.62,5.9,1.73,5.85,4.62,5.85,4.61-2.32,4.61-5.85Z"/>
      <path class="cls-15" d="M544.26,531.88c0-5.91,4.22-9.29,8.88-9.29s8.88,3.39,8.88,9.29-4.22,9.25-8.88,9.25-8.88-3.39-8.88-9.25ZM557.75,531.88c0-3.56-1.73-5.9-4.61-5.9s-4.62,2.34-4.62,5.9,1.73,5.85,4.62,5.85,4.61-2.32,4.61-5.85Z"/>
      <path class="cls-15" d="M561.86,523.02h3.4l.32,2.02h.12c1.53-1.43,3.66-2.45,5.68-2.45,4.58,0,7.2,3.53,7.2,9.01,0,6.03-3.74,9.54-7.85,9.54-1.59,0-3.37-.76-4.8-2.1h-.1l.2,3.1v5.56h-4.16v-24.67ZM574.31,531.62c0-3.52-1.24-5.59-4.1-5.59-1.34,0-2.75.63-4.19,2.12v7.94c1.3,1.17,2.78,1.59,3.84,1.59,2.51,0,4.45-2.06,4.45-6.07Z"/>
    </g>
    <g>
      <path class="cls-15" d="M442.89,638.55c0-7.74,3.8-12.09,9.26-12.09s9.26,4.35,9.26,12.09-3.8,12.31-9.26,12.31-9.26-4.42-9.26-12.31ZM457.1,638.55c0-5.4-1.95-8.45-4.95-8.45s-4.95,3.05-4.95,8.45,1.95,8.67,4.95,8.67,4.95-3.12,4.95-8.67Z"/>
      <path class="cls-15" d="M466.02,643.99v-15.68h-5.9v-3.3h10.06v19.2c0,2.36,1.39,3.26,3.18,3.26.92,0,1.89-.21,3.02-.69l.97,3.08c-1.74.64-2.94,1-5.01,1-4.13,0-6.32-2.53-6.32-6.87Z"/>
      <path class="cls-15" d="M476.39,641.61c0-5.77,3.77-9.29,7.77-9.29,2.02,0,3.5.76,4.87,2.07h.1l-.2-2.98v-6.4h4.16v25.42h-3.4l-.32-2.07h-.12c-1.37,1.38-3.34,2.5-5.33,2.5-4.55,0-7.55-3.42-7.55-9.25ZM488.94,645.3v-7.94c-1.27-1.17-2.49-1.59-3.77-1.59-2.47,0-4.52,2.11-4.52,5.8s1.61,5.85,4.29,5.85c1.46,0,2.77-.65,4-2.12Z"/>
      <path class="cls-15" d="M511.91,626.89h4.16v20.01h11.04v3.52h-15.21v-23.53Z"/>
      <path class="cls-15" d="M526.07,641.61c0-5.91,4.22-9.29,8.88-9.29s8.88,3.39,8.88,9.29-4.22,9.25-8.88,9.25-8.88-3.39-8.88-9.25ZM539.56,641.61c0-3.56-1.73-5.9-4.61-5.9s-4.62,2.34-4.62,5.9,1.73,5.85,4.62,5.85,4.61-2.32,4.61-5.85Z"/>
      <path class="cls-15" d="M542.63,641.61c0-5.91,4.22-9.29,8.88-9.29s8.88,3.39,8.88,9.29-4.22,9.25-8.88,9.25-8.88-3.39-8.88-9.25ZM556.12,641.61c0-3.56-1.73-5.9-4.61-5.9s-4.62,2.34-4.62,5.9,1.73,5.85,4.62,5.85,4.61-2.32,4.61-5.85Z"/>
      <path class="cls-15" d="M560.23,632.75h3.4l.32,2.02h.12c1.53-1.43,3.66-2.45,5.68-2.45,4.58,0,7.2,3.53,7.2,9.01,0,6.03-3.74,9.54-7.85,9.54-1.59,0-3.37-.76-4.8-2.1h-.1l.2,3.1v5.56h-4.16v-24.67ZM572.68,641.35c0-3.52-1.24-5.59-4.1-5.59-1.34,0-2.75.63-4.19,2.12v7.94c1.3,1.17,2.78,1.59,3.84,1.59,2.51,0,4.45-2.06,4.45-6.07Z"/>
    </g>
    <g>
      <path class="cls-15" d="M444.23,745.27c0-7.74,4.57-12.26,10.67-12.26,3.14,0,5.28,1.46,6.69,2.93l-2.33,2.61c-1.06-1.1-2.3-1.9-4.35-1.9-3.74,0-6.33,3.23-6.33,8.5s2.26,8.62,6.4,8.62c1.26,0,2.48-.37,3.16-1.02v-5.08h-4.03v-3.42h7.83v10.38c-1.52,1.49-4.17,2.79-7.2,2.79-5.97,0-10.5-4.32-10.5-12.13Z"/>
      <path class="cls-15" d="M460.98,748.15c0-5.91,4.22-9.29,8.88-9.29s8.88,3.39,8.88,9.29-4.22,9.25-8.88,9.25-8.88-3.39-8.88-9.25ZM474.47,748.15c0-3.56-1.73-5.9-4.61-5.9s-4.62,2.34-4.62,5.9,1.73,5.85,4.62,5.85,4.61-2.32,4.61-5.85Z"/>
      <path class="cls-15" d="M483.73,750.53v-15.68h-5.9v-3.3h10.06v19.2c0,2.36,1.39,3.26,3.18,3.26.92,0,1.89-.21,3.02-.69l.97,3.08c-1.74.64-2.94,1-5.01,1-4.13,0-6.32-2.53-6.32-6.87Z"/>
      <path class="cls-15" d="M494.1,748.15c0-5.77,3.77-9.29,7.77-9.29,2.02,0,3.5.76,4.87,2.07h.1l-.2-2.98v-6.4h4.16v25.42h-3.4l-.32-2.07h-.12c-1.37,1.38-3.34,2.5-5.33,2.5-4.55,0-7.55-3.42-7.55-9.25ZM506.64,751.84v-7.94c-1.27-1.17-2.49-1.59-3.77-1.59-2.47,0-4.52,2.11-4.52,5.8s1.61,5.85,4.29,5.85c1.46,0,2.77-.65,4-2.12Z"/>
      <path class="cls-15" d="M529.62,733.43h4.16v20.01h11.04v3.52h-15.21v-23.53Z"/>
      <path class="cls-15" d="M543.78,748.15c0-5.91,4.22-9.29,8.88-9.29s8.88,3.39,8.88,9.29-4.22,9.25-8.88,9.25-8.88-3.39-8.88-9.25ZM557.27,748.15c0-3.56-1.73-5.9-4.61-5.9s-4.62,2.34-4.62,5.9,1.73,5.85,4.62,5.85,4.61-2.32,4.61-5.85Z"/>
      <path class="cls-15" d="M560.33,748.15c0-5.91,4.22-9.29,8.88-9.29s8.88,3.39,8.88,9.29-4.22,9.25-8.88,9.25-8.88-3.39-8.88-9.25ZM573.83,748.15c0-3.56-1.73-5.9-4.61-5.9s-4.62,2.34-4.62,5.9,1.73,5.85,4.62,5.85,4.61-2.32,4.61-5.85Z"/>
      <path class="cls-15" d="M577.94,739.29h3.4l.32,2.02h.12c1.53-1.43,3.66-2.45,5.68-2.45,4.58,0,7.2,3.53,7.2,9.01,0,6.03-3.74,9.54-7.85,9.54-1.59,0-3.37-.76-4.8-2.1h-.1l.2,3.1v5.56h-4.16v-24.67ZM590.39,747.89c0-3.52-1.24-5.59-4.1-5.59-1.34,0-2.75.63-4.19,2.12v7.94c1.3,1.17,2.78,1.59,3.84,1.59,2.51,0,4.45-2.06,4.45-6.07Z"/>
    </g>
    <g>
      <path class="cls-15" d="M447,861.62l2.43-2.88c1.79,1.61,4.1,2.68,6.57,2.68,2.74,0,4.19-1.21,4.19-2.85,0-2.1-1.61-2.66-3.91-3.63l-3.24-1.41c-2.47-.96-5.02-2.79-5.02-6.24,0-3.74,3.37-6.63,8.18-6.63,2.88,0,5.61,1.12,7.54,3l-2.14,2.66c-1.6-1.28-3.23-2.01-5.6-2.01-2.23,0-3.74,1-3.74,2.75,0,1.83,1.88,2.5,4.01,3.32l3.09,1.34c3,1.15,5.11,2.94,5.11,6.34,0,3.82-3.22,7.01-8.72,7.01-3.31,0-6.44-1.26-8.75-3.44Z"/>
      <path class="cls-15" d="M463.94,857.9v-10.95h4.16v10.41c0,2.81.89,4.13,3.31,4.13,1.66,0,2.86-.7,4.43-2.61v-11.93h4.16v17.68h-3.42l-.32-2.81h-.14c-1.67,1.93-3.63,3.24-6.26,3.24-4.1,0-5.92-2.61-5.92-7.16Z"/>
      <path class="cls-15" d="M479.67,846.95h3.19l.32,2.25h.1c.78-1.53,1.89-2.68,3.93-2.68,1.63,0,2.74,1.01,3.21,2.97.82-1.74,2-2.97,4.02-2.97,2.5,0,3.94,2.05,3.94,5.58v12.53h-4.01v-12.23c0-1.55-.42-2.33-1.41-2.33s-1.5.73-2.21,2.21v12.35h-3.45v-12.23c0-1.55-.41-2.33-1.4-2.33-.93,0-1.55.73-2.22,2.21v12.35h-4.01v-17.68Z"/>
      <path class="cls-15" d="M496.23,846.95h3.19l.32,2.25h.1c.78-1.53,1.89-2.68,3.93-2.68,1.63,0,2.74,1.01,3.21,2.97.82-1.74,2-2.97,4.02-2.97,2.5,0,3.94,2.05,3.94,5.58v12.53h-4.01v-12.23c0-1.55-.42-2.33-1.41-2.33s-1.5.73-2.21,2.21v12.35h-3.45v-12.23c0-1.55-.41-2.33-1.4-2.33-.93,0-1.55.73-2.22,2.21v12.35h-4.01v-17.68Z"/>
      <path class="cls-15" d="M521.79,850.25h-7.64v-3.3h11.8v17.68h-4.16v-14.38ZM520.65,840.95c0-1.66,1.25-2.81,2.96-2.81s2.96,1.15,2.96,2.81-1.25,2.78-2.96,2.78-2.96-1.1-2.96-2.78Z"/>
      <path class="cls-15" d="M534.52,857.52v-7.27h-4.73v-3.1l4.9-.19.54-5.54h3.45v5.54h8.04v3.3h-8.04v7.26c0,2.92,1.1,4.24,4.08,4.24,1.47,0,2.69-.3,3.85-.71l.81,3.03c-1.58.52-3.37,1-5.66,1-5.4,0-7.24-3.03-7.24-7.54Z"/>
      <path class="cls-15" d="M545.7,846.95h4.21l3.41,9.15c.63,1.78,1.2,3.56,1.77,5.34h.14c.57-1.78,1.09-3.56,1.75-5.34l3.41-9.15h3.99l-6.9,17.68h-4.74l-7.05-17.68Z"/>
      <path class="cls-15" d="M571.47,850.25h-7.64v-3.3h11.8v17.68h-4.16v-14.38ZM570.32,840.95c0-1.66,1.25-2.81,2.96-2.81s2.96,1.15,2.96,2.81-1.25,2.78-2.96,2.78-2.96-1.1-2.96-2.78Z"/>
      <path class="cls-15" d="M579.58,855.77c0-5.77,4.38-9.25,9.11-9.25,5.28,0,8.2,3.5,8.2,8.39,0,.83-.11,1.64-.18,2.09h-14.16v-2.94h11.47l-.8.92c0-3.49-1.64-5.27-4.41-5.27-2.92,0-5.17,2.1-5.17,6.05s2.48,6.07,6.15,6.07c1.85,0,3.37-.54,4.96-1.44l1.42,2.58c-1.89,1.23-4.33,2.09-6.93,2.09-5.41,0-9.67-3.41-9.67-9.29Z"/>
      <path class="cls-15" d="M594.14,846.95h4.06l1.58,9.2c.27,1.71.47,3.33.69,5.06h.13c.2-1.74.53-3.4.92-5.06l1.63-7.46h3.4l1.61,7.46c.37,1.71.76,3.33.99,5.06h.14c.26-1.74.39-3.35.65-5.06l1.53-9.2h3.85l-3.24,17.68h-5.03l-1.49-7.06c-.26-1.38-.51-3.1-.76-5.24h-.14c-.22,1.86-.44,3.5-.73,5.24l-1.44,7.06h-4.98l-3.37-17.68Z"/>
      <path class="cls-15" d="M631.37,841.1h4.16v20.01h11.04v3.52h-15.21v-23.53Z"/>
      <path class="cls-15" d="M645.53,855.81c0-5.91,4.22-9.29,8.88-9.29s8.88,3.39,8.88,9.29-4.22,9.25-8.88,9.25-8.88-3.39-8.88-9.25ZM659.02,855.81c0-3.56-1.73-5.9-4.61-5.9s-4.62,2.34-4.62,5.9,1.73,5.85,4.62,5.85,4.61-2.32,4.61-5.85Z"/>
      <path class="cls-15" d="M662.09,855.81c0-5.91,4.22-9.29,8.88-9.29s8.88,3.39,8.88,9.29-4.22,9.25-8.88,9.25-8.88-3.39-8.88-9.25ZM675.58,855.81c0-3.56-1.73-5.9-4.61-5.9s-4.62,2.34-4.62,5.9,1.73,5.85,4.62,5.85,4.61-2.32,4.61-5.85Z"/>
      <path class="cls-15" d="M679.69,846.95h3.4l.32,2.02h.12c1.53-1.43,3.66-2.45,5.68-2.45,4.58,0,7.2,3.53,7.2,9.01,0,6.03-3.74,9.54-7.85,9.54-1.59,0-3.37-.76-4.8-2.1h-.1l.2,3.1v5.56h-4.16v-24.67ZM692.14,855.55c0-3.52-1.24-5.59-4.1-5.59-1.34,0-2.75.63-4.19,2.12v7.94c1.3,1.17,2.78,1.59,3.84,1.59,2.51,0,4.45-2.06,4.45-6.07Z"/>
    </g>
    <g>
      <path class="cls-15" d="M454.48,952.05h-7.41v-3.52h19.02v3.52h-7.42v20.01h-4.19v-20.01Z"/>
      <path class="cls-15" d="M464.55,963.2c0-5.77,4.38-9.25,9.11-9.25,5.28,0,8.2,3.5,8.2,8.39,0,.83-.11,1.64-.18,2.09h-14.16v-2.94h11.47l-.8.92c0-3.49-1.64-5.27-4.41-5.27-2.92,0-5.17,2.1-5.17,6.05s2.48,6.07,6.15,6.07c1.85,0,3.37-.54,4.96-1.44l1.42,2.58c-1.89,1.23-4.33,2.09-6.93,2.09-5.41,0-9.67-3.41-9.67-9.29Z"/>
      <path class="cls-15" d="M480.56,954.39h3.19l.32,2.25h.1c.78-1.53,1.89-2.68,3.93-2.68,1.63,0,2.74,1.01,3.21,2.97.82-1.74,2-2.97,4.02-2.97,2.5,0,3.94,2.05,3.94,5.58v12.53h-4.01v-12.23c0-1.55-.42-2.33-1.41-2.33s-1.5.73-2.21,2.21v12.35h-3.45v-12.23c0-1.55-.41-2.33-1.4-2.33-.93,0-1.55.73-2.22,2.21v12.35h-4.01v-17.68Z"/>
      <path class="cls-15" d="M498.42,954.39h3.4l.32,2.02h.12c1.53-1.43,3.66-2.45,5.68-2.45,4.58,0,7.2,3.53,7.2,9.01,0,6.03-3.74,9.54-7.85,9.54-1.59,0-3.37-.76-4.8-2.1h-.1l.2,3.1v5.56h-4.16v-24.67ZM510.87,962.99c0-3.52-1.24-5.59-4.1-5.59-1.34,0-2.75.63-4.19,2.12v7.94c1.3,1.17,2.78,1.59,3.84,1.59,2.51,0,4.45-2.06,4.45-6.07Z"/>
      <path class="cls-15" d="M520.13,965.63v-15.68h-5.9v-3.3h10.06v19.2c0,2.36,1.39,3.26,3.18,3.26.92,0,1.89-.21,3.02-.69l.97,3.08c-1.74.64-2.94,1-5.01,1-4.13,0-6.32-2.53-6.32-6.87Z"/>
      <path class="cls-15" d="M530.79,963.2c0-5.77,4.38-9.25,9.11-9.25,5.28,0,8.2,3.5,8.2,8.39,0,.83-.11,1.64-.18,2.09h-14.16v-2.94h11.47l-.8.92c0-3.49-1.64-5.27-4.41-5.27-2.92,0-5.17,2.1-5.17,6.05s2.48,6.07,6.15,6.07c1.85,0,3.37-.54,4.96-1.44l1.42,2.58c-1.89,1.23-4.33,2.09-6.92,2.09-5.41,0-9.67-3.41-9.67-9.29Z"/>
      <path class="cls-15" d="M566.02,948.53h4.16v20.01h11.04v3.52h-15.21v-23.53Z"/>
      <path class="cls-15" d="M580.18,963.25c0-5.91,4.22-9.29,8.88-9.29s8.88,3.39,8.88,9.29-4.22,9.25-8.88,9.25-8.88-3.39-8.88-9.25ZM593.67,963.25c0-3.56-1.73-5.9-4.61-5.9s-4.62,2.34-4.62,5.9,1.73,5.85,4.62,5.85,4.61-2.32,4.61-5.85Z"/>
      <path class="cls-15" d="M596.74,963.25c0-5.91,4.22-9.29,8.88-9.29s8.88,3.39,8.88,9.29-4.22,9.25-8.88,9.25-8.88-3.39-8.88-9.25ZM610.23,963.25c0-3.56-1.73-5.9-4.61-5.9s-4.62,2.34-4.62,5.9,1.73,5.85,4.62,5.85,4.61-2.32,4.61-5.85Z"/>
      <path class="cls-15" d="M614.34,954.39h3.4l.32,2.02h.12c1.53-1.43,3.66-2.45,5.68-2.45,4.58,0,7.2,3.53,7.2,9.01,0,6.03-3.74,9.54-7.85,9.54-1.59,0-3.37-.76-4.8-2.1h-.1l.2,3.1v5.56h-4.16v-24.67ZM626.79,962.99c0-3.52-1.24-5.59-4.1-5.59-1.34,0-2.75.63-4.19,2.12v7.94c1.3,1.17,2.78,1.59,3.84,1.59,2.51,0,4.45-2.06,4.45-6.07Z"/>
    </g>
    <g>
      <path class="cls-15" d="M448.71,1044.76h4.39l6.22,13.22,2.14,5.03h.1c-.17-2.41-.57-5.39-.57-8.02v-10.23h3.99v23.53h-4.4l-6.22-13.23-2.14-5.01h-.1c.17,2.5.57,5.34.57,7.95v10.3h-3.99v-23.53Z"/>
      <path class="cls-15" d="M464.53,1059.48c0-5.91,4.22-9.29,8.88-9.29s8.88,3.39,8.88,9.29-4.22,9.25-8.88,9.25-8.88-3.39-8.88-9.25ZM478.02,1059.48c0-3.56-1.73-5.9-4.61-5.9s-4.62,2.34-4.62,5.9,1.73,5.85,4.62,5.85,4.61-2.32,4.61-5.85Z"/>
      <path class="cls-15" d="M483.84,1050.62h3.43l.35,4.02h.1c1.8-2.88,4.48-4.45,7.52-4.45,1.43,0,2.39.22,3.44.72l-.88,3.52c-1.17-.37-1.86-.55-3.2-.55-2.42,0-4.79,1.24-6.6,4.67v9.75h-4.16v-17.68Z"/>
      <path class="cls-15" d="M502.56,1061.19v-7.27h-4.73v-3.1l4.9-.19.54-5.54h3.45v5.54h8.04v3.3h-8.04v7.26c0,2.92,1.1,4.24,4.08,4.24,1.47,0,2.69-.3,3.85-.71l.81,3.03c-1.58.52-3.37,1-5.66,1-5.4,0-7.24-3.03-7.24-7.54Z"/>
      <path class="cls-15" d="M515.25,1042.88h4.16v6.56l-.25,3.78h.12c1.54-1.65,3.53-3.04,6.21-3.04,4.07,0,5.92,2.61,5.92,7.16v10.95h-4.16v-10.41c0-2.84-.91-4.13-3.29-4.13-1.74,0-2.92.85-4.54,2.48v12.06h-4.16v-25.42Z"/>
      <path class="cls-15" d="M547.51,1065.29l2.43-2.88c1.79,1.61,4.1,2.68,6.57,2.68,2.74,0,4.19-1.21,4.19-2.85,0-2.1-1.61-2.66-3.91-3.63l-3.24-1.41c-2.47-.96-5.02-2.79-5.02-6.24,0-3.74,3.37-6.63,8.18-6.63,2.88,0,5.61,1.12,7.54,3l-2.14,2.66c-1.6-1.28-3.23-2.01-5.6-2.01-2.23,0-3.74,1-3.74,2.75,0,1.83,1.88,2.5,4.01,3.32l3.09,1.34c3,1.15,5.11,2.94,5.11,6.34,0,3.82-3.22,7.01-8.72,7.01-3.31,0-6.44-1.26-8.75-3.44Z"/>
      <path class="cls-15" d="M570.08,1061.86v-15.68h-5.9v-3.3h10.06v19.2c0,2.36,1.39,3.26,3.18,3.26.92,0,1.89-.21,3.02-.69l.97,3.08c-1.74.64-2.94,1-5.01,1-4.13,0-6.32-2.53-6.32-6.87Z"/>
      <path class="cls-15" d="M580.44,1059.48c0-5.91,4.22-9.29,8.88-9.29s8.88,3.39,8.88,9.29-4.22,9.25-8.88,9.25-8.88-3.39-8.88-9.25ZM593.94,1059.48c0-3.56-1.73-5.9-4.61-5.9s-4.62,2.34-4.62,5.9,1.73,5.85,4.62,5.85,4.61-2.32,4.61-5.85Z"/>
      <path class="cls-15" d="M598.05,1050.62h3.4l.32,2.02h.12c1.53-1.43,3.66-2.45,5.68-2.45,4.58,0,7.2,3.53,7.2,9.01,0,6.03-3.74,9.54-7.85,9.54-1.59,0-3.37-.76-4.8-2.1h-.1l.2,3.1v5.56h-4.16v-24.67ZM610.5,1059.22c0-3.52-1.24-5.59-4.1-5.59-1.34,0-2.75.63-4.19,2.12v7.94c1.3,1.17,2.78,1.59,3.84,1.59,2.51,0,4.45-2.06,4.45-6.07Z"/>
      <path class="cls-15" d="M613.85,1059.43c0-5.77,4.38-9.25,9.11-9.25,5.28,0,8.2,3.5,8.2,8.39,0,.83-.11,1.64-.18,2.09h-14.16v-2.94h11.47l-.8.92c0-3.49-1.64-5.27-4.41-5.27-2.92,0-5.17,2.1-5.17,6.05s2.48,6.07,6.15,6.07c1.85,0,3.37-.54,4.96-1.44l1.42,2.58c-1.89,1.23-4.33,2.09-6.93,2.09-5.41,0-9.67-3.41-9.67-9.29Z"/>
      <path class="cls-15" d="M635.01,1073.55c3.13-1.25,4.65-3.13,4.6-5.76l-.41-3.81,2.1,3.24c-.63.61-1.4.83-2.2.83-1.8,0-3.36-1.11-3.36-3.2s1.57-3.22,3.47-3.22c2.53,0,3.86,2.04,3.86,5.4,0,4.4-2.5,7.52-6.97,9.01l-1.09-2.48Z"/>
      <path class="cls-15" d="M663.24,1059.48c0-5.91,4.22-9.29,8.88-9.29s8.88,3.39,8.88,9.29-4.22,9.25-8.88,9.25-8.88-3.39-8.88-9.25ZM676.73,1059.48c0-3.56-1.73-5.9-4.61-5.9s-4.62,2.34-4.62,5.9,1.73,5.85,4.62,5.85,4.61-2.32,4.61-5.85Z"/>
      <path class="cls-15" d="M682.56,1050.62h3.43l.35,4.02h.1c1.8-2.88,4.48-4.45,7.52-4.45,1.43,0,2.39.22,3.44.72l-.88,3.52c-1.17-.37-1.86-.55-3.2-.55-2.42,0-4.79,1.24-6.6,4.67v9.75h-4.16v-17.68Z"/>
      <path class="cls-15" d="M448.15,1095.29l2.43-2.88c1.79,1.61,4.1,2.68,6.57,2.68,2.74,0,4.19-1.21,4.19-2.85,0-2.1-1.61-2.66-3.91-3.63l-3.24-1.41c-2.47-.96-5.02-2.79-5.02-6.24,0-3.74,3.37-6.63,8.18-6.63,2.88,0,5.61,1.12,7.54,3l-2.14,2.66c-1.6-1.28-3.23-2.01-5.6-2.01-2.23,0-3.74,1-3.74,2.75,0,1.83,1.88,2.5,4.01,3.32l3.09,1.34c3,1.15,5.11,2.94,5.11,6.34,0,3.82-3.22,7.01-8.72,7.01-3.31,0-6.44-1.26-8.75-3.44Z"/>
      <path class="cls-15" d="M464.53,1089.48c0-5.91,4.22-9.29,8.88-9.29s8.88,3.39,8.88,9.29-4.22,9.25-8.88,9.25-8.88-3.39-8.88-9.25ZM478.02,1089.48c0-3.56-1.73-5.9-4.61-5.9s-4.62,2.34-4.62,5.9,1.73,5.85,4.62,5.85,4.61-2.32,4.61-5.85Z"/>
      <path class="cls-15" d="M481.66,1091.57v-10.95h4.16v10.41c0,2.81.89,4.13,3.31,4.13,1.66,0,2.86-.7,4.43-2.61v-11.93h4.16v17.68h-3.42l-.32-2.81h-.14c-1.67,1.93-3.63,3.24-6.26,3.24-4.1,0-5.92-2.61-5.92-7.16Z"/>
      <path class="cls-15" d="M502.56,1091.19v-7.27h-4.73v-3.1l4.9-.19.54-5.54h3.45v5.54h8.04v3.3h-8.04v7.26c0,2.92,1.1,4.24,4.08,4.24,1.47,0,2.69-.3,3.85-.71l.81,3.03c-1.58.52-3.37,1-5.66,1-5.4,0-7.24-3.03-7.24-7.54Z"/>
      <path class="cls-15" d="M515.25,1072.88h4.16v6.56l-.25,3.78h.12c1.54-1.65,3.53-3.04,6.21-3.04,4.07,0,5.92,2.61,5.92,7.16v10.95h-4.16v-10.41c0-2.84-.91-4.13-3.29-4.13-1.74,0-2.92.85-4.54,2.48v12.06h-4.16v-25.42Z"/>
      <path class="cls-15" d="M547.51,1095.29l2.43-2.88c1.79,1.61,4.1,2.68,6.57,2.68,2.74,0,4.19-1.21,4.19-2.85,0-2.1-1.61-2.66-3.91-3.63l-3.24-1.41c-2.47-.96-5.02-2.79-5.02-6.24,0-3.74,3.37-6.63,8.18-6.63,2.88,0,5.61,1.12,7.54,3l-2.14,2.66c-1.6-1.28-3.23-2.01-5.6-2.01-2.23,0-3.74,1-3.74,2.75,0,1.83,1.88,2.5,4.01,3.32l3.09,1.34c3,1.15,5.11,2.94,5.11,6.34,0,3.82-3.22,7.01-8.72,7.01-3.31,0-6.44-1.26-8.75-3.44Z"/>
      <path class="cls-15" d="M570.08,1091.86v-15.68h-5.9v-3.3h10.06v19.2c0,2.36,1.39,3.26,3.18,3.26.92,0,1.89-.21,3.02-.69l.97,3.08c-1.74.64-2.94,1-5.01,1-4.13,0-6.32-2.53-6.32-6.87Z"/>
      <path class="cls-15" d="M580.44,1089.48c0-5.91,4.22-9.29,8.88-9.29s8.88,3.39,8.88,9.29-4.22,9.25-8.88,9.25-8.88-3.39-8.88-9.25ZM593.94,1089.48c0-3.56-1.73-5.9-4.61-5.9s-4.62,2.34-4.62,5.9,1.73,5.85,4.62,5.85,4.61-2.32,4.61-5.85Z"/>
      <path class="cls-15" d="M598.05,1080.62h3.4l.32,2.02h.12c1.53-1.43,3.66-2.45,5.68-2.45,4.58,0,7.2,3.53,7.2,9.01,0,6.03-3.74,9.54-7.85,9.54-1.59,0-3.37-.76-4.8-2.1h-.1l.2,3.1v5.56h-4.16v-24.67ZM610.5,1089.22c0-3.52-1.24-5.59-4.1-5.59-1.34,0-2.75.63-4.19,2.12v7.94c1.3,1.17,2.78,1.59,3.84,1.59,2.51,0,4.45-2.06,4.45-6.07Z"/>
      <path class="cls-15" d="M613.85,1089.43c0-5.77,4.38-9.25,9.11-9.25,5.28,0,8.2,3.5,8.2,8.39,0,.83-.11,1.64-.18,2.09h-14.16v-2.94h11.47l-.8.92c0-3.49-1.64-5.27-4.41-5.27-2.92,0-5.17,2.1-5.17,6.05s2.48,6.07,6.15,6.07c1.85,0,3.37-.54,4.96-1.44l1.42,2.58c-1.89,1.23-4.33,2.09-6.93,2.09-5.41,0-9.67-3.41-9.67-9.29Z"/>
    </g>
    <g>
      <path class="cls-15" d="M448.46,1186.99l2.43-2.88c1.79,1.61,4.1,2.68,6.57,2.68,2.74,0,4.19-1.21,4.19-2.85,0-2.1-1.61-2.66-3.91-3.63l-3.24-1.41c-2.47-.96-5.02-2.79-5.02-6.24,0-3.74,3.37-6.63,8.18-6.63,2.88,0,5.61,1.12,7.54,3l-2.14,2.66c-1.6-1.28-3.23-2.01-5.6-2.01-2.23,0-3.74,1-3.74,2.75,0,1.83,1.88,2.5,4.01,3.32l3.09,1.34c3,1.15,5.11,2.94,5.11,6.34,0,3.82-3.22,7.01-8.72,7.01-3.31,0-6.44-1.26-8.75-3.44Z"/>
      <path class="cls-15" d="M465.41,1183.27v-10.95h4.16v10.41c0,2.81.89,4.13,3.31,4.13,1.66,0,2.86-.7,4.43-2.61v-11.93h4.16v17.68h-3.42l-.32-2.81h-.14c-1.67,1.93-3.63,3.24-6.26,3.24-4.1,0-5.92-2.61-5.92-7.16Z"/>
      <path class="cls-15" d="M481.14,1172.32h3.19l.32,2.25h.1c.78-1.53,1.89-2.68,3.93-2.68,1.63,0,2.74,1.01,3.21,2.97.82-1.74,2-2.97,4.02-2.97,2.5,0,3.94,2.05,3.94,5.58v12.53h-4.01v-12.23c0-1.55-.42-2.33-1.41-2.33s-1.5.73-2.21,2.21v12.35h-3.45v-12.23c0-1.55-.41-2.33-1.4-2.33-.93,0-1.55.73-2.22,2.21v12.35h-4.01v-17.68Z"/>
      <path class="cls-15" d="M497.7,1172.32h3.19l.32,2.25h.1c.78-1.53,1.89-2.68,3.93-2.68,1.63,0,2.74,1.01,3.21,2.97.82-1.74,2-2.97,4.02-2.97,2.5,0,3.94,2.05,3.94,5.58v12.53h-4.01v-12.23c0-1.55-.42-2.33-1.41-2.33s-1.5.73-2.21,2.21v12.35h-3.45v-12.23c0-1.55-.41-2.33-1.4-2.33-.93,0-1.55.73-2.22,2.21v12.35h-4.01v-17.68Z"/>
      <path class="cls-15" d="M523.26,1175.61h-7.64v-3.3h11.8v17.68h-4.16v-14.38ZM522.11,1166.32c0-1.66,1.25-2.81,2.96-2.81s2.96,1.15,2.96,2.81-1.25,2.78-2.96,2.78-2.96-1.1-2.96-2.78Z"/>
      <path class="cls-15" d="M535.99,1182.89v-7.27h-4.73v-3.1l4.9-.19.54-5.54h3.45v5.54h8.04v3.3h-8.04v7.26c0,2.92,1.1,4.24,4.08,4.24,1.47,0,2.69-.3,3.85-.71l.81,3.03c-1.58.52-3.37,1-5.66,1-5.4,0-7.24-3.03-7.24-7.54Z"/>
      <path class="cls-15" d="M564.38,1186.99l2.43-2.88c1.79,1.61,4.1,2.68,6.57,2.68,2.74,0,4.19-1.21,4.19-2.85,0-2.1-1.61-2.66-3.91-3.63l-3.24-1.41c-2.47-.96-5.02-2.79-5.02-6.24,0-3.74,3.37-6.63,8.18-6.63,2.88,0,5.61,1.12,7.54,3l-2.14,2.66c-1.6-1.28-3.23-2.01-5.6-2.01-2.23,0-3.74,1-3.74,2.75,0,1.83,1.88,2.5,4.01,3.32l3.09,1.34c3,1.15,5.11,2.94,5.11,6.34,0,3.82-3.22,7.01-8.72,7.01-3.31,0-6.44-1.26-8.75-3.44Z"/>
      <path class="cls-15" d="M586.95,1183.56v-15.68h-5.9v-3.3h10.06v19.2c0,2.36,1.39,3.26,3.18,3.26.92,0,1.89-.21,3.02-.69l.97,3.08c-1.74.64-2.94,1-5.01,1-4.13,0-6.32-2.53-6.32-6.87Z"/>
      <path class="cls-15" d="M597.31,1181.18c0-5.91,4.22-9.29,8.88-9.29s8.88,3.39,8.88,9.29-4.22,9.25-8.88,9.25-8.88-3.39-8.88-9.25ZM610.8,1181.18c0-3.56-1.73-5.9-4.61-5.9s-4.62,2.34-4.62,5.9,1.73,5.85,4.62,5.85,4.61-2.32,4.61-5.85Z"/>
      <path class="cls-15" d="M614.91,1172.32h3.4l.32,2.02h.12c1.53-1.43,3.66-2.45,5.68-2.45,4.58,0,7.2,3.53,7.2,9.01,0,6.03-3.74,9.54-7.85,9.54-1.59,0-3.37-.76-4.8-2.1h-.1l.2,3.1v5.56h-4.16v-24.67ZM627.36,1180.92c0-3.52-1.24-5.59-4.1-5.59-1.34,0-2.75.63-4.19,2.12v7.94c1.3,1.17,2.78,1.59,3.84,1.59,2.51,0,4.45-2.06,4.45-6.07Z"/>
      <path class="cls-15" d="M630.72,1181.13c0-5.77,4.38-9.25,9.11-9.25,5.28,0,8.2,3.5,8.2,8.39,0,.83-.11,1.64-.18,2.09h-14.16v-2.94h11.47l-.8.92c0-3.49-1.64-5.27-4.41-5.27-2.92,0-5.17,2.1-5.17,6.05s2.48,6.07,6.15,6.07c1.85,0,3.37-.54,4.96-1.44l1.42,2.58c-1.89,1.23-4.33,2.09-6.92,2.09-5.41,0-9.67-3.41-9.67-9.29Z"/>
      <path class="cls-15" d="M647.29,1187.69l1.82-2.65c2.11,1.4,4.52,2.24,7.4,2.24,2.45,0,3.6-.93,3.6-2.1s-.78-1.81-4.89-2.66c-4.72-.99-6.81-2.66-6.81-5.35,0-3.07,2.8-5.28,7.75-5.28,2.93,0,5.61,1.15,7.4,2.34l-1.92,2.56c-1.71-1.1-3.75-1.77-5.85-1.77-2.29,0-3.24.88-3.24,1.96,0,1.25,1.3,1.68,4.61,2.4,5.65,1.25,7.12,2.75,7.12,5.56,0,3.04-2.93,5.5-8.3,5.5-3.3,0-6.48-1.25-8.67-2.74Z"/>
    </g>
    <g>
      <path class="cls-15" d="M447.45,1272.89h6.16c6.95,0,11.11,3.88,11.11,11.66s-4.17,11.88-10.89,11.88h-6.38v-23.53ZM453.36,1293.03c4.49,0,7.06-2.69,7.06-8.48s-2.57-8.26-7.06-8.26h-1.72v16.74h1.72Z"/>
      <path class="cls-15" d="M465.86,1278.74h3.43l.35,4.02h.1c1.8-2.88,4.48-4.45,7.52-4.45,1.43,0,2.39.22,3.44.72l-.88,3.52c-1.17-.37-1.86-.55-3.2-.55-2.42,0-4.79,1.24-6.6,4.67v9.75h-4.16v-17.68Z"/>
      <path class="cls-15" d="M480.28,1291.67c0-3.96,3.49-5.94,12.22-6.55-.15-1.98-1.33-3.47-4.21-3.47-1.99,0-3.96.87-5.78,1.88l-1.54-2.75c2.14-1.28,5.04-2.47,8.09-2.47,4.91,0,7.6,2.72,7.6,7.65v10.46h-3.42l-.32-2.19h-.12c-1.86,1.43-4.23,2.62-6.6,2.62-3.45,0-5.92-2.11-5.92-5.18ZM492.5,1291.44v-3.72c-6.35.42-8.18,1.72-8.18,3.63,0,1.56,1.38,2.23,3.13,2.23s3.42-.83,5.05-2.14Z"/>
      <path class="cls-15" d="M504.97,1282.04h-7.64v-3.3h11.8v17.68h-4.16v-14.38ZM503.82,1272.74c0-1.66,1.25-2.81,2.96-2.81s2.96,1.15,2.96,2.81-1.25,2.78-2.96,2.78-2.96-1.1-2.96-2.78Z"/>
      <path class="cls-15" d="M513.83,1278.74h3.4l.32,2.66h.14c1.69-1.71,3.68-3.09,6.38-3.09,4.09,0,5.93,2.61,5.93,7.16v10.95h-4.16v-10.41c0-2.84-.91-4.13-3.29-4.13-1.74,0-2.92.85-4.54,2.48v12.06h-4.16v-17.68Z"/>
      <path class="cls-15" d="M529.96,1291.67c0-3.96,3.49-5.94,12.22-6.55-.15-1.98-1.33-3.47-4.21-3.47-1.99,0-3.96.87-5.78,1.88l-1.54-2.75c2.14-1.28,5.04-2.47,8.09-2.47,4.91,0,7.6,2.72,7.6,7.65v10.46h-3.42l-.32-2.19h-.12c-1.86,1.43-4.23,2.62-6.6,2.62-3.45,0-5.92-2.11-5.92-5.18ZM542.18,1291.44v-3.72c-6.35.42-8.18,1.72-8.18,3.63,0,1.56,1.38,2.23,3.13,2.23s3.42-.83,5.05-2.14Z"/>
      <path class="cls-15" d="M546.21,1299.53c0-1.43.98-2.73,2.83-3.73v-.14c-.96-.56-1.8-1.47-1.8-2.96,0-1.16.81-2.43,2.11-3.32v-.14c-1.25-.89-2.27-2.47-2.27-4.56,0-4.05,3.39-6.37,7.27-6.37,1.03,0,1.95.14,2.76.43h7.25v3.17h-4.06c.59.68,1.12,1.77,1.12,2.92,0,3.93-3.11,6-7.07,6-.81,0-1.77-.16-2.7-.5-.71.46-1.08.95-1.08,1.66,0,1.16,1.13,1.67,3.33,1.67h3.61c4.59,0,6.96,1.23,6.96,4.32,0,3.5-3.96,6.28-10.19,6.28-4.87,0-8.08-1.57-8.08-4.71ZM560.48,1298.66c0-1.39-1.21-1.74-3.56-1.74h-2.83c-1.15,0-1.99-.07-2.69-.26-1.27.73-1.74,1.5-1.74,2.32,0,1.58,1.86,2.5,5.12,2.5,3.46,0,5.7-1.31,5.7-2.82ZM557.71,1284.68c0-2.16-1.51-3.5-3.36-3.5s-3.34,1.34-3.34,3.5,1.52,3.54,3.34,3.54,3.36-1.32,3.36-3.54Z"/>
      <path class="cls-15" d="M562.75,1287.56c0-5.77,4.38-9.25,9.11-9.25,5.28,0,8.2,3.5,8.2,8.39,0,.83-.11,1.64-.18,2.09h-14.16v-2.94h11.47l-.8.92c0-3.49-1.64-5.27-4.41-5.27-2.92,0-5.17,2.1-5.17,6.05s2.48,6.07,6.15,6.07c1.85,0,3.37-.54,4.96-1.44l1.42,2.58c-1.89,1.23-4.33,2.09-6.92,2.09-5.41,0-9.67-3.41-9.67-9.29Z"/>
      <path class="cls-15" d="M595.77,1293.41l2.43-2.88c1.79,1.61,4.1,2.68,6.57,2.68,2.74,0,4.19-1.21,4.19-2.85,0-2.1-1.61-2.66-3.91-3.63l-3.24-1.41c-2.47-.96-5.02-2.79-5.02-6.24,0-3.74,3.37-6.63,8.18-6.63,2.88,0,5.61,1.12,7.54,3l-2.14,2.66c-1.6-1.28-3.23-2.01-5.6-2.01-2.23,0-3.74,1-3.74,2.75,0,1.83,1.88,2.5,4.01,3.32l3.09,1.34c3,1.15,5.11,2.94,5.11,6.34,0,3.82-3.22,7.01-8.72,7.01-3.31,0-6.44-1.26-8.75-3.44Z"/>
      <path class="cls-15" d="M618.34,1289.99v-15.68h-5.9v-3.3h10.06v19.2c0,2.36,1.39,3.26,3.18,3.26.92,0,1.89-.21,3.02-.69l.97,3.08c-1.74.64-2.94,1-5.01,1-4.13,0-6.32-2.53-6.32-6.87Z"/>
      <path class="cls-15" d="M628.7,1287.61c0-5.91,4.22-9.29,8.88-9.29s8.88,3.39,8.88,9.29-4.22,9.25-8.88,9.25-8.88-3.39-8.88-9.25ZM642.19,1287.61c0-3.56-1.73-5.9-4.61-5.9s-4.62,2.34-4.62,5.9,1.73,5.85,4.62,5.85,4.61-2.32,4.61-5.85Z"/>
      <path class="cls-15" d="M646.31,1278.74h3.4l.32,2.02h.12c1.53-1.43,3.66-2.45,5.68-2.45,4.58,0,7.2,3.53,7.2,9.01,0,6.03-3.74,9.54-7.85,9.54-1.59,0-3.37-.76-4.8-2.1h-.1l.2,3.1v5.56h-4.16v-24.67ZM658.75,1287.34c0-3.52-1.24-5.59-4.1-5.59-1.34,0-2.75.63-4.19,2.12v7.94c1.3,1.17,2.78,1.59,3.84,1.59,2.51,0,4.45-2.06,4.45-6.07Z"/>
      <path class="cls-15" d="M662.11,1287.56c0-5.77,4.38-9.25,9.11-9.25,5.28,0,8.2,3.5,8.2,8.39,0,.83-.11,1.64-.18,2.09h-14.16v-2.94h11.47l-.8.92c0-3.49-1.64-5.27-4.41-5.27-2.92,0-5.17,2.1-5.17,6.05s2.48,6.07,6.15,6.07c1.85,0,3.37-.54,4.96-1.44l1.42,2.58c-1.89,1.23-4.33,2.09-6.92,2.09-5.41,0-9.67-3.41-9.67-9.29Z"/>
      <path class="cls-15" d="M678.69,1294.12l1.82-2.65c2.11,1.4,4.52,2.24,7.4,2.24,2.45,0,3.6-.93,3.6-2.1s-.78-1.81-4.89-2.66c-4.72-.99-6.81-2.66-6.81-5.35,0-3.07,2.8-5.28,7.75-5.28,2.93,0,5.61,1.15,7.4,2.34l-1.92,2.56c-1.71-1.1-3.75-1.77-5.85-1.77-2.29,0-3.24.88-3.24,1.96,0,1.25,1.3,1.68,4.61,2.4,5.65,1.25,7.12,2.75,7.12,5.56,0,3.04-2.93,5.5-8.3,5.5-3.3,0-6.48-1.25-8.67-2.74Z"/>
    </g>
    <g>
      <path class="cls-15" d="M444.8,1405.81l2.43-2.88c1.79,1.61,4.1,2.68,6.57,2.68,2.74,0,4.19-1.21,4.19-2.85,0-2.1-1.61-2.66-3.91-3.63l-3.24-1.41c-2.47-.96-5.02-2.79-5.02-6.24,0-3.74,3.37-6.63,8.18-6.63,2.88,0,5.61,1.12,7.54,3l-2.14,2.66c-1.6-1.28-3.23-2.01-5.6-2.01-2.23,0-3.74,1-3.74,2.75,0,1.83,1.88,2.5,4.01,3.32l3.09,1.34c3,1.15,5.11,2.94,5.11,6.34,0,3.82-3.22,7.01-8.72,7.01-3.31,0-6.44-1.26-8.75-3.44Z"/>
      <path class="cls-15" d="M461.46,1399.95c0-5.77,4.38-9.25,9.11-9.25,5.28,0,8.2,3.5,8.2,8.39,0,.83-.11,1.64-.18,2.09h-14.16v-2.94h11.47l-.8.92c0-3.49-1.64-5.27-4.41-5.27-2.92,0-5.17,2.1-5.17,6.05s2.48,6.07,6.15,6.07c1.85,0,3.37-.54,4.96-1.44l1.42,2.58c-1.89,1.23-4.33,2.09-6.93,2.09-5.41,0-9.67-3.41-9.67-9.29Z"/>
      <path class="cls-15" d="M480.49,1391.14h3.43l.35,4.02h.1c1.8-2.88,4.48-4.45,7.52-4.45,1.43,0,2.39.22,3.44.72l-.88,3.52c-1.17-.37-1.86-.55-3.2-.55-2.42,0-4.79,1.24-6.6,4.67v9.75h-4.16v-17.68Z"/>
      <path class="cls-15" d="M493.83,1391.14h4.21l3.41,9.15c.63,1.78,1.2,3.56,1.77,5.34h.14c.57-1.78,1.09-3.56,1.75-5.34l3.41-9.15h3.99l-6.9,17.68h-4.74l-7.05-17.68Z"/>
      <path class="cls-15" d="M519.6,1394.43h-7.64v-3.3h11.8v17.68h-4.16v-14.38ZM518.45,1385.13c0-1.66,1.25-2.81,2.96-2.81s2.96,1.15,2.96,2.81-1.25,2.78-2.96,2.78-2.96-1.1-2.96-2.78Z"/>
      <path class="cls-15" d="M528.13,1400c0-5.91,4.65-9.29,10.05-9.29,2.83,0,5.06,1.07,6.53,2.49l-1.96,2.61c-1.4-1.11-2.78-1.7-4.36-1.7-3.54,0-5.98,2.34-5.98,5.9s2.41,5.85,5.86,5.85c2.01,0,3.68-.89,5.04-1.95l1.74,2.66c-2.05,1.77-4.63,2.68-7.15,2.68-5.55,0-9.76-3.39-9.76-9.25Z"/>
      <path class="cls-15" d="M544.26,1399.95c0-5.77,4.38-9.25,9.11-9.25,5.28,0,8.2,3.5,8.2,8.39,0,.83-.11,1.64-.18,2.09h-14.16v-2.94h11.47l-.8.92c0-3.49-1.64-5.27-4.41-5.27-2.92,0-5.17,2.1-5.17,6.05s2.48,6.07,6.15,6.07c1.85,0,3.37-.54,4.96-1.44l1.42,2.58c-1.89,1.23-4.33,2.09-6.93,2.09-5.41,0-9.67-3.41-9.67-9.29Z"/>
      <path class="cls-15" d="M577.31,1397.11c0-7.69,4.68-12.26,10.9-12.26,2.91,0,5.25,1.39,6.74,2.93l-2.34,2.61c-1.17-1.16-2.57-1.9-4.41-1.9-3.9,0-6.59,3.23-6.59,8.5s2.69,8.62,6.7,8.62c1.92,0,3.45-.88,4.75-2.33l2.34,2.54c-1.88,2.21-4.36,3.43-7.51,3.43-5.83,0-10.58-4.32-10.58-12.13Z"/>
      <path class="cls-15" d="M593.65,1400c0-5.91,4.22-9.29,8.88-9.29s8.88,3.39,8.88,9.29-4.22,9.25-8.88,9.25-8.88-3.39-8.88-9.25ZM607.14,1400c0-3.56-1.73-5.9-4.61-5.9s-4.62,2.34-4.62,5.9,1.73,5.85,4.62,5.85,4.61-2.32,4.61-5.85Z"/>
      <path class="cls-15" d="M611.25,1391.14h3.4l.32,2.66h.14c1.69-1.71,3.68-3.09,6.38-3.09,4.09,0,5.93,2.61,5.93,7.16v10.95h-4.16v-10.41c0-2.84-.91-4.13-3.29-4.13-1.74,0-2.92.85-4.54,2.48v12.06h-4.16v-17.68Z"/>
      <path class="cls-15" d="M627.81,1391.14h3.4l.32,2.66h.14c1.69-1.71,3.68-3.09,6.38-3.09,4.09,0,5.93,2.61,5.93,7.16v10.95h-4.16v-10.41c0-2.84-.91-4.13-3.29-4.13-1.74,0-2.92.85-4.54,2.48v12.06h-4.16v-17.68Z"/>
      <path class="cls-15" d="M643.62,1399.95c0-5.77,4.38-9.25,9.11-9.25,5.28,0,8.2,3.5,8.2,8.39,0,.83-.11,1.64-.18,2.09h-14.16v-2.94h11.47l-.8.92c0-3.49-1.64-5.27-4.41-5.27-2.92,0-5.17,2.1-5.17,6.05s2.48,6.07,6.15,6.07c1.85,0,3.37-.54,4.96-1.44l1.42,2.58c-1.89,1.23-4.33,2.09-6.93,2.09-5.41,0-9.67-3.41-9.67-9.29Z"/>
      <path class="cls-15" d="M660.61,1400c0-5.91,4.65-9.29,10.05-9.29,2.83,0,5.06,1.07,6.53,2.49l-1.96,2.61c-1.4-1.11-2.78-1.7-4.36-1.7-3.54,0-5.98,2.34-5.98,5.9s2.41,5.85,5.86,5.85c2.01,0,3.68-.89,5.04-1.95l1.74,2.66c-2.05,1.77-4.63,2.68-7.15,2.68-5.55,0-9.76-3.39-9.76-9.25Z"/>
      <path class="cls-15" d="M681.36,1401.71v-7.27h-4.73v-3.1l4.9-.19.54-5.54h3.45v5.54h8.04v3.3h-8.04v7.26c0,2.92,1.1,4.24,4.08,4.24,1.47,0,2.69-.3,3.85-.71l.81,3.03c-1.58.52-3.37,1-5.66,1-5.4,0-7.24-3.03-7.24-7.54Z"/>
      <path class="cls-15" d="M701.75,1394.43h-7.64v-3.3h11.8v17.68h-4.16v-14.38ZM700.61,1385.13c0-1.66,1.25-2.81,2.96-2.81s2.96,1.15,2.96,2.81-1.25,2.78-2.96,2.78-2.96-1.1-2.96-2.78Z"/>
      <path class="cls-15" d="M709.57,1400c0-5.91,4.22-9.29,8.88-9.29s8.88,3.39,8.88,9.29-4.22,9.25-8.88,9.25-8.88-3.39-8.88-9.25ZM723.06,1400c0-3.56-1.73-5.9-4.61-5.9s-4.62,2.34-4.62,5.9,1.73,5.85,4.62,5.85,4.61-2.32,4.61-5.85Z"/>
      <path class="cls-15" d="M727.17,1391.14h3.4l.32,2.66h.14c1.69-1.71,3.68-3.09,6.38-3.09,4.09,0,5.93,2.61,5.93,7.16v10.95h-4.16v-10.41c0-2.84-.91-4.13-3.29-4.13-1.74,0-2.92.85-4.54,2.48v12.06h-4.16v-17.68Z"/>
      <path class="cls-15" d="M742.99,1406.51l1.82-2.65c2.11,1.4,4.52,2.24,7.4,2.24,2.45,0,3.6-.93,3.6-2.1s-.78-1.81-4.89-2.66c-4.72-.99-6.81-2.66-6.81-5.35,0-3.07,2.8-5.28,7.75-5.28,2.93,0,5.61,1.15,7.4,2.34l-1.92,2.56c-1.71-1.1-3.75-1.77-5.85-1.77-2.29,0-3.24.88-3.24,1.96,0,1.25,1.3,1.68,4.61,2.4,5.65,1.25,7.12,2.75,7.12,5.56,0,3.04-2.93,5.5-8.3,5.5-3.3,0-6.48-1.25-8.67-2.74Z"/>
    </g>
  </g>
</svg>