<?xml version="1.0" encoding="UTF-8"?>
<svg id="scaleBar" xmlns="http://www.w3.org/2000/svg" viewBox="0 0 4032 3097.57">
  <defs>
    <style>
      .cls-1, .cls-2 {
        fill: #1a1a1a;
        font-family: Garamond, Garamond;
        font-size: 60px;
      }

      .cls-3 {
        fill: none;
        stroke: #1a1a1a;
        stroke-miterlimit: 10;
        stroke-width: 5px;
      }

      .cls-2 {
        letter-spacing: -.02em;
      }
    </style>
  </defs>
  <line class="cls-3" x1="273.32" y1="2901.69" x2="1122.3" y2="2901.62"/>
  <line class="cls-3" x1="273.32" y1="2851.87" x2="273.33" y2="2949.42"/>
  <line class="cls-3" x1="1122.28" y1="2851.87" x2="1122.29" y2="2949.42"/>
  <line class="cls-3" x1="697.81" y1="2851.87" x2="697.81" y2="2949.42"/>
  <line class="cls-3" x1="485.56" y1="2876.26" x2="485.56" y2="2925.04"/>
  <line class="cls-3" x1="378.25" y1="2876.26" x2="378.25" y2="2925.04"/>
  <line class="cls-3" x1="591.69" y1="2876.26" x2="591.69" y2="2925.04"/>
  <line class="cls-3" x1="910.05" y1="2876.26" x2="910.05" y2="2925.04"/>
  <line class="cls-3" x1="802.74" y1="2876.26" x2="802.74" y2="2925.04"/>
  <line class="cls-3" x1="1016.18" y1="2876.26" x2="1016.18" y2="2925.04"/>
  <text class="cls-1" transform="translate(684.52 2840.67)"><tspan x="0" y="0">8</tspan></text>
  <text class="cls-2" transform="translate(1084.55 2840.67)"><tspan x="0" y="0">16 miles</tspan></text>
  <text class="cls-1" transform="translate(363.61 2870.93)"><tspan x="0" y="0">2</tspan></text>
  <text class="cls-1" transform="translate(468.81 2870.93)"><tspan x="0" y="0">4</tspan></text>
  <text class="cls-1" transform="translate(884.05 2870.93)"><tspan x="0" y="0">12</tspan></text>
</svg>