<?xml version="1.0" encoding="UTF-8"?>
<svg id="tiers" xmlns="http://www.w3.org/2000/svg" viewBox="0 0 4032 3097.57">
  <defs>
    <style>
      .cls-1 {
        fill: #666;
      }

      .cls-2 {
        opacity: .42;
      }

      .cls-3 {
        fill: #999;
      }

      .cls-4 {
        fill: #ccc;
      }

      .cls-5 {
        fill: #b3b3b3;
      }

      .cls-6 {
        fill: gray;
      }

      .cls-7 {
        fill: #e6e6e6;
      }
    </style>
  </defs>
  <g id="tiers-2" data-name="tiers" class="cls-2">
    <path id="coastline" class="cls-1" d="M3719.39,1612.84c-.72,32.2,1.69,32.68.66,72.66-.83,31.83-3.01,56.99-4.63,75.3-2.91,32.9-6.18,57.61-8.59,75.64-9.61,71.97-13.46,72.49-15.19,108.66-.79,16.56-.59,29.22-3.3,52.18-2.59,21.88-6.09,38.51-8.59,50.2-7.17,33.6-15.3,58.52-17.83,66.13-3.03,9.09-10.7,31.35-23.12,58.72-3.06,6.73-7.99,16.6-17.84,36.33-13.74,27.53-17.21,33.44-21.79,39.96-9.95,14.13-11.81,12.16-23.78,27.41-15.84,20.19-13.96,25.41-31.05,49.54-11.83,16.72-18.52,25.96-31.05,34.35-4.14,2.78-12.48,7.84-36.99,14.53-14.81,4.05-34.08,9.32-60.77,11.23-48.99,3.52-90.92-6.56-103.7-9.9-14.73-3.86-23.23-7.29-39.64-8.59-22.43-1.79-29.02,2.83-45.58-.66-20.29-4.28-22.95-13.88-39.63-20.48-25.21-9.98-50.44-.43-81.25,11.23-42.95,16.26-71.92,39.29-82.56,48.22-37.68,31.62-33.69,44.45-85.22,92.81-9.16,8.6-17.34,15.76-26.42,28.73-15.18,21.71-14.89,34.02-28.4,60.11-7.95,15.36-10.16,15.16-31.05,45.58-24.26,35.33-27.81,45.1-41.61,65.39-15.77,23.2-33.42,40.79-68.7,75.97-77.37,77.14-83.27,64.72-125.5,105.02-5.93,5.66-17.6,17.15-34.35,18.5-11.59.93-15.25-3.83-27.75-3.96-17.7-.2-22.39,9.22-41.61,15.85-28.01,9.67-55.43,2.58-65.39,0-24.01-6.21-26.35-14.72-44.26-14.53-19.08.2-20.13,9.89-40.3,12.55-13.83,1.82-21.62-1.65-66.05-16.52-26.21-8.77-39.31-13.15-42.28-13.87-41.76-10.12-77.92-2.49-95.11,1.32-20.99,4.66-27.15,8.94-77.29,31.05-77.27,34.07-73.62,28.73-105.69,44.92-63.91,32.26-60.31,44.33-103.7,62.75-58.6,24.87-112.03,22.77-131.45,21.8-85.31-4.27-146.25-43.33-171.75-60.11-57.84-38.08-48.12-54.77-114.93-95.78-34.46-21.15-53.23-26.65-97.1-56.81-12.85-8.83-26.35-18.74-48.22-29.72-27.86-13.99-32.54-11.24-54.83-23.12-10.88-5.8-36.99-20.03-59.45-46.9-20.07-24.03-14.41-30.85-35.01-53.51-13.58-14.93-18.03-14.16-46.9-37.65-30.31-24.67-30.96-30.05-51.52-46.24-11.84-9.31-37.54-29.54-72-40.95-45.97-15.23-86.98-7.98-120.88-1.98-47.98,8.48-44.14,17.75-88.51,23.12-8.8,1.06-8.94.7-70.63.21-8.48-.07-18.13-.14-29.12-.21-23.01-.14-35.54-.18-45-1.29-6.32-.74-11.28-1.96-17.09-4-9.07-3.19-17.06-7.29-24.07-11.76-14.9-9.47-25.32-20.56-32.08-27.87-21.93-23.75-32.82-49.05-38.31-62.09-8.64-20.53-10.14-32.31-21.81-52.77-.62-1.1-1.28-2.22-1.97-3.38-8.66-14.5-12.23-16.41-19.15-27.08-6.95-10.72-13.73-24.81-23.12-84.55-7.34-46.65-11.01-69.97-9.91-90.5,1.34-25.15,5.38-32.77,6.6-68.7.93-27.3-1.14-30.52,0-48.88,1.98-31.68,9.87-49.3,18.5-77.94,9.53-31.61,13.4-55.86,21.14-104.37,11.61-72.79,6.63-89.05,24.44-118.9,5.93-9.95,19.31-32.37,45.58-47.56,31.51-18.22,47.54-6.36,97.76-23.12,33.02-11.01,56.28-26.21,63.41-31.04,38.28-25.94,34.85-39.67,68.7-60.11,22.33-13.49,42.34-18.69,74.64-27.08,22.62-5.88,40.86-10.63,66.05-11.72,36.5-1.59,43.24,6.41,67.38,0,26.44-7.02,43.41-23.25,50.2-29.9,10.93-10.7,22.58-26.1,34.35-58.79,17.12-47.56,18.64-87.69,19.82-127.15.94-31.62,1.8-67.64-7.27-113.29-5.47-27.53-10.08-50.75-21.14-79.93-8.08-21.32-15.86-35.96-18.49-61.43-1.3-12.58-.26-17.3-3.3-29.06-5.28-20.37-13.21-24.79-19.82-43.6-5.87-16.7-2.42-21.22-5.95-42.27-4.19-25.07-12.19-37.2-19.81-56.15-6.84-17.01-34.7-86.29-9.25-138.71,7.32-15.09,13.68-17.7,27.08-44.92,4.86-9.86,12.93-26.47,19.16-48.88,10.94-39.4,4.02-52.99,19.15-77.29,4.98-7.99,10.69-16.9,21.8-21.8,22.19-9.78,46.31,5.06,50.2,7.53,9.55-.68,19.63-3.33,26.43-10.83,7.2-7.95,5.49-15.56,12.66-25.1,5.56-7.39,12.93-11.26,25.32-15.85,31.98-11.85,58.46-14.53,58.46-14.53,57.16-5.79,48.83-10.72,96.44-14.54,22.2-1.78,34.83-1.57,100.4,0,77.87,1.88,117.43,2.84,147.96,3.97,101.62,3.75,115.62,6.07,125.51,7.92,36.07,6.78,41.34,11.97,92.48,21.14,33.35,5.98,46.26,6.49,72.66,14.53,23.34,7.11,42.39,12.92,64.07,27.75,10.62,7.26,35.94,24.58,55,55.48,8.22,13.33,9.52,19.84,18.98,27.09,13.12,10.04,23.76,7.58,50.86,11.89,31.02,4.93,27.96,9.88,64.08,16.51,18.91,3.47,18.35,1.86,52.84,6.6,35.21,4.85,35.43,6.48,58.13,9.25,25.77,3.15,26.02,1.11,77.28,3.97,46.23,2.57,49.73,4.44,68.04,2.76,16.74-1.54,29.89-4.83,55.49-11.35,19.29-4.92,40.05-10.8,70.02-20.48,54.18-17.5,95.09-33.38,107.67-38.31,33.01-12.95,31.76-13.53,68.03-27.74,33.49-13.12,54.23-21.25,82.57-30.39,11.52-3.71,50.2-15.95,102.39-27.08,35.01-7.47,61.13-11.24,83.89-14.53,33.3-4.82,56.77-8.14,89.17-9.25,34.3-1.18,54.3.95,62.75,1.98,10.1,1.24,25.16,3.53,47.56,9.25,37.2,9.49,78,19.9,124.19,48.22,10.23,6.27,38.15,24.11,68.03,54.16,20.09,20.21,37.21,37.42,50.86,65.52,16,32.91,18.92,63.62,20.48,81.79,3.47,40.24-4.82,49.29,3.97,78.6,1.65,5.53,8.96,28.59,28.4,51.52,6.11,7.22,16.07,17.54,66.05,47.56,46.22,27.77,47.07,24.57,62.76,36.99,30.84,24.44,47.04,52.25,54.16,64.74,12.94,22.69,19.59,49.34,32.37,101.72,5.81,23.81,14.18,60.44,22.46,107.67,5.46,31.14,10.65,61.14,14.53,101.73,3.17,33.19,5.3,55.38,4.62,85.87-1.09,49.23-8.04,53.21-9.24,107.67Z"/>
    <path id="big" class="cls-6" d="M1184.19,1368.77c-2.73,5.54-6.32,14.66-6.49,26.09-.09,5.93.71,14.43,11.12,39.63,9.57,23.17,10.32,19.42,12.55,27.74,4.43,16.5-1,21.95-5.28,62.75-2.49,23.71-1.05,25.62-4.7,33.03-3.9,7.92-7.01,8.71-29.65,31.05-15.26,15.06-16.22,17.04-23.12,21.8-10.62,7.32-12.25,5.32-27.08,13.87-13.56,7.82-14.34,10.73-31.05,21.14-11.7,7.29-17.54,10.93-22.46,12.55-17.05,5.63-23.23-1.5-51.52,0-12.46.66-22.01,2.61-30.39,4.32-16.5,3.37-25.26,5.15-35.67,10.22-5.56,2.7-25.24,12.27-38.31,33.03-9.45,15.01-7.47,23.21-17.83,29.72-7.37,4.64-10.38,1.75-25.1,7.27-2.68,1-13.11,5.05-24.44,13.21-10.22,7.37-10.01,10.04-23.12,21.14-5.26,4.45-13.1,10.63-22.46,16.51-16.2,10.19-21.73,9.92-32.37,16.51-11.55,7.16-17.56,15.23-29.06,31.05-11.32,15.56-29,40.29-40.95,77.94-4.61,14.53-10.51,33.64-10.57,59.45-.02,7.39.02,19.07,3.3,33.69,1.32,5.91,8.11,34.29,32.37,63.41,17.63,21.16,24.71,18.98,38.97,40.29,11.9,17.78,16.75,33.91,17.83,37.65,5.88,20.34,2.67,28.47,5.94,54.83,1.6,12.86,3.84,30.91,10.57,47.56,16.78,41.51,56.57,62.12,66.72,67.38,23.29,12.07,50.24,18.49,77.94,25.1,9.88,2.36,24.02,5.4,41.61,13.87,12.44,5.99,21.36,12.41,31.71,19.82,15.64,11.19,18.09,14.87,38.97,31.56,19.07,15.24,28.6,22.86,38.31,27.89,10.79,5.6,26.86,11.88,48.88,13.87,12.28-2.44,32.5-4.84,56.48,0,4.47.9,24.85,5.24,50.53,20.81,6.37,3.86,33.39,20.74,62.42,58.46,27.27,35.44,25.25,48.89,56.48,84.22,13.58,15.36,23.78,23.93,35.67,30.72,20.41,11.65,25.47,6.47,43.6,16.84,24.59,14.07,38.26,36.74,46.57,50.53,9.29,15.42,7.27,17.44,17.83,33.69,4.94,7.59,14.04,21.4,29.72,35.67,10.8,9.82,23.33,21.23,42.61,27.74,16.31,5.51,19.25,1.38,41.79,5.94,21.99,4.45,20.15,8.58,50.35,17.83,22.83,6.99,40.09,12.28,62.42,11.89,6.96-.12,13.34-.78,24.77,0,18.86,1.28,22.36,4.49,32.7,4.95,5.38.24,10.54-.35,51.52-19.82,29.75-14.13,34.87-17.54,40.29-23.78,10.58-12.16,6.72-17.17,15.19-25.76,3.35-3.4,15.61-14.43,69.36-10.9,46.18,3.04,43.99,11.63,61.43,6.94,19.88-5.36,31.49-18.89,63.41-33.69,3.7-1.72,11.3-5.13,21.8-6.94,8.45-1.45,14.91-1.2,20.81-.99,20.51.72,31.65,1.11,39.63.99,25.45-.39,44.74-6.42,51.19-8.59,12.52-4.22,22.36-9.3,29.06-13.21,1.82-2.04,4.74-4.71,8.92-5.94,8.94-2.65,17.64,3.01,22.79,5.94,4.18,2.38,17.65,5.88,44.59,12.88,8.74,2.27,22.34,4.49,49.54,8.92,28.59,4.66,43.06,6.98,51.52,6.94,17.61-.1,31.18-3.01,49.54-6.94,18.65-3.99,27.97-5.99,38.64-10.74,10.67-4.76,31.83-14.52,46.57-36.82,10.32-15.61,13.3-31.04,14.86-39.53,4.43-24.14-2.15-30.52,4.95-50.64,3.34-9.45,8.46-23.97,20.81-28.73,8.4-3.24,14.1.37,21.8-4.95,6.91-4.78,6-10.23,11.89-15.85,7.26-6.93,15.84-5.51,28.73-6.94,4.41-.49,49.25-5.46,58.46-27.74,3.25-7.86,1.01-15.32,7.93-21.43,4.3-3.8,8.19-3.57,12.88-5.32,12.8-4.77,14.99-18.03,24.77-34.68,4.69-7.98,16.3-27.77,36.66-38.64,11.25-6.01,12.81-2.7,38.64-11.89,16.2-5.77,24.31-8.65,31.71-13.87,20.37-14.37,28.52-35.32,30.72-41.61,4.83-13.82,1.17-14.89,5.94-25.76,8.58-19.53,26.25-29.41,35.67-34.68,17.86-9.99,33.92-12.48,49.23-14.86,31.71-4.93,37.5,1.59,53.82-6.94,13.58-7.09,12.99-13.39,29.72-20.81,7.68-3.4,8.42-2.35,32.04-8.92,17.38-4.84,17.83-5.64,31.71-9.25,15.11-3.92,22.67-5.89,31.71-6.61,7.97-.64,20.18-.7,35.34,2.97,18.82,11.42,35.97,17.95,48.55,21.8,13.27,4.06,31.34,9.43,55.49,8.92,19.13-.4,32.85-.69,47.56-8.92,15.06-8.42,18.51-18.1,34.68-21.8,11.71-2.68,12.47,1.8,24.77,0,17.52-2.56,21.37-12.44,49.54-28.73,19.31-11.16,18.67-7.2,26.75-13.87,13.22-10.91,18.06-24.45,27.74-51.52,8.5-23.78,12.76-35.68,11.89-48.55-.71-10.5-3.54-18.03,0-29.72,2.53-8.36,5.36-9.05,10.9-20.81,6.61-14.01,5.39-18.98,9.91-29.93,5.87-14.24,12.38-16.68,21.8-29.52,16.56-22.56,19.87-46.94,22.79-68.37,1.94-14.29,3.82-28.11,0-45.58-2.58-11.77-5.31-14.09-6.94-23.78-2.58-15.38,1.48-26.45,8.92-48.55,18.93-56.19,9.31-33.87,22.79-72.68,5.22-15.02,9.38-26.22,8.92-42.26-.35-11.96-3.12-21.56-4.95-27.74-5.63-19.02-12.01-26-17.83-38.64-6.79-14.75-7.83-38.9-9.91-87.19-1.25-29.08-.25-28.95-1.98-37.32-6.31-30.51-20.92-38.74-32.7-62.75-20.08-40.94-12.03-87.27-8.26-108.99,5.93-34.15,17.5-50.71,7.93-75.3-5.33-13.69-14.55-23.04-21.14-29.72-9.19-9.32-27.97-28.37-52.84-33.03-4.36-.82-11.82-1.74-19.16-7.27-3.14-2.37-6.58-5.82-11.89-15.19-8.4-14.82-7.04-18.94-13.21-30.39-6.76-12.54-15.27-20.34-19.82-24.44-9.79-8.83-19.51-14.09-26.42-17.17-12.29-9.17-28.37-23.8-41.61-45.58-5.07-8.33-18.4-31.99-22.46-65.39-3.73-30.71,5.04-31.3,0-55.49-1.1-5.3-10.72-48.49-44.92-66.72-13.02-6.94-15.49-2.74-27.74-10.57-20.79-13.29-29.79-35.66-34.57-47.56-9.06-22.53-5.24-29.91-16.29-44.92-4.26-5.79-6.66-7.17-21.8-19.82-36.11-30.16-34.23-32.09-48.22-40.95-7.85-4.97-23.46-14.68-46.24-19.82-9.1-2.05-32.73-7.12-60.11,0-14.75,3.83-13.01,6.64-31.71,11.89-18.48,5.19-32.07,9.01-48.22,5.94-18.39-3.49-22.15-12.51-38.31-11.23-9.98.79-17.19,4.92-22.46,7.93-18.57,10.62-27.85,27.42-30.39,32.37-8.38,16.35-5.48,24.62-14.53,30.39-4.52,2.88-10.06,3.24-21.14,3.96-16.52,1.08-18.53-2.14-27.08.66-4.33,1.42-9.27,5.07-19.16,12.39-6.13,4.54-11.08,8.52-14.53,11.39-4.33,4-11.12,9.33-20.48,13.21-6.53,2.71-12.47,3.95-30.39,5.28-19.33,1.45-28.59,1.21-50.86,2.85-11.96.88-18.1,1.6-25.76,4.41-7.33,2.69-10.19,5.15-20.48,11.23,0,0-13.1,7.75-31.71,16.51-17.31,8.16-25.97,12.24-35.01,13.87-16.88,3.05-34.11.98-42.28,0-2.47-.3-6.9-.89-11.22-1.53-12.01-1.76-20.42-3.39-22.47-3.76-15.61-2.8-33.74,1.25-42.94,3.3-32.81,7.32-34.88,18.24-70.68,26.42-12.96,2.96-22.49,3.77-29.72,3.96-4.93.13-18.8.24-34.35-3.3-28.37-6.46-31.37-18.01-72-35.01-19.7-8.24-28.43-9.48-35.67-9.57-16.57-.21-20.75,5.62-36.33,8.25-25.31,4.26-46.97-5.63-69.36-15.85-23.39-10.68-41.61-24.41-44.26-26.42-8.73-6.65-26.25-21-48.22-30.39-5.55-2.37-14.58-2.21-18.5-2.64-14.08-1.56-21.18-1.32-31.05-1.98-6.39-.43-16.01-2.13-35.01-5.28-11.27-1.87-20.6-3.48-27.08-4.62-20.63-6.35-33.99-15.47-42.28-22.46-15.6-13.16-18.05-22.84-34.35-30.39-15.19-7.03-29.58-6.26-34.35-5.94-17.64,1.15-20.5,7.82-36.33,11.23-4.93,1.06-16.03,2.86-64.73-11.39-32.68-9.56-28.94-10.74-46.9-15.03-36.53-8.72-38.01-.5-68.04-9.25-15.96-4.65-37.19-10.83-56.81-21.8-.47-.26-9.76-5.46-23.12-8.59-9.77-2.29-17.39-3.96-23.12,0-6.09,4.21-3.83,10.47-10.57,16.51-6.68,5.99-15.7,5.95-17.17,5.94-14.24-.06-16.27-12.41-35.01-20.48-15.18-6.53-29.31-5.09-36.33-4.37-9.51.97-18.7,1.92-27.08,8.99-1.31,1.1-10.1,8.74-12.55,21.14-1.69,8.59,1.39,10.67,0,22.46-.84,7.1-1.61,13.67-5.94,18.5-3.65,4.07-9.11,6.09-25.76,6.61-17.41.54-25.52-1.24-46.24-1.98-20.48-.73-26.26.51-31.05,4.62-4.59,3.95-8.15,10.45-8.59,17.17-.39,6.03,2.08,6.79,3.3,14.53.63,4.02.12,4.8-3.3,27.74-1.23,8.22-2.01,13.8-2.64,18.5-.57,4.25-1.02,7.76-1.32,10.12-4.25,2.64-11.18,7.86-15.19,16.72-1.27,2.79-5,12.04,0,33.27,2.76,11.75,5.68,16.45,15.19,37.76,9.19,20.58,13.79,30.87,16.51,40.19,2.44,8.33,6.77,23.53,6.61,42.94-.14,16.24-3.36,27.87-8.59,46.24-8.58,30.14-14.15,33.12-17.17,54.17-1.19,8.24-3.01,21.69,0,38.31,2.2,12.15,5.62,18.42,25.77,58.79,9.44,18.92,14.17,28.4,14.53,29.72,5.6,20.69,4.92,51.8-11.89,74.64-7.86,10.68-14.85,13.58-21.87,28.4-.92,1.93-5.5,11.81-7.86,25.76-2.21,13.1-.51,18.17-2.64,33.03-1.31,9.13-3.28,16.38-4.62,20.81Z"/>
    <path id="old" class="cls-3" d="M3359.72,1476.77c4.13-12.64,7.63-30.72,0-47.56-4.63-10.23-11.14-15.07-19.13-22.79-5.89-5.69-31.62-30.54-41.31-58.46-5.61-16.16-3.74-38.85,0-84.22,1.99-24.11,3.51-26.72.99-34.68-5.06-16.01-16.55-22.3-51.52-51.52-17.69-14.78-26.54-22.18-30.72-26.75-11.67-12.78-33.61-36.81-36.66-69.36-2.24-23.94,7.74-31.22,0-46.12-2-3.85-5.47-8.76-35.82-26.21-33.8-19.42-39.02-18.8-46.42-28.73-6.88-9.23-9.21-20.03-13.87-41.61-4.92-22.8-3.26-31.53-10.9-39.63-8.23-8.73-21.05-10.12-30.72-9.91-11.9-8.73-20.82-9.67-26.75-8.92-7.04.89-9.07,4.05-27.74,12.88-9.54,4.51-14.3,6.77-18.83,7.93-10.6,2.72-14.66.56-33.69,0-15.9-.46-24.59-.72-35.67,2.14-14.37,3.71-23.84,10.35-25.76,11.73-13.12,9.41-15.11,17.9-23.78,27.74-11.04,12.54-23.65,16.76-47.56,24.77-30.76,10.3-59.18,12.05-74.31,12.88-22.5,1.24-30.75-.55-46.57,4.95-14.4,5.01-14.29,8.84-33.69,18.83-19.04,9.8-37.38,19.25-60.44,18.83-15.83-.29-31.57-5.18-43.6-8.92-15.05-4.68-17.29-7.15-26.75-7.93-6.87-.57-11.27.28-39.63,7.93-26.32,7.09-28.56,7.99-35.67,8.93-5.43.72-19.92,2.55-34.68,0-19.24-3.32-22.13-11.19-51.52-27.76-38.35-21.61-43.7-14-61.1-30.72-10.55-10.14-15.5-19.58-30.06-24.77-6.11-2.18-13.07-2.47-26.75-2.97-12.26-.45-19.53-.06-43.6.99-33.35,1.46-34.94,1.39-39.78,2.97-15.62,5.09-17.36,11.71-32.55,17.83-9.5,3.83-22.76,6.87-40.62,4.95-7.19-.18-18.18-1.37-29.72-6.94-24.7-11.91-26.49-31.61-50.53-48.55-16.99-11.98-34.05-14.78-46.57-16.84-23.19-3.82-42.15-.56-74.31,4.95-33.62,5.77-33.54,9.19-43.6,6.94-19.15-4.29-21.75-17.21-57.47-44.59-16.42-12.59-24.63-18.88-35.67-22.79-24.07-8.52-30.29,1.47-60.53-4.95-27.24-5.79-49-19.59-52.42-21.8-15.59-10.06-16.69-14.84-28.73-18.83-4.85-1.61-13.59-3.79-45.58,0-24.33,2.88-36.49,4.32-40.62,6.94-17.8,11.26-10.88,29.4-30.72,78.51-10.39,25.72-15.58,38.58-26.75,51.28-11.51,13.09-21.96,18.81-26.75,33.69-4.13,12.82-1.73,25.19.99,33.69,3.83,17.56,9.3,31.35,13.87,41.07,7.1,15.1,15.11,26.89,20.81,35.22,9.18,13.41,9.36,11.47,12.88,17.83,9.53,17.23,9.73,34.24,9.91,49.54.14,11.74.3,25.28-4.96,41.61-5.98,18.61-13,22.23-23.77,43.6,0,0-10.13,20.09-15.86,44.59-7.55,32.26,2.34,40.76,2.97,84.22.48,32.95,1.07,73.59-22.79,108-11.1,16-17.59,16.4-25.76,33.69-12.18,25.78-11.4,53.82-10.9,67.07.75,19.91,3.83,18.71,2.97,33.5-.52,8.98-2.2,32.53-18.83,54.99-10.14,13.7-17.05,14.87-25.76,23.78-33.01,33.75-18.04,104.56-4.95,166.46,2.49,11.77,5.46,23.74,12.88,58.46,4.76,22.3,8.49,40.57,10.9,52.51,17.4,38.28,22.44,70.05,23.78,92.15,1.27,20.93-.72,33.98,0,101.06.22,21.01.6,36.85,8.92,55.49,3.38,7.58,11.86,25.96,31.71,39.63,18.08,12.46,36.49,14.73,46.57,15.85,19.83,2.21,21.22-2.8,33.69,0,26.51,5.94,42.05,33.5,50.53,48.55,16.99,30.14,8.19,37.33,23.78,59.45,15.5,21.99,36.46,32.25,51.52,39.63,11.43,5.6,35.23,16.94,66.39,16.84,13.03-.04,31.15-4.32,67.38-12.88,33.1-7.82,34.28-9.5,43.6-8.92,35.19,2.19,59.13,28.61,60.11,29.72,12.47,14.16,7.51,18.62,20.15,29.72,17.02,14.96,42.4,21.27,44.59,21.8,7.83,1.88,12.51,2.06,19.82,5.95,8.93,4.75,11.18,9.38,19.16,11.89,7,2.2,12.58.93,18.5,0,2.61-.41,31.36-4.72,54.5,1.36,18.08,4.75,15.26,11.25,30.72,13.8,15.43,2.55,22.31-3.25,44.59-6.44,9.34-1.34,22.82-2.42,39.63-.79,5.71.76,13.99,1.32,23.78,0,5.91-.79,24.73-3.55,41.61-16.84,10.98-8.64,8.8-12.02,30.72-34.68,3.18-3.29,8.83-9.01,17.83-13.87,4.22-2.28,9.11-4.92,15.19-5.95,14.14-2.38,18.68,6.68,39.3,9.91,7.57,1.18,16.11,2.42,25.76-.99,9.37-3.31,14.93-9.29,21.8-16.84,4.76-5.24,13.74-15.29,19.82-30.72,5.06-12.84,5.42-28.55,5.95-59.45.47-27.51-.77-29.39,1.76-38.64,5.71-20.96,18.14-33.75,23.01-38.64,8.71-8.75,15.27-15.34,24.77-15.85,9.71-.53,13.62,5.78,29.72,14.86,12.45,7.02,24.7,13.94,39.63,14.86,20.67,1.28,37.55-9.47,47.56-15.85,7.8-4.97,13.12-9.92,23.78-19.82,13.99-12.99,20.98-19.49,23.78-25.76,8.4-18.82-6.06-29.18,0-48.55,5.28-16.88,21.42-25.53,36.66-33.69,9.63-5.16,36.57-19.58,65.39-11.89,22.04,5.88,19.31,17.79,41.61,26.75,38.35,15.42,82.99-5.09,93.48-9.91,19.06-8.76,22.85-15.45,41.28-19.82,19.77-4.68,37.47-2.2,49.54.73,10.9,3.25,32.88,7.96,57.47,0,27.12-8.78,43.1-28.32,49.54-36.4,15.91-19.97,11.27-27.5,23.78-36.66,22.11-16.18,55.96-6.84,66.39-3.96,34.06,9.4,46.48,28.94,63.41,21.8,8.57-3.61,13.46-12.02,16.84-17.83,6.7-11.51,5.45-19.06,8.92-36.87,4.23-21.72,7.86-19.59,11.89-39.42,6.2-30.56-2.61-34.66,4.95-46.9,8.55-13.85,20.18-9.17,46.57-30.39,10.6-8.52,15.9-12.78,19.82-19.82,8.13-14.6,3.15-24.01,10.9-49.54,4.1-13.5,5.37-10.47,7.93-20.81,3-12.12,1.32-16.59,0-51.52-.73-19.25-.41-22.85-2.97-30.07-3.71-10.44-7.39-11.39-11.89-22.44-1.39-3.41-7.5-18.44-4.95-33.69.56-3.37,1.43-6.06,2.55-8.39,6.74-14.07,15.77-22.88,18.94-25.96,11.75-11.39,10.66-29.93,11.47-58.13.61-21.23,2.4-51.29,7.66-89.83Z"/>
    <path id="gold" class="cls-5" d="M1875.13,2044.18c19.84,11.21,38.64,21.75,58.79,33.03,7.13,3.99,14.44,8.01,25.1,10.57,3.84.92,20.06,4.51,39.63,0,21.67-4.99,35.36-17.13,52.84-33.03,27.49-24.99,21.84-30.3,39.63-42.28,29.61-19.93,63.78-17.67,71.34-17.17,21.6,1.43,44.28,9.03,48.88,10.57,11.18,3.75,21.45,8.2,38.31,10.57,4.96.7,12.64,1.74,22.46,1.32,5.17-.22,21.57-1.29,39.63-9.25,27.13-11.95,44.96-33.69,54.17-44.92,10.54-12.85,11.69-17.61,19.82-21.14,10.35-4.5,18.49-1.13,44.92,5.28,14.82,3.6,33.62,8.16,52.51,10.57,19.48,2.48,32.42,4.13,46.57,1.32,9.5-1.89,35.31-8.92,59.45-42.28,11.17-6.01,25.58-13.91,42.28-23.45,11.76-6.72,27.86-15.94,48.55-28.73,12.13-7.5,27.29-17.13,44.59-28.73,16.81-11.27,28.78-22.49,36.66-30.75,13.72-14.39,24.05-29.27,27.74-34.64,9.82-14.27,10.82-18.3,19.82-28.73,7.6-8.82,14.26-16.38,25.76-21.8,5.99-2.82,16.07-7.57,27.74-5.3,9.63,1.87,10.93,6.69,18.83,7.28,10.69.8,19.39-7.2,25.76-13.21,14.54-13.72,21.36-30.25,24.77-41.31,5.85-18.98,5.88-36.09,5.94-70.32.04-23.68-1.28-25.3,1.56-31.05,8.9-17.99,28.32-15.19,44.02-37.32,1.56-2.2,8.26-11.94,10.9-25.76.79-4.12,3.11-18.53-9.91-52.51-4.97-12.96-16.77-40.78-26.75-67.38-1.72-4.57-4.89-13.38-.99-20.81,3.46-6.59,10.25-7.82,15.85-10.9,15.78-8.67,19.54-30.51,22.47-47.56,2.19-12.74,8.98-52.15-11.57-70.35-2.09-1.85-1.72-1.06-32.7-20.15-5.91-3.64-10.74-6.64-13.87-8.59-4.83-11.52-15.82-32.1-36.66-39.63-18.78-6.79-43.24-2.14-54.5,0-7.2,1.37-10.47,2.56-17.83,2.97-17.66.98-31.56-4.07-36.66-6.14-21.03-8.55-19.09-17.95-42.61-28.53-8.12-3.66-17.16-7.6-28.73-6.94-14.15.81-23.49,8.02-29.72,11.89-30.39,18.86-79.88,16.15-108.99-1.98-20.13-12.54-16.18-23.54-38.64-33.69-25.86-11.69-51.87-6.5-54.5-5.94-15.58,3.31-15.99,8.21-34.68,12.88-18.87,4.71-34.3,3.67-43.6,2.97-24.41-1.84-41.96-8.97-62.42-17.48-29.37-12.21-28.11-16.37-51.19-25.13-22.86-8.67-40.88-10.96-63.74-13.87-24.13-3.07-49.83-6.13-82.24,0-3.84.73-11.97,5.19-23.78,5.94-11.79.75-21.56-1.81-27.74-3.96-14.83-6.92-26.5-7.35-35.67-4.95-11.2,2.92-13.14,8.62-29.72,16.84-6.84,3.39-20.72,10.28-35.67,10.9-12.94.54-20.46-3.88-42.61-14.53-36.14-17.38-54.57-26.13-72.33-29.06-15.78-2.6-32.86-5.42-47.56,3.96-7.46,4.77-7.56,8.36-26.75,32.7-12.52,15.87-18.9,23.88-24.77,27.74-16.37,10.76-26.71,5.16-43.6,11.89-25.44,10.14-37.24,36.9-40.62,44.59-17.36,39.38,8.24,58.61-10.9,98.09-7.57,15.63-20.65,31.32-26.75,38.64-9.5,11.4-9.32,9.2-27.74,29.72-13.8,15.38-18.3,21.53-28.73,29.72-8.56,6.73-16.43,11.16-21.8,13.87-5.49,2.83-13.33,7.94-18.83,16.84-7.76,12.57-6.55,25.73-4.95,40.62,4.12,38.6,9.17,75.04,10.81,87.19,2.61,19.35,4.05,32.3,5.04,47.26,1.44,21.55,2.16,32.33.99,37.95-3.81,18.42-15.42,33.75-38.64,64.4-4.1,5.41-6.14,8.11-7.05,9.06-.24.25-1.16,1.2-2.14,2.66,0,0-.38.56-.72,1.16-16.84,29.59,27.74,107.01,27.74,107.01,20.49,35.58,27.53,36.89,33.69,59.45,4.83,17.7,5.33,34.6,5.94,55.49.76,25.93-1.64,32.38.47,56.48,1.81,20.67,2.72,31,8.45,42.61,10.39,21.05,28.15,31.6,36.66,36.66,22.43,13.33,43.96,15.18,63.41,16.84,18.47,1.58,21.4-3.22,35.67,0,15.92,3.59,19.51,9.79,38.64,13.87,7.26,1.55,16.79,3.59,28.73,1.98,13.18-1.77,17.72-6.41,34.68-12.88,7.48-2.85,18.75-6.58,33.36-9.25Z"/>
    <path id="summitview" class="cls-4" d="M1677.62,1709.28c-.49,2.65-.95,6.88,0,11.89.32,1.68,2.17,10.75,9.25,17.17,5.72,5.19,10.66,4.85,27.74,8.59,10.97,2.4,17.77,3.88,23.12,5.95,15.6,6.02,24.03,18.93,32.37,31.71,12.48,19.13,20.47,41.72,25.1,54.83,3.59,10.16,5.04,15.71,10.57,22.46,9.34,11.4,21.76,15.79,29.72,18.5,13.99,4.75,25.55,4.75,39.63,4.62,24.19-.22,22.64-4.61,37.65-2.64,17.48,2.29,34.47,10.2,40.95,13.21,7.58,3.53,6.26,3.55,9.25,4.62,20.64,7.45,44.81-7.53,85.87-33.69,4.52-2.88,11.52-7.43,21.8-12.55,13.35-6.65,22.1-10.92,33.69-11.89,6.02-.51,16.91-.47,30.39,5.28,3.55,1.19,8.77,2.75,15.19,3.96,8.58,1.62,15.69,1.93,21.8,1.98,24.18.18,39.38.3,57.47-5.94,11.04-3.81,18.92-8.78,34.68-18.7,13.67-8.61,24.46-16.8,32.04-22.95,9.64-7.3,24.84-16.44,44.26-17.8,16.22-1.14,19.99,4.23,46.24,8.9,19.6,3.48,43.61,7.5,70.68-.19,20.57-5.84,34.18-15.96,37.65-18.62,10.58-8.13,13.23-13.41,32.37-38.31,21.54-28.03,32.5-42.15,41.61-47.56,10.89-6.46,9.73-2.03,47.56-15.19,28.68-9.98,35.57-14.69,40.95-21.14,5.65-6.77,8.25-14.95,13.21-31.05,4.56-14.78,6.29-24.28,9.58-40.12,5.76-27.71,9.18-44.18,14.86-63.26,3.23-10.85,7.69-24.21,13.87-39.3,5.59-4,20.6-15.9,26.42-36.99,8.54-30.93-9.67-56.25-12.55-60.11-7.78-10.44-10.78-8.12-24.44-21.8-15.95-15.97-16.57-23.85-33.69-48.22-18.14-25.83-27.21-38.74-42.28-45.72-13.51-6.26-26.18-5.89-51.52-5.15-30.04.88-33.77,6.43-54.83,3.96-20.23-2.37-35.7-9.71-42.94-13.21-22.79-11.04-21.53-17.71-42.28-25.76-20.4-7.92-37.18-7.51-42.28-7.27-8.57.42-14.71,1.89-27.08,5.28-44.65,12.25-47.49,15.8-65.39,19.16-20.02,3.75-37.32,7-56.15,0-19.42-7.21-17.32-16.71-44.26-32.37-12.48-7.25-28.82-16.5-51.5-17.5-21.97-.97-38.18,6.31-41.63,7.93-8.86,4.14-15.44,9.09-19.82,12.88-7.08,3.26-17.95,7.63-31.71,10.57-29.57,6.32-38.09-1.29-56.15,5.94-22.77,9.12-34.87,31.49-39.63,40.29-9.84,18.19-6.21,25.13-19.16,46.24-6.14,10.02-11.99,19.33-23.12,26.42-9,5.74-12.48,4.31-37.65,10.57-.92.23-21.83,5.49-46.24,14.53-15.45,5.73-23.27,8.68-27.74,13.21-8.3,8.4-9.91,18.65-11.89,43.6-3.78,47.55-1.74,57.94-7.27,82.57-4.88,21.72-10.43,31.29-15.19,37.66-7.75,10.36-13.11,11.84-27.08,23.77-11.36,9.69-26.66,22.76-37.65,41.94-7.65,13.35-10.71,26.73-16.84,53.48-3.87,16.88-6.18,31.15-7.6,41.31Z"/>
    <path id="temple" class="cls-7" d="M1912.78,1649.84c5.73,3.7,14.18,8.39,25.1,11.89,5.6,1.79,21.85,6.82,41.61,4.62,23.37-2.6,26.93-12.54,65.39-23.78,11.18-3.27,16.77-4.9,23.12-5.28,4.66-.28,20.72-.8,54.83,14.81,21.63,9.89,19.84,12.24,29.06,14.81,10.16,2.83,18.71.83,62.75-14.87,32.65-11.64,35.46-13.49,46.24-14.83,18.43-2.29,20.4,1.86,41.61,0,18.27-1.6,35.54-3.11,49.54-15.1,12.92-11.07,16.72-25.63,19.82-37.48,7.95-30.43-.31-56.03-3.96-66.89-5.19-15.4-15.19-45.11-40.29-55.49-10.45-4.32-11.79-.44-21.14-5.28-26.71-13.85-32.11-54.01-32.37-56.15-1.81-14.84,1.79-17.87-2.64-27.08-4.79-9.95-15.68-20.3-25.1-25.76-2.04-1.18-7.49-4.15-13.1-9.92-1.57-1.61-3.71-3.82-5.39-6.59-5.12-8.45-1.6-15.95-2.64-22.46-2.59-16.14-32.59-24.03-41.7-26.42-18.86-4.96-33.31-2.88-53.42,0-32.62,4.68-39.84,13.77-41.98,16.84-3.83,5.48-5.12,11.31-5.58,15.52-8.33,15.6-17.8,24.46-25.1,29.72-7.31,5.27-11.61,6.32-15.85,12.55-6.43,9.45-1.89,14.9-6.61,29.06-.63,1.89-5.76,16.69-18.98,27.08-7.49,5.89-13.53,7.18-23.29,10.57-6.38,2.21-31,10.77-44.26,21.14-22.38,17.52-7.98,36.82-30.39,67.38-18.28,24.93-34.91,21.7-42.94,44.92-5.63,16.3-2.26,31.85,0,42.28,2.29,10.54,6.06,27.92,21.14,40.62,6.14,5.17,12.3,8.01,16.51,9.58Z"/>
  </g>
</svg>